G04 #@! TF.GenerationSoftware,KiCad,Pcbnew,(5.1.9)-1*
G04 #@! TF.CreationDate,2021-03-08T14:29:57+02:00*
G04 #@! TF.ProjectId,Voltlog ESP32 Relay Controller,566f6c74-6c6f-4672-9045-535033322052,rev?*
G04 #@! TF.SameCoordinates,Original*
G04 #@! TF.FileFunction,Copper,L1,Top*
G04 #@! TF.FilePolarity,Positive*
%FSLAX46Y46*%
G04 Gerber Fmt 4.6, Leading zero omitted, Abs format (unit mm)*
G04 Created by KiCad (PCBNEW (5.1.9)-1) date 2021-03-08 14:29:57*
%MOMM*%
%LPD*%
G01*
G04 APERTURE LIST*
G04 #@! TA.AperFunction,NonConductor*
%ADD10C,0.300000*%
G04 #@! TD*
G04 #@! TA.AperFunction,ComponentPad*
%ADD11C,1.800000*%
G04 #@! TD*
G04 #@! TA.AperFunction,SMDPad,CuDef*
%ADD12C,1.000000*%
G04 #@! TD*
G04 #@! TA.AperFunction,ComponentPad*
%ADD13C,2.000000*%
G04 #@! TD*
G04 #@! TA.AperFunction,SMDPad,CuDef*
%ADD14R,0.500000X0.800000*%
G04 #@! TD*
G04 #@! TA.AperFunction,SMDPad,CuDef*
%ADD15R,0.400000X0.800000*%
G04 #@! TD*
G04 #@! TA.AperFunction,ComponentPad*
%ADD16C,2.500000*%
G04 #@! TD*
G04 #@! TA.AperFunction,ComponentPad*
%ADD17R,2.500000X2.500000*%
G04 #@! TD*
G04 #@! TA.AperFunction,ComponentPad*
%ADD18C,3.000000*%
G04 #@! TD*
G04 #@! TA.AperFunction,SMDPad,CuDef*
%ADD19R,1.500000X2.000000*%
G04 #@! TD*
G04 #@! TA.AperFunction,SMDPad,CuDef*
%ADD20R,3.800000X2.000000*%
G04 #@! TD*
G04 #@! TA.AperFunction,SMDPad,CuDef*
%ADD21R,0.900000X2.000000*%
G04 #@! TD*
G04 #@! TA.AperFunction,SMDPad,CuDef*
%ADD22R,2.000000X0.900000*%
G04 #@! TD*
G04 #@! TA.AperFunction,SMDPad,CuDef*
%ADD23R,5.000000X5.000000*%
G04 #@! TD*
G04 #@! TA.AperFunction,SMDPad,CuDef*
%ADD24R,1.550000X1.300000*%
G04 #@! TD*
G04 #@! TA.AperFunction,ComponentPad*
%ADD25C,2.600000*%
G04 #@! TD*
G04 #@! TA.AperFunction,ComponentPad*
%ADD26R,2.600000X2.600000*%
G04 #@! TD*
G04 #@! TA.AperFunction,ComponentPad*
%ADD27O,1.700000X1.700000*%
G04 #@! TD*
G04 #@! TA.AperFunction,ComponentPad*
%ADD28R,1.700000X1.700000*%
G04 #@! TD*
G04 #@! TA.AperFunction,ComponentPad*
%ADD29C,2.100000*%
G04 #@! TD*
G04 #@! TA.AperFunction,ComponentPad*
%ADD30R,2.100000X2.100000*%
G04 #@! TD*
G04 #@! TA.AperFunction,SMDPad,CuDef*
%ADD31C,0.500000*%
G04 #@! TD*
G04 #@! TA.AperFunction,SMDPad,CuDef*
%ADD32R,2.300000X2.500000*%
G04 #@! TD*
G04 #@! TA.AperFunction,ViaPad*
%ADD33C,0.900000*%
G04 #@! TD*
G04 #@! TA.AperFunction,ViaPad*
%ADD34C,0.600000*%
G04 #@! TD*
G04 #@! TA.AperFunction,ViaPad*
%ADD35C,0.800000*%
G04 #@! TD*
G04 #@! TA.AperFunction,Conductor*
%ADD36C,0.600000*%
G04 #@! TD*
G04 #@! TA.AperFunction,Conductor*
%ADD37C,0.700000*%
G04 #@! TD*
G04 #@! TA.AperFunction,Conductor*
%ADD38C,0.300000*%
G04 #@! TD*
G04 #@! TA.AperFunction,Conductor*
%ADD39C,0.500000*%
G04 #@! TD*
G04 #@! TA.AperFunction,Conductor*
%ADD40C,1.000000*%
G04 #@! TD*
G04 #@! TA.AperFunction,Conductor*
%ADD41C,1.500000*%
G04 #@! TD*
G04 #@! TA.AperFunction,Conductor*
%ADD42C,4.000000*%
G04 #@! TD*
G04 #@! TA.AperFunction,Conductor*
%ADD43C,0.254000*%
G04 #@! TD*
G04 #@! TA.AperFunction,Conductor*
%ADD44C,0.100000*%
G04 #@! TD*
G04 APERTURE END LIST*
D10*
X48928571Y-142714285D02*
X48928571Y-143571428D01*
X48928571Y-143142857D02*
X47428571Y-143142857D01*
X47642857Y-143285714D01*
X47785714Y-143428571D01*
X47857142Y-143571428D01*
X47428571Y-141785714D02*
X47428571Y-141642857D01*
X47500000Y-141500000D01*
X47571428Y-141428571D01*
X47714285Y-141357142D01*
X48000000Y-141285714D01*
X48357142Y-141285714D01*
X48642857Y-141357142D01*
X48785714Y-141428571D01*
X48857142Y-141500000D01*
X48928571Y-141642857D01*
X48928571Y-141785714D01*
X48857142Y-141928571D01*
X48785714Y-142000000D01*
X48642857Y-142071428D01*
X48357142Y-142142857D01*
X48000000Y-142142857D01*
X47714285Y-142071428D01*
X47571428Y-142000000D01*
X47500000Y-141928571D01*
X47428571Y-141785714D01*
X47571428Y-140714285D02*
X47500000Y-140642857D01*
X47428571Y-140500000D01*
X47428571Y-140142857D01*
X47500000Y-140000000D01*
X47571428Y-139928571D01*
X47714285Y-139857142D01*
X47857142Y-139857142D01*
X48071428Y-139928571D01*
X48928571Y-140785714D01*
X48928571Y-139857142D01*
X48928571Y-138428571D02*
X48928571Y-139285714D01*
X48928571Y-138857142D02*
X47428571Y-138857142D01*
X47642857Y-139000000D01*
X47785714Y-139142857D01*
X47857142Y-139285714D01*
X46678571Y-142964285D02*
X45678571Y-142964285D01*
X45964285Y-142964285D02*
X45821428Y-142892857D01*
X45750000Y-142821428D01*
X45678571Y-142678571D01*
X45678571Y-142535714D01*
X46607142Y-141464285D02*
X46678571Y-141607142D01*
X46678571Y-141892857D01*
X46607142Y-142035714D01*
X46464285Y-142107142D01*
X45892857Y-142107142D01*
X45750000Y-142035714D01*
X45678571Y-141892857D01*
X45678571Y-141607142D01*
X45750000Y-141464285D01*
X45892857Y-141392857D01*
X46035714Y-141392857D01*
X46178571Y-142107142D01*
X45678571Y-140892857D02*
X46678571Y-140535714D01*
X45678571Y-140178571D01*
X46250000Y-139678571D02*
X46250000Y-138964285D01*
X46678571Y-139821428D02*
X45178571Y-139321428D01*
X46678571Y-138821428D01*
D11*
G04 #@! TO.P,RV1,2*
G04 #@! TO.N,/N*
X139500000Y-99700000D03*
G04 #@! TO.P,RV1,1*
G04 #@! TO.N,/L_FUSED*
X132000000Y-97500000D03*
G04 #@! TD*
D12*
G04 #@! TO.P,TP4,1*
G04 #@! TO.N,+3V3*
X96750000Y-75250000D03*
G04 #@! TD*
G04 #@! TO.P,TP3,1*
G04 #@! TO.N,GND*
X96750000Y-77750000D03*
G04 #@! TD*
G04 #@! TO.P,TP2,1*
G04 #@! TO.N,+5V*
X100000000Y-88000000D03*
G04 #@! TD*
G04 #@! TO.P,C1,2*
G04 #@! TO.N,GND*
G04 #@! TA.AperFunction,SMDPad,CuDef*
G36*
G01*
X52300000Y-93025000D02*
X52300000Y-93975000D01*
G75*
G02*
X52050000Y-94225000I-250000J0D01*
G01*
X51550000Y-94225000D01*
G75*
G02*
X51300000Y-93975000I0J250000D01*
G01*
X51300000Y-93025000D01*
G75*
G02*
X51550000Y-92775000I250000J0D01*
G01*
X52050000Y-92775000D01*
G75*
G02*
X52300000Y-93025000I0J-250000D01*
G01*
G37*
G04 #@! TD.AperFunction*
G04 #@! TO.P,C1,1*
G04 #@! TO.N,+3V3*
G04 #@! TA.AperFunction,SMDPad,CuDef*
G36*
G01*
X54200000Y-93025000D02*
X54200000Y-93975000D01*
G75*
G02*
X53950000Y-94225000I-250000J0D01*
G01*
X53450000Y-94225000D01*
G75*
G02*
X53200000Y-93975000I0J250000D01*
G01*
X53200000Y-93025000D01*
G75*
G02*
X53450000Y-92775000I250000J0D01*
G01*
X53950000Y-92775000D01*
G75*
G02*
X54200000Y-93025000I0J-250000D01*
G01*
G37*
G04 #@! TD.AperFunction*
G04 #@! TD*
G04 #@! TO.P,U3,8*
G04 #@! TO.N,+3V3*
G04 #@! TA.AperFunction,SMDPad,CuDef*
G36*
G01*
X67755000Y-66500000D02*
X68055000Y-66500000D01*
G75*
G02*
X68205000Y-66650000I0J-150000D01*
G01*
X68205000Y-68300000D01*
G75*
G02*
X68055000Y-68450000I-150000J0D01*
G01*
X67755000Y-68450000D01*
G75*
G02*
X67605000Y-68300000I0J150000D01*
G01*
X67605000Y-66650000D01*
G75*
G02*
X67755000Y-66500000I150000J0D01*
G01*
G37*
G04 #@! TD.AperFunction*
G04 #@! TO.P,U3,7*
G04 #@! TO.N,GND*
G04 #@! TA.AperFunction,SMDPad,CuDef*
G36*
G01*
X66485000Y-66500000D02*
X66785000Y-66500000D01*
G75*
G02*
X66935000Y-66650000I0J-150000D01*
G01*
X66935000Y-68300000D01*
G75*
G02*
X66785000Y-68450000I-150000J0D01*
G01*
X66485000Y-68450000D01*
G75*
G02*
X66335000Y-68300000I0J150000D01*
G01*
X66335000Y-66650000D01*
G75*
G02*
X66485000Y-66500000I150000J0D01*
G01*
G37*
G04 #@! TD.AperFunction*
G04 #@! TO.P,U3,6*
G04 #@! TO.N,/SCL*
G04 #@! TA.AperFunction,SMDPad,CuDef*
G36*
G01*
X65215000Y-66500000D02*
X65515000Y-66500000D01*
G75*
G02*
X65665000Y-66650000I0J-150000D01*
G01*
X65665000Y-68300000D01*
G75*
G02*
X65515000Y-68450000I-150000J0D01*
G01*
X65215000Y-68450000D01*
G75*
G02*
X65065000Y-68300000I0J150000D01*
G01*
X65065000Y-66650000D01*
G75*
G02*
X65215000Y-66500000I150000J0D01*
G01*
G37*
G04 #@! TD.AperFunction*
G04 #@! TO.P,U3,5*
G04 #@! TO.N,/SDA*
G04 #@! TA.AperFunction,SMDPad,CuDef*
G36*
G01*
X63945000Y-66500000D02*
X64245000Y-66500000D01*
G75*
G02*
X64395000Y-66650000I0J-150000D01*
G01*
X64395000Y-68300000D01*
G75*
G02*
X64245000Y-68450000I-150000J0D01*
G01*
X63945000Y-68450000D01*
G75*
G02*
X63795000Y-68300000I0J150000D01*
G01*
X63795000Y-66650000D01*
G75*
G02*
X63945000Y-66500000I150000J0D01*
G01*
G37*
G04 #@! TD.AperFunction*
G04 #@! TO.P,U3,4*
G04 #@! TO.N,GND*
G04 #@! TA.AperFunction,SMDPad,CuDef*
G36*
G01*
X63945000Y-61550000D02*
X64245000Y-61550000D01*
G75*
G02*
X64395000Y-61700000I0J-150000D01*
G01*
X64395000Y-63350000D01*
G75*
G02*
X64245000Y-63500000I-150000J0D01*
G01*
X63945000Y-63500000D01*
G75*
G02*
X63795000Y-63350000I0J150000D01*
G01*
X63795000Y-61700000D01*
G75*
G02*
X63945000Y-61550000I150000J0D01*
G01*
G37*
G04 #@! TD.AperFunction*
G04 #@! TO.P,U3,3*
G04 #@! TA.AperFunction,SMDPad,CuDef*
G36*
G01*
X65215000Y-61550000D02*
X65515000Y-61550000D01*
G75*
G02*
X65665000Y-61700000I0J-150000D01*
G01*
X65665000Y-63350000D01*
G75*
G02*
X65515000Y-63500000I-150000J0D01*
G01*
X65215000Y-63500000D01*
G75*
G02*
X65065000Y-63350000I0J150000D01*
G01*
X65065000Y-61700000D01*
G75*
G02*
X65215000Y-61550000I150000J0D01*
G01*
G37*
G04 #@! TD.AperFunction*
G04 #@! TO.P,U3,2*
G04 #@! TA.AperFunction,SMDPad,CuDef*
G36*
G01*
X66485000Y-61550000D02*
X66785000Y-61550000D01*
G75*
G02*
X66935000Y-61700000I0J-150000D01*
G01*
X66935000Y-63350000D01*
G75*
G02*
X66785000Y-63500000I-150000J0D01*
G01*
X66485000Y-63500000D01*
G75*
G02*
X66335000Y-63350000I0J150000D01*
G01*
X66335000Y-61700000D01*
G75*
G02*
X66485000Y-61550000I150000J0D01*
G01*
G37*
G04 #@! TD.AperFunction*
G04 #@! TO.P,U3,1*
G04 #@! TA.AperFunction,SMDPad,CuDef*
G36*
G01*
X67755000Y-61550000D02*
X68055000Y-61550000D01*
G75*
G02*
X68205000Y-61700000I0J-150000D01*
G01*
X68205000Y-63350000D01*
G75*
G02*
X68055000Y-63500000I-150000J0D01*
G01*
X67755000Y-63500000D01*
G75*
G02*
X67605000Y-63350000I0J150000D01*
G01*
X67605000Y-61700000D01*
G75*
G02*
X67755000Y-61550000I150000J0D01*
G01*
G37*
G04 #@! TD.AperFunction*
G04 #@! TD*
G04 #@! TO.P,C17,2*
G04 #@! TO.N,GND*
G04 #@! TA.AperFunction,SMDPad,CuDef*
G36*
G01*
X70475000Y-66550000D02*
X69525000Y-66550000D01*
G75*
G02*
X69275000Y-66300000I0J250000D01*
G01*
X69275000Y-65800000D01*
G75*
G02*
X69525000Y-65550000I250000J0D01*
G01*
X70475000Y-65550000D01*
G75*
G02*
X70725000Y-65800000I0J-250000D01*
G01*
X70725000Y-66300000D01*
G75*
G02*
X70475000Y-66550000I-250000J0D01*
G01*
G37*
G04 #@! TD.AperFunction*
G04 #@! TO.P,C17,1*
G04 #@! TO.N,+3V3*
G04 #@! TA.AperFunction,SMDPad,CuDef*
G36*
G01*
X70475000Y-68450000D02*
X69525000Y-68450000D01*
G75*
G02*
X69275000Y-68200000I0J250000D01*
G01*
X69275000Y-67700000D01*
G75*
G02*
X69525000Y-67450000I250000J0D01*
G01*
X70475000Y-67450000D01*
G75*
G02*
X70725000Y-67700000I0J-250000D01*
G01*
X70725000Y-68200000D01*
G75*
G02*
X70475000Y-68450000I-250000J0D01*
G01*
G37*
G04 #@! TD.AperFunction*
G04 #@! TD*
D13*
G04 #@! TO.P,PS1,6*
G04 #@! TO.N,N/C*
X116000000Y-77500000D03*
G04 #@! TO.P,PS1,5*
X116000000Y-73500000D03*
G04 #@! TO.P,PS1,7*
X116000000Y-81500000D03*
G04 #@! TO.P,PS1,4*
G04 #@! TO.N,GND*
X116000000Y-69500000D03*
G04 #@! TO.P,PS1,8*
G04 #@! TO.N,+5V*
X116000000Y-85500000D03*
G04 #@! TO.P,PS1,3*
G04 #@! TO.N,Net-(PS1-Pad3)*
X156500000Y-65500000D03*
G04 #@! TO.P,PS1,2*
G04 #@! TO.N,/N*
X156500000Y-77500000D03*
G04 #@! TO.P,PS1,1*
G04 #@! TO.N,/L_FUSED*
X156500000Y-89500000D03*
G04 #@! TD*
D14*
G04 #@! TO.P,RN3,5*
G04 #@! TO.N,Net-(D6-Pad1)*
X92200000Y-97600000D03*
D15*
G04 #@! TO.P,RN3,6*
G04 #@! TO.N,Net-(D5-Pad1)*
X91400000Y-97600000D03*
D14*
G04 #@! TO.P,RN3,8*
G04 #@! TO.N,Net-(D3-Pad1)*
X89800000Y-97600000D03*
D15*
G04 #@! TO.P,RN3,7*
G04 #@! TO.N,Net-(D4-Pad1)*
X90600000Y-97600000D03*
D14*
G04 #@! TO.P,RN3,4*
G04 #@! TO.N,/Relay/O4*
X92200000Y-99400000D03*
D15*
G04 #@! TO.P,RN3,2*
G04 #@! TO.N,/Relay/O2*
X90600000Y-99400000D03*
G04 #@! TO.P,RN3,3*
G04 #@! TO.N,/Relay/O3*
X91400000Y-99400000D03*
D14*
G04 #@! TO.P,RN3,1*
G04 #@! TO.N,/Relay/O1*
X89800000Y-99400000D03*
G04 #@! TD*
G04 #@! TO.P,RN1,5*
G04 #@! TO.N,/Relay/I4*
X98300000Y-94650000D03*
D15*
G04 #@! TO.P,RN1,6*
G04 #@! TO.N,/Relay/I3*
X99100000Y-94650000D03*
D14*
G04 #@! TO.P,RN1,8*
G04 #@! TO.N,/Relay/I1*
X100700000Y-94650000D03*
D15*
G04 #@! TO.P,RN1,7*
G04 #@! TO.N,/Relay/I2*
X99900000Y-94650000D03*
D14*
G04 #@! TO.P,RN1,4*
G04 #@! TO.N,/IO13*
X98300000Y-92850000D03*
D15*
G04 #@! TO.P,RN1,2*
G04 #@! TO.N,/IO27*
X99900000Y-92850000D03*
G04 #@! TO.P,RN1,3*
G04 #@! TO.N,/IO26*
X99100000Y-92850000D03*
D14*
G04 #@! TO.P,RN1,1*
G04 #@! TO.N,/IO4*
X100700000Y-92850000D03*
G04 #@! TD*
D16*
G04 #@! TO.P,J1,2*
G04 #@! TO.N,Net-(F1-Pad2)*
X148000000Y-105080000D03*
D17*
G04 #@! TO.P,J1,1*
G04 #@! TO.N,/N*
X148000000Y-100000000D03*
G04 #@! TD*
D18*
G04 #@! TO.P,K4,11*
G04 #@! TO.N,Net-(F5-Pad2)*
X58000000Y-112000000D03*
G04 #@! TO.P,K4,A2*
G04 #@! TO.N,/Relay/O4*
X64000000Y-114000000D03*
G04 #@! TO.P,K4,12*
G04 #@! TO.N,Net-(J11-Pad1)*
X64000000Y-126200000D03*
G04 #@! TO.P,K4,14*
G04 #@! TO.N,Net-(J11-Pad3)*
X52000000Y-126200000D03*
G04 #@! TO.P,K4,A1*
G04 #@! TO.N,+5V*
X52000000Y-114000000D03*
G04 #@! TD*
G04 #@! TO.P,K3,11*
G04 #@! TO.N,Net-(F4-Pad2)*
X86000000Y-112000000D03*
G04 #@! TO.P,K3,A2*
G04 #@! TO.N,/Relay/O3*
X92000000Y-114000000D03*
G04 #@! TO.P,K3,12*
G04 #@! TO.N,Net-(J10-Pad1)*
X92000000Y-126200000D03*
G04 #@! TO.P,K3,14*
G04 #@! TO.N,Net-(J10-Pad3)*
X80000000Y-126200000D03*
G04 #@! TO.P,K3,A1*
G04 #@! TO.N,+5V*
X80000000Y-114000000D03*
G04 #@! TD*
G04 #@! TO.P,K2,11*
G04 #@! TO.N,Net-(F3-Pad2)*
X114000000Y-112000000D03*
G04 #@! TO.P,K2,A2*
G04 #@! TO.N,/Relay/O2*
X120000000Y-114000000D03*
G04 #@! TO.P,K2,12*
G04 #@! TO.N,Net-(J9-Pad1)*
X120000000Y-126200000D03*
G04 #@! TO.P,K2,14*
G04 #@! TO.N,Net-(J9-Pad3)*
X108000000Y-126200000D03*
G04 #@! TO.P,K2,A1*
G04 #@! TO.N,+5V*
X108000000Y-114000000D03*
G04 #@! TD*
G04 #@! TO.P,K1,11*
G04 #@! TO.N,Net-(F2-Pad2)*
X142000000Y-112000000D03*
G04 #@! TO.P,K1,A2*
G04 #@! TO.N,/Relay/O1*
X148000000Y-114000000D03*
G04 #@! TO.P,K1,12*
G04 #@! TO.N,Net-(J8-Pad1)*
X148000000Y-126200000D03*
G04 #@! TO.P,K1,14*
G04 #@! TO.N,Net-(J8-Pad3)*
X136000000Y-126200000D03*
G04 #@! TO.P,K1,A1*
G04 #@! TO.N,+5V*
X136000000Y-114000000D03*
G04 #@! TD*
G04 #@! TO.P,U4,16*
G04 #@! TO.N,/Relay/O1*
G04 #@! TA.AperFunction,SMDPad,CuDef*
G36*
G01*
X103795000Y-102200000D02*
X104095000Y-102200000D01*
G75*
G02*
X104245000Y-102350000I0J-150000D01*
G01*
X104245000Y-103800000D01*
G75*
G02*
X104095000Y-103950000I-150000J0D01*
G01*
X103795000Y-103950000D01*
G75*
G02*
X103645000Y-103800000I0J150000D01*
G01*
X103645000Y-102350000D01*
G75*
G02*
X103795000Y-102200000I150000J0D01*
G01*
G37*
G04 #@! TD.AperFunction*
G04 #@! TO.P,U4,15*
G04 #@! TA.AperFunction,SMDPad,CuDef*
G36*
G01*
X102525000Y-102200000D02*
X102825000Y-102200000D01*
G75*
G02*
X102975000Y-102350000I0J-150000D01*
G01*
X102975000Y-103800000D01*
G75*
G02*
X102825000Y-103950000I-150000J0D01*
G01*
X102525000Y-103950000D01*
G75*
G02*
X102375000Y-103800000I0J150000D01*
G01*
X102375000Y-102350000D01*
G75*
G02*
X102525000Y-102200000I150000J0D01*
G01*
G37*
G04 #@! TD.AperFunction*
G04 #@! TO.P,U4,14*
G04 #@! TO.N,/Relay/O2*
G04 #@! TA.AperFunction,SMDPad,CuDef*
G36*
G01*
X101255000Y-102200000D02*
X101555000Y-102200000D01*
G75*
G02*
X101705000Y-102350000I0J-150000D01*
G01*
X101705000Y-103800000D01*
G75*
G02*
X101555000Y-103950000I-150000J0D01*
G01*
X101255000Y-103950000D01*
G75*
G02*
X101105000Y-103800000I0J150000D01*
G01*
X101105000Y-102350000D01*
G75*
G02*
X101255000Y-102200000I150000J0D01*
G01*
G37*
G04 #@! TD.AperFunction*
G04 #@! TO.P,U4,13*
G04 #@! TA.AperFunction,SMDPad,CuDef*
G36*
G01*
X99985000Y-102200000D02*
X100285000Y-102200000D01*
G75*
G02*
X100435000Y-102350000I0J-150000D01*
G01*
X100435000Y-103800000D01*
G75*
G02*
X100285000Y-103950000I-150000J0D01*
G01*
X99985000Y-103950000D01*
G75*
G02*
X99835000Y-103800000I0J150000D01*
G01*
X99835000Y-102350000D01*
G75*
G02*
X99985000Y-102200000I150000J0D01*
G01*
G37*
G04 #@! TD.AperFunction*
G04 #@! TO.P,U4,12*
G04 #@! TO.N,/Relay/O3*
G04 #@! TA.AperFunction,SMDPad,CuDef*
G36*
G01*
X98715000Y-102200000D02*
X99015000Y-102200000D01*
G75*
G02*
X99165000Y-102350000I0J-150000D01*
G01*
X99165000Y-103800000D01*
G75*
G02*
X99015000Y-103950000I-150000J0D01*
G01*
X98715000Y-103950000D01*
G75*
G02*
X98565000Y-103800000I0J150000D01*
G01*
X98565000Y-102350000D01*
G75*
G02*
X98715000Y-102200000I150000J0D01*
G01*
G37*
G04 #@! TD.AperFunction*
G04 #@! TO.P,U4,11*
G04 #@! TA.AperFunction,SMDPad,CuDef*
G36*
G01*
X97445000Y-102200000D02*
X97745000Y-102200000D01*
G75*
G02*
X97895000Y-102350000I0J-150000D01*
G01*
X97895000Y-103800000D01*
G75*
G02*
X97745000Y-103950000I-150000J0D01*
G01*
X97445000Y-103950000D01*
G75*
G02*
X97295000Y-103800000I0J150000D01*
G01*
X97295000Y-102350000D01*
G75*
G02*
X97445000Y-102200000I150000J0D01*
G01*
G37*
G04 #@! TD.AperFunction*
G04 #@! TO.P,U4,10*
G04 #@! TO.N,/Relay/O4*
G04 #@! TA.AperFunction,SMDPad,CuDef*
G36*
G01*
X96175000Y-102200000D02*
X96475000Y-102200000D01*
G75*
G02*
X96625000Y-102350000I0J-150000D01*
G01*
X96625000Y-103800000D01*
G75*
G02*
X96475000Y-103950000I-150000J0D01*
G01*
X96175000Y-103950000D01*
G75*
G02*
X96025000Y-103800000I0J150000D01*
G01*
X96025000Y-102350000D01*
G75*
G02*
X96175000Y-102200000I150000J0D01*
G01*
G37*
G04 #@! TD.AperFunction*
G04 #@! TO.P,U4,9*
G04 #@! TO.N,+5V*
G04 #@! TA.AperFunction,SMDPad,CuDef*
G36*
G01*
X94905000Y-102200000D02*
X95205000Y-102200000D01*
G75*
G02*
X95355000Y-102350000I0J-150000D01*
G01*
X95355000Y-103800000D01*
G75*
G02*
X95205000Y-103950000I-150000J0D01*
G01*
X94905000Y-103950000D01*
G75*
G02*
X94755000Y-103800000I0J150000D01*
G01*
X94755000Y-102350000D01*
G75*
G02*
X94905000Y-102200000I150000J0D01*
G01*
G37*
G04 #@! TD.AperFunction*
G04 #@! TO.P,U4,8*
G04 #@! TO.N,GND*
G04 #@! TA.AperFunction,SMDPad,CuDef*
G36*
G01*
X94905000Y-97050000D02*
X95205000Y-97050000D01*
G75*
G02*
X95355000Y-97200000I0J-150000D01*
G01*
X95355000Y-98650000D01*
G75*
G02*
X95205000Y-98800000I-150000J0D01*
G01*
X94905000Y-98800000D01*
G75*
G02*
X94755000Y-98650000I0J150000D01*
G01*
X94755000Y-97200000D01*
G75*
G02*
X94905000Y-97050000I150000J0D01*
G01*
G37*
G04 #@! TD.AperFunction*
G04 #@! TO.P,U4,7*
G04 #@! TO.N,/Relay/I4*
G04 #@! TA.AperFunction,SMDPad,CuDef*
G36*
G01*
X96175000Y-97050000D02*
X96475000Y-97050000D01*
G75*
G02*
X96625000Y-97200000I0J-150000D01*
G01*
X96625000Y-98650000D01*
G75*
G02*
X96475000Y-98800000I-150000J0D01*
G01*
X96175000Y-98800000D01*
G75*
G02*
X96025000Y-98650000I0J150000D01*
G01*
X96025000Y-97200000D01*
G75*
G02*
X96175000Y-97050000I150000J0D01*
G01*
G37*
G04 #@! TD.AperFunction*
G04 #@! TO.P,U4,6*
G04 #@! TO.N,/Relay/I3*
G04 #@! TA.AperFunction,SMDPad,CuDef*
G36*
G01*
X97445000Y-97050000D02*
X97745000Y-97050000D01*
G75*
G02*
X97895000Y-97200000I0J-150000D01*
G01*
X97895000Y-98650000D01*
G75*
G02*
X97745000Y-98800000I-150000J0D01*
G01*
X97445000Y-98800000D01*
G75*
G02*
X97295000Y-98650000I0J150000D01*
G01*
X97295000Y-97200000D01*
G75*
G02*
X97445000Y-97050000I150000J0D01*
G01*
G37*
G04 #@! TD.AperFunction*
G04 #@! TO.P,U4,5*
G04 #@! TA.AperFunction,SMDPad,CuDef*
G36*
G01*
X98715000Y-97050000D02*
X99015000Y-97050000D01*
G75*
G02*
X99165000Y-97200000I0J-150000D01*
G01*
X99165000Y-98650000D01*
G75*
G02*
X99015000Y-98800000I-150000J0D01*
G01*
X98715000Y-98800000D01*
G75*
G02*
X98565000Y-98650000I0J150000D01*
G01*
X98565000Y-97200000D01*
G75*
G02*
X98715000Y-97050000I150000J0D01*
G01*
G37*
G04 #@! TD.AperFunction*
G04 #@! TO.P,U4,4*
G04 #@! TO.N,/Relay/I2*
G04 #@! TA.AperFunction,SMDPad,CuDef*
G36*
G01*
X99985000Y-97050000D02*
X100285000Y-97050000D01*
G75*
G02*
X100435000Y-97200000I0J-150000D01*
G01*
X100435000Y-98650000D01*
G75*
G02*
X100285000Y-98800000I-150000J0D01*
G01*
X99985000Y-98800000D01*
G75*
G02*
X99835000Y-98650000I0J150000D01*
G01*
X99835000Y-97200000D01*
G75*
G02*
X99985000Y-97050000I150000J0D01*
G01*
G37*
G04 #@! TD.AperFunction*
G04 #@! TO.P,U4,3*
G04 #@! TA.AperFunction,SMDPad,CuDef*
G36*
G01*
X101255000Y-97050000D02*
X101555000Y-97050000D01*
G75*
G02*
X101705000Y-97200000I0J-150000D01*
G01*
X101705000Y-98650000D01*
G75*
G02*
X101555000Y-98800000I-150000J0D01*
G01*
X101255000Y-98800000D01*
G75*
G02*
X101105000Y-98650000I0J150000D01*
G01*
X101105000Y-97200000D01*
G75*
G02*
X101255000Y-97050000I150000J0D01*
G01*
G37*
G04 #@! TD.AperFunction*
G04 #@! TO.P,U4,2*
G04 #@! TO.N,/Relay/I1*
G04 #@! TA.AperFunction,SMDPad,CuDef*
G36*
G01*
X102525000Y-97050000D02*
X102825000Y-97050000D01*
G75*
G02*
X102975000Y-97200000I0J-150000D01*
G01*
X102975000Y-98650000D01*
G75*
G02*
X102825000Y-98800000I-150000J0D01*
G01*
X102525000Y-98800000D01*
G75*
G02*
X102375000Y-98650000I0J150000D01*
G01*
X102375000Y-97200000D01*
G75*
G02*
X102525000Y-97050000I150000J0D01*
G01*
G37*
G04 #@! TD.AperFunction*
G04 #@! TO.P,U4,1*
G04 #@! TA.AperFunction,SMDPad,CuDef*
G36*
G01*
X103795000Y-97050000D02*
X104095000Y-97050000D01*
G75*
G02*
X104245000Y-97200000I0J-150000D01*
G01*
X104245000Y-98650000D01*
G75*
G02*
X104095000Y-98800000I-150000J0D01*
G01*
X103795000Y-98800000D01*
G75*
G02*
X103645000Y-98650000I0J150000D01*
G01*
X103645000Y-97200000D01*
G75*
G02*
X103795000Y-97050000I150000J0D01*
G01*
G37*
G04 #@! TD.AperFunction*
G04 #@! TD*
D19*
G04 #@! TO.P,U2,1*
G04 #@! TO.N,GND*
X104950000Y-78150000D03*
G04 #@! TO.P,U2,3*
G04 #@! TO.N,+5V*
X109550000Y-78150000D03*
G04 #@! TO.P,U2,2*
G04 #@! TO.N,+3V3*
X107250000Y-78150000D03*
D20*
X107250000Y-71850000D03*
G04 #@! TD*
D21*
G04 #@! TO.P,U1,38*
G04 #@! TO.N,GND*
X52245000Y-74000000D03*
G04 #@! TO.P,U1,37*
G04 #@! TO.N,/IO23*
X53515000Y-74000000D03*
G04 #@! TO.P,U1,36*
G04 #@! TO.N,/SCL*
X54785000Y-74000000D03*
G04 #@! TO.P,U1,35*
G04 #@! TO.N,/TX*
X56055000Y-74000000D03*
G04 #@! TO.P,U1,34*
G04 #@! TO.N,/RX*
X57325000Y-74000000D03*
G04 #@! TO.P,U1,33*
G04 #@! TO.N,/SDA*
X58595000Y-74000000D03*
G04 #@! TO.P,U1,32*
G04 #@! TO.N,Net-(U1-Pad32)*
X59865000Y-74000000D03*
G04 #@! TO.P,U1,31*
G04 #@! TO.N,/IO19*
X61135000Y-74000000D03*
G04 #@! TO.P,U1,30*
G04 #@! TO.N,/IO18*
X62405000Y-74000000D03*
G04 #@! TO.P,U1,29*
G04 #@! TO.N,/IO5*
X63675000Y-74000000D03*
G04 #@! TO.P,U1,28*
G04 #@! TO.N,/IO17*
X64945000Y-74000000D03*
G04 #@! TO.P,U1,27*
G04 #@! TO.N,/IO16*
X66215000Y-74000000D03*
G04 #@! TO.P,U1,26*
G04 #@! TO.N,/IO4*
X67485000Y-74000000D03*
G04 #@! TO.P,U1,25*
G04 #@! TO.N,/IO0*
X68755000Y-74000000D03*
D22*
G04 #@! TO.P,U1,24*
G04 #@! TO.N,/IO2*
X69755000Y-76785000D03*
G04 #@! TO.P,U1,23*
G04 #@! TO.N,Net-(U1-Pad23)*
X69755000Y-78055000D03*
G04 #@! TO.P,U1,22*
G04 #@! TO.N,Net-(U1-Pad22)*
X69755000Y-79325000D03*
G04 #@! TO.P,U1,21*
G04 #@! TO.N,Net-(U1-Pad21)*
X69755000Y-80595000D03*
G04 #@! TO.P,U1,20*
G04 #@! TO.N,Net-(U1-Pad20)*
X69755000Y-81865000D03*
G04 #@! TO.P,U1,19*
G04 #@! TO.N,Net-(U1-Pad19)*
X69755000Y-83135000D03*
G04 #@! TO.P,U1,18*
G04 #@! TO.N,Net-(U1-Pad18)*
X69755000Y-84405000D03*
G04 #@! TO.P,U1,17*
G04 #@! TO.N,Net-(U1-Pad17)*
X69755000Y-85675000D03*
G04 #@! TO.P,U1,16*
G04 #@! TO.N,/IO13*
X69755000Y-86945000D03*
G04 #@! TO.P,U1,15*
G04 #@! TO.N,GND*
X69755000Y-88215000D03*
D21*
G04 #@! TO.P,U1,14*
G04 #@! TO.N,Net-(U1-Pad14)*
X68755000Y-91000000D03*
G04 #@! TO.P,U1,13*
G04 #@! TO.N,Net-(U1-Pad13)*
X67485000Y-91000000D03*
G04 #@! TO.P,U1,12*
G04 #@! TO.N,/IO27*
X66215000Y-91000000D03*
G04 #@! TO.P,U1,11*
G04 #@! TO.N,/IO26*
X64945000Y-91000000D03*
G04 #@! TO.P,U1,10*
G04 #@! TO.N,/IO25*
X63675000Y-91000000D03*
G04 #@! TO.P,U1,9*
G04 #@! TO.N,/ADC1_CH5*
X62405000Y-91000000D03*
G04 #@! TO.P,U1,8*
G04 #@! TO.N,/ADC1_CH4*
X61135000Y-91000000D03*
G04 #@! TO.P,U1,7*
G04 #@! TO.N,/ADC1_CH7*
X59865000Y-91000000D03*
G04 #@! TO.P,U1,6*
G04 #@! TO.N,/ADC1_CH6*
X58595000Y-91000000D03*
G04 #@! TO.P,U1,5*
G04 #@! TO.N,Net-(U1-Pad5)*
X57325000Y-91000000D03*
G04 #@! TO.P,U1,4*
G04 #@! TO.N,Net-(U1-Pad4)*
X56055000Y-91000000D03*
G04 #@! TO.P,U1,3*
G04 #@! TO.N,/EN*
X54785000Y-91000000D03*
G04 #@! TO.P,U1,2*
G04 #@! TO.N,+3V3*
X53515000Y-91000000D03*
G04 #@! TO.P,U1,1*
G04 #@! TO.N,GND*
X52245000Y-91000000D03*
D23*
G04 #@! TO.P,U1,39*
X59745000Y-83500000D03*
G04 #@! TD*
D24*
G04 #@! TO.P,SW1,2*
G04 #@! TO.N,GND*
X74020000Y-87000000D03*
G04 #@! TO.P,SW1,1*
G04 #@! TO.N,/IO25*
X74020000Y-91500000D03*
X81980000Y-91500000D03*
G04 #@! TO.P,SW1,2*
G04 #@! TO.N,GND*
X81980000Y-87000000D03*
G04 #@! TD*
G04 #@! TO.P,R7,2*
G04 #@! TO.N,GND*
G04 #@! TA.AperFunction,SMDPad,CuDef*
G36*
G01*
X97450001Y-80600000D02*
X96549999Y-80600000D01*
G75*
G02*
X96300000Y-80350001I0J249999D01*
G01*
X96300000Y-79824999D01*
G75*
G02*
X96549999Y-79575000I249999J0D01*
G01*
X97450001Y-79575000D01*
G75*
G02*
X97700000Y-79824999I0J-249999D01*
G01*
X97700000Y-80350001D01*
G75*
G02*
X97450001Y-80600000I-249999J0D01*
G01*
G37*
G04 #@! TD.AperFunction*
G04 #@! TO.P,R7,1*
G04 #@! TO.N,Net-(D2-Pad1)*
G04 #@! TA.AperFunction,SMDPad,CuDef*
G36*
G01*
X97450001Y-82425000D02*
X96549999Y-82425000D01*
G75*
G02*
X96300000Y-82175001I0J249999D01*
G01*
X96300000Y-81649999D01*
G75*
G02*
X96549999Y-81400000I249999J0D01*
G01*
X97450001Y-81400000D01*
G75*
G02*
X97700000Y-81649999I0J-249999D01*
G01*
X97700000Y-82175001D01*
G75*
G02*
X97450001Y-82425000I-249999J0D01*
G01*
G37*
G04 #@! TD.AperFunction*
G04 #@! TD*
G04 #@! TO.P,R6,2*
G04 #@! TO.N,/IO25*
G04 #@! TA.AperFunction,SMDPad,CuDef*
G36*
G01*
X86049999Y-87900000D02*
X86950001Y-87900000D01*
G75*
G02*
X87200000Y-88149999I0J-249999D01*
G01*
X87200000Y-88675001D01*
G75*
G02*
X86950001Y-88925000I-249999J0D01*
G01*
X86049999Y-88925000D01*
G75*
G02*
X85800000Y-88675001I0J249999D01*
G01*
X85800000Y-88149999D01*
G75*
G02*
X86049999Y-87900000I249999J0D01*
G01*
G37*
G04 #@! TD.AperFunction*
G04 #@! TO.P,R6,1*
G04 #@! TO.N,+3V3*
G04 #@! TA.AperFunction,SMDPad,CuDef*
G36*
G01*
X86049999Y-86075000D02*
X86950001Y-86075000D01*
G75*
G02*
X87200000Y-86324999I0J-249999D01*
G01*
X87200000Y-86850001D01*
G75*
G02*
X86950001Y-87100000I-249999J0D01*
G01*
X86049999Y-87100000D01*
G75*
G02*
X85800000Y-86850001I0J249999D01*
G01*
X85800000Y-86324999D01*
G75*
G02*
X86049999Y-86075000I249999J0D01*
G01*
G37*
G04 #@! TD.AperFunction*
G04 #@! TD*
G04 #@! TO.P,R5,2*
G04 #@! TO.N,/IO17*
G04 #@! TA.AperFunction,SMDPad,CuDef*
G36*
G01*
X78100000Y-70799999D02*
X78100000Y-71700001D01*
G75*
G02*
X77850001Y-71950000I-249999J0D01*
G01*
X77324999Y-71950000D01*
G75*
G02*
X77075000Y-71700001I0J249999D01*
G01*
X77075000Y-70799999D01*
G75*
G02*
X77324999Y-70550000I249999J0D01*
G01*
X77850001Y-70550000D01*
G75*
G02*
X78100000Y-70799999I0J-249999D01*
G01*
G37*
G04 #@! TD.AperFunction*
G04 #@! TO.P,R5,1*
G04 #@! TO.N,+3V3*
G04 #@! TA.AperFunction,SMDPad,CuDef*
G36*
G01*
X79925000Y-70799999D02*
X79925000Y-71700001D01*
G75*
G02*
X79675001Y-71950000I-249999J0D01*
G01*
X79149999Y-71950000D01*
G75*
G02*
X78900000Y-71700001I0J249999D01*
G01*
X78900000Y-70799999D01*
G75*
G02*
X79149999Y-70550000I249999J0D01*
G01*
X79675001Y-70550000D01*
G75*
G02*
X79925000Y-70799999I0J-249999D01*
G01*
G37*
G04 #@! TD.AperFunction*
G04 #@! TD*
G04 #@! TO.P,R4,2*
G04 #@! TO.N,/IO16*
G04 #@! TA.AperFunction,SMDPad,CuDef*
G36*
G01*
X94437500Y-70799999D02*
X94437500Y-71700001D01*
G75*
G02*
X94187501Y-71950000I-249999J0D01*
G01*
X93662499Y-71950000D01*
G75*
G02*
X93412500Y-71700001I0J249999D01*
G01*
X93412500Y-70799999D01*
G75*
G02*
X93662499Y-70550000I249999J0D01*
G01*
X94187501Y-70550000D01*
G75*
G02*
X94437500Y-70799999I0J-249999D01*
G01*
G37*
G04 #@! TD.AperFunction*
G04 #@! TO.P,R4,1*
G04 #@! TO.N,+3V3*
G04 #@! TA.AperFunction,SMDPad,CuDef*
G36*
G01*
X96262500Y-70800100D02*
X96262500Y-71699900D01*
G75*
G02*
X96012400Y-71950000I-250100J0D01*
G01*
X95487600Y-71950000D01*
G75*
G02*
X95237500Y-71699900I0J250100D01*
G01*
X95237500Y-70800100D01*
G75*
G02*
X95487600Y-70550000I250100J0D01*
G01*
X96012400Y-70550000D01*
G75*
G02*
X96262500Y-70800100I0J-250100D01*
G01*
G37*
G04 #@! TD.AperFunction*
G04 #@! TD*
G04 #@! TO.P,R3,2*
G04 #@! TO.N,/SCL*
G04 #@! TA.AperFunction,SMDPad,CuDef*
G36*
G01*
X89100000Y-73299999D02*
X89100000Y-74200001D01*
G75*
G02*
X88850001Y-74450000I-249999J0D01*
G01*
X88324999Y-74450000D01*
G75*
G02*
X88075000Y-74200001I0J249999D01*
G01*
X88075000Y-73299999D01*
G75*
G02*
X88324999Y-73050000I249999J0D01*
G01*
X88850001Y-73050000D01*
G75*
G02*
X89100000Y-73299999I0J-249999D01*
G01*
G37*
G04 #@! TD.AperFunction*
G04 #@! TO.P,R3,1*
G04 #@! TO.N,+3V3*
G04 #@! TA.AperFunction,SMDPad,CuDef*
G36*
G01*
X90925000Y-73299999D02*
X90925000Y-74200001D01*
G75*
G02*
X90675001Y-74450000I-249999J0D01*
G01*
X90149999Y-74450000D01*
G75*
G02*
X89900000Y-74200001I0J249999D01*
G01*
X89900000Y-73299999D01*
G75*
G02*
X90149999Y-73050000I249999J0D01*
G01*
X90675001Y-73050000D01*
G75*
G02*
X90925000Y-73299999I0J-249999D01*
G01*
G37*
G04 #@! TD.AperFunction*
G04 #@! TD*
G04 #@! TO.P,R2,2*
G04 #@! TO.N,/SDA*
G04 #@! TA.AperFunction,SMDPad,CuDef*
G36*
G01*
X89100000Y-71299999D02*
X89100000Y-72200001D01*
G75*
G02*
X88850001Y-72450000I-249999J0D01*
G01*
X88324999Y-72450000D01*
G75*
G02*
X88075000Y-72200001I0J249999D01*
G01*
X88075000Y-71299999D01*
G75*
G02*
X88324999Y-71050000I249999J0D01*
G01*
X88850001Y-71050000D01*
G75*
G02*
X89100000Y-71299999I0J-249999D01*
G01*
G37*
G04 #@! TD.AperFunction*
G04 #@! TO.P,R2,1*
G04 #@! TO.N,+3V3*
G04 #@! TA.AperFunction,SMDPad,CuDef*
G36*
G01*
X90925000Y-71299999D02*
X90925000Y-72200001D01*
G75*
G02*
X90675001Y-72450000I-249999J0D01*
G01*
X90149999Y-72450000D01*
G75*
G02*
X89900000Y-72200001I0J249999D01*
G01*
X89900000Y-71299999D01*
G75*
G02*
X90149999Y-71050000I249999J0D01*
G01*
X90675001Y-71050000D01*
G75*
G02*
X90925000Y-71299999I0J-249999D01*
G01*
G37*
G04 #@! TD.AperFunction*
G04 #@! TD*
G04 #@! TO.P,R1,2*
G04 #@! TO.N,/EN*
G04 #@! TA.AperFunction,SMDPad,CuDef*
G36*
G01*
X56100000Y-93049999D02*
X56100000Y-93950001D01*
G75*
G02*
X55850001Y-94200000I-249999J0D01*
G01*
X55324999Y-94200000D01*
G75*
G02*
X55075000Y-93950001I0J249999D01*
G01*
X55075000Y-93049999D01*
G75*
G02*
X55324999Y-92800000I249999J0D01*
G01*
X55850001Y-92800000D01*
G75*
G02*
X56100000Y-93049999I0J-249999D01*
G01*
G37*
G04 #@! TD.AperFunction*
G04 #@! TO.P,R1,1*
G04 #@! TO.N,+3V3*
G04 #@! TA.AperFunction,SMDPad,CuDef*
G36*
G01*
X57925000Y-93049999D02*
X57925000Y-93950001D01*
G75*
G02*
X57675001Y-94200000I-249999J0D01*
G01*
X57149999Y-94200000D01*
G75*
G02*
X56900000Y-93950001I0J249999D01*
G01*
X56900000Y-93049999D01*
G75*
G02*
X57149999Y-92800000I249999J0D01*
G01*
X57675001Y-92800000D01*
G75*
G02*
X57925000Y-93049999I0J-249999D01*
G01*
G37*
G04 #@! TD.AperFunction*
G04 #@! TD*
D25*
G04 #@! TO.P,J11,3*
G04 #@! TO.N,Net-(J11-Pad3)*
X52840000Y-138500000D03*
G04 #@! TO.P,J11,2*
G04 #@! TO.N,Net-(F5-Pad1)*
X57920000Y-138500000D03*
D26*
G04 #@! TO.P,J11,1*
G04 #@! TO.N,Net-(J11-Pad1)*
X63000000Y-138500000D03*
G04 #@! TD*
D25*
G04 #@! TO.P,J10,3*
G04 #@! TO.N,Net-(J10-Pad3)*
X80840000Y-138500000D03*
G04 #@! TO.P,J10,2*
G04 #@! TO.N,Net-(F4-Pad1)*
X85920000Y-138500000D03*
D26*
G04 #@! TO.P,J10,1*
G04 #@! TO.N,Net-(J10-Pad1)*
X91000000Y-138500000D03*
G04 #@! TD*
D25*
G04 #@! TO.P,J9,3*
G04 #@! TO.N,Net-(J9-Pad3)*
X108920000Y-138500000D03*
G04 #@! TO.P,J9,2*
G04 #@! TO.N,Net-(F3-Pad1)*
X114000000Y-138500000D03*
D26*
G04 #@! TO.P,J9,1*
G04 #@! TO.N,Net-(J9-Pad1)*
X119080000Y-138500000D03*
G04 #@! TD*
D25*
G04 #@! TO.P,J8,3*
G04 #@! TO.N,Net-(J8-Pad3)*
X136840000Y-138500000D03*
G04 #@! TO.P,J8,2*
G04 #@! TO.N,Net-(F2-Pad1)*
X141920000Y-138500000D03*
D26*
G04 #@! TO.P,J8,1*
G04 #@! TO.N,Net-(J8-Pad1)*
X147000000Y-138500000D03*
G04 #@! TD*
D27*
G04 #@! TO.P,J7,6*
G04 #@! TO.N,GND*
X77978000Y-81534000D03*
G04 #@! TO.P,J7,5*
G04 #@! TO.N,/IO23*
X80518000Y-81534000D03*
G04 #@! TO.P,J7,4*
G04 #@! TO.N,/IO19*
X83058000Y-81534000D03*
G04 #@! TO.P,J7,3*
G04 #@! TO.N,/IO18*
X85598000Y-81534000D03*
G04 #@! TO.P,J7,2*
G04 #@! TO.N,/IO5*
X88138000Y-81534000D03*
D28*
G04 #@! TO.P,J7,1*
G04 #@! TO.N,+3V3*
X90678000Y-81534000D03*
G04 #@! TD*
D27*
G04 #@! TO.P,J6,6*
G04 #@! TO.N,GND*
X62050000Y-96000000D03*
G04 #@! TO.P,J6,5*
G04 #@! TO.N,/ADC1_CH6*
X64590000Y-96000000D03*
G04 #@! TO.P,J6,4*
G04 #@! TO.N,/ADC1_CH7*
X67130000Y-96000000D03*
G04 #@! TO.P,J6,3*
G04 #@! TO.N,/ADC1_CH4*
X69670000Y-96000000D03*
G04 #@! TO.P,J6,2*
G04 #@! TO.N,/ADC1_CH5*
X72210000Y-96000000D03*
D28*
G04 #@! TO.P,J6,1*
G04 #@! TO.N,+3V3*
X74750000Y-96000000D03*
G04 #@! TD*
G04 #@! TO.P,J5,MP*
G04 #@! TO.N,N/C*
G04 #@! TA.AperFunction,SMDPad,CuDef*
G36*
G01*
X54050000Y-66799999D02*
X54050000Y-68100001D01*
G75*
G02*
X53800001Y-68350000I-249999J0D01*
G01*
X53099999Y-68350000D01*
G75*
G02*
X52850000Y-68100001I0J249999D01*
G01*
X52850000Y-66799999D01*
G75*
G02*
X53099999Y-66550000I249999J0D01*
G01*
X53800001Y-66550000D01*
G75*
G02*
X54050000Y-66799999I0J-249999D01*
G01*
G37*
G04 #@! TD.AperFunction*
G04 #@! TA.AperFunction,SMDPad,CuDef*
G36*
G01*
X61650000Y-66799999D02*
X61650000Y-68100001D01*
G75*
G02*
X61400001Y-68350000I-249999J0D01*
G01*
X60699999Y-68350000D01*
G75*
G02*
X60450000Y-68100001I0J249999D01*
G01*
X60450000Y-66799999D01*
G75*
G02*
X60699999Y-66550000I249999J0D01*
G01*
X61400001Y-66550000D01*
G75*
G02*
X61650000Y-66799999I0J-249999D01*
G01*
G37*
G04 #@! TD.AperFunction*
G04 #@! TO.P,J5,6*
G04 #@! TO.N,+3V3*
G04 #@! TA.AperFunction,SMDPad,CuDef*
G36*
G01*
X55050000Y-64300000D02*
X55050000Y-65550000D01*
G75*
G02*
X54900000Y-65700000I-150000J0D01*
G01*
X54600000Y-65700000D01*
G75*
G02*
X54450000Y-65550000I0J150000D01*
G01*
X54450000Y-64300000D01*
G75*
G02*
X54600000Y-64150000I150000J0D01*
G01*
X54900000Y-64150000D01*
G75*
G02*
X55050000Y-64300000I0J-150000D01*
G01*
G37*
G04 #@! TD.AperFunction*
G04 #@! TO.P,J5,5*
G04 #@! TO.N,GND*
G04 #@! TA.AperFunction,SMDPad,CuDef*
G36*
G01*
X56050000Y-64300000D02*
X56050000Y-65550000D01*
G75*
G02*
X55900000Y-65700000I-150000J0D01*
G01*
X55600000Y-65700000D01*
G75*
G02*
X55450000Y-65550000I0J150000D01*
G01*
X55450000Y-64300000D01*
G75*
G02*
X55600000Y-64150000I150000J0D01*
G01*
X55900000Y-64150000D01*
G75*
G02*
X56050000Y-64300000I0J-150000D01*
G01*
G37*
G04 #@! TD.AperFunction*
G04 #@! TO.P,J5,4*
G04 #@! TO.N,/TX*
G04 #@! TA.AperFunction,SMDPad,CuDef*
G36*
G01*
X57050000Y-64300000D02*
X57050000Y-65550000D01*
G75*
G02*
X56900000Y-65700000I-150000J0D01*
G01*
X56600000Y-65700000D01*
G75*
G02*
X56450000Y-65550000I0J150000D01*
G01*
X56450000Y-64300000D01*
G75*
G02*
X56600000Y-64150000I150000J0D01*
G01*
X56900000Y-64150000D01*
G75*
G02*
X57050000Y-64300000I0J-150000D01*
G01*
G37*
G04 #@! TD.AperFunction*
G04 #@! TO.P,J5,3*
G04 #@! TO.N,/RX*
G04 #@! TA.AperFunction,SMDPad,CuDef*
G36*
G01*
X58050000Y-64300000D02*
X58050000Y-65550000D01*
G75*
G02*
X57900000Y-65700000I-150000J0D01*
G01*
X57600000Y-65700000D01*
G75*
G02*
X57450000Y-65550000I0J150000D01*
G01*
X57450000Y-64300000D01*
G75*
G02*
X57600000Y-64150000I150000J0D01*
G01*
X57900000Y-64150000D01*
G75*
G02*
X58050000Y-64300000I0J-150000D01*
G01*
G37*
G04 #@! TD.AperFunction*
G04 #@! TO.P,J5,2*
G04 #@! TO.N,/IO0*
G04 #@! TA.AperFunction,SMDPad,CuDef*
G36*
G01*
X59050000Y-64300000D02*
X59050000Y-65550000D01*
G75*
G02*
X58900000Y-65700000I-150000J0D01*
G01*
X58600000Y-65700000D01*
G75*
G02*
X58450000Y-65550000I0J150000D01*
G01*
X58450000Y-64300000D01*
G75*
G02*
X58600000Y-64150000I150000J0D01*
G01*
X58900000Y-64150000D01*
G75*
G02*
X59050000Y-64300000I0J-150000D01*
G01*
G37*
G04 #@! TD.AperFunction*
G04 #@! TO.P,J5,1*
G04 #@! TO.N,/EN*
G04 #@! TA.AperFunction,SMDPad,CuDef*
G36*
G01*
X60050000Y-64300000D02*
X60050000Y-65550000D01*
G75*
G02*
X59900000Y-65700000I-150000J0D01*
G01*
X59600000Y-65700000D01*
G75*
G02*
X59450000Y-65550000I0J150000D01*
G01*
X59450000Y-64300000D01*
G75*
G02*
X59600000Y-64150000I150000J0D01*
G01*
X59900000Y-64150000D01*
G75*
G02*
X60050000Y-64300000I0J-150000D01*
G01*
G37*
G04 #@! TD.AperFunction*
G04 #@! TD*
D27*
G04 #@! TO.P,J4,4*
G04 #@! TO.N,GND*
X77978000Y-77750000D03*
G04 #@! TO.P,J4,3*
G04 #@! TO.N,/SDA*
X80518000Y-77750000D03*
G04 #@! TO.P,J4,2*
G04 #@! TO.N,/SCL*
X83058000Y-77750000D03*
D28*
G04 #@! TO.P,J4,1*
G04 #@! TO.N,+3V3*
X85598000Y-77750000D03*
G04 #@! TD*
D29*
G04 #@! TO.P,J3,3*
G04 #@! TO.N,GND*
X85160000Y-65000000D03*
G04 #@! TO.P,J3,2*
G04 #@! TO.N,+3V3*
X80080000Y-65000000D03*
D30*
G04 #@! TO.P,J3,1*
G04 #@! TO.N,/IO17*
X75000000Y-65000000D03*
G04 #@! TD*
D29*
G04 #@! TO.P,J2,3*
G04 #@! TO.N,GND*
X101660000Y-65000000D03*
G04 #@! TO.P,J2,2*
G04 #@! TO.N,+3V3*
X96580000Y-65000000D03*
D30*
G04 #@! TO.P,J2,1*
G04 #@! TO.N,/IO16*
X91500000Y-65000000D03*
G04 #@! TD*
D31*
G04 #@! TO.P,FID3,*
G04 #@! TO.N,*
X149000000Y-63250000D03*
G04 #@! TD*
G04 #@! TO.P,FID2,*
G04 #@! TO.N,*
X155000000Y-143500000D03*
G04 #@! TD*
G04 #@! TO.P,FID1,*
G04 #@! TO.N,*
X42750000Y-141500000D03*
G04 #@! TD*
D18*
G04 #@! TO.P,F5,2*
G04 #@! TO.N,Net-(F5-Pad2)*
X44000000Y-112400000D03*
G04 #@! TO.P,F5,1*
G04 #@! TO.N,Net-(F5-Pad1)*
X44000000Y-135000000D03*
G04 #@! TD*
G04 #@! TO.P,F4,2*
G04 #@! TO.N,Net-(F4-Pad2)*
X72000000Y-112400000D03*
G04 #@! TO.P,F4,1*
G04 #@! TO.N,Net-(F4-Pad1)*
X72000000Y-135000000D03*
G04 #@! TD*
G04 #@! TO.P,F3,2*
G04 #@! TO.N,Net-(F3-Pad2)*
X100000000Y-112400000D03*
G04 #@! TO.P,F3,1*
G04 #@! TO.N,Net-(F3-Pad1)*
X100000000Y-135000000D03*
G04 #@! TD*
G04 #@! TO.P,F2,2*
G04 #@! TO.N,Net-(F2-Pad2)*
X128000000Y-112400000D03*
G04 #@! TO.P,F2,1*
G04 #@! TO.N,Net-(F2-Pad1)*
X128000000Y-135000000D03*
G04 #@! TD*
G04 #@! TO.P,F1,2*
G04 #@! TO.N,Net-(F1-Pad2)*
X156000000Y-134600000D03*
G04 #@! TO.P,F1,1*
G04 #@! TO.N,/L_FUSED*
X156000000Y-112000000D03*
G04 #@! TD*
G04 #@! TO.P,D6,2*
G04 #@! TO.N,+5V*
G04 #@! TA.AperFunction,SMDPad,CuDef*
G36*
G01*
X52543750Y-108700000D02*
X53456250Y-108700000D01*
G75*
G02*
X53700000Y-108943750I0J-243750D01*
G01*
X53700000Y-109431250D01*
G75*
G02*
X53456250Y-109675000I-243750J0D01*
G01*
X52543750Y-109675000D01*
G75*
G02*
X52300000Y-109431250I0J243750D01*
G01*
X52300000Y-108943750D01*
G75*
G02*
X52543750Y-108700000I243750J0D01*
G01*
G37*
G04 #@! TD.AperFunction*
G04 #@! TO.P,D6,1*
G04 #@! TO.N,Net-(D6-Pad1)*
G04 #@! TA.AperFunction,SMDPad,CuDef*
G36*
G01*
X52543750Y-106825000D02*
X53456250Y-106825000D01*
G75*
G02*
X53700000Y-107068750I0J-243750D01*
G01*
X53700000Y-107556250D01*
G75*
G02*
X53456250Y-107800000I-243750J0D01*
G01*
X52543750Y-107800000D01*
G75*
G02*
X52300000Y-107556250I0J243750D01*
G01*
X52300000Y-107068750D01*
G75*
G02*
X52543750Y-106825000I243750J0D01*
G01*
G37*
G04 #@! TD.AperFunction*
G04 #@! TD*
G04 #@! TO.P,D5,2*
G04 #@! TO.N,+5V*
G04 #@! TA.AperFunction,SMDPad,CuDef*
G36*
G01*
X80543750Y-108700000D02*
X81456250Y-108700000D01*
G75*
G02*
X81700000Y-108943750I0J-243750D01*
G01*
X81700000Y-109431250D01*
G75*
G02*
X81456250Y-109675000I-243750J0D01*
G01*
X80543750Y-109675000D01*
G75*
G02*
X80300000Y-109431250I0J243750D01*
G01*
X80300000Y-108943750D01*
G75*
G02*
X80543750Y-108700000I243750J0D01*
G01*
G37*
G04 #@! TD.AperFunction*
G04 #@! TO.P,D5,1*
G04 #@! TO.N,Net-(D5-Pad1)*
G04 #@! TA.AperFunction,SMDPad,CuDef*
G36*
G01*
X80543750Y-106825000D02*
X81456250Y-106825000D01*
G75*
G02*
X81700000Y-107068750I0J-243750D01*
G01*
X81700000Y-107556250D01*
G75*
G02*
X81456250Y-107800000I-243750J0D01*
G01*
X80543750Y-107800000D01*
G75*
G02*
X80300000Y-107556250I0J243750D01*
G01*
X80300000Y-107068750D01*
G75*
G02*
X80543750Y-106825000I243750J0D01*
G01*
G37*
G04 #@! TD.AperFunction*
G04 #@! TD*
G04 #@! TO.P,D4,2*
G04 #@! TO.N,+5V*
G04 #@! TA.AperFunction,SMDPad,CuDef*
G36*
G01*
X108543750Y-108700000D02*
X109456250Y-108700000D01*
G75*
G02*
X109700000Y-108943750I0J-243750D01*
G01*
X109700000Y-109431250D01*
G75*
G02*
X109456250Y-109675000I-243750J0D01*
G01*
X108543750Y-109675000D01*
G75*
G02*
X108300000Y-109431250I0J243750D01*
G01*
X108300000Y-108943750D01*
G75*
G02*
X108543750Y-108700000I243750J0D01*
G01*
G37*
G04 #@! TD.AperFunction*
G04 #@! TO.P,D4,1*
G04 #@! TO.N,Net-(D4-Pad1)*
G04 #@! TA.AperFunction,SMDPad,CuDef*
G36*
G01*
X108543750Y-106825000D02*
X109456250Y-106825000D01*
G75*
G02*
X109700000Y-107068750I0J-243750D01*
G01*
X109700000Y-107556250D01*
G75*
G02*
X109456250Y-107800000I-243750J0D01*
G01*
X108543750Y-107800000D01*
G75*
G02*
X108300000Y-107556250I0J243750D01*
G01*
X108300000Y-107068750D01*
G75*
G02*
X108543750Y-106825000I243750J0D01*
G01*
G37*
G04 #@! TD.AperFunction*
G04 #@! TD*
G04 #@! TO.P,D3,2*
G04 #@! TO.N,+5V*
G04 #@! TA.AperFunction,SMDPad,CuDef*
G36*
G01*
X136543750Y-108700000D02*
X137456250Y-108700000D01*
G75*
G02*
X137700000Y-108943750I0J-243750D01*
G01*
X137700000Y-109431250D01*
G75*
G02*
X137456250Y-109675000I-243750J0D01*
G01*
X136543750Y-109675000D01*
G75*
G02*
X136300000Y-109431250I0J243750D01*
G01*
X136300000Y-108943750D01*
G75*
G02*
X136543750Y-108700000I243750J0D01*
G01*
G37*
G04 #@! TD.AperFunction*
G04 #@! TO.P,D3,1*
G04 #@! TO.N,Net-(D3-Pad1)*
G04 #@! TA.AperFunction,SMDPad,CuDef*
G36*
G01*
X136543750Y-106825000D02*
X137456250Y-106825000D01*
G75*
G02*
X137700000Y-107068750I0J-243750D01*
G01*
X137700000Y-107556250D01*
G75*
G02*
X137456250Y-107800000I-243750J0D01*
G01*
X136543750Y-107800000D01*
G75*
G02*
X136300000Y-107556250I0J243750D01*
G01*
X136300000Y-107068750D01*
G75*
G02*
X136543750Y-106825000I243750J0D01*
G01*
G37*
G04 #@! TD.AperFunction*
G04 #@! TD*
G04 #@! TO.P,D2,2*
G04 #@! TO.N,+3V3*
G04 #@! TA.AperFunction,SMDPad,CuDef*
G36*
G01*
X96543750Y-85012500D02*
X97456250Y-85012500D01*
G75*
G02*
X97700000Y-85256250I0J-243750D01*
G01*
X97700000Y-85743750D01*
G75*
G02*
X97456250Y-85987500I-243750J0D01*
G01*
X96543750Y-85987500D01*
G75*
G02*
X96300000Y-85743750I0J243750D01*
G01*
X96300000Y-85256250D01*
G75*
G02*
X96543750Y-85012500I243750J0D01*
G01*
G37*
G04 #@! TD.AperFunction*
G04 #@! TO.P,D2,1*
G04 #@! TO.N,Net-(D2-Pad1)*
G04 #@! TA.AperFunction,SMDPad,CuDef*
G36*
G01*
X96543750Y-83137500D02*
X97456250Y-83137500D01*
G75*
G02*
X97700000Y-83381250I0J-243750D01*
G01*
X97700000Y-83868750D01*
G75*
G02*
X97456250Y-84112500I-243750J0D01*
G01*
X96543750Y-84112500D01*
G75*
G02*
X96300000Y-83868750I0J243750D01*
G01*
X96300000Y-83381250D01*
G75*
G02*
X96543750Y-83137500I243750J0D01*
G01*
G37*
G04 #@! TD.AperFunction*
G04 #@! TD*
D32*
G04 #@! TO.P,D1,2*
G04 #@! TO.N,GND*
X101000000Y-80350000D03*
G04 #@! TO.P,D1,1*
G04 #@! TO.N,+5V*
X101000000Y-84650000D03*
G04 #@! TD*
G04 #@! TO.P,C16,2*
G04 #@! TO.N,+5V*
G04 #@! TA.AperFunction,SMDPad,CuDef*
G36*
G01*
X50525000Y-108700000D02*
X51475000Y-108700000D01*
G75*
G02*
X51725000Y-108950000I0J-250000D01*
G01*
X51725000Y-109450000D01*
G75*
G02*
X51475000Y-109700000I-250000J0D01*
G01*
X50525000Y-109700000D01*
G75*
G02*
X50275000Y-109450000I0J250000D01*
G01*
X50275000Y-108950000D01*
G75*
G02*
X50525000Y-108700000I250000J0D01*
G01*
G37*
G04 #@! TD.AperFunction*
G04 #@! TO.P,C16,1*
G04 #@! TO.N,GND*
G04 #@! TA.AperFunction,SMDPad,CuDef*
G36*
G01*
X50525000Y-106800000D02*
X51475000Y-106800000D01*
G75*
G02*
X51725000Y-107050000I0J-250000D01*
G01*
X51725000Y-107550000D01*
G75*
G02*
X51475000Y-107800000I-250000J0D01*
G01*
X50525000Y-107800000D01*
G75*
G02*
X50275000Y-107550000I0J250000D01*
G01*
X50275000Y-107050000D01*
G75*
G02*
X50525000Y-106800000I250000J0D01*
G01*
G37*
G04 #@! TD.AperFunction*
G04 #@! TD*
G04 #@! TO.P,C15,2*
G04 #@! TO.N,+5V*
G04 #@! TA.AperFunction,SMDPad,CuDef*
G36*
G01*
X78575000Y-108750000D02*
X79525000Y-108750000D01*
G75*
G02*
X79775000Y-109000000I0J-250000D01*
G01*
X79775000Y-109500000D01*
G75*
G02*
X79525000Y-109750000I-250000J0D01*
G01*
X78575000Y-109750000D01*
G75*
G02*
X78325000Y-109500000I0J250000D01*
G01*
X78325000Y-109000000D01*
G75*
G02*
X78575000Y-108750000I250000J0D01*
G01*
G37*
G04 #@! TD.AperFunction*
G04 #@! TO.P,C15,1*
G04 #@! TO.N,GND*
G04 #@! TA.AperFunction,SMDPad,CuDef*
G36*
G01*
X78575000Y-106850000D02*
X79525000Y-106850000D01*
G75*
G02*
X79775000Y-107100000I0J-250000D01*
G01*
X79775000Y-107600000D01*
G75*
G02*
X79525000Y-107850000I-250000J0D01*
G01*
X78575000Y-107850000D01*
G75*
G02*
X78325000Y-107600000I0J250000D01*
G01*
X78325000Y-107100000D01*
G75*
G02*
X78575000Y-106850000I250000J0D01*
G01*
G37*
G04 #@! TD.AperFunction*
G04 #@! TD*
G04 #@! TO.P,C14,2*
G04 #@! TO.N,+5V*
G04 #@! TA.AperFunction,SMDPad,CuDef*
G36*
G01*
X106525000Y-108700000D02*
X107475000Y-108700000D01*
G75*
G02*
X107725000Y-108950000I0J-250000D01*
G01*
X107725000Y-109450000D01*
G75*
G02*
X107475000Y-109700000I-250000J0D01*
G01*
X106525000Y-109700000D01*
G75*
G02*
X106275000Y-109450000I0J250000D01*
G01*
X106275000Y-108950000D01*
G75*
G02*
X106525000Y-108700000I250000J0D01*
G01*
G37*
G04 #@! TD.AperFunction*
G04 #@! TO.P,C14,1*
G04 #@! TO.N,GND*
G04 #@! TA.AperFunction,SMDPad,CuDef*
G36*
G01*
X106525000Y-106800000D02*
X107475000Y-106800000D01*
G75*
G02*
X107725000Y-107050000I0J-250000D01*
G01*
X107725000Y-107550000D01*
G75*
G02*
X107475000Y-107800000I-250000J0D01*
G01*
X106525000Y-107800000D01*
G75*
G02*
X106275000Y-107550000I0J250000D01*
G01*
X106275000Y-107050000D01*
G75*
G02*
X106525000Y-106800000I250000J0D01*
G01*
G37*
G04 #@! TD.AperFunction*
G04 #@! TD*
G04 #@! TO.P,C13,2*
G04 #@! TO.N,+5V*
G04 #@! TA.AperFunction,SMDPad,CuDef*
G36*
G01*
X134525000Y-108700000D02*
X135475000Y-108700000D01*
G75*
G02*
X135725000Y-108950000I0J-250000D01*
G01*
X135725000Y-109450000D01*
G75*
G02*
X135475000Y-109700000I-250000J0D01*
G01*
X134525000Y-109700000D01*
G75*
G02*
X134275000Y-109450000I0J250000D01*
G01*
X134275000Y-108950000D01*
G75*
G02*
X134525000Y-108700000I250000J0D01*
G01*
G37*
G04 #@! TD.AperFunction*
G04 #@! TO.P,C13,1*
G04 #@! TO.N,GND*
G04 #@! TA.AperFunction,SMDPad,CuDef*
G36*
G01*
X134525000Y-106800000D02*
X135475000Y-106800000D01*
G75*
G02*
X135725000Y-107050000I0J-250000D01*
G01*
X135725000Y-107550000D01*
G75*
G02*
X135475000Y-107800000I-250000J0D01*
G01*
X134525000Y-107800000D01*
G75*
G02*
X134275000Y-107550000I0J250000D01*
G01*
X134275000Y-107050000D01*
G75*
G02*
X134525000Y-106800000I250000J0D01*
G01*
G37*
G04 #@! TD.AperFunction*
G04 #@! TD*
G04 #@! TO.P,C12,2*
G04 #@! TO.N,GND*
G04 #@! TA.AperFunction,SMDPad,CuDef*
G36*
G01*
X91800000Y-102775000D02*
X91800000Y-103725000D01*
G75*
G02*
X91550000Y-103975000I-250000J0D01*
G01*
X91050000Y-103975000D01*
G75*
G02*
X90800000Y-103725000I0J250000D01*
G01*
X90800000Y-102775000D01*
G75*
G02*
X91050000Y-102525000I250000J0D01*
G01*
X91550000Y-102525000D01*
G75*
G02*
X91800000Y-102775000I0J-250000D01*
G01*
G37*
G04 #@! TD.AperFunction*
G04 #@! TO.P,C12,1*
G04 #@! TO.N,+5V*
G04 #@! TA.AperFunction,SMDPad,CuDef*
G36*
G01*
X93700000Y-102775000D02*
X93700000Y-103725000D01*
G75*
G02*
X93450000Y-103975000I-250000J0D01*
G01*
X92950000Y-103975000D01*
G75*
G02*
X92700000Y-103725000I0J250000D01*
G01*
X92700000Y-102775000D01*
G75*
G02*
X92950000Y-102525000I250000J0D01*
G01*
X93450000Y-102525000D01*
G75*
G02*
X93700000Y-102775000I0J-250000D01*
G01*
G37*
G04 #@! TD.AperFunction*
G04 #@! TD*
G04 #@! TO.P,C11,2*
G04 #@! TO.N,GND*
G04 #@! TA.AperFunction,SMDPad,CuDef*
G36*
G01*
X99775000Y-76950000D02*
X100725000Y-76950000D01*
G75*
G02*
X100975000Y-77200000I0J-250000D01*
G01*
X100975000Y-77700000D01*
G75*
G02*
X100725000Y-77950000I-250000J0D01*
G01*
X99775000Y-77950000D01*
G75*
G02*
X99525000Y-77700000I0J250000D01*
G01*
X99525000Y-77200000D01*
G75*
G02*
X99775000Y-76950000I250000J0D01*
G01*
G37*
G04 #@! TD.AperFunction*
G04 #@! TO.P,C11,1*
G04 #@! TO.N,+3V3*
G04 #@! TA.AperFunction,SMDPad,CuDef*
G36*
G01*
X99775000Y-75050000D02*
X100725000Y-75050000D01*
G75*
G02*
X100975000Y-75300000I0J-250000D01*
G01*
X100975000Y-75800000D01*
G75*
G02*
X100725000Y-76050000I-250000J0D01*
G01*
X99775000Y-76050000D01*
G75*
G02*
X99525000Y-75800000I0J250000D01*
G01*
X99525000Y-75300000D01*
G75*
G02*
X99775000Y-75050000I250000J0D01*
G01*
G37*
G04 #@! TD.AperFunction*
G04 #@! TD*
G04 #@! TO.P,C10,2*
G04 #@! TO.N,GND*
G04 #@! TA.AperFunction,SMDPad,CuDef*
G36*
G01*
X84975000Y-87050000D02*
X84025000Y-87050000D01*
G75*
G02*
X83775000Y-86800000I0J250000D01*
G01*
X83775000Y-86300000D01*
G75*
G02*
X84025000Y-86050000I250000J0D01*
G01*
X84975000Y-86050000D01*
G75*
G02*
X85225000Y-86300000I0J-250000D01*
G01*
X85225000Y-86800000D01*
G75*
G02*
X84975000Y-87050000I-250000J0D01*
G01*
G37*
G04 #@! TD.AperFunction*
G04 #@! TO.P,C10,1*
G04 #@! TO.N,/IO25*
G04 #@! TA.AperFunction,SMDPad,CuDef*
G36*
G01*
X84975000Y-88950000D02*
X84025000Y-88950000D01*
G75*
G02*
X83775000Y-88700000I0J250000D01*
G01*
X83775000Y-88200000D01*
G75*
G02*
X84025000Y-87950000I250000J0D01*
G01*
X84975000Y-87950000D01*
G75*
G02*
X85225000Y-88200000I0J-250000D01*
G01*
X85225000Y-88700000D01*
G75*
G02*
X84975000Y-88950000I-250000J0D01*
G01*
G37*
G04 #@! TD.AperFunction*
G04 #@! TD*
G04 #@! TO.P,C9,2*
G04 #@! TO.N,GND*
G04 #@! TA.AperFunction,SMDPad,CuDef*
G36*
G01*
X101775000Y-76950000D02*
X102725000Y-76950000D01*
G75*
G02*
X102975000Y-77200000I0J-250000D01*
G01*
X102975000Y-77700000D01*
G75*
G02*
X102725000Y-77950000I-250000J0D01*
G01*
X101775000Y-77950000D01*
G75*
G02*
X101525000Y-77700000I0J250000D01*
G01*
X101525000Y-77200000D01*
G75*
G02*
X101775000Y-76950000I250000J0D01*
G01*
G37*
G04 #@! TD.AperFunction*
G04 #@! TO.P,C9,1*
G04 #@! TO.N,+3V3*
G04 #@! TA.AperFunction,SMDPad,CuDef*
G36*
G01*
X101775000Y-75050000D02*
X102725000Y-75050000D01*
G75*
G02*
X102975000Y-75300000I0J-250000D01*
G01*
X102975000Y-75800000D01*
G75*
G02*
X102725000Y-76050000I-250000J0D01*
G01*
X101775000Y-76050000D01*
G75*
G02*
X101525000Y-75800000I0J250000D01*
G01*
X101525000Y-75300000D01*
G75*
G02*
X101775000Y-75050000I250000J0D01*
G01*
G37*
G04 #@! TD.AperFunction*
G04 #@! TD*
G04 #@! TO.P,C8,2*
G04 #@! TO.N,GND*
G04 #@! TA.AperFunction,SMDPad,CuDef*
G36*
G01*
X106300000Y-80525000D02*
X106300000Y-81475000D01*
G75*
G02*
X106050000Y-81725000I-250000J0D01*
G01*
X105550000Y-81725000D01*
G75*
G02*
X105300000Y-81475000I0J250000D01*
G01*
X105300000Y-80525000D01*
G75*
G02*
X105550000Y-80275000I250000J0D01*
G01*
X106050000Y-80275000D01*
G75*
G02*
X106300000Y-80525000I0J-250000D01*
G01*
G37*
G04 #@! TD.AperFunction*
G04 #@! TO.P,C8,1*
G04 #@! TO.N,+5V*
G04 #@! TA.AperFunction,SMDPad,CuDef*
G36*
G01*
X108200000Y-80525000D02*
X108200000Y-81475000D01*
G75*
G02*
X107950000Y-81725000I-250000J0D01*
G01*
X107450000Y-81725000D01*
G75*
G02*
X107200000Y-81475000I0J250000D01*
G01*
X107200000Y-80525000D01*
G75*
G02*
X107450000Y-80275000I250000J0D01*
G01*
X107950000Y-80275000D01*
G75*
G02*
X108200000Y-80525000I0J-250000D01*
G01*
G37*
G04 #@! TD.AperFunction*
G04 #@! TD*
G04 #@! TO.P,C7,2*
G04 #@! TO.N,GND*
G04 #@! TA.AperFunction,SMDPad,CuDef*
G36*
G01*
X106300000Y-82525000D02*
X106300000Y-83475000D01*
G75*
G02*
X106050000Y-83725000I-250000J0D01*
G01*
X105550000Y-83725000D01*
G75*
G02*
X105300000Y-83475000I0J250000D01*
G01*
X105300000Y-82525000D01*
G75*
G02*
X105550000Y-82275000I250000J0D01*
G01*
X106050000Y-82275000D01*
G75*
G02*
X106300000Y-82525000I0J-250000D01*
G01*
G37*
G04 #@! TD.AperFunction*
G04 #@! TO.P,C7,1*
G04 #@! TO.N,+5V*
G04 #@! TA.AperFunction,SMDPad,CuDef*
G36*
G01*
X108200000Y-82525000D02*
X108200000Y-83475000D01*
G75*
G02*
X107950000Y-83725000I-250000J0D01*
G01*
X107450000Y-83725000D01*
G75*
G02*
X107200000Y-83475000I0J250000D01*
G01*
X107200000Y-82525000D01*
G75*
G02*
X107450000Y-82275000I250000J0D01*
G01*
X107950000Y-82275000D01*
G75*
G02*
X108200000Y-82525000I0J-250000D01*
G01*
G37*
G04 #@! TD.AperFunction*
G04 #@! TD*
G04 #@! TO.P,C6,2*
G04 #@! TO.N,GND*
G04 #@! TA.AperFunction,SMDPad,CuDef*
G36*
G01*
X82450000Y-71725000D02*
X82450000Y-70775000D01*
G75*
G02*
X82700000Y-70525000I250000J0D01*
G01*
X83200000Y-70525000D01*
G75*
G02*
X83450000Y-70775000I0J-250000D01*
G01*
X83450000Y-71725000D01*
G75*
G02*
X83200000Y-71975000I-250000J0D01*
G01*
X82700000Y-71975000D01*
G75*
G02*
X82450000Y-71725000I0J250000D01*
G01*
G37*
G04 #@! TD.AperFunction*
G04 #@! TO.P,C6,1*
G04 #@! TO.N,+3V3*
G04 #@! TA.AperFunction,SMDPad,CuDef*
G36*
G01*
X80550000Y-71725000D02*
X80550000Y-70775000D01*
G75*
G02*
X80800000Y-70525000I250000J0D01*
G01*
X81300000Y-70525000D01*
G75*
G02*
X81550000Y-70775000I0J-250000D01*
G01*
X81550000Y-71725000D01*
G75*
G02*
X81300000Y-71975000I-250000J0D01*
G01*
X80800000Y-71975000D01*
G75*
G02*
X80550000Y-71725000I0J250000D01*
G01*
G37*
G04 #@! TD.AperFunction*
G04 #@! TD*
G04 #@! TO.P,C5,2*
G04 #@! TO.N,GND*
G04 #@! TA.AperFunction,SMDPad,CuDef*
G36*
G01*
X98700000Y-71725000D02*
X98700000Y-70775000D01*
G75*
G02*
X98950000Y-70525000I250000J0D01*
G01*
X99450000Y-70525000D01*
G75*
G02*
X99700000Y-70775000I0J-250000D01*
G01*
X99700000Y-71725000D01*
G75*
G02*
X99450000Y-71975000I-250000J0D01*
G01*
X98950000Y-71975000D01*
G75*
G02*
X98700000Y-71725000I0J250000D01*
G01*
G37*
G04 #@! TD.AperFunction*
G04 #@! TO.P,C5,1*
G04 #@! TO.N,+3V3*
G04 #@! TA.AperFunction,SMDPad,CuDef*
G36*
G01*
X96800000Y-71725000D02*
X96800000Y-70775000D01*
G75*
G02*
X97050000Y-70525000I250000J0D01*
G01*
X97550000Y-70525000D01*
G75*
G02*
X97800000Y-70775000I0J-250000D01*
G01*
X97800000Y-71725000D01*
G75*
G02*
X97550000Y-71975000I-250000J0D01*
G01*
X97050000Y-71975000D01*
G75*
G02*
X96800000Y-71725000I0J250000D01*
G01*
G37*
G04 #@! TD.AperFunction*
G04 #@! TD*
G04 #@! TO.P,C4,2*
G04 #@! TO.N,GND*
G04 #@! TA.AperFunction,SMDPad,CuDef*
G36*
G01*
X106000000Y-92500000D02*
X108000000Y-92500000D01*
G75*
G02*
X108250000Y-92750000I0J-250000D01*
G01*
X108250000Y-96650000D01*
G75*
G02*
X108000000Y-96900000I-250000J0D01*
G01*
X106000000Y-96900000D01*
G75*
G02*
X105750000Y-96650000I0J250000D01*
G01*
X105750000Y-92750000D01*
G75*
G02*
X106000000Y-92500000I250000J0D01*
G01*
G37*
G04 #@! TD.AperFunction*
G04 #@! TO.P,C4,1*
G04 #@! TO.N,+5V*
G04 #@! TA.AperFunction,SMDPad,CuDef*
G36*
G01*
X106000000Y-85100000D02*
X108000000Y-85100000D01*
G75*
G02*
X108250000Y-85350000I0J-250000D01*
G01*
X108250000Y-89250000D01*
G75*
G02*
X108000000Y-89500000I-250000J0D01*
G01*
X106000000Y-89500000D01*
G75*
G02*
X105750000Y-89250000I0J250000D01*
G01*
X105750000Y-85350000D01*
G75*
G02*
X106000000Y-85100000I250000J0D01*
G01*
G37*
G04 #@! TD.AperFunction*
G04 #@! TD*
G04 #@! TO.P,C3,2*
G04 #@! TO.N,GND*
G04 #@! TA.AperFunction,SMDPad,CuDef*
G36*
G01*
X51350000Y-95099999D02*
X51350000Y-96400001D01*
G75*
G02*
X51100001Y-96650000I-249999J0D01*
G01*
X50449999Y-96650000D01*
G75*
G02*
X50200000Y-96400001I0J249999D01*
G01*
X50200000Y-95099999D01*
G75*
G02*
X50449999Y-94850000I249999J0D01*
G01*
X51100001Y-94850000D01*
G75*
G02*
X51350000Y-95099999I0J-249999D01*
G01*
G37*
G04 #@! TD.AperFunction*
G04 #@! TO.P,C3,1*
G04 #@! TO.N,+3V3*
G04 #@! TA.AperFunction,SMDPad,CuDef*
G36*
G01*
X54300000Y-95099999D02*
X54300000Y-96400001D01*
G75*
G02*
X54050001Y-96650000I-249999J0D01*
G01*
X53399999Y-96650000D01*
G75*
G02*
X53150000Y-96400001I0J249999D01*
G01*
X53150000Y-95099999D01*
G75*
G02*
X53399999Y-94850000I249999J0D01*
G01*
X54050001Y-94850000D01*
G75*
G02*
X54300000Y-95099999I0J-249999D01*
G01*
G37*
G04 #@! TD.AperFunction*
G04 #@! TD*
G04 #@! TO.P,C2,2*
G04 #@! TO.N,GND*
G04 #@! TA.AperFunction,SMDPad,CuDef*
G36*
G01*
X56950000Y-95975000D02*
X56950000Y-95025000D01*
G75*
G02*
X57200000Y-94775000I250000J0D01*
G01*
X57700000Y-94775000D01*
G75*
G02*
X57950000Y-95025000I0J-250000D01*
G01*
X57950000Y-95975000D01*
G75*
G02*
X57700000Y-96225000I-250000J0D01*
G01*
X57200000Y-96225000D01*
G75*
G02*
X56950000Y-95975000I0J250000D01*
G01*
G37*
G04 #@! TD.AperFunction*
G04 #@! TO.P,C2,1*
G04 #@! TO.N,/EN*
G04 #@! TA.AperFunction,SMDPad,CuDef*
G36*
G01*
X55050000Y-95975000D02*
X55050000Y-95025000D01*
G75*
G02*
X55300000Y-94775000I250000J0D01*
G01*
X55800000Y-94775000D01*
G75*
G02*
X56050000Y-95025000I0J-250000D01*
G01*
X56050000Y-95975000D01*
G75*
G02*
X55800000Y-96225000I-250000J0D01*
G01*
X55300000Y-96225000D01*
G75*
G02*
X55050000Y-95975000I0J250000D01*
G01*
G37*
G04 #@! TD.AperFunction*
G04 #@! TD*
D33*
G04 #@! TO.N,GND*
X51000000Y-106250000D03*
X79000000Y-106000000D03*
X107000000Y-106000000D03*
X135000000Y-106000000D03*
X90000000Y-103250000D03*
X95055000Y-96255044D03*
X95055000Y-95400000D03*
D34*
X51200000Y-89500000D03*
X51200000Y-90300000D03*
X51200000Y-91900000D03*
X51200000Y-91100000D03*
X52000000Y-96300000D03*
X52000000Y-95600000D03*
X52000000Y-94900000D03*
X58500000Y-95500000D03*
X68250000Y-88250000D03*
X52400000Y-75500000D03*
X51750000Y-75500000D03*
X56000000Y-83500000D03*
X59750000Y-79750000D03*
X63500000Y-83500000D03*
X59750000Y-87250000D03*
X55750000Y-63500000D03*
X70000000Y-65000000D03*
X66750000Y-66000000D03*
X63250000Y-62500000D03*
X68750000Y-62500000D03*
X75750000Y-87000000D03*
X80250000Y-87000000D03*
X84500000Y-85500000D03*
X83000000Y-70000000D03*
X100500000Y-71250000D03*
X100400000Y-78500000D03*
X101150000Y-78500000D03*
X101900000Y-78500000D03*
X102650000Y-78500000D03*
X103400000Y-78500000D03*
X104250000Y-80250000D03*
X104250000Y-81000000D03*
X104250000Y-81750000D03*
X104250000Y-82500000D03*
X99600000Y-78500000D03*
X97000000Y-79000000D03*
X109250000Y-96250000D03*
X110000000Y-96250000D03*
X110000000Y-95500000D03*
X109250000Y-95500000D03*
X109250000Y-94750000D03*
X110000000Y-94750000D03*
X110000000Y-94000000D03*
X109250000Y-94000000D03*
X109250000Y-93250000D03*
X110000000Y-93250000D03*
D33*
G04 #@! TO.N,+5V*
X95000000Y-104750000D03*
D34*
G04 #@! TO.N,Net-(D3-Pad1)*
X89500000Y-96250000D03*
X110000000Y-102750000D03*
G04 #@! TO.N,Net-(D4-Pad1)*
X90500000Y-96000000D03*
X109000000Y-105000000D03*
G04 #@! TO.N,Net-(D5-Pad1)*
X81000000Y-104200000D03*
X81000000Y-101250000D03*
G04 #@! TO.N,Net-(D6-Pad1)*
X87750000Y-98000000D03*
X92499992Y-96500000D03*
G04 #@! TO.N,/IO27*
X81000000Y-89750000D03*
X92000000Y-90750000D03*
G04 #@! TO.N,/IO26*
X80250000Y-88750000D03*
X94000000Y-91500000D03*
G04 #@! TO.N,/SDA*
X58250000Y-70500000D03*
X61000000Y-70500000D03*
D35*
X85500000Y-73000000D03*
X85500000Y-75000000D03*
D34*
G04 #@! TO.N,/SCL*
X55250000Y-69750000D03*
X60000000Y-69750000D03*
G04 #@! TO.N,/EN*
X59500000Y-67000000D03*
X55750000Y-67000000D03*
X53500000Y-72000000D03*
X53500000Y-76500000D03*
G04 #@! TO.N,/IO19*
X66900000Y-77500000D03*
X73750000Y-77750006D03*
G04 #@! TO.N,/IO18*
X66300000Y-76700000D03*
X73747014Y-76741042D03*
G04 #@! TO.N,/IO17*
X64900000Y-72300000D03*
X71500000Y-68900000D03*
G04 #@! TO.N,/IO16*
X66200000Y-72300000D03*
X69300000Y-69600000D03*
G04 #@! TO.N,/Relay/O1*
X89750000Y-101000000D03*
X101000000Y-101250000D03*
G04 #@! TO.N,/Relay/O3*
X91750000Y-101000000D03*
X93750000Y-101000000D03*
G04 #@! TO.N,/Relay/O2*
X90750000Y-101000000D03*
X98250000Y-101250000D03*
G04 #@! TO.N,/IO13*
X79300000Y-88300000D03*
X92000000Y-91700000D03*
G04 #@! TO.N,/IO4*
X78400000Y-87500000D03*
X95100000Y-90000000D03*
G04 #@! TO.N,/IO23*
X66300000Y-78300000D03*
X74750000Y-78300012D03*
G04 #@! TO.N,/IO5*
X66900000Y-76000000D03*
X73105732Y-75957006D03*
G04 #@! TD*
D36*
G04 #@! TO.N,GND*
X51000000Y-107300000D02*
X51000000Y-106250000D01*
X79050000Y-106050000D02*
X79000000Y-106000000D01*
X79050000Y-107350000D02*
X79050000Y-106050000D01*
X107000000Y-107300000D02*
X107000000Y-106000000D01*
X135000000Y-107300000D02*
X135000000Y-106000000D01*
D37*
X91300000Y-103250000D02*
X90000000Y-103250000D01*
X95055000Y-97925000D02*
X95055000Y-96255044D01*
D38*
X57450000Y-95500000D02*
X58500000Y-95500000D01*
D39*
X68285000Y-88215000D02*
X68250000Y-88250000D01*
X69755000Y-88215000D02*
X68285000Y-88215000D01*
D38*
X55750000Y-64925000D02*
X55750000Y-63500000D01*
D39*
X70000000Y-66050000D02*
X70000000Y-65000000D01*
D38*
X66635000Y-66115000D02*
X66750000Y-66000000D01*
X66635000Y-67475000D02*
X66635000Y-66115000D01*
X64095000Y-62525000D02*
X64095000Y-60905000D01*
X64095000Y-60905000D02*
X64250000Y-60750000D01*
X67905000Y-60905000D02*
X67905000Y-62525000D01*
X67750000Y-60750000D02*
X67905000Y-60905000D01*
X65365000Y-60865000D02*
X65250000Y-60750000D01*
X65365000Y-62525000D02*
X65365000Y-60865000D01*
X64250000Y-60750000D02*
X65250000Y-60750000D01*
X66635000Y-60885000D02*
X66500000Y-60750000D01*
X66635000Y-62525000D02*
X66635000Y-60885000D01*
X66500000Y-60750000D02*
X67750000Y-60750000D01*
X65250000Y-60750000D02*
X66500000Y-60750000D01*
X63275000Y-62525000D02*
X63250000Y-62500000D01*
X64095000Y-62525000D02*
X63275000Y-62525000D01*
X68725000Y-62525000D02*
X68750000Y-62500000D01*
X67905000Y-62525000D02*
X68725000Y-62525000D01*
X74020000Y-87000000D02*
X75750000Y-87000000D01*
X81980000Y-87000000D02*
X80250000Y-87000000D01*
X84500000Y-86550000D02*
X84500000Y-85500000D01*
X82950000Y-70050000D02*
X83000000Y-70000000D01*
X82950000Y-71250000D02*
X82950000Y-70050000D01*
X99200000Y-71250000D02*
X100500000Y-71250000D01*
X97000000Y-80087500D02*
X97000000Y-79000000D01*
D39*
X99950000Y-77750000D02*
X100250000Y-77450000D01*
X96750000Y-77750000D02*
X99950000Y-77750000D01*
D38*
G04 #@! TO.N,+3V3*
X57412500Y-93500000D02*
X57200000Y-93500000D01*
X57200000Y-93500000D02*
X56500000Y-94200000D01*
X56500000Y-94200000D02*
X56500000Y-96600000D01*
X56500000Y-96600000D02*
X56300000Y-96800000D01*
X54775000Y-96800000D02*
X53725000Y-95750000D01*
X56300000Y-96800000D02*
X54775000Y-96800000D01*
D40*
X53725000Y-95750000D02*
X53725000Y-97475000D01*
X53725000Y-97475000D02*
X55250000Y-99000000D01*
X74750000Y-96000000D02*
X74750000Y-99000000D01*
X74750000Y-99000000D02*
X77500000Y-99000000D01*
X55250000Y-99000000D02*
X74750000Y-99000000D01*
X77500000Y-99000000D02*
X79500000Y-99000000D01*
D39*
X68380000Y-67950000D02*
X67905000Y-67475000D01*
X70000000Y-67950000D02*
X68380000Y-67950000D01*
X80080000Y-62580000D02*
X80000000Y-62500000D01*
X80080000Y-65000000D02*
X80080000Y-62580000D01*
X95750000Y-62500000D02*
X80000000Y-62500000D01*
X55250000Y-62250000D02*
X54750000Y-62750000D01*
X61000000Y-62250000D02*
X55250000Y-62250000D01*
X63000000Y-64250000D02*
X61000000Y-62250000D01*
X54750000Y-62750000D02*
X54750000Y-64925000D01*
X67250000Y-64250000D02*
X63000000Y-64250000D01*
X69000000Y-64250000D02*
X67250000Y-64250000D01*
X70750000Y-62500000D02*
X69000000Y-64250000D01*
X80000000Y-62500000D02*
X70750000Y-62500000D01*
X67905000Y-64405000D02*
X67750000Y-64250000D01*
X67905000Y-67475000D02*
X67905000Y-64405000D01*
D38*
X89087500Y-86587500D02*
X90500000Y-88000000D01*
X86500000Y-86587500D02*
X89087500Y-86587500D01*
D40*
X90500000Y-88000000D02*
X91500000Y-87000000D01*
X79500000Y-99000000D02*
X90500000Y-88000000D01*
D38*
X79412500Y-71250000D02*
X81050000Y-71250000D01*
X79412500Y-65667500D02*
X80080000Y-65000000D01*
X79412500Y-71250000D02*
X79412500Y-65667500D01*
D40*
X94000000Y-77750000D02*
X94000000Y-82250000D01*
D38*
X90412500Y-71750000D02*
X90412500Y-73750000D01*
D39*
X95750000Y-69750000D02*
X95750000Y-71250000D01*
X96580000Y-68920000D02*
X95750000Y-69750000D01*
X95750000Y-71250000D02*
X95750000Y-75250000D01*
D38*
X95750000Y-71250000D02*
X97300000Y-71250000D01*
D40*
X94000000Y-77000000D02*
X95750000Y-75250000D01*
X94000000Y-77750000D02*
X94000000Y-77000000D01*
X94000000Y-84500000D02*
X91500000Y-87000000D01*
X94000000Y-82250000D02*
X94000000Y-84500000D01*
D38*
X95000000Y-85500000D02*
X94000000Y-84500000D01*
X97000000Y-85500000D02*
X95000000Y-85500000D01*
D40*
X85598000Y-77750000D02*
X94000000Y-77750000D01*
D38*
X90412500Y-73750000D02*
X90412500Y-74412500D01*
X90412500Y-74412500D02*
X92250000Y-76250000D01*
X93250000Y-76250000D02*
X94000000Y-77000000D01*
X92250000Y-76250000D02*
X93250000Y-76250000D01*
D40*
X94000000Y-81500000D02*
X94000000Y-82250000D01*
X90712000Y-81500000D02*
X94000000Y-81500000D01*
X90678000Y-81534000D02*
X90712000Y-81500000D01*
G04 #@! TO.N,+5V*
X107000000Y-109050000D02*
X107050000Y-109000000D01*
X136000000Y-114000000D02*
X136000000Y-111750000D01*
X135000000Y-110750000D02*
X135000000Y-109200000D01*
X136000000Y-111750000D02*
X135000000Y-110750000D01*
X108000000Y-114000000D02*
X108000000Y-111750000D01*
X107000000Y-110750000D02*
X107000000Y-109200000D01*
X108000000Y-111750000D02*
X107000000Y-110750000D01*
X80000000Y-114000000D02*
X80000000Y-111500000D01*
X79050000Y-110550000D02*
X79050000Y-109250000D01*
X80000000Y-111500000D02*
X79050000Y-110550000D01*
X52000000Y-114000000D02*
X52000000Y-111500000D01*
X51000000Y-110500000D02*
X51000000Y-109200000D01*
X52000000Y-111500000D02*
X51000000Y-110500000D01*
D38*
X135012500Y-109187500D02*
X135000000Y-109200000D01*
X137000000Y-109187500D02*
X135012500Y-109187500D01*
X107012500Y-109187500D02*
X107000000Y-109200000D01*
X109000000Y-109187500D02*
X107012500Y-109187500D01*
X79112500Y-109187500D02*
X79050000Y-109250000D01*
X81000000Y-109187500D02*
X79112500Y-109187500D01*
X51012500Y-109187500D02*
X51000000Y-109200000D01*
X53000000Y-109187500D02*
X51012500Y-109187500D01*
D39*
X94880000Y-103250000D02*
X95055000Y-103075000D01*
D37*
X93200000Y-103250000D02*
X94880000Y-103250000D01*
X95055000Y-104695000D02*
X95000000Y-104750000D01*
X95055000Y-103075000D02*
X95055000Y-104695000D01*
D38*
G04 #@! TO.N,Net-(D2-Pad1)*
X97000000Y-81912500D02*
X97000000Y-83625000D01*
G04 #@! TO.N,Net-(D3-Pad1)*
X89800000Y-96550000D02*
X89500000Y-96250000D01*
X89800000Y-97600000D02*
X89800000Y-96550000D01*
X137000000Y-106750000D02*
X137000000Y-107312500D01*
X137000000Y-106250000D02*
X137000000Y-107312500D01*
X119000000Y-105000000D02*
X135750000Y-105000000D01*
X135750000Y-105000000D02*
X137000000Y-106250000D01*
X116750000Y-102750000D02*
X119000000Y-105000000D01*
X110000000Y-102750000D02*
X116750000Y-102750000D01*
G04 #@! TO.N,Net-(D4-Pad1)*
X90600000Y-96100000D02*
X90500000Y-96000000D01*
X90600000Y-97600000D02*
X90600000Y-96100000D01*
X109000000Y-105000000D02*
X109000000Y-107312500D01*
G04 #@! TO.N,Net-(D5-Pad1)*
X91400000Y-97600000D02*
X91400000Y-96338056D01*
X81000000Y-107312500D02*
X81000000Y-104200000D01*
X82750000Y-101250000D02*
X81000000Y-101250000D01*
X89250000Y-94750000D02*
X82750000Y-101250000D01*
X91000000Y-94750000D02*
X89250000Y-94750000D01*
X91400000Y-95150000D02*
X91000000Y-94750000D01*
X91400000Y-97600000D02*
X91400000Y-95150000D01*
G04 #@! TO.N,Net-(D6-Pad1)*
X92200000Y-97600000D02*
X92200000Y-96799992D01*
X92200000Y-96799992D02*
X92499992Y-96500000D01*
X83250000Y-102000000D02*
X87250000Y-98000000D01*
X63750000Y-106000000D02*
X67750000Y-102000000D01*
X53500000Y-106000000D02*
X63750000Y-106000000D01*
X53000000Y-106500000D02*
X53500000Y-106000000D01*
X87250000Y-98000000D02*
X87750000Y-98000000D01*
X67750000Y-102000000D02*
X83250000Y-102000000D01*
X53000000Y-107312500D02*
X53000000Y-106500000D01*
D41*
G04 #@! TO.N,Net-(F1-Pad2)*
X156000000Y-119500000D02*
X156000000Y-133000000D01*
X152000000Y-115500000D02*
X156000000Y-119500000D01*
X152000000Y-109080000D02*
X152000000Y-115500000D01*
X148000000Y-105080000D02*
X152000000Y-109080000D01*
D38*
G04 #@! TO.N,/IO27*
X66215000Y-91000000D02*
X66215000Y-89785000D01*
X80899999Y-89649999D02*
X81000000Y-89750000D01*
X66350001Y-89649999D02*
X80899999Y-89649999D01*
X66215000Y-89785000D02*
X66350001Y-89649999D01*
X92000000Y-90750000D02*
X98750000Y-90750000D01*
X99900000Y-91900000D02*
X99900000Y-92850000D01*
X98750000Y-90750000D02*
X99900000Y-91900000D01*
G04 #@! TO.N,/IO26*
X99100000Y-92350000D02*
X99100000Y-92850000D01*
X98250000Y-91500000D02*
X99100000Y-92350000D01*
X94000000Y-91500000D02*
X98250000Y-91500000D01*
X71500000Y-89000000D02*
X80000000Y-89000000D01*
X71350011Y-89149989D02*
X71500000Y-89000000D01*
X65600011Y-89149989D02*
X71350011Y-89149989D01*
X80000000Y-89000000D02*
X80250000Y-88750000D01*
X64945000Y-89805000D02*
X65600011Y-89149989D01*
X64945000Y-91000000D02*
X64945000Y-89805000D01*
G04 #@! TO.N,/SDA*
X58595000Y-70845000D02*
X58250000Y-70500000D01*
X58595000Y-74000000D02*
X58595000Y-70845000D01*
X62000000Y-70500000D02*
X61000000Y-70500000D01*
X63000000Y-66500000D02*
X63000000Y-69500000D01*
X63750000Y-66250000D02*
X63250000Y-66250000D01*
X64095000Y-66595000D02*
X63750000Y-66250000D01*
X63000000Y-69500000D02*
X62000000Y-70500000D01*
X63250000Y-66250000D02*
X63000000Y-66500000D01*
X64095000Y-67475000D02*
X64095000Y-66595000D01*
X88587500Y-71750000D02*
X86500000Y-71750000D01*
X64095000Y-69095000D02*
X64095000Y-67475000D01*
X65900000Y-70900000D02*
X64095000Y-69095000D01*
X70150000Y-70900000D02*
X65900000Y-70900000D01*
X74000000Y-74750000D02*
X70150000Y-70900000D01*
X86500000Y-71750000D02*
X86250000Y-71750000D01*
X85500000Y-72500000D02*
X85500000Y-73000000D01*
X86250000Y-71750000D02*
X85500000Y-72500000D01*
X84500000Y-75000000D02*
X84250000Y-74750000D01*
X85500000Y-75000000D02*
X84500000Y-75000000D01*
X80518000Y-77750000D02*
X80518000Y-74768000D01*
X80518000Y-74768000D02*
X80500000Y-74750000D01*
X80500000Y-74750000D02*
X74000000Y-74750000D01*
X84250000Y-74750000D02*
X80500000Y-74750000D01*
G04 #@! TO.N,/SCL*
X54785000Y-70215000D02*
X55250000Y-69750000D01*
X54785000Y-74000000D02*
X54785000Y-70215000D01*
X65365000Y-66115000D02*
X65365000Y-67475000D01*
X64750000Y-65500000D02*
X65365000Y-66115000D01*
X63000000Y-65500000D02*
X64750000Y-65500000D01*
X62250000Y-66250000D02*
X63000000Y-65500000D01*
X62250000Y-69250000D02*
X62250000Y-66250000D01*
X61750000Y-69750000D02*
X62250000Y-69250000D01*
X60000000Y-69750000D02*
X61750000Y-69750000D01*
X88337500Y-74000000D02*
X88587500Y-73750000D01*
X84750000Y-74000000D02*
X88337500Y-74000000D01*
X84750000Y-74000000D02*
X84960000Y-74000000D01*
X74000000Y-74000000D02*
X84750000Y-74000000D01*
X70300000Y-70300000D02*
X74000000Y-74000000D01*
X66550000Y-70300000D02*
X70300000Y-70300000D01*
X65365000Y-69115000D02*
X66550000Y-70300000D01*
X65365000Y-67475000D02*
X65365000Y-69115000D01*
X83058000Y-77750000D02*
X83058000Y-76442000D01*
X83058000Y-76442000D02*
X83500000Y-76000000D01*
X83500000Y-76000000D02*
X87500000Y-76000000D01*
X88587500Y-74912500D02*
X88587500Y-73750000D01*
X87500000Y-76000000D02*
X88587500Y-74912500D01*
G04 #@! TO.N,/TX*
X56055000Y-74000000D02*
X56055000Y-68945000D01*
X56750000Y-68250000D02*
X56750000Y-64925000D01*
X56055000Y-68945000D02*
X56750000Y-68250000D01*
G04 #@! TO.N,/RX*
X57325000Y-74000000D02*
X57325000Y-69175000D01*
X57750000Y-68750000D02*
X57750000Y-64925000D01*
X57325000Y-69175000D02*
X57750000Y-68750000D01*
G04 #@! TO.N,/IO0*
X68755000Y-72255000D02*
X68755000Y-74000000D01*
X68000000Y-71500000D02*
X68755000Y-72255000D01*
X60250000Y-71500000D02*
X68000000Y-71500000D01*
X58750000Y-70000000D02*
X60250000Y-71500000D01*
X58750000Y-64925000D02*
X58750000Y-70000000D01*
G04 #@! TO.N,/EN*
X54785000Y-91000000D02*
X54785000Y-91885000D01*
X55587500Y-92687500D02*
X55587500Y-93500000D01*
X54785000Y-91885000D02*
X55587500Y-92687500D01*
X55587500Y-95462500D02*
X55550000Y-95500000D01*
X55587500Y-93500000D02*
X55587500Y-95462500D01*
X59750000Y-66750000D02*
X59500000Y-67000000D01*
X59750000Y-64925000D02*
X59750000Y-66750000D01*
X55750000Y-67000000D02*
X55750000Y-67750000D01*
X53500000Y-70000000D02*
X53500000Y-72000000D01*
X55750000Y-67750000D02*
X53500000Y-70000000D01*
X53500000Y-76500000D02*
X53500000Y-87500000D01*
X54785000Y-88785000D02*
X54785000Y-91000000D01*
X53500000Y-87500000D02*
X54785000Y-88785000D01*
G04 #@! TO.N,/ADC1_CH7*
X59865000Y-91000000D02*
X59865000Y-93165000D01*
X59865000Y-93165000D02*
X61000000Y-94300000D01*
X65430000Y-94300000D02*
X67130000Y-96000000D01*
X61000000Y-94300000D02*
X65430000Y-94300000D01*
G04 #@! TO.N,/ADC1_CH6*
X58595000Y-91000000D02*
X58595000Y-93195000D01*
X58595000Y-93195000D02*
X60100000Y-94700000D01*
X60100000Y-94700000D02*
X60100000Y-96900000D01*
X60100000Y-96900000D02*
X61000000Y-97800000D01*
X61000000Y-97800000D02*
X64000000Y-97800000D01*
X64590000Y-97210000D02*
X64590000Y-96000000D01*
X64000000Y-97800000D02*
X64590000Y-97210000D01*
G04 #@! TO.N,/ADC1_CH5*
X62405000Y-91000000D02*
X62405000Y-92805000D01*
X62405000Y-92805000D02*
X62700000Y-93100000D01*
X69310000Y-93100000D02*
X72210000Y-96000000D01*
X62700000Y-93100000D02*
X69310000Y-93100000D01*
G04 #@! TO.N,/ADC1_CH4*
X61135000Y-91000000D02*
X61135000Y-93035000D01*
X61135000Y-93035000D02*
X61800000Y-93700000D01*
X67370000Y-93700000D02*
X69670000Y-96000000D01*
X61800000Y-93700000D02*
X67370000Y-93700000D01*
G04 #@! TO.N,/IO19*
X61135000Y-74000000D02*
X61135000Y-75935000D01*
X62700000Y-77500000D02*
X66900000Y-77500000D01*
X61135000Y-75935000D02*
X62700000Y-77500000D01*
X73750000Y-77750006D02*
X73750000Y-80750000D01*
X73750000Y-80750000D02*
X76250000Y-83250000D01*
X76250000Y-83250000D02*
X82500000Y-83250000D01*
X83058000Y-82692000D02*
X83058000Y-81534000D01*
X82500000Y-83250000D02*
X83058000Y-82692000D01*
G04 #@! TO.N,/IO18*
X62405000Y-74000000D02*
X62405000Y-75805000D01*
X63300000Y-76700000D02*
X66300000Y-76700000D01*
X62405000Y-75805000D02*
X63300000Y-76700000D01*
X85598000Y-81534000D02*
X83132000Y-84000000D01*
X73000010Y-81000010D02*
X73000010Y-77488046D01*
X76000000Y-84000000D02*
X73000010Y-81000010D01*
X83132000Y-84000000D02*
X76000000Y-84000000D01*
X73000010Y-77488046D02*
X73747014Y-76741042D01*
G04 #@! TO.N,/IO17*
X64945000Y-72345000D02*
X64900000Y-72300000D01*
X64945000Y-74000000D02*
X64945000Y-72345000D01*
X71500000Y-68900000D02*
X73600000Y-68900000D01*
X73600000Y-68900000D02*
X75000000Y-67500000D01*
X75000000Y-67500000D02*
X75000000Y-66800000D01*
X75000000Y-66800000D02*
X75000000Y-65000000D01*
X77587500Y-71250000D02*
X77587500Y-66337500D01*
X76250000Y-65000000D02*
X75000000Y-65000000D01*
X77587500Y-66337500D02*
X76250000Y-65000000D01*
G04 #@! TO.N,/IO16*
X66215000Y-72315000D02*
X66200000Y-72300000D01*
X66215000Y-74000000D02*
X66215000Y-72315000D01*
X90400000Y-69600000D02*
X91500000Y-68500000D01*
X91500000Y-68500000D02*
X91500000Y-67400000D01*
X91500000Y-67400000D02*
X91500000Y-65000000D01*
X91500000Y-67400000D02*
X91500000Y-67100000D01*
X69300000Y-69600000D02*
X70850000Y-69600000D01*
X70850000Y-69600000D02*
X74500000Y-73250000D01*
X74500000Y-73250000D02*
X83250000Y-73250000D01*
X86900000Y-69600000D02*
X90400000Y-69600000D01*
X83250000Y-73250000D02*
X86900000Y-69600000D01*
X93925000Y-71250000D02*
X93925000Y-66175000D01*
X92750000Y-65000000D02*
X91500000Y-65000000D01*
X93925000Y-66175000D02*
X92750000Y-65000000D01*
D42*
G04 #@! TO.N,Net-(J8-Pad3)*
X136840000Y-127040000D02*
X136000000Y-126200000D01*
X136840000Y-138500000D02*
X136840000Y-127040000D01*
G04 #@! TO.N,Net-(J8-Pad1)*
X147000000Y-127200000D02*
X148000000Y-126200000D01*
X147000000Y-138500000D02*
X147000000Y-127200000D01*
G04 #@! TO.N,Net-(J9-Pad3)*
X108920000Y-127120000D02*
X108000000Y-126200000D01*
X108920000Y-138500000D02*
X108920000Y-127120000D01*
G04 #@! TO.N,Net-(J9-Pad1)*
X119080000Y-127120000D02*
X120000000Y-126200000D01*
X119080000Y-138500000D02*
X119080000Y-127120000D01*
G04 #@! TO.N,Net-(J10-Pad3)*
X80840000Y-127040000D02*
X80000000Y-126200000D01*
X80840000Y-138500000D02*
X80840000Y-127040000D01*
G04 #@! TO.N,Net-(J10-Pad1)*
X91000000Y-127200000D02*
X92000000Y-126200000D01*
X91000000Y-138500000D02*
X91000000Y-127200000D01*
G04 #@! TO.N,Net-(J11-Pad3)*
X52840000Y-127040000D02*
X52000000Y-126200000D01*
X52840000Y-138500000D02*
X52840000Y-127040000D01*
G04 #@! TO.N,Net-(J11-Pad1)*
X63000000Y-127200000D02*
X64000000Y-126200000D01*
X63000000Y-138500000D02*
X63000000Y-127200000D01*
D36*
G04 #@! TO.N,/Relay/O1*
X102675000Y-103075000D02*
X102675000Y-102075000D01*
X102675000Y-102075000D02*
X103250000Y-101500000D01*
X103945000Y-102195000D02*
X103945000Y-103075000D01*
X103250000Y-101500000D02*
X103945000Y-102195000D01*
D38*
X89800000Y-100950000D02*
X89750000Y-101000000D01*
X89800000Y-99400000D02*
X89800000Y-100950000D01*
X103000000Y-101250000D02*
X103250000Y-101500000D01*
X101000000Y-101250000D02*
X103000000Y-101250000D01*
D37*
X117250000Y-101500000D02*
X103250000Y-101500000D01*
X119750000Y-104000000D02*
X117250000Y-101500000D01*
X141000000Y-104000000D02*
X119750000Y-104000000D01*
X148000000Y-111000000D02*
X141000000Y-104000000D01*
X148000000Y-114000000D02*
X148000000Y-111000000D01*
D36*
G04 #@! TO.N,/Relay/O3*
X97595000Y-103075000D02*
X97595000Y-104345000D01*
X98865000Y-103075000D02*
X98865000Y-104385000D01*
X98865000Y-104385000D02*
X98250000Y-105000000D01*
X97595000Y-104345000D02*
X98250000Y-105000000D01*
D38*
X91400000Y-100650000D02*
X91750000Y-101000000D01*
X91400000Y-99400000D02*
X91400000Y-100650000D01*
X97595000Y-102200000D02*
X97595000Y-103075000D01*
X96395000Y-101000000D02*
X97595000Y-102200000D01*
X93750000Y-101000000D02*
X96395000Y-101000000D01*
D37*
X98250000Y-106250000D02*
X98250000Y-105000000D01*
X97250000Y-107250000D02*
X98250000Y-106250000D01*
X93250000Y-107250000D02*
X97250000Y-107250000D01*
X92000000Y-108500000D02*
X93250000Y-107250000D01*
X92000000Y-114000000D02*
X92000000Y-108500000D01*
D38*
G04 #@! TO.N,/Relay/I3*
X97595000Y-97925000D02*
X97595000Y-96405000D01*
X97595000Y-96405000D02*
X97750000Y-96250000D01*
X98865000Y-97925000D02*
X98865000Y-96365000D01*
X98865000Y-96365000D02*
X98750000Y-96250000D01*
X98750000Y-96250000D02*
X97750000Y-96250000D01*
X99100000Y-95900000D02*
X98750000Y-96250000D01*
X99100000Y-94650000D02*
X99100000Y-95900000D01*
G04 #@! TO.N,/Relay/I1*
X100700000Y-94650000D02*
X100700000Y-95200000D01*
X100700000Y-95200000D02*
X101250000Y-95750000D01*
X102675000Y-96175000D02*
X102250000Y-95750000D01*
X102675000Y-97925000D02*
X102675000Y-96175000D01*
X101250000Y-95750000D02*
X102250000Y-95750000D01*
X103945000Y-97925000D02*
X103945000Y-96195000D01*
X103925000Y-96175000D02*
X102675000Y-96175000D01*
X103945000Y-96195000D02*
X103925000Y-96175000D01*
D41*
G04 #@! TO.N,/N*
X148000000Y-86000000D02*
X156500000Y-77500000D01*
X148000000Y-100000000D02*
X148000000Y-86000000D01*
D36*
G04 #@! TO.N,/Relay/O2*
X100135000Y-103075000D02*
X100135000Y-104385000D01*
X100135000Y-104385000D02*
X100750000Y-105000000D01*
X101405000Y-104345000D02*
X101405000Y-103075000D01*
X100750000Y-105000000D02*
X101405000Y-104345000D01*
D37*
X100750000Y-105000000D02*
X100750000Y-106250000D01*
X100750000Y-106250000D02*
X101500000Y-107000000D01*
X101500000Y-107000000D02*
X103000000Y-107000000D01*
X103000000Y-107000000D02*
X106000000Y-104000000D01*
X106000000Y-104000000D02*
X115750000Y-104000000D01*
X120000000Y-108250000D02*
X120000000Y-114000000D01*
X115750000Y-104000000D02*
X120000000Y-108250000D01*
D38*
X90600000Y-100850000D02*
X90750000Y-101000000D01*
X90600000Y-99400000D02*
X90600000Y-100850000D01*
X99500000Y-101250000D02*
X100135000Y-101885000D01*
X100135000Y-101885000D02*
X100135000Y-103075000D01*
X98250000Y-101250000D02*
X99500000Y-101250000D01*
D36*
G04 #@! TO.N,/Relay/O4*
X96325000Y-103075000D02*
X96325000Y-104425000D01*
D37*
X64000000Y-109500000D02*
X64000000Y-114000000D01*
X70500000Y-103000000D02*
X64000000Y-109500000D01*
X82500000Y-103000000D02*
X70500000Y-103000000D01*
X85000000Y-105500000D02*
X82500000Y-103000000D01*
D38*
X89500000Y-101750000D02*
X88500000Y-102750000D01*
X92500000Y-101750000D02*
X89500000Y-101750000D01*
X92750000Y-100750000D02*
X92750000Y-101500000D01*
X92750000Y-101500000D02*
X92500000Y-101750000D01*
X92200000Y-100200000D02*
X92750000Y-100750000D01*
X92200000Y-99400000D02*
X92200000Y-100200000D01*
D37*
X88500000Y-105500000D02*
X85000000Y-105500000D01*
D38*
X88500000Y-102750000D02*
X88500000Y-105500000D01*
D37*
X95500000Y-106000000D02*
X89000000Y-106000000D01*
X96325000Y-105175000D02*
X95500000Y-106000000D01*
X89000000Y-106000000D02*
X88500000Y-105500000D01*
X96325000Y-104425000D02*
X96325000Y-105175000D01*
D38*
G04 #@! TO.N,/Relay/I2*
X100135000Y-97925000D02*
X100135000Y-96615000D01*
X101405000Y-97925000D02*
X101405000Y-96405000D01*
X101405000Y-96405000D02*
X101250000Y-96250000D01*
X101250000Y-96250000D02*
X100500000Y-96250000D01*
X99900000Y-95900000D02*
X100375000Y-96375000D01*
X99900000Y-94650000D02*
X99900000Y-95900000D01*
X100375000Y-96375000D02*
X100135000Y-96615000D01*
X100500000Y-96250000D02*
X100375000Y-96375000D01*
G04 #@! TO.N,/Relay/I4*
X96325000Y-97925000D02*
X96325000Y-96425000D01*
X96325000Y-96425000D02*
X97250000Y-95500000D01*
X97250000Y-95500000D02*
X97750000Y-95500000D01*
X98300000Y-94950000D02*
X98300000Y-94650000D01*
X97750000Y-95500000D02*
X98300000Y-94950000D01*
G04 #@! TO.N,/IO25*
X63675000Y-91000000D02*
X63675000Y-92175000D01*
X63675000Y-92175000D02*
X64000000Y-92500000D01*
X64000000Y-92500000D02*
X71750000Y-92500000D01*
X72750000Y-91500000D02*
X74020000Y-91500000D01*
X71750000Y-92500000D02*
X72750000Y-91500000D01*
X74020000Y-91500000D02*
X81980000Y-91500000D01*
X81980000Y-91500000D02*
X81980000Y-89520000D01*
X83050000Y-88450000D02*
X84500000Y-88450000D01*
X81980000Y-89520000D02*
X83050000Y-88450000D01*
X86462500Y-88450000D02*
X86500000Y-88412500D01*
X84500000Y-88450000D02*
X86462500Y-88450000D01*
G04 #@! TO.N,/IO13*
X69755000Y-86945000D02*
X71445000Y-86945000D01*
X71445000Y-86945000D02*
X72750000Y-88250000D01*
X72750000Y-88250000D02*
X75500000Y-88250000D01*
X79250000Y-88250000D02*
X79300000Y-88300000D01*
X75500000Y-88250000D02*
X79250000Y-88250000D01*
X92000000Y-91700000D02*
X92700000Y-91700000D01*
X93850000Y-92850000D02*
X98300000Y-92850000D01*
X92700000Y-91700000D02*
X93850000Y-92850000D01*
G04 #@! TO.N,/IO4*
X100700000Y-91500000D02*
X100700000Y-92850000D01*
X99200000Y-90000000D02*
X100700000Y-91500000D01*
X95100000Y-90000000D02*
X99200000Y-90000000D01*
X77500000Y-87500000D02*
X78400000Y-87500000D01*
X71900000Y-81900000D02*
X77500000Y-87500000D01*
X71200000Y-75600000D02*
X71900000Y-76300000D01*
X71900000Y-76300000D02*
X71900000Y-81900000D01*
X68100000Y-75600000D02*
X71200000Y-75600000D01*
X67485000Y-74985000D02*
X68100000Y-75600000D01*
X67485000Y-74000000D02*
X67485000Y-74985000D01*
G04 #@! TO.N,/IO23*
X53515000Y-74000000D02*
X53515000Y-75115000D01*
X53515000Y-75115000D02*
X54300000Y-75900000D01*
X54300000Y-75900000D02*
X59700000Y-75900000D01*
X62100000Y-78300000D02*
X66300000Y-78300000D01*
X59700000Y-75900000D02*
X62100000Y-78300000D01*
X80518000Y-80518000D02*
X80518000Y-81534000D01*
X79750000Y-79750000D02*
X80518000Y-80518000D01*
X75500000Y-79750000D02*
X79750000Y-79750000D01*
X74750000Y-79000000D02*
X75500000Y-79750000D01*
X74750000Y-78300012D02*
X74750000Y-79000000D01*
G04 #@! TO.N,/IO5*
X63675000Y-74000000D02*
X63675000Y-75475000D01*
X63675000Y-75475000D02*
X64200000Y-76000000D01*
X64200000Y-76000000D02*
X66900000Y-76000000D01*
X88138000Y-83112000D02*
X88138000Y-81534000D01*
X86750000Y-84500000D02*
X88138000Y-83112000D01*
X75500000Y-84500000D02*
X86750000Y-84500000D01*
X72500000Y-81500000D02*
X75500000Y-84500000D01*
X72500000Y-76562738D02*
X72500000Y-81500000D01*
X73105732Y-75957006D02*
X72500000Y-76562738D01*
G04 #@! TD*
D43*
G04 #@! TO.N,GND*
X95623000Y-96073087D02*
X95596246Y-96123141D01*
X95551359Y-96271114D01*
X95536203Y-96425000D01*
X95540001Y-96463562D01*
X95540001Y-96737486D01*
X95519742Y-96762171D01*
X95446916Y-96898418D01*
X95402071Y-97046255D01*
X95386928Y-97200000D01*
X95386928Y-98650000D01*
X95402071Y-98803745D01*
X95423079Y-98873000D01*
X94377777Y-98873000D01*
X94401228Y-95027000D01*
X95623000Y-95027000D01*
X95623000Y-96073087D01*
G04 #@! TA.AperFunction,Conductor*
D44*
G36*
X95623000Y-96073087D02*
G01*
X95596246Y-96123141D01*
X95551359Y-96271114D01*
X95536203Y-96425000D01*
X95540001Y-96463562D01*
X95540001Y-96737486D01*
X95519742Y-96762171D01*
X95446916Y-96898418D01*
X95402071Y-97046255D01*
X95386928Y-97200000D01*
X95386928Y-98650000D01*
X95402071Y-98803745D01*
X95423079Y-98873000D01*
X94377777Y-98873000D01*
X94401228Y-95027000D01*
X95623000Y-95027000D01*
X95623000Y-96073087D01*
G37*
G04 #@! TD.AperFunction*
G04 #@! TD*
D43*
G04 #@! TO.N,+3V3*
X53973000Y-92400000D02*
X53975440Y-92424776D01*
X53982667Y-92448601D01*
X53994403Y-92470557D01*
X54010197Y-92489803D01*
X54023800Y-92501600D01*
X54373000Y-92763500D01*
X54373000Y-96873000D01*
X53127000Y-96873000D01*
X53127000Y-89927000D01*
X53973000Y-89927000D01*
X53973000Y-92400000D01*
G04 #@! TA.AperFunction,Conductor*
D44*
G36*
X53973000Y-92400000D02*
G01*
X53975440Y-92424776D01*
X53982667Y-92448601D01*
X53994403Y-92470557D01*
X54010197Y-92489803D01*
X54023800Y-92501600D01*
X54373000Y-92763500D01*
X54373000Y-96873000D01*
X53127000Y-96873000D01*
X53127000Y-89927000D01*
X53973000Y-89927000D01*
X53973000Y-92400000D01*
G37*
G04 #@! TD.AperFunction*
G04 #@! TD*
D43*
G04 #@! TO.N,GND*
X52573000Y-92247394D02*
X52410197Y-92410197D01*
X52394403Y-92429443D01*
X52382667Y-92451399D01*
X52375440Y-92475224D01*
X52373000Y-92500000D01*
X52373000Y-96773000D01*
X50027000Y-96773000D01*
X50027000Y-94888011D01*
X50744593Y-94618914D01*
X50766935Y-94607929D01*
X50786705Y-94592797D01*
X50803142Y-94574099D01*
X50815617Y-94552553D01*
X50823648Y-94528988D01*
X50827000Y-94500000D01*
X50827000Y-89027000D01*
X52573000Y-89027000D01*
X52573000Y-92247394D01*
G04 #@! TA.AperFunction,Conductor*
D44*
G36*
X52573000Y-92247394D02*
G01*
X52410197Y-92410197D01*
X52394403Y-92429443D01*
X52382667Y-92451399D01*
X52375440Y-92475224D01*
X52373000Y-92500000D01*
X52373000Y-96773000D01*
X50027000Y-96773000D01*
X50027000Y-94888011D01*
X50744593Y-94618914D01*
X50766935Y-94607929D01*
X50786705Y-94592797D01*
X50803142Y-94574099D01*
X50815617Y-94552553D01*
X50823648Y-94528988D01*
X50827000Y-94500000D01*
X50827000Y-89027000D01*
X52573000Y-89027000D01*
X52573000Y-92247394D01*
G37*
G04 #@! TD.AperFunction*
G04 #@! TD*
D43*
G04 #@! TO.N,GND*
X52623000Y-75773000D02*
X51427000Y-75773000D01*
X51427000Y-72877000D01*
X52623000Y-72877000D01*
X52623000Y-75773000D01*
G04 #@! TA.AperFunction,Conductor*
D44*
G36*
X52623000Y-75773000D02*
G01*
X51427000Y-75773000D01*
X51427000Y-72877000D01*
X52623000Y-72877000D01*
X52623000Y-75773000D01*
G37*
G04 #@! TD.AperFunction*
G04 #@! TD*
D43*
G04 #@! TO.N,GND*
X63596257Y-79140769D02*
X63685955Y-79177923D01*
X63762976Y-79237024D01*
X63822077Y-79314045D01*
X63859231Y-79403743D01*
X63873000Y-79508328D01*
X63873000Y-87491672D01*
X63859231Y-87596257D01*
X63822077Y-87685955D01*
X63762976Y-87762976D01*
X63685955Y-87822077D01*
X63596257Y-87859231D01*
X63491672Y-87873000D01*
X56008328Y-87873000D01*
X55903743Y-87859231D01*
X55814045Y-87822077D01*
X55737024Y-87762976D01*
X55677923Y-87685955D01*
X55640769Y-87596257D01*
X55627000Y-87491672D01*
X55627000Y-86000000D01*
X56606928Y-86000000D01*
X56619188Y-86124482D01*
X56655498Y-86244180D01*
X56714463Y-86354494D01*
X56793815Y-86451185D01*
X56890506Y-86530537D01*
X57000820Y-86589502D01*
X57120518Y-86625812D01*
X57245000Y-86638072D01*
X59459250Y-86635000D01*
X59618000Y-86476250D01*
X59618000Y-83627000D01*
X59872000Y-83627000D01*
X59872000Y-86476250D01*
X60030750Y-86635000D01*
X62245000Y-86638072D01*
X62369482Y-86625812D01*
X62489180Y-86589502D01*
X62599494Y-86530537D01*
X62696185Y-86451185D01*
X62775537Y-86354494D01*
X62834502Y-86244180D01*
X62870812Y-86124482D01*
X62883072Y-86000000D01*
X62880000Y-83785750D01*
X62721250Y-83627000D01*
X59872000Y-83627000D01*
X59618000Y-83627000D01*
X56768750Y-83627000D01*
X56610000Y-83785750D01*
X56606928Y-86000000D01*
X55627000Y-86000000D01*
X55627000Y-81000000D01*
X56606928Y-81000000D01*
X56610000Y-83214250D01*
X56768750Y-83373000D01*
X59618000Y-83373000D01*
X59618000Y-80523750D01*
X59872000Y-80523750D01*
X59872000Y-83373000D01*
X62721250Y-83373000D01*
X62880000Y-83214250D01*
X62883072Y-81000000D01*
X62870812Y-80875518D01*
X62834502Y-80755820D01*
X62775537Y-80645506D01*
X62696185Y-80548815D01*
X62599494Y-80469463D01*
X62489180Y-80410498D01*
X62369482Y-80374188D01*
X62245000Y-80361928D01*
X60030750Y-80365000D01*
X59872000Y-80523750D01*
X59618000Y-80523750D01*
X59459250Y-80365000D01*
X57245000Y-80361928D01*
X57120518Y-80374188D01*
X57000820Y-80410498D01*
X56890506Y-80469463D01*
X56793815Y-80548815D01*
X56714463Y-80645506D01*
X56655498Y-80755820D01*
X56619188Y-80875518D01*
X56606928Y-81000000D01*
X55627000Y-81000000D01*
X55627000Y-79508328D01*
X55640769Y-79403743D01*
X55677923Y-79314045D01*
X55737024Y-79237024D01*
X55814045Y-79177923D01*
X55903743Y-79140769D01*
X56008328Y-79127000D01*
X63491672Y-79127000D01*
X63596257Y-79140769D01*
G04 #@! TA.AperFunction,Conductor*
D44*
G36*
X63596257Y-79140769D02*
G01*
X63685955Y-79177923D01*
X63762976Y-79237024D01*
X63822077Y-79314045D01*
X63859231Y-79403743D01*
X63873000Y-79508328D01*
X63873000Y-87491672D01*
X63859231Y-87596257D01*
X63822077Y-87685955D01*
X63762976Y-87762976D01*
X63685955Y-87822077D01*
X63596257Y-87859231D01*
X63491672Y-87873000D01*
X56008328Y-87873000D01*
X55903743Y-87859231D01*
X55814045Y-87822077D01*
X55737024Y-87762976D01*
X55677923Y-87685955D01*
X55640769Y-87596257D01*
X55627000Y-87491672D01*
X55627000Y-86000000D01*
X56606928Y-86000000D01*
X56619188Y-86124482D01*
X56655498Y-86244180D01*
X56714463Y-86354494D01*
X56793815Y-86451185D01*
X56890506Y-86530537D01*
X57000820Y-86589502D01*
X57120518Y-86625812D01*
X57245000Y-86638072D01*
X59459250Y-86635000D01*
X59618000Y-86476250D01*
X59618000Y-83627000D01*
X59872000Y-83627000D01*
X59872000Y-86476250D01*
X60030750Y-86635000D01*
X62245000Y-86638072D01*
X62369482Y-86625812D01*
X62489180Y-86589502D01*
X62599494Y-86530537D01*
X62696185Y-86451185D01*
X62775537Y-86354494D01*
X62834502Y-86244180D01*
X62870812Y-86124482D01*
X62883072Y-86000000D01*
X62880000Y-83785750D01*
X62721250Y-83627000D01*
X59872000Y-83627000D01*
X59618000Y-83627000D01*
X56768750Y-83627000D01*
X56610000Y-83785750D01*
X56606928Y-86000000D01*
X55627000Y-86000000D01*
X55627000Y-81000000D01*
X56606928Y-81000000D01*
X56610000Y-83214250D01*
X56768750Y-83373000D01*
X59618000Y-83373000D01*
X59618000Y-80523750D01*
X59872000Y-80523750D01*
X59872000Y-83373000D01*
X62721250Y-83373000D01*
X62880000Y-83214250D01*
X62883072Y-81000000D01*
X62870812Y-80875518D01*
X62834502Y-80755820D01*
X62775537Y-80645506D01*
X62696185Y-80548815D01*
X62599494Y-80469463D01*
X62489180Y-80410498D01*
X62369482Y-80374188D01*
X62245000Y-80361928D01*
X60030750Y-80365000D01*
X59872000Y-80523750D01*
X59618000Y-80523750D01*
X59459250Y-80365000D01*
X57245000Y-80361928D01*
X57120518Y-80374188D01*
X57000820Y-80410498D01*
X56890506Y-80469463D01*
X56793815Y-80548815D01*
X56714463Y-80645506D01*
X56655498Y-80755820D01*
X56619188Y-80875518D01*
X56606928Y-81000000D01*
X55627000Y-81000000D01*
X55627000Y-79508328D01*
X55640769Y-79403743D01*
X55677923Y-79314045D01*
X55737024Y-79237024D01*
X55814045Y-79177923D01*
X55903743Y-79140769D01*
X56008328Y-79127000D01*
X63491672Y-79127000D01*
X63596257Y-79140769D01*
G37*
G04 #@! TD.AperFunction*
G04 #@! TD*
D43*
G04 #@! TO.N,+5V*
X113096257Y-77140769D02*
X113185955Y-77177923D01*
X113262976Y-77237024D01*
X113322077Y-77314045D01*
X113359231Y-77403743D01*
X113373000Y-77508328D01*
X113373000Y-82792893D01*
X113374086Y-82809470D01*
X113391123Y-82938880D01*
X113399704Y-82970904D01*
X113449654Y-83091494D01*
X113466231Y-83120206D01*
X113545691Y-83223760D01*
X113556644Y-83236250D01*
X114263750Y-83943356D01*
X114276240Y-83954309D01*
X114379794Y-84033769D01*
X114408506Y-84050346D01*
X114529096Y-84100296D01*
X114561120Y-84108877D01*
X114690530Y-84125914D01*
X114707107Y-84127000D01*
X116991672Y-84127000D01*
X117096257Y-84140769D01*
X117185955Y-84177923D01*
X117262976Y-84237024D01*
X117322077Y-84314045D01*
X117359231Y-84403743D01*
X117373000Y-84508328D01*
X117373000Y-85784565D01*
X117359231Y-85889150D01*
X117322078Y-85978845D01*
X117257866Y-86062528D01*
X113812528Y-89507866D01*
X113728845Y-89572078D01*
X113639150Y-89609231D01*
X113534565Y-89623000D01*
X105676904Y-89623000D01*
X105549240Y-89602283D01*
X105434676Y-89542257D01*
X104709533Y-88998400D01*
X104692275Y-88987506D01*
X104550389Y-88913164D01*
X104527310Y-88903827D01*
X104511790Y-88900298D01*
X104353676Y-88874640D01*
X104333333Y-88873000D01*
X99258328Y-88873000D01*
X99153743Y-88859231D01*
X99064045Y-88822077D01*
X98987024Y-88762976D01*
X98927923Y-88685955D01*
X98890769Y-88596257D01*
X98877000Y-88491672D01*
X98877000Y-83508328D01*
X98890769Y-83403743D01*
X98927923Y-83314045D01*
X98987024Y-83237024D01*
X99064045Y-83177923D01*
X99153743Y-83140769D01*
X99258328Y-83127000D01*
X102208716Y-83127000D01*
X102311657Y-83140332D01*
X102400160Y-83176339D01*
X102476567Y-83233703D01*
X102540961Y-83315112D01*
X102995447Y-84072589D01*
X103004742Y-84086035D01*
X103084423Y-84186772D01*
X103107781Y-84209548D01*
X103210497Y-84286663D01*
X103238886Y-84302737D01*
X103357858Y-84351140D01*
X103389406Y-84359451D01*
X103516783Y-84375948D01*
X103533095Y-84377000D01*
X106250000Y-84377000D01*
X106266577Y-84375914D01*
X106395987Y-84358877D01*
X106428011Y-84350296D01*
X106548601Y-84300346D01*
X106577313Y-84283768D01*
X106680866Y-84204308D01*
X106704308Y-84180866D01*
X106783768Y-84077313D01*
X106800346Y-84048601D01*
X106850296Y-83928011D01*
X106858877Y-83895987D01*
X106875914Y-83766577D01*
X106877000Y-83750000D01*
X106877000Y-80739107D01*
X106893567Y-80624613D01*
X106938046Y-80527905D01*
X107014194Y-80440816D01*
X108408046Y-79246087D01*
X108421003Y-79233257D01*
X108515263Y-79125454D01*
X108535037Y-79094925D01*
X108594874Y-78964825D01*
X108605184Y-78929945D01*
X108625691Y-78788220D01*
X108627000Y-78770033D01*
X108627000Y-77508328D01*
X108640769Y-77403743D01*
X108677923Y-77314045D01*
X108737024Y-77237024D01*
X108814045Y-77177923D01*
X108903743Y-77140769D01*
X109008328Y-77127000D01*
X112991672Y-77127000D01*
X113096257Y-77140769D01*
G04 #@! TA.AperFunction,Conductor*
D44*
G36*
X113096257Y-77140769D02*
G01*
X113185955Y-77177923D01*
X113262976Y-77237024D01*
X113322077Y-77314045D01*
X113359231Y-77403743D01*
X113373000Y-77508328D01*
X113373000Y-82792893D01*
X113374086Y-82809470D01*
X113391123Y-82938880D01*
X113399704Y-82970904D01*
X113449654Y-83091494D01*
X113466231Y-83120206D01*
X113545691Y-83223760D01*
X113556644Y-83236250D01*
X114263750Y-83943356D01*
X114276240Y-83954309D01*
X114379794Y-84033769D01*
X114408506Y-84050346D01*
X114529096Y-84100296D01*
X114561120Y-84108877D01*
X114690530Y-84125914D01*
X114707107Y-84127000D01*
X116991672Y-84127000D01*
X117096257Y-84140769D01*
X117185955Y-84177923D01*
X117262976Y-84237024D01*
X117322077Y-84314045D01*
X117359231Y-84403743D01*
X117373000Y-84508328D01*
X117373000Y-85784565D01*
X117359231Y-85889150D01*
X117322078Y-85978845D01*
X117257866Y-86062528D01*
X113812528Y-89507866D01*
X113728845Y-89572078D01*
X113639150Y-89609231D01*
X113534565Y-89623000D01*
X105676904Y-89623000D01*
X105549240Y-89602283D01*
X105434676Y-89542257D01*
X104709533Y-88998400D01*
X104692275Y-88987506D01*
X104550389Y-88913164D01*
X104527310Y-88903827D01*
X104511790Y-88900298D01*
X104353676Y-88874640D01*
X104333333Y-88873000D01*
X99258328Y-88873000D01*
X99153743Y-88859231D01*
X99064045Y-88822077D01*
X98987024Y-88762976D01*
X98927923Y-88685955D01*
X98890769Y-88596257D01*
X98877000Y-88491672D01*
X98877000Y-83508328D01*
X98890769Y-83403743D01*
X98927923Y-83314045D01*
X98987024Y-83237024D01*
X99064045Y-83177923D01*
X99153743Y-83140769D01*
X99258328Y-83127000D01*
X102208716Y-83127000D01*
X102311657Y-83140332D01*
X102400160Y-83176339D01*
X102476567Y-83233703D01*
X102540961Y-83315112D01*
X102995447Y-84072589D01*
X103004742Y-84086035D01*
X103084423Y-84186772D01*
X103107781Y-84209548D01*
X103210497Y-84286663D01*
X103238886Y-84302737D01*
X103357858Y-84351140D01*
X103389406Y-84359451D01*
X103516783Y-84375948D01*
X103533095Y-84377000D01*
X106250000Y-84377000D01*
X106266577Y-84375914D01*
X106395987Y-84358877D01*
X106428011Y-84350296D01*
X106548601Y-84300346D01*
X106577313Y-84283768D01*
X106680866Y-84204308D01*
X106704308Y-84180866D01*
X106783768Y-84077313D01*
X106800346Y-84048601D01*
X106850296Y-83928011D01*
X106858877Y-83895987D01*
X106875914Y-83766577D01*
X106877000Y-83750000D01*
X106877000Y-80739107D01*
X106893567Y-80624613D01*
X106938046Y-80527905D01*
X107014194Y-80440816D01*
X108408046Y-79246087D01*
X108421003Y-79233257D01*
X108515263Y-79125454D01*
X108535037Y-79094925D01*
X108594874Y-78964825D01*
X108605184Y-78929945D01*
X108625691Y-78788220D01*
X108627000Y-78770033D01*
X108627000Y-77508328D01*
X108640769Y-77403743D01*
X108677923Y-77314045D01*
X108737024Y-77237024D01*
X108814045Y-77177923D01*
X108903743Y-77140769D01*
X109008328Y-77127000D01*
X112991672Y-77127000D01*
X113096257Y-77140769D01*
G37*
G04 #@! TD.AperFunction*
G04 #@! TD*
D43*
G04 #@! TO.N,GND*
X105346257Y-76890769D02*
X105435955Y-76927923D01*
X105512976Y-76987024D01*
X105572077Y-77064045D01*
X105609231Y-77153743D01*
X105623000Y-77258328D01*
X105623000Y-79042893D01*
X105624086Y-79059470D01*
X105641123Y-79188880D01*
X105649704Y-79220904D01*
X105699654Y-79341494D01*
X105716231Y-79370206D01*
X105795691Y-79473760D01*
X105806644Y-79486250D01*
X106257866Y-79937472D01*
X106322078Y-80021155D01*
X106359231Y-80110850D01*
X106373000Y-80215435D01*
X106373000Y-83241672D01*
X106359231Y-83346257D01*
X106322077Y-83435955D01*
X106262976Y-83512976D01*
X106185955Y-83572077D01*
X106096257Y-83609231D01*
X105991672Y-83623000D01*
X104528016Y-83623000D01*
X104398125Y-83601532D01*
X104291369Y-83544397D01*
X104201453Y-83448227D01*
X103504103Y-82402203D01*
X103491201Y-82385914D01*
X103379833Y-82266800D01*
X103361129Y-82250369D01*
X103346991Y-82241564D01*
X103203219Y-82164619D01*
X103180223Y-82155079D01*
X103164003Y-82151291D01*
X103003118Y-82124700D01*
X102982408Y-82123000D01*
X99258328Y-82123000D01*
X99153743Y-82109231D01*
X99064045Y-82072077D01*
X98987024Y-82012976D01*
X98927923Y-81935955D01*
X98890769Y-81846257D01*
X98877000Y-81741672D01*
X98877000Y-77258328D01*
X98890769Y-77153743D01*
X98927923Y-77064045D01*
X98987024Y-76987024D01*
X99064045Y-76927923D01*
X99153743Y-76890769D01*
X99258328Y-76877000D01*
X105241672Y-76877000D01*
X105346257Y-76890769D01*
G04 #@! TA.AperFunction,Conductor*
D44*
G36*
X105346257Y-76890769D02*
G01*
X105435955Y-76927923D01*
X105512976Y-76987024D01*
X105572077Y-77064045D01*
X105609231Y-77153743D01*
X105623000Y-77258328D01*
X105623000Y-79042893D01*
X105624086Y-79059470D01*
X105641123Y-79188880D01*
X105649704Y-79220904D01*
X105699654Y-79341494D01*
X105716231Y-79370206D01*
X105795691Y-79473760D01*
X105806644Y-79486250D01*
X106257866Y-79937472D01*
X106322078Y-80021155D01*
X106359231Y-80110850D01*
X106373000Y-80215435D01*
X106373000Y-83241672D01*
X106359231Y-83346257D01*
X106322077Y-83435955D01*
X106262976Y-83512976D01*
X106185955Y-83572077D01*
X106096257Y-83609231D01*
X105991672Y-83623000D01*
X104528016Y-83623000D01*
X104398125Y-83601532D01*
X104291369Y-83544397D01*
X104201453Y-83448227D01*
X103504103Y-82402203D01*
X103491201Y-82385914D01*
X103379833Y-82266800D01*
X103361129Y-82250369D01*
X103346991Y-82241564D01*
X103203219Y-82164619D01*
X103180223Y-82155079D01*
X103164003Y-82151291D01*
X103003118Y-82124700D01*
X102982408Y-82123000D01*
X99258328Y-82123000D01*
X99153743Y-82109231D01*
X99064045Y-82072077D01*
X98987024Y-82012976D01*
X98927923Y-81935955D01*
X98890769Y-81846257D01*
X98877000Y-81741672D01*
X98877000Y-77258328D01*
X98890769Y-77153743D01*
X98927923Y-77064045D01*
X98987024Y-76987024D01*
X99064045Y-76927923D01*
X99153743Y-76890769D01*
X99258328Y-76877000D01*
X105241672Y-76877000D01*
X105346257Y-76890769D01*
G37*
G04 #@! TD.AperFunction*
G04 #@! TD*
D43*
G04 #@! TO.N,+3V3*
X123859231Y-59403743D02*
X123873000Y-59508328D01*
X123873000Y-66991672D01*
X123859231Y-67096257D01*
X123822077Y-67185955D01*
X123762976Y-67262976D01*
X123685955Y-67322077D01*
X123596257Y-67359231D01*
X123491672Y-67373000D01*
X116246201Y-67373000D01*
X116226906Y-67374474D01*
X116076743Y-67397556D01*
X116052625Y-67403732D01*
X116039936Y-67409145D01*
X115903638Y-67476258D01*
X115882488Y-67489393D01*
X115872009Y-67498367D01*
X115762158Y-67603317D01*
X115749226Y-67617712D01*
X113503025Y-70537773D01*
X113491738Y-70555238D01*
X113414681Y-70699090D01*
X113405133Y-70722083D01*
X113401333Y-70738333D01*
X113374702Y-70899336D01*
X113373000Y-70920061D01*
X113373000Y-75991672D01*
X113359231Y-76096257D01*
X113322077Y-76185955D01*
X113262976Y-76262976D01*
X113185955Y-76322077D01*
X113096257Y-76359231D01*
X112991672Y-76373000D01*
X108750000Y-76373000D01*
X108733423Y-76374086D01*
X108604013Y-76391123D01*
X108571989Y-76399704D01*
X108451399Y-76449654D01*
X108422687Y-76466232D01*
X108319134Y-76545692D01*
X108295692Y-76569134D01*
X108216232Y-76672687D01*
X108199654Y-76701399D01*
X108149704Y-76821989D01*
X108141123Y-76854013D01*
X108124086Y-76983423D01*
X108123000Y-77000000D01*
X108123000Y-78741672D01*
X108109231Y-78846257D01*
X108072077Y-78935955D01*
X108071737Y-78936398D01*
X107892394Y-79090120D01*
X107846257Y-79109231D01*
X107741672Y-79123000D01*
X106758328Y-79123000D01*
X106653743Y-79109231D01*
X106564045Y-79072077D01*
X106487024Y-79012976D01*
X106427923Y-78935955D01*
X106390769Y-78846257D01*
X106377000Y-78741672D01*
X106377000Y-77267592D01*
X106375300Y-77246882D01*
X106348709Y-77085997D01*
X106342261Y-77061951D01*
X106335381Y-77046781D01*
X106258436Y-76903009D01*
X106244594Y-76882315D01*
X106233200Y-76870167D01*
X106114086Y-76758799D01*
X106097797Y-76745897D01*
X105696409Y-76478305D01*
X105680172Y-76469126D01*
X105547714Y-76406605D01*
X105512106Y-76395824D01*
X105367214Y-76374370D01*
X105348612Y-76373000D01*
X95258328Y-76373000D01*
X95153743Y-76359231D01*
X95064045Y-76322077D01*
X94987024Y-76262976D01*
X94927923Y-76185955D01*
X94890769Y-76096257D01*
X94877000Y-75991672D01*
X94877000Y-72475608D01*
X94883006Y-72480537D01*
X94993320Y-72539502D01*
X95113018Y-72575812D01*
X95237500Y-72588072D01*
X95464250Y-72585000D01*
X95623000Y-72426250D01*
X95623000Y-71377000D01*
X95877000Y-71377000D01*
X95877000Y-72426250D01*
X96035750Y-72585000D01*
X96262500Y-72588072D01*
X96386982Y-72575812D01*
X96506680Y-72539502D01*
X96507865Y-72538869D01*
X96555820Y-72564502D01*
X96675518Y-72600812D01*
X96800000Y-72613072D01*
X97014250Y-72610000D01*
X97173000Y-72451250D01*
X97173000Y-71377000D01*
X95877000Y-71377000D01*
X95623000Y-71377000D01*
X95603000Y-71377000D01*
X95603000Y-71123000D01*
X95623000Y-71123000D01*
X95623000Y-70073750D01*
X95877000Y-70073750D01*
X95877000Y-71123000D01*
X97173000Y-71123000D01*
X97173000Y-70048750D01*
X97427000Y-70048750D01*
X97427000Y-71123000D01*
X97447000Y-71123000D01*
X97447000Y-71377000D01*
X97427000Y-71377000D01*
X97427000Y-72451250D01*
X97585750Y-72610000D01*
X97800000Y-72613072D01*
X97924482Y-72600812D01*
X98044180Y-72564502D01*
X98154494Y-72505537D01*
X98251185Y-72426185D01*
X98330537Y-72329494D01*
X98389502Y-72219180D01*
X98425812Y-72099482D01*
X98436931Y-71986583D01*
X98468927Y-72046443D01*
X98540881Y-72134119D01*
X98628557Y-72206073D01*
X98728586Y-72259540D01*
X98837124Y-72292465D01*
X98950000Y-72303582D01*
X99450000Y-72303582D01*
X99562876Y-72292465D01*
X99671414Y-72259540D01*
X99771443Y-72206073D01*
X99859119Y-72134119D01*
X99931073Y-72046443D01*
X99984540Y-71946414D01*
X100017465Y-71837876D01*
X100028385Y-71727000D01*
X100090288Y-71727000D01*
X100100311Y-71737023D01*
X100203004Y-71805640D01*
X100317111Y-71852905D01*
X100438246Y-71877000D01*
X100561754Y-71877000D01*
X100682889Y-71852905D01*
X100796996Y-71805640D01*
X100899689Y-71737023D01*
X100987023Y-71649689D01*
X101055640Y-71546996D01*
X101102905Y-71432889D01*
X101127000Y-71311754D01*
X101127000Y-71188246D01*
X101102905Y-71067111D01*
X101055640Y-70953004D01*
X100987023Y-70850311D01*
X100899689Y-70762977D01*
X100796996Y-70694360D01*
X100682889Y-70647095D01*
X100561754Y-70623000D01*
X100438246Y-70623000D01*
X100317111Y-70647095D01*
X100203004Y-70694360D01*
X100100311Y-70762977D01*
X100090288Y-70773000D01*
X100028385Y-70773000D01*
X100017465Y-70662124D01*
X99984540Y-70553586D01*
X99931073Y-70453557D01*
X99859119Y-70365881D01*
X99771443Y-70293927D01*
X99671414Y-70240460D01*
X99562876Y-70207535D01*
X99450000Y-70196418D01*
X98950000Y-70196418D01*
X98837124Y-70207535D01*
X98728586Y-70240460D01*
X98628557Y-70293927D01*
X98540881Y-70365881D01*
X98468927Y-70453557D01*
X98436931Y-70513417D01*
X98425812Y-70400518D01*
X98389502Y-70280820D01*
X98330537Y-70170506D01*
X98251185Y-70073815D01*
X98154494Y-69994463D01*
X98044180Y-69935498D01*
X97924482Y-69899188D01*
X97800000Y-69886928D01*
X97585750Y-69890000D01*
X97427000Y-70048750D01*
X97173000Y-70048750D01*
X97014250Y-69890000D01*
X96800000Y-69886928D01*
X96675518Y-69899188D01*
X96555820Y-69935498D01*
X96507865Y-69961131D01*
X96506680Y-69960498D01*
X96386982Y-69924188D01*
X96262500Y-69911928D01*
X96035750Y-69915000D01*
X95877000Y-70073750D01*
X95623000Y-70073750D01*
X95464250Y-69915000D01*
X95237500Y-69911928D01*
X95113018Y-69924188D01*
X94993320Y-69960498D01*
X94883006Y-70019463D01*
X94877000Y-70024392D01*
X94877000Y-66171066D01*
X95588539Y-66171066D01*
X95690339Y-66440579D01*
X95988477Y-66586463D01*
X96309346Y-66671380D01*
X96640617Y-66692066D01*
X96969557Y-66647728D01*
X97283527Y-66540069D01*
X97469661Y-66440579D01*
X97571461Y-66171066D01*
X96580000Y-65179605D01*
X95588539Y-66171066D01*
X94877000Y-66171066D01*
X94877000Y-65060617D01*
X94887934Y-65060617D01*
X94932272Y-65389557D01*
X95039931Y-65703527D01*
X95139421Y-65889661D01*
X95408934Y-65991461D01*
X96400395Y-65000000D01*
X96759605Y-65000000D01*
X97751066Y-65991461D01*
X98020579Y-65889661D01*
X98166463Y-65591523D01*
X98251380Y-65270654D01*
X98272066Y-64939383D01*
X98261956Y-64864377D01*
X100283000Y-64864377D01*
X100283000Y-65135623D01*
X100335917Y-65401656D01*
X100439718Y-65652254D01*
X100590414Y-65877787D01*
X100782213Y-66069586D01*
X101007746Y-66220282D01*
X101258344Y-66324083D01*
X101524377Y-66377000D01*
X101795623Y-66377000D01*
X102061656Y-66324083D01*
X102312254Y-66220282D01*
X102537787Y-66069586D01*
X102729586Y-65877787D01*
X102880282Y-65652254D01*
X102984083Y-65401656D01*
X103037000Y-65135623D01*
X103037000Y-64864377D01*
X102984083Y-64598344D01*
X102880282Y-64347746D01*
X102729586Y-64122213D01*
X102537787Y-63930414D01*
X102312254Y-63779718D01*
X102061656Y-63675917D01*
X101795623Y-63623000D01*
X101524377Y-63623000D01*
X101258344Y-63675917D01*
X101007746Y-63779718D01*
X100782213Y-63930414D01*
X100590414Y-64122213D01*
X100439718Y-64347746D01*
X100335917Y-64598344D01*
X100283000Y-64864377D01*
X98261956Y-64864377D01*
X98227728Y-64610443D01*
X98120069Y-64296473D01*
X98020579Y-64110339D01*
X97751066Y-64008539D01*
X96759605Y-65000000D01*
X96400395Y-65000000D01*
X95408934Y-64008539D01*
X95139421Y-64110339D01*
X94993537Y-64408477D01*
X94908620Y-64729346D01*
X94887934Y-65060617D01*
X94877000Y-65060617D01*
X94877000Y-63828934D01*
X95588539Y-63828934D01*
X96580000Y-64820395D01*
X97571461Y-63828934D01*
X97469661Y-63559421D01*
X97171523Y-63413537D01*
X96850654Y-63328620D01*
X96519383Y-63307934D01*
X96190443Y-63352272D01*
X95876473Y-63459931D01*
X95690339Y-63559421D01*
X95588539Y-63828934D01*
X94877000Y-63828934D01*
X94877000Y-59508328D01*
X94890769Y-59403743D01*
X94912202Y-59352000D01*
X123837798Y-59352000D01*
X123859231Y-59403743D01*
G04 #@! TA.AperFunction,Conductor*
D44*
G36*
X123859231Y-59403743D02*
G01*
X123873000Y-59508328D01*
X123873000Y-66991672D01*
X123859231Y-67096257D01*
X123822077Y-67185955D01*
X123762976Y-67262976D01*
X123685955Y-67322077D01*
X123596257Y-67359231D01*
X123491672Y-67373000D01*
X116246201Y-67373000D01*
X116226906Y-67374474D01*
X116076743Y-67397556D01*
X116052625Y-67403732D01*
X116039936Y-67409145D01*
X115903638Y-67476258D01*
X115882488Y-67489393D01*
X115872009Y-67498367D01*
X115762158Y-67603317D01*
X115749226Y-67617712D01*
X113503025Y-70537773D01*
X113491738Y-70555238D01*
X113414681Y-70699090D01*
X113405133Y-70722083D01*
X113401333Y-70738333D01*
X113374702Y-70899336D01*
X113373000Y-70920061D01*
X113373000Y-75991672D01*
X113359231Y-76096257D01*
X113322077Y-76185955D01*
X113262976Y-76262976D01*
X113185955Y-76322077D01*
X113096257Y-76359231D01*
X112991672Y-76373000D01*
X108750000Y-76373000D01*
X108733423Y-76374086D01*
X108604013Y-76391123D01*
X108571989Y-76399704D01*
X108451399Y-76449654D01*
X108422687Y-76466232D01*
X108319134Y-76545692D01*
X108295692Y-76569134D01*
X108216232Y-76672687D01*
X108199654Y-76701399D01*
X108149704Y-76821989D01*
X108141123Y-76854013D01*
X108124086Y-76983423D01*
X108123000Y-77000000D01*
X108123000Y-78741672D01*
X108109231Y-78846257D01*
X108072077Y-78935955D01*
X108071737Y-78936398D01*
X107892394Y-79090120D01*
X107846257Y-79109231D01*
X107741672Y-79123000D01*
X106758328Y-79123000D01*
X106653743Y-79109231D01*
X106564045Y-79072077D01*
X106487024Y-79012976D01*
X106427923Y-78935955D01*
X106390769Y-78846257D01*
X106377000Y-78741672D01*
X106377000Y-77267592D01*
X106375300Y-77246882D01*
X106348709Y-77085997D01*
X106342261Y-77061951D01*
X106335381Y-77046781D01*
X106258436Y-76903009D01*
X106244594Y-76882315D01*
X106233200Y-76870167D01*
X106114086Y-76758799D01*
X106097797Y-76745897D01*
X105696409Y-76478305D01*
X105680172Y-76469126D01*
X105547714Y-76406605D01*
X105512106Y-76395824D01*
X105367214Y-76374370D01*
X105348612Y-76373000D01*
X95258328Y-76373000D01*
X95153743Y-76359231D01*
X95064045Y-76322077D01*
X94987024Y-76262976D01*
X94927923Y-76185955D01*
X94890769Y-76096257D01*
X94877000Y-75991672D01*
X94877000Y-72475608D01*
X94883006Y-72480537D01*
X94993320Y-72539502D01*
X95113018Y-72575812D01*
X95237500Y-72588072D01*
X95464250Y-72585000D01*
X95623000Y-72426250D01*
X95623000Y-71377000D01*
X95877000Y-71377000D01*
X95877000Y-72426250D01*
X96035750Y-72585000D01*
X96262500Y-72588072D01*
X96386982Y-72575812D01*
X96506680Y-72539502D01*
X96507865Y-72538869D01*
X96555820Y-72564502D01*
X96675518Y-72600812D01*
X96800000Y-72613072D01*
X97014250Y-72610000D01*
X97173000Y-72451250D01*
X97173000Y-71377000D01*
X95877000Y-71377000D01*
X95623000Y-71377000D01*
X95603000Y-71377000D01*
X95603000Y-71123000D01*
X95623000Y-71123000D01*
X95623000Y-70073750D01*
X95877000Y-70073750D01*
X95877000Y-71123000D01*
X97173000Y-71123000D01*
X97173000Y-70048750D01*
X97427000Y-70048750D01*
X97427000Y-71123000D01*
X97447000Y-71123000D01*
X97447000Y-71377000D01*
X97427000Y-71377000D01*
X97427000Y-72451250D01*
X97585750Y-72610000D01*
X97800000Y-72613072D01*
X97924482Y-72600812D01*
X98044180Y-72564502D01*
X98154494Y-72505537D01*
X98251185Y-72426185D01*
X98330537Y-72329494D01*
X98389502Y-72219180D01*
X98425812Y-72099482D01*
X98436931Y-71986583D01*
X98468927Y-72046443D01*
X98540881Y-72134119D01*
X98628557Y-72206073D01*
X98728586Y-72259540D01*
X98837124Y-72292465D01*
X98950000Y-72303582D01*
X99450000Y-72303582D01*
X99562876Y-72292465D01*
X99671414Y-72259540D01*
X99771443Y-72206073D01*
X99859119Y-72134119D01*
X99931073Y-72046443D01*
X99984540Y-71946414D01*
X100017465Y-71837876D01*
X100028385Y-71727000D01*
X100090288Y-71727000D01*
X100100311Y-71737023D01*
X100203004Y-71805640D01*
X100317111Y-71852905D01*
X100438246Y-71877000D01*
X100561754Y-71877000D01*
X100682889Y-71852905D01*
X100796996Y-71805640D01*
X100899689Y-71737023D01*
X100987023Y-71649689D01*
X101055640Y-71546996D01*
X101102905Y-71432889D01*
X101127000Y-71311754D01*
X101127000Y-71188246D01*
X101102905Y-71067111D01*
X101055640Y-70953004D01*
X100987023Y-70850311D01*
X100899689Y-70762977D01*
X100796996Y-70694360D01*
X100682889Y-70647095D01*
X100561754Y-70623000D01*
X100438246Y-70623000D01*
X100317111Y-70647095D01*
X100203004Y-70694360D01*
X100100311Y-70762977D01*
X100090288Y-70773000D01*
X100028385Y-70773000D01*
X100017465Y-70662124D01*
X99984540Y-70553586D01*
X99931073Y-70453557D01*
X99859119Y-70365881D01*
X99771443Y-70293927D01*
X99671414Y-70240460D01*
X99562876Y-70207535D01*
X99450000Y-70196418D01*
X98950000Y-70196418D01*
X98837124Y-70207535D01*
X98728586Y-70240460D01*
X98628557Y-70293927D01*
X98540881Y-70365881D01*
X98468927Y-70453557D01*
X98436931Y-70513417D01*
X98425812Y-70400518D01*
X98389502Y-70280820D01*
X98330537Y-70170506D01*
X98251185Y-70073815D01*
X98154494Y-69994463D01*
X98044180Y-69935498D01*
X97924482Y-69899188D01*
X97800000Y-69886928D01*
X97585750Y-69890000D01*
X97427000Y-70048750D01*
X97173000Y-70048750D01*
X97014250Y-69890000D01*
X96800000Y-69886928D01*
X96675518Y-69899188D01*
X96555820Y-69935498D01*
X96507865Y-69961131D01*
X96506680Y-69960498D01*
X96386982Y-69924188D01*
X96262500Y-69911928D01*
X96035750Y-69915000D01*
X95877000Y-70073750D01*
X95623000Y-70073750D01*
X95464250Y-69915000D01*
X95237500Y-69911928D01*
X95113018Y-69924188D01*
X94993320Y-69960498D01*
X94883006Y-70019463D01*
X94877000Y-70024392D01*
X94877000Y-66171066D01*
X95588539Y-66171066D01*
X95690339Y-66440579D01*
X95988477Y-66586463D01*
X96309346Y-66671380D01*
X96640617Y-66692066D01*
X96969557Y-66647728D01*
X97283527Y-66540069D01*
X97469661Y-66440579D01*
X97571461Y-66171066D01*
X96580000Y-65179605D01*
X95588539Y-66171066D01*
X94877000Y-66171066D01*
X94877000Y-65060617D01*
X94887934Y-65060617D01*
X94932272Y-65389557D01*
X95039931Y-65703527D01*
X95139421Y-65889661D01*
X95408934Y-65991461D01*
X96400395Y-65000000D01*
X96759605Y-65000000D01*
X97751066Y-65991461D01*
X98020579Y-65889661D01*
X98166463Y-65591523D01*
X98251380Y-65270654D01*
X98272066Y-64939383D01*
X98261956Y-64864377D01*
X100283000Y-64864377D01*
X100283000Y-65135623D01*
X100335917Y-65401656D01*
X100439718Y-65652254D01*
X100590414Y-65877787D01*
X100782213Y-66069586D01*
X101007746Y-66220282D01*
X101258344Y-66324083D01*
X101524377Y-66377000D01*
X101795623Y-66377000D01*
X102061656Y-66324083D01*
X102312254Y-66220282D01*
X102537787Y-66069586D01*
X102729586Y-65877787D01*
X102880282Y-65652254D01*
X102984083Y-65401656D01*
X103037000Y-65135623D01*
X103037000Y-64864377D01*
X102984083Y-64598344D01*
X102880282Y-64347746D01*
X102729586Y-64122213D01*
X102537787Y-63930414D01*
X102312254Y-63779718D01*
X102061656Y-63675917D01*
X101795623Y-63623000D01*
X101524377Y-63623000D01*
X101258344Y-63675917D01*
X101007746Y-63779718D01*
X100782213Y-63930414D01*
X100590414Y-64122213D01*
X100439718Y-64347746D01*
X100335917Y-64598344D01*
X100283000Y-64864377D01*
X98261956Y-64864377D01*
X98227728Y-64610443D01*
X98120069Y-64296473D01*
X98020579Y-64110339D01*
X97751066Y-64008539D01*
X96759605Y-65000000D01*
X96400395Y-65000000D01*
X95408934Y-64008539D01*
X95139421Y-64110339D01*
X94993537Y-64408477D01*
X94908620Y-64729346D01*
X94887934Y-65060617D01*
X94877000Y-65060617D01*
X94877000Y-63828934D01*
X95588539Y-63828934D01*
X96580000Y-64820395D01*
X97571461Y-63828934D01*
X97469661Y-63559421D01*
X97171523Y-63413537D01*
X96850654Y-63328620D01*
X96519383Y-63307934D01*
X96190443Y-63352272D01*
X95876473Y-63459931D01*
X95690339Y-63559421D01*
X95588539Y-63828934D01*
X94877000Y-63828934D01*
X94877000Y-59508328D01*
X94890769Y-59403743D01*
X94912202Y-59352000D01*
X123837798Y-59352000D01*
X123859231Y-59403743D01*
G37*
G04 #@! TD.AperFunction*
G04 #@! TD*
D43*
G04 #@! TO.N,GND*
X110596257Y-91390769D02*
X110685955Y-91427923D01*
X110762976Y-91487024D01*
X110822077Y-91564045D01*
X110859231Y-91653743D01*
X110873000Y-91758328D01*
X110873000Y-96491672D01*
X110859231Y-96596257D01*
X110822077Y-96685955D01*
X110762976Y-96762976D01*
X110685955Y-96822077D01*
X110596257Y-96859231D01*
X110491672Y-96873000D01*
X106008328Y-96873000D01*
X105903743Y-96859231D01*
X105814045Y-96822077D01*
X105737024Y-96762976D01*
X105677923Y-96685955D01*
X105640769Y-96596257D01*
X105627000Y-96491672D01*
X105627000Y-91758328D01*
X105640769Y-91653743D01*
X105677923Y-91564045D01*
X105737024Y-91487024D01*
X105814045Y-91427923D01*
X105903743Y-91390769D01*
X106008328Y-91377000D01*
X110491672Y-91377000D01*
X110596257Y-91390769D01*
G04 #@! TA.AperFunction,Conductor*
D44*
G36*
X110596257Y-91390769D02*
G01*
X110685955Y-91427923D01*
X110762976Y-91487024D01*
X110822077Y-91564045D01*
X110859231Y-91653743D01*
X110873000Y-91758328D01*
X110873000Y-96491672D01*
X110859231Y-96596257D01*
X110822077Y-96685955D01*
X110762976Y-96762976D01*
X110685955Y-96822077D01*
X110596257Y-96859231D01*
X110491672Y-96873000D01*
X106008328Y-96873000D01*
X105903743Y-96859231D01*
X105814045Y-96822077D01*
X105737024Y-96762976D01*
X105677923Y-96685955D01*
X105640769Y-96596257D01*
X105627000Y-96491672D01*
X105627000Y-91758328D01*
X105640769Y-91653743D01*
X105677923Y-91564045D01*
X105737024Y-91487024D01*
X105814045Y-91427923D01*
X105903743Y-91390769D01*
X106008328Y-91377000D01*
X110491672Y-91377000D01*
X110596257Y-91390769D01*
G37*
G04 #@! TD.AperFunction*
G04 #@! TD*
M02*
