G04 #@! TF.GenerationSoftware,KiCad,Pcbnew,(5.1.9)-1*
G04 #@! TF.CreationDate,2021-03-08T14:29:57+02:00*
G04 #@! TF.ProjectId,Voltlog ESP32 Relay Controller,566f6c74-6c6f-4672-9045-535033322052,rev?*
G04 #@! TF.SameCoordinates,Original*
G04 #@! TF.FileFunction,Paste,Top*
G04 #@! TF.FilePolarity,Positive*
%FSLAX46Y46*%
G04 Gerber Fmt 4.6, Leading zero omitted, Abs format (unit mm)*
G04 Created by KiCad (PCBNEW (5.1.9)-1) date 2021-03-08 14:29:57*
%MOMM*%
%LPD*%
G01*
G04 APERTURE LIST*
%ADD10R,0.500000X0.800000*%
%ADD11R,0.400000X0.800000*%
%ADD12R,1.500000X2.000000*%
%ADD13R,3.800000X2.000000*%
%ADD14R,0.900000X2.000000*%
%ADD15R,2.000000X0.900000*%
%ADD16R,5.000000X5.000000*%
%ADD17R,1.550000X1.300000*%
%ADD18R,2.300000X2.500000*%
G04 APERTURE END LIST*
G04 #@! TO.C,C1*
G36*
G01*
X52300000Y-93025000D02*
X52300000Y-93975000D01*
G75*
G02*
X52050000Y-94225000I-250000J0D01*
G01*
X51550000Y-94225000D01*
G75*
G02*
X51300000Y-93975000I0J250000D01*
G01*
X51300000Y-93025000D01*
G75*
G02*
X51550000Y-92775000I250000J0D01*
G01*
X52050000Y-92775000D01*
G75*
G02*
X52300000Y-93025000I0J-250000D01*
G01*
G37*
G36*
G01*
X54200000Y-93025000D02*
X54200000Y-93975000D01*
G75*
G02*
X53950000Y-94225000I-250000J0D01*
G01*
X53450000Y-94225000D01*
G75*
G02*
X53200000Y-93975000I0J250000D01*
G01*
X53200000Y-93025000D01*
G75*
G02*
X53450000Y-92775000I250000J0D01*
G01*
X53950000Y-92775000D01*
G75*
G02*
X54200000Y-93025000I0J-250000D01*
G01*
G37*
G04 #@! TD*
G04 #@! TO.C,U3*
G36*
G01*
X67755000Y-66500000D02*
X68055000Y-66500000D01*
G75*
G02*
X68205000Y-66650000I0J-150000D01*
G01*
X68205000Y-68300000D01*
G75*
G02*
X68055000Y-68450000I-150000J0D01*
G01*
X67755000Y-68450000D01*
G75*
G02*
X67605000Y-68300000I0J150000D01*
G01*
X67605000Y-66650000D01*
G75*
G02*
X67755000Y-66500000I150000J0D01*
G01*
G37*
G36*
G01*
X66485000Y-66500000D02*
X66785000Y-66500000D01*
G75*
G02*
X66935000Y-66650000I0J-150000D01*
G01*
X66935000Y-68300000D01*
G75*
G02*
X66785000Y-68450000I-150000J0D01*
G01*
X66485000Y-68450000D01*
G75*
G02*
X66335000Y-68300000I0J150000D01*
G01*
X66335000Y-66650000D01*
G75*
G02*
X66485000Y-66500000I150000J0D01*
G01*
G37*
G36*
G01*
X65215000Y-66500000D02*
X65515000Y-66500000D01*
G75*
G02*
X65665000Y-66650000I0J-150000D01*
G01*
X65665000Y-68300000D01*
G75*
G02*
X65515000Y-68450000I-150000J0D01*
G01*
X65215000Y-68450000D01*
G75*
G02*
X65065000Y-68300000I0J150000D01*
G01*
X65065000Y-66650000D01*
G75*
G02*
X65215000Y-66500000I150000J0D01*
G01*
G37*
G36*
G01*
X63945000Y-66500000D02*
X64245000Y-66500000D01*
G75*
G02*
X64395000Y-66650000I0J-150000D01*
G01*
X64395000Y-68300000D01*
G75*
G02*
X64245000Y-68450000I-150000J0D01*
G01*
X63945000Y-68450000D01*
G75*
G02*
X63795000Y-68300000I0J150000D01*
G01*
X63795000Y-66650000D01*
G75*
G02*
X63945000Y-66500000I150000J0D01*
G01*
G37*
G36*
G01*
X63945000Y-61550000D02*
X64245000Y-61550000D01*
G75*
G02*
X64395000Y-61700000I0J-150000D01*
G01*
X64395000Y-63350000D01*
G75*
G02*
X64245000Y-63500000I-150000J0D01*
G01*
X63945000Y-63500000D01*
G75*
G02*
X63795000Y-63350000I0J150000D01*
G01*
X63795000Y-61700000D01*
G75*
G02*
X63945000Y-61550000I150000J0D01*
G01*
G37*
G36*
G01*
X65215000Y-61550000D02*
X65515000Y-61550000D01*
G75*
G02*
X65665000Y-61700000I0J-150000D01*
G01*
X65665000Y-63350000D01*
G75*
G02*
X65515000Y-63500000I-150000J0D01*
G01*
X65215000Y-63500000D01*
G75*
G02*
X65065000Y-63350000I0J150000D01*
G01*
X65065000Y-61700000D01*
G75*
G02*
X65215000Y-61550000I150000J0D01*
G01*
G37*
G36*
G01*
X66485000Y-61550000D02*
X66785000Y-61550000D01*
G75*
G02*
X66935000Y-61700000I0J-150000D01*
G01*
X66935000Y-63350000D01*
G75*
G02*
X66785000Y-63500000I-150000J0D01*
G01*
X66485000Y-63500000D01*
G75*
G02*
X66335000Y-63350000I0J150000D01*
G01*
X66335000Y-61700000D01*
G75*
G02*
X66485000Y-61550000I150000J0D01*
G01*
G37*
G36*
G01*
X67755000Y-61550000D02*
X68055000Y-61550000D01*
G75*
G02*
X68205000Y-61700000I0J-150000D01*
G01*
X68205000Y-63350000D01*
G75*
G02*
X68055000Y-63500000I-150000J0D01*
G01*
X67755000Y-63500000D01*
G75*
G02*
X67605000Y-63350000I0J150000D01*
G01*
X67605000Y-61700000D01*
G75*
G02*
X67755000Y-61550000I150000J0D01*
G01*
G37*
G04 #@! TD*
G04 #@! TO.C,C17*
G36*
G01*
X70475000Y-66550000D02*
X69525000Y-66550000D01*
G75*
G02*
X69275000Y-66300000I0J250000D01*
G01*
X69275000Y-65800000D01*
G75*
G02*
X69525000Y-65550000I250000J0D01*
G01*
X70475000Y-65550000D01*
G75*
G02*
X70725000Y-65800000I0J-250000D01*
G01*
X70725000Y-66300000D01*
G75*
G02*
X70475000Y-66550000I-250000J0D01*
G01*
G37*
G36*
G01*
X70475000Y-68450000D02*
X69525000Y-68450000D01*
G75*
G02*
X69275000Y-68200000I0J250000D01*
G01*
X69275000Y-67700000D01*
G75*
G02*
X69525000Y-67450000I250000J0D01*
G01*
X70475000Y-67450000D01*
G75*
G02*
X70725000Y-67700000I0J-250000D01*
G01*
X70725000Y-68200000D01*
G75*
G02*
X70475000Y-68450000I-250000J0D01*
G01*
G37*
G04 #@! TD*
D10*
G04 #@! TO.C,RN3*
X92200000Y-97600000D03*
D11*
X91400000Y-97600000D03*
D10*
X89800000Y-97600000D03*
D11*
X90600000Y-97600000D03*
D10*
X92200000Y-99400000D03*
D11*
X90600000Y-99400000D03*
X91400000Y-99400000D03*
D10*
X89800000Y-99400000D03*
G04 #@! TD*
G04 #@! TO.C,RN1*
X98300000Y-94650000D03*
D11*
X99100000Y-94650000D03*
D10*
X100700000Y-94650000D03*
D11*
X99900000Y-94650000D03*
D10*
X98300000Y-92850000D03*
D11*
X99900000Y-92850000D03*
X99100000Y-92850000D03*
D10*
X100700000Y-92850000D03*
G04 #@! TD*
G04 #@! TO.C,U4*
G36*
G01*
X103795000Y-102200000D02*
X104095000Y-102200000D01*
G75*
G02*
X104245000Y-102350000I0J-150000D01*
G01*
X104245000Y-103800000D01*
G75*
G02*
X104095000Y-103950000I-150000J0D01*
G01*
X103795000Y-103950000D01*
G75*
G02*
X103645000Y-103800000I0J150000D01*
G01*
X103645000Y-102350000D01*
G75*
G02*
X103795000Y-102200000I150000J0D01*
G01*
G37*
G36*
G01*
X102525000Y-102200000D02*
X102825000Y-102200000D01*
G75*
G02*
X102975000Y-102350000I0J-150000D01*
G01*
X102975000Y-103800000D01*
G75*
G02*
X102825000Y-103950000I-150000J0D01*
G01*
X102525000Y-103950000D01*
G75*
G02*
X102375000Y-103800000I0J150000D01*
G01*
X102375000Y-102350000D01*
G75*
G02*
X102525000Y-102200000I150000J0D01*
G01*
G37*
G36*
G01*
X101255000Y-102200000D02*
X101555000Y-102200000D01*
G75*
G02*
X101705000Y-102350000I0J-150000D01*
G01*
X101705000Y-103800000D01*
G75*
G02*
X101555000Y-103950000I-150000J0D01*
G01*
X101255000Y-103950000D01*
G75*
G02*
X101105000Y-103800000I0J150000D01*
G01*
X101105000Y-102350000D01*
G75*
G02*
X101255000Y-102200000I150000J0D01*
G01*
G37*
G36*
G01*
X99985000Y-102200000D02*
X100285000Y-102200000D01*
G75*
G02*
X100435000Y-102350000I0J-150000D01*
G01*
X100435000Y-103800000D01*
G75*
G02*
X100285000Y-103950000I-150000J0D01*
G01*
X99985000Y-103950000D01*
G75*
G02*
X99835000Y-103800000I0J150000D01*
G01*
X99835000Y-102350000D01*
G75*
G02*
X99985000Y-102200000I150000J0D01*
G01*
G37*
G36*
G01*
X98715000Y-102200000D02*
X99015000Y-102200000D01*
G75*
G02*
X99165000Y-102350000I0J-150000D01*
G01*
X99165000Y-103800000D01*
G75*
G02*
X99015000Y-103950000I-150000J0D01*
G01*
X98715000Y-103950000D01*
G75*
G02*
X98565000Y-103800000I0J150000D01*
G01*
X98565000Y-102350000D01*
G75*
G02*
X98715000Y-102200000I150000J0D01*
G01*
G37*
G36*
G01*
X97445000Y-102200000D02*
X97745000Y-102200000D01*
G75*
G02*
X97895000Y-102350000I0J-150000D01*
G01*
X97895000Y-103800000D01*
G75*
G02*
X97745000Y-103950000I-150000J0D01*
G01*
X97445000Y-103950000D01*
G75*
G02*
X97295000Y-103800000I0J150000D01*
G01*
X97295000Y-102350000D01*
G75*
G02*
X97445000Y-102200000I150000J0D01*
G01*
G37*
G36*
G01*
X96175000Y-102200000D02*
X96475000Y-102200000D01*
G75*
G02*
X96625000Y-102350000I0J-150000D01*
G01*
X96625000Y-103800000D01*
G75*
G02*
X96475000Y-103950000I-150000J0D01*
G01*
X96175000Y-103950000D01*
G75*
G02*
X96025000Y-103800000I0J150000D01*
G01*
X96025000Y-102350000D01*
G75*
G02*
X96175000Y-102200000I150000J0D01*
G01*
G37*
G36*
G01*
X94905000Y-102200000D02*
X95205000Y-102200000D01*
G75*
G02*
X95355000Y-102350000I0J-150000D01*
G01*
X95355000Y-103800000D01*
G75*
G02*
X95205000Y-103950000I-150000J0D01*
G01*
X94905000Y-103950000D01*
G75*
G02*
X94755000Y-103800000I0J150000D01*
G01*
X94755000Y-102350000D01*
G75*
G02*
X94905000Y-102200000I150000J0D01*
G01*
G37*
G36*
G01*
X94905000Y-97050000D02*
X95205000Y-97050000D01*
G75*
G02*
X95355000Y-97200000I0J-150000D01*
G01*
X95355000Y-98650000D01*
G75*
G02*
X95205000Y-98800000I-150000J0D01*
G01*
X94905000Y-98800000D01*
G75*
G02*
X94755000Y-98650000I0J150000D01*
G01*
X94755000Y-97200000D01*
G75*
G02*
X94905000Y-97050000I150000J0D01*
G01*
G37*
G36*
G01*
X96175000Y-97050000D02*
X96475000Y-97050000D01*
G75*
G02*
X96625000Y-97200000I0J-150000D01*
G01*
X96625000Y-98650000D01*
G75*
G02*
X96475000Y-98800000I-150000J0D01*
G01*
X96175000Y-98800000D01*
G75*
G02*
X96025000Y-98650000I0J150000D01*
G01*
X96025000Y-97200000D01*
G75*
G02*
X96175000Y-97050000I150000J0D01*
G01*
G37*
G36*
G01*
X97445000Y-97050000D02*
X97745000Y-97050000D01*
G75*
G02*
X97895000Y-97200000I0J-150000D01*
G01*
X97895000Y-98650000D01*
G75*
G02*
X97745000Y-98800000I-150000J0D01*
G01*
X97445000Y-98800000D01*
G75*
G02*
X97295000Y-98650000I0J150000D01*
G01*
X97295000Y-97200000D01*
G75*
G02*
X97445000Y-97050000I150000J0D01*
G01*
G37*
G36*
G01*
X98715000Y-97050000D02*
X99015000Y-97050000D01*
G75*
G02*
X99165000Y-97200000I0J-150000D01*
G01*
X99165000Y-98650000D01*
G75*
G02*
X99015000Y-98800000I-150000J0D01*
G01*
X98715000Y-98800000D01*
G75*
G02*
X98565000Y-98650000I0J150000D01*
G01*
X98565000Y-97200000D01*
G75*
G02*
X98715000Y-97050000I150000J0D01*
G01*
G37*
G36*
G01*
X99985000Y-97050000D02*
X100285000Y-97050000D01*
G75*
G02*
X100435000Y-97200000I0J-150000D01*
G01*
X100435000Y-98650000D01*
G75*
G02*
X100285000Y-98800000I-150000J0D01*
G01*
X99985000Y-98800000D01*
G75*
G02*
X99835000Y-98650000I0J150000D01*
G01*
X99835000Y-97200000D01*
G75*
G02*
X99985000Y-97050000I150000J0D01*
G01*
G37*
G36*
G01*
X101255000Y-97050000D02*
X101555000Y-97050000D01*
G75*
G02*
X101705000Y-97200000I0J-150000D01*
G01*
X101705000Y-98650000D01*
G75*
G02*
X101555000Y-98800000I-150000J0D01*
G01*
X101255000Y-98800000D01*
G75*
G02*
X101105000Y-98650000I0J150000D01*
G01*
X101105000Y-97200000D01*
G75*
G02*
X101255000Y-97050000I150000J0D01*
G01*
G37*
G36*
G01*
X102525000Y-97050000D02*
X102825000Y-97050000D01*
G75*
G02*
X102975000Y-97200000I0J-150000D01*
G01*
X102975000Y-98650000D01*
G75*
G02*
X102825000Y-98800000I-150000J0D01*
G01*
X102525000Y-98800000D01*
G75*
G02*
X102375000Y-98650000I0J150000D01*
G01*
X102375000Y-97200000D01*
G75*
G02*
X102525000Y-97050000I150000J0D01*
G01*
G37*
G36*
G01*
X103795000Y-97050000D02*
X104095000Y-97050000D01*
G75*
G02*
X104245000Y-97200000I0J-150000D01*
G01*
X104245000Y-98650000D01*
G75*
G02*
X104095000Y-98800000I-150000J0D01*
G01*
X103795000Y-98800000D01*
G75*
G02*
X103645000Y-98650000I0J150000D01*
G01*
X103645000Y-97200000D01*
G75*
G02*
X103795000Y-97050000I150000J0D01*
G01*
G37*
G04 #@! TD*
D12*
G04 #@! TO.C,U2*
X104950000Y-78150000D03*
X109550000Y-78150000D03*
X107250000Y-78150000D03*
D13*
X107250000Y-71850000D03*
G04 #@! TD*
D14*
G04 #@! TO.C,U1*
X52245000Y-74000000D03*
X53515000Y-74000000D03*
X54785000Y-74000000D03*
X56055000Y-74000000D03*
X57325000Y-74000000D03*
X58595000Y-74000000D03*
X59865000Y-74000000D03*
X61135000Y-74000000D03*
X62405000Y-74000000D03*
X63675000Y-74000000D03*
X64945000Y-74000000D03*
X66215000Y-74000000D03*
X67485000Y-74000000D03*
X68755000Y-74000000D03*
D15*
X69755000Y-76785000D03*
X69755000Y-78055000D03*
X69755000Y-79325000D03*
X69755000Y-80595000D03*
X69755000Y-81865000D03*
X69755000Y-83135000D03*
X69755000Y-84405000D03*
X69755000Y-85675000D03*
X69755000Y-86945000D03*
X69755000Y-88215000D03*
D14*
X68755000Y-91000000D03*
X67485000Y-91000000D03*
X66215000Y-91000000D03*
X64945000Y-91000000D03*
X63675000Y-91000000D03*
X62405000Y-91000000D03*
X61135000Y-91000000D03*
X59865000Y-91000000D03*
X58595000Y-91000000D03*
X57325000Y-91000000D03*
X56055000Y-91000000D03*
X54785000Y-91000000D03*
X53515000Y-91000000D03*
X52245000Y-91000000D03*
D16*
X59745000Y-83500000D03*
G04 #@! TD*
D17*
G04 #@! TO.C,SW1*
X74020000Y-87000000D03*
X74020000Y-91500000D03*
X81980000Y-91500000D03*
X81980000Y-87000000D03*
G04 #@! TD*
G04 #@! TO.C,R7*
G36*
G01*
X97450001Y-80600000D02*
X96549999Y-80600000D01*
G75*
G02*
X96300000Y-80350001I0J249999D01*
G01*
X96300000Y-79824999D01*
G75*
G02*
X96549999Y-79575000I249999J0D01*
G01*
X97450001Y-79575000D01*
G75*
G02*
X97700000Y-79824999I0J-249999D01*
G01*
X97700000Y-80350001D01*
G75*
G02*
X97450001Y-80600000I-249999J0D01*
G01*
G37*
G36*
G01*
X97450001Y-82425000D02*
X96549999Y-82425000D01*
G75*
G02*
X96300000Y-82175001I0J249999D01*
G01*
X96300000Y-81649999D01*
G75*
G02*
X96549999Y-81400000I249999J0D01*
G01*
X97450001Y-81400000D01*
G75*
G02*
X97700000Y-81649999I0J-249999D01*
G01*
X97700000Y-82175001D01*
G75*
G02*
X97450001Y-82425000I-249999J0D01*
G01*
G37*
G04 #@! TD*
G04 #@! TO.C,R6*
G36*
G01*
X86049999Y-87900000D02*
X86950001Y-87900000D01*
G75*
G02*
X87200000Y-88149999I0J-249999D01*
G01*
X87200000Y-88675001D01*
G75*
G02*
X86950001Y-88925000I-249999J0D01*
G01*
X86049999Y-88925000D01*
G75*
G02*
X85800000Y-88675001I0J249999D01*
G01*
X85800000Y-88149999D01*
G75*
G02*
X86049999Y-87900000I249999J0D01*
G01*
G37*
G36*
G01*
X86049999Y-86075000D02*
X86950001Y-86075000D01*
G75*
G02*
X87200000Y-86324999I0J-249999D01*
G01*
X87200000Y-86850001D01*
G75*
G02*
X86950001Y-87100000I-249999J0D01*
G01*
X86049999Y-87100000D01*
G75*
G02*
X85800000Y-86850001I0J249999D01*
G01*
X85800000Y-86324999D01*
G75*
G02*
X86049999Y-86075000I249999J0D01*
G01*
G37*
G04 #@! TD*
G04 #@! TO.C,R5*
G36*
G01*
X78100000Y-70799999D02*
X78100000Y-71700001D01*
G75*
G02*
X77850001Y-71950000I-249999J0D01*
G01*
X77324999Y-71950000D01*
G75*
G02*
X77075000Y-71700001I0J249999D01*
G01*
X77075000Y-70799999D01*
G75*
G02*
X77324999Y-70550000I249999J0D01*
G01*
X77850001Y-70550000D01*
G75*
G02*
X78100000Y-70799999I0J-249999D01*
G01*
G37*
G36*
G01*
X79925000Y-70799999D02*
X79925000Y-71700001D01*
G75*
G02*
X79675001Y-71950000I-249999J0D01*
G01*
X79149999Y-71950000D01*
G75*
G02*
X78900000Y-71700001I0J249999D01*
G01*
X78900000Y-70799999D01*
G75*
G02*
X79149999Y-70550000I249999J0D01*
G01*
X79675001Y-70550000D01*
G75*
G02*
X79925000Y-70799999I0J-249999D01*
G01*
G37*
G04 #@! TD*
G04 #@! TO.C,R4*
G36*
G01*
X94437500Y-70799999D02*
X94437500Y-71700001D01*
G75*
G02*
X94187501Y-71950000I-249999J0D01*
G01*
X93662499Y-71950000D01*
G75*
G02*
X93412500Y-71700001I0J249999D01*
G01*
X93412500Y-70799999D01*
G75*
G02*
X93662499Y-70550000I249999J0D01*
G01*
X94187501Y-70550000D01*
G75*
G02*
X94437500Y-70799999I0J-249999D01*
G01*
G37*
G36*
G01*
X96262500Y-70800100D02*
X96262500Y-71699900D01*
G75*
G02*
X96012400Y-71950000I-250100J0D01*
G01*
X95487600Y-71950000D01*
G75*
G02*
X95237500Y-71699900I0J250100D01*
G01*
X95237500Y-70800100D01*
G75*
G02*
X95487600Y-70550000I250100J0D01*
G01*
X96012400Y-70550000D01*
G75*
G02*
X96262500Y-70800100I0J-250100D01*
G01*
G37*
G04 #@! TD*
G04 #@! TO.C,R3*
G36*
G01*
X89100000Y-73299999D02*
X89100000Y-74200001D01*
G75*
G02*
X88850001Y-74450000I-249999J0D01*
G01*
X88324999Y-74450000D01*
G75*
G02*
X88075000Y-74200001I0J249999D01*
G01*
X88075000Y-73299999D01*
G75*
G02*
X88324999Y-73050000I249999J0D01*
G01*
X88850001Y-73050000D01*
G75*
G02*
X89100000Y-73299999I0J-249999D01*
G01*
G37*
G36*
G01*
X90925000Y-73299999D02*
X90925000Y-74200001D01*
G75*
G02*
X90675001Y-74450000I-249999J0D01*
G01*
X90149999Y-74450000D01*
G75*
G02*
X89900000Y-74200001I0J249999D01*
G01*
X89900000Y-73299999D01*
G75*
G02*
X90149999Y-73050000I249999J0D01*
G01*
X90675001Y-73050000D01*
G75*
G02*
X90925000Y-73299999I0J-249999D01*
G01*
G37*
G04 #@! TD*
G04 #@! TO.C,R2*
G36*
G01*
X89100000Y-71299999D02*
X89100000Y-72200001D01*
G75*
G02*
X88850001Y-72450000I-249999J0D01*
G01*
X88324999Y-72450000D01*
G75*
G02*
X88075000Y-72200001I0J249999D01*
G01*
X88075000Y-71299999D01*
G75*
G02*
X88324999Y-71050000I249999J0D01*
G01*
X88850001Y-71050000D01*
G75*
G02*
X89100000Y-71299999I0J-249999D01*
G01*
G37*
G36*
G01*
X90925000Y-71299999D02*
X90925000Y-72200001D01*
G75*
G02*
X90675001Y-72450000I-249999J0D01*
G01*
X90149999Y-72450000D01*
G75*
G02*
X89900000Y-72200001I0J249999D01*
G01*
X89900000Y-71299999D01*
G75*
G02*
X90149999Y-71050000I249999J0D01*
G01*
X90675001Y-71050000D01*
G75*
G02*
X90925000Y-71299999I0J-249999D01*
G01*
G37*
G04 #@! TD*
G04 #@! TO.C,R1*
G36*
G01*
X56100000Y-93049999D02*
X56100000Y-93950001D01*
G75*
G02*
X55850001Y-94200000I-249999J0D01*
G01*
X55324999Y-94200000D01*
G75*
G02*
X55075000Y-93950001I0J249999D01*
G01*
X55075000Y-93049999D01*
G75*
G02*
X55324999Y-92800000I249999J0D01*
G01*
X55850001Y-92800000D01*
G75*
G02*
X56100000Y-93049999I0J-249999D01*
G01*
G37*
G36*
G01*
X57925000Y-93049999D02*
X57925000Y-93950001D01*
G75*
G02*
X57675001Y-94200000I-249999J0D01*
G01*
X57149999Y-94200000D01*
G75*
G02*
X56900000Y-93950001I0J249999D01*
G01*
X56900000Y-93049999D01*
G75*
G02*
X57149999Y-92800000I249999J0D01*
G01*
X57675001Y-92800000D01*
G75*
G02*
X57925000Y-93049999I0J-249999D01*
G01*
G37*
G04 #@! TD*
G04 #@! TO.C,J5*
G36*
G01*
X54050000Y-66799999D02*
X54050000Y-68100001D01*
G75*
G02*
X53800001Y-68350000I-249999J0D01*
G01*
X53099999Y-68350000D01*
G75*
G02*
X52850000Y-68100001I0J249999D01*
G01*
X52850000Y-66799999D01*
G75*
G02*
X53099999Y-66550000I249999J0D01*
G01*
X53800001Y-66550000D01*
G75*
G02*
X54050000Y-66799999I0J-249999D01*
G01*
G37*
G36*
G01*
X61650000Y-66799999D02*
X61650000Y-68100001D01*
G75*
G02*
X61400001Y-68350000I-249999J0D01*
G01*
X60699999Y-68350000D01*
G75*
G02*
X60450000Y-68100001I0J249999D01*
G01*
X60450000Y-66799999D01*
G75*
G02*
X60699999Y-66550000I249999J0D01*
G01*
X61400001Y-66550000D01*
G75*
G02*
X61650000Y-66799999I0J-249999D01*
G01*
G37*
G36*
G01*
X55050000Y-64300000D02*
X55050000Y-65550000D01*
G75*
G02*
X54900000Y-65700000I-150000J0D01*
G01*
X54600000Y-65700000D01*
G75*
G02*
X54450000Y-65550000I0J150000D01*
G01*
X54450000Y-64300000D01*
G75*
G02*
X54600000Y-64150000I150000J0D01*
G01*
X54900000Y-64150000D01*
G75*
G02*
X55050000Y-64300000I0J-150000D01*
G01*
G37*
G36*
G01*
X56050000Y-64300000D02*
X56050000Y-65550000D01*
G75*
G02*
X55900000Y-65700000I-150000J0D01*
G01*
X55600000Y-65700000D01*
G75*
G02*
X55450000Y-65550000I0J150000D01*
G01*
X55450000Y-64300000D01*
G75*
G02*
X55600000Y-64150000I150000J0D01*
G01*
X55900000Y-64150000D01*
G75*
G02*
X56050000Y-64300000I0J-150000D01*
G01*
G37*
G36*
G01*
X57050000Y-64300000D02*
X57050000Y-65550000D01*
G75*
G02*
X56900000Y-65700000I-150000J0D01*
G01*
X56600000Y-65700000D01*
G75*
G02*
X56450000Y-65550000I0J150000D01*
G01*
X56450000Y-64300000D01*
G75*
G02*
X56600000Y-64150000I150000J0D01*
G01*
X56900000Y-64150000D01*
G75*
G02*
X57050000Y-64300000I0J-150000D01*
G01*
G37*
G36*
G01*
X58050000Y-64300000D02*
X58050000Y-65550000D01*
G75*
G02*
X57900000Y-65700000I-150000J0D01*
G01*
X57600000Y-65700000D01*
G75*
G02*
X57450000Y-65550000I0J150000D01*
G01*
X57450000Y-64300000D01*
G75*
G02*
X57600000Y-64150000I150000J0D01*
G01*
X57900000Y-64150000D01*
G75*
G02*
X58050000Y-64300000I0J-150000D01*
G01*
G37*
G36*
G01*
X59050000Y-64300000D02*
X59050000Y-65550000D01*
G75*
G02*
X58900000Y-65700000I-150000J0D01*
G01*
X58600000Y-65700000D01*
G75*
G02*
X58450000Y-65550000I0J150000D01*
G01*
X58450000Y-64300000D01*
G75*
G02*
X58600000Y-64150000I150000J0D01*
G01*
X58900000Y-64150000D01*
G75*
G02*
X59050000Y-64300000I0J-150000D01*
G01*
G37*
G36*
G01*
X60050000Y-64300000D02*
X60050000Y-65550000D01*
G75*
G02*
X59900000Y-65700000I-150000J0D01*
G01*
X59600000Y-65700000D01*
G75*
G02*
X59450000Y-65550000I0J150000D01*
G01*
X59450000Y-64300000D01*
G75*
G02*
X59600000Y-64150000I150000J0D01*
G01*
X59900000Y-64150000D01*
G75*
G02*
X60050000Y-64300000I0J-150000D01*
G01*
G37*
G04 #@! TD*
G04 #@! TO.C,D6*
G36*
G01*
X52543750Y-108700000D02*
X53456250Y-108700000D01*
G75*
G02*
X53700000Y-108943750I0J-243750D01*
G01*
X53700000Y-109431250D01*
G75*
G02*
X53456250Y-109675000I-243750J0D01*
G01*
X52543750Y-109675000D01*
G75*
G02*
X52300000Y-109431250I0J243750D01*
G01*
X52300000Y-108943750D01*
G75*
G02*
X52543750Y-108700000I243750J0D01*
G01*
G37*
G36*
G01*
X52543750Y-106825000D02*
X53456250Y-106825000D01*
G75*
G02*
X53700000Y-107068750I0J-243750D01*
G01*
X53700000Y-107556250D01*
G75*
G02*
X53456250Y-107800000I-243750J0D01*
G01*
X52543750Y-107800000D01*
G75*
G02*
X52300000Y-107556250I0J243750D01*
G01*
X52300000Y-107068750D01*
G75*
G02*
X52543750Y-106825000I243750J0D01*
G01*
G37*
G04 #@! TD*
G04 #@! TO.C,D5*
G36*
G01*
X80543750Y-108700000D02*
X81456250Y-108700000D01*
G75*
G02*
X81700000Y-108943750I0J-243750D01*
G01*
X81700000Y-109431250D01*
G75*
G02*
X81456250Y-109675000I-243750J0D01*
G01*
X80543750Y-109675000D01*
G75*
G02*
X80300000Y-109431250I0J243750D01*
G01*
X80300000Y-108943750D01*
G75*
G02*
X80543750Y-108700000I243750J0D01*
G01*
G37*
G36*
G01*
X80543750Y-106825000D02*
X81456250Y-106825000D01*
G75*
G02*
X81700000Y-107068750I0J-243750D01*
G01*
X81700000Y-107556250D01*
G75*
G02*
X81456250Y-107800000I-243750J0D01*
G01*
X80543750Y-107800000D01*
G75*
G02*
X80300000Y-107556250I0J243750D01*
G01*
X80300000Y-107068750D01*
G75*
G02*
X80543750Y-106825000I243750J0D01*
G01*
G37*
G04 #@! TD*
G04 #@! TO.C,D4*
G36*
G01*
X108543750Y-108700000D02*
X109456250Y-108700000D01*
G75*
G02*
X109700000Y-108943750I0J-243750D01*
G01*
X109700000Y-109431250D01*
G75*
G02*
X109456250Y-109675000I-243750J0D01*
G01*
X108543750Y-109675000D01*
G75*
G02*
X108300000Y-109431250I0J243750D01*
G01*
X108300000Y-108943750D01*
G75*
G02*
X108543750Y-108700000I243750J0D01*
G01*
G37*
G36*
G01*
X108543750Y-106825000D02*
X109456250Y-106825000D01*
G75*
G02*
X109700000Y-107068750I0J-243750D01*
G01*
X109700000Y-107556250D01*
G75*
G02*
X109456250Y-107800000I-243750J0D01*
G01*
X108543750Y-107800000D01*
G75*
G02*
X108300000Y-107556250I0J243750D01*
G01*
X108300000Y-107068750D01*
G75*
G02*
X108543750Y-106825000I243750J0D01*
G01*
G37*
G04 #@! TD*
G04 #@! TO.C,D3*
G36*
G01*
X136543750Y-108700000D02*
X137456250Y-108700000D01*
G75*
G02*
X137700000Y-108943750I0J-243750D01*
G01*
X137700000Y-109431250D01*
G75*
G02*
X137456250Y-109675000I-243750J0D01*
G01*
X136543750Y-109675000D01*
G75*
G02*
X136300000Y-109431250I0J243750D01*
G01*
X136300000Y-108943750D01*
G75*
G02*
X136543750Y-108700000I243750J0D01*
G01*
G37*
G36*
G01*
X136543750Y-106825000D02*
X137456250Y-106825000D01*
G75*
G02*
X137700000Y-107068750I0J-243750D01*
G01*
X137700000Y-107556250D01*
G75*
G02*
X137456250Y-107800000I-243750J0D01*
G01*
X136543750Y-107800000D01*
G75*
G02*
X136300000Y-107556250I0J243750D01*
G01*
X136300000Y-107068750D01*
G75*
G02*
X136543750Y-106825000I243750J0D01*
G01*
G37*
G04 #@! TD*
G04 #@! TO.C,D2*
G36*
G01*
X96543750Y-85012500D02*
X97456250Y-85012500D01*
G75*
G02*
X97700000Y-85256250I0J-243750D01*
G01*
X97700000Y-85743750D01*
G75*
G02*
X97456250Y-85987500I-243750J0D01*
G01*
X96543750Y-85987500D01*
G75*
G02*
X96300000Y-85743750I0J243750D01*
G01*
X96300000Y-85256250D01*
G75*
G02*
X96543750Y-85012500I243750J0D01*
G01*
G37*
G36*
G01*
X96543750Y-83137500D02*
X97456250Y-83137500D01*
G75*
G02*
X97700000Y-83381250I0J-243750D01*
G01*
X97700000Y-83868750D01*
G75*
G02*
X97456250Y-84112500I-243750J0D01*
G01*
X96543750Y-84112500D01*
G75*
G02*
X96300000Y-83868750I0J243750D01*
G01*
X96300000Y-83381250D01*
G75*
G02*
X96543750Y-83137500I243750J0D01*
G01*
G37*
G04 #@! TD*
D18*
G04 #@! TO.C,D1*
X101000000Y-80350000D03*
X101000000Y-84650000D03*
G04 #@! TD*
G04 #@! TO.C,C16*
G36*
G01*
X50525000Y-108700000D02*
X51475000Y-108700000D01*
G75*
G02*
X51725000Y-108950000I0J-250000D01*
G01*
X51725000Y-109450000D01*
G75*
G02*
X51475000Y-109700000I-250000J0D01*
G01*
X50525000Y-109700000D01*
G75*
G02*
X50275000Y-109450000I0J250000D01*
G01*
X50275000Y-108950000D01*
G75*
G02*
X50525000Y-108700000I250000J0D01*
G01*
G37*
G36*
G01*
X50525000Y-106800000D02*
X51475000Y-106800000D01*
G75*
G02*
X51725000Y-107050000I0J-250000D01*
G01*
X51725000Y-107550000D01*
G75*
G02*
X51475000Y-107800000I-250000J0D01*
G01*
X50525000Y-107800000D01*
G75*
G02*
X50275000Y-107550000I0J250000D01*
G01*
X50275000Y-107050000D01*
G75*
G02*
X50525000Y-106800000I250000J0D01*
G01*
G37*
G04 #@! TD*
G04 #@! TO.C,C15*
G36*
G01*
X78575000Y-108750000D02*
X79525000Y-108750000D01*
G75*
G02*
X79775000Y-109000000I0J-250000D01*
G01*
X79775000Y-109500000D01*
G75*
G02*
X79525000Y-109750000I-250000J0D01*
G01*
X78575000Y-109750000D01*
G75*
G02*
X78325000Y-109500000I0J250000D01*
G01*
X78325000Y-109000000D01*
G75*
G02*
X78575000Y-108750000I250000J0D01*
G01*
G37*
G36*
G01*
X78575000Y-106850000D02*
X79525000Y-106850000D01*
G75*
G02*
X79775000Y-107100000I0J-250000D01*
G01*
X79775000Y-107600000D01*
G75*
G02*
X79525000Y-107850000I-250000J0D01*
G01*
X78575000Y-107850000D01*
G75*
G02*
X78325000Y-107600000I0J250000D01*
G01*
X78325000Y-107100000D01*
G75*
G02*
X78575000Y-106850000I250000J0D01*
G01*
G37*
G04 #@! TD*
G04 #@! TO.C,C14*
G36*
G01*
X106525000Y-108700000D02*
X107475000Y-108700000D01*
G75*
G02*
X107725000Y-108950000I0J-250000D01*
G01*
X107725000Y-109450000D01*
G75*
G02*
X107475000Y-109700000I-250000J0D01*
G01*
X106525000Y-109700000D01*
G75*
G02*
X106275000Y-109450000I0J250000D01*
G01*
X106275000Y-108950000D01*
G75*
G02*
X106525000Y-108700000I250000J0D01*
G01*
G37*
G36*
G01*
X106525000Y-106800000D02*
X107475000Y-106800000D01*
G75*
G02*
X107725000Y-107050000I0J-250000D01*
G01*
X107725000Y-107550000D01*
G75*
G02*
X107475000Y-107800000I-250000J0D01*
G01*
X106525000Y-107800000D01*
G75*
G02*
X106275000Y-107550000I0J250000D01*
G01*
X106275000Y-107050000D01*
G75*
G02*
X106525000Y-106800000I250000J0D01*
G01*
G37*
G04 #@! TD*
G04 #@! TO.C,C13*
G36*
G01*
X134525000Y-108700000D02*
X135475000Y-108700000D01*
G75*
G02*
X135725000Y-108950000I0J-250000D01*
G01*
X135725000Y-109450000D01*
G75*
G02*
X135475000Y-109700000I-250000J0D01*
G01*
X134525000Y-109700000D01*
G75*
G02*
X134275000Y-109450000I0J250000D01*
G01*
X134275000Y-108950000D01*
G75*
G02*
X134525000Y-108700000I250000J0D01*
G01*
G37*
G36*
G01*
X134525000Y-106800000D02*
X135475000Y-106800000D01*
G75*
G02*
X135725000Y-107050000I0J-250000D01*
G01*
X135725000Y-107550000D01*
G75*
G02*
X135475000Y-107800000I-250000J0D01*
G01*
X134525000Y-107800000D01*
G75*
G02*
X134275000Y-107550000I0J250000D01*
G01*
X134275000Y-107050000D01*
G75*
G02*
X134525000Y-106800000I250000J0D01*
G01*
G37*
G04 #@! TD*
G04 #@! TO.C,C12*
G36*
G01*
X91800000Y-102775000D02*
X91800000Y-103725000D01*
G75*
G02*
X91550000Y-103975000I-250000J0D01*
G01*
X91050000Y-103975000D01*
G75*
G02*
X90800000Y-103725000I0J250000D01*
G01*
X90800000Y-102775000D01*
G75*
G02*
X91050000Y-102525000I250000J0D01*
G01*
X91550000Y-102525000D01*
G75*
G02*
X91800000Y-102775000I0J-250000D01*
G01*
G37*
G36*
G01*
X93700000Y-102775000D02*
X93700000Y-103725000D01*
G75*
G02*
X93450000Y-103975000I-250000J0D01*
G01*
X92950000Y-103975000D01*
G75*
G02*
X92700000Y-103725000I0J250000D01*
G01*
X92700000Y-102775000D01*
G75*
G02*
X92950000Y-102525000I250000J0D01*
G01*
X93450000Y-102525000D01*
G75*
G02*
X93700000Y-102775000I0J-250000D01*
G01*
G37*
G04 #@! TD*
G04 #@! TO.C,C11*
G36*
G01*
X99775000Y-76950000D02*
X100725000Y-76950000D01*
G75*
G02*
X100975000Y-77200000I0J-250000D01*
G01*
X100975000Y-77700000D01*
G75*
G02*
X100725000Y-77950000I-250000J0D01*
G01*
X99775000Y-77950000D01*
G75*
G02*
X99525000Y-77700000I0J250000D01*
G01*
X99525000Y-77200000D01*
G75*
G02*
X99775000Y-76950000I250000J0D01*
G01*
G37*
G36*
G01*
X99775000Y-75050000D02*
X100725000Y-75050000D01*
G75*
G02*
X100975000Y-75300000I0J-250000D01*
G01*
X100975000Y-75800000D01*
G75*
G02*
X100725000Y-76050000I-250000J0D01*
G01*
X99775000Y-76050000D01*
G75*
G02*
X99525000Y-75800000I0J250000D01*
G01*
X99525000Y-75300000D01*
G75*
G02*
X99775000Y-75050000I250000J0D01*
G01*
G37*
G04 #@! TD*
G04 #@! TO.C,C10*
G36*
G01*
X84975000Y-87050000D02*
X84025000Y-87050000D01*
G75*
G02*
X83775000Y-86800000I0J250000D01*
G01*
X83775000Y-86300000D01*
G75*
G02*
X84025000Y-86050000I250000J0D01*
G01*
X84975000Y-86050000D01*
G75*
G02*
X85225000Y-86300000I0J-250000D01*
G01*
X85225000Y-86800000D01*
G75*
G02*
X84975000Y-87050000I-250000J0D01*
G01*
G37*
G36*
G01*
X84975000Y-88950000D02*
X84025000Y-88950000D01*
G75*
G02*
X83775000Y-88700000I0J250000D01*
G01*
X83775000Y-88200000D01*
G75*
G02*
X84025000Y-87950000I250000J0D01*
G01*
X84975000Y-87950000D01*
G75*
G02*
X85225000Y-88200000I0J-250000D01*
G01*
X85225000Y-88700000D01*
G75*
G02*
X84975000Y-88950000I-250000J0D01*
G01*
G37*
G04 #@! TD*
G04 #@! TO.C,C9*
G36*
G01*
X101775000Y-76950000D02*
X102725000Y-76950000D01*
G75*
G02*
X102975000Y-77200000I0J-250000D01*
G01*
X102975000Y-77700000D01*
G75*
G02*
X102725000Y-77950000I-250000J0D01*
G01*
X101775000Y-77950000D01*
G75*
G02*
X101525000Y-77700000I0J250000D01*
G01*
X101525000Y-77200000D01*
G75*
G02*
X101775000Y-76950000I250000J0D01*
G01*
G37*
G36*
G01*
X101775000Y-75050000D02*
X102725000Y-75050000D01*
G75*
G02*
X102975000Y-75300000I0J-250000D01*
G01*
X102975000Y-75800000D01*
G75*
G02*
X102725000Y-76050000I-250000J0D01*
G01*
X101775000Y-76050000D01*
G75*
G02*
X101525000Y-75800000I0J250000D01*
G01*
X101525000Y-75300000D01*
G75*
G02*
X101775000Y-75050000I250000J0D01*
G01*
G37*
G04 #@! TD*
G04 #@! TO.C,C8*
G36*
G01*
X106300000Y-80525000D02*
X106300000Y-81475000D01*
G75*
G02*
X106050000Y-81725000I-250000J0D01*
G01*
X105550000Y-81725000D01*
G75*
G02*
X105300000Y-81475000I0J250000D01*
G01*
X105300000Y-80525000D01*
G75*
G02*
X105550000Y-80275000I250000J0D01*
G01*
X106050000Y-80275000D01*
G75*
G02*
X106300000Y-80525000I0J-250000D01*
G01*
G37*
G36*
G01*
X108200000Y-80525000D02*
X108200000Y-81475000D01*
G75*
G02*
X107950000Y-81725000I-250000J0D01*
G01*
X107450000Y-81725000D01*
G75*
G02*
X107200000Y-81475000I0J250000D01*
G01*
X107200000Y-80525000D01*
G75*
G02*
X107450000Y-80275000I250000J0D01*
G01*
X107950000Y-80275000D01*
G75*
G02*
X108200000Y-80525000I0J-250000D01*
G01*
G37*
G04 #@! TD*
G04 #@! TO.C,C7*
G36*
G01*
X106300000Y-82525000D02*
X106300000Y-83475000D01*
G75*
G02*
X106050000Y-83725000I-250000J0D01*
G01*
X105550000Y-83725000D01*
G75*
G02*
X105300000Y-83475000I0J250000D01*
G01*
X105300000Y-82525000D01*
G75*
G02*
X105550000Y-82275000I250000J0D01*
G01*
X106050000Y-82275000D01*
G75*
G02*
X106300000Y-82525000I0J-250000D01*
G01*
G37*
G36*
G01*
X108200000Y-82525000D02*
X108200000Y-83475000D01*
G75*
G02*
X107950000Y-83725000I-250000J0D01*
G01*
X107450000Y-83725000D01*
G75*
G02*
X107200000Y-83475000I0J250000D01*
G01*
X107200000Y-82525000D01*
G75*
G02*
X107450000Y-82275000I250000J0D01*
G01*
X107950000Y-82275000D01*
G75*
G02*
X108200000Y-82525000I0J-250000D01*
G01*
G37*
G04 #@! TD*
G04 #@! TO.C,C6*
G36*
G01*
X82450000Y-71725000D02*
X82450000Y-70775000D01*
G75*
G02*
X82700000Y-70525000I250000J0D01*
G01*
X83200000Y-70525000D01*
G75*
G02*
X83450000Y-70775000I0J-250000D01*
G01*
X83450000Y-71725000D01*
G75*
G02*
X83200000Y-71975000I-250000J0D01*
G01*
X82700000Y-71975000D01*
G75*
G02*
X82450000Y-71725000I0J250000D01*
G01*
G37*
G36*
G01*
X80550000Y-71725000D02*
X80550000Y-70775000D01*
G75*
G02*
X80800000Y-70525000I250000J0D01*
G01*
X81300000Y-70525000D01*
G75*
G02*
X81550000Y-70775000I0J-250000D01*
G01*
X81550000Y-71725000D01*
G75*
G02*
X81300000Y-71975000I-250000J0D01*
G01*
X80800000Y-71975000D01*
G75*
G02*
X80550000Y-71725000I0J250000D01*
G01*
G37*
G04 #@! TD*
G04 #@! TO.C,C5*
G36*
G01*
X98700000Y-71725000D02*
X98700000Y-70775000D01*
G75*
G02*
X98950000Y-70525000I250000J0D01*
G01*
X99450000Y-70525000D01*
G75*
G02*
X99700000Y-70775000I0J-250000D01*
G01*
X99700000Y-71725000D01*
G75*
G02*
X99450000Y-71975000I-250000J0D01*
G01*
X98950000Y-71975000D01*
G75*
G02*
X98700000Y-71725000I0J250000D01*
G01*
G37*
G36*
G01*
X96800000Y-71725000D02*
X96800000Y-70775000D01*
G75*
G02*
X97050000Y-70525000I250000J0D01*
G01*
X97550000Y-70525000D01*
G75*
G02*
X97800000Y-70775000I0J-250000D01*
G01*
X97800000Y-71725000D01*
G75*
G02*
X97550000Y-71975000I-250000J0D01*
G01*
X97050000Y-71975000D01*
G75*
G02*
X96800000Y-71725000I0J250000D01*
G01*
G37*
G04 #@! TD*
G04 #@! TO.C,C4*
G36*
G01*
X106000000Y-92500000D02*
X108000000Y-92500000D01*
G75*
G02*
X108250000Y-92750000I0J-250000D01*
G01*
X108250000Y-96650000D01*
G75*
G02*
X108000000Y-96900000I-250000J0D01*
G01*
X106000000Y-96900000D01*
G75*
G02*
X105750000Y-96650000I0J250000D01*
G01*
X105750000Y-92750000D01*
G75*
G02*
X106000000Y-92500000I250000J0D01*
G01*
G37*
G36*
G01*
X106000000Y-85100000D02*
X108000000Y-85100000D01*
G75*
G02*
X108250000Y-85350000I0J-250000D01*
G01*
X108250000Y-89250000D01*
G75*
G02*
X108000000Y-89500000I-250000J0D01*
G01*
X106000000Y-89500000D01*
G75*
G02*
X105750000Y-89250000I0J250000D01*
G01*
X105750000Y-85350000D01*
G75*
G02*
X106000000Y-85100000I250000J0D01*
G01*
G37*
G04 #@! TD*
G04 #@! TO.C,C3*
G36*
G01*
X51350000Y-95099999D02*
X51350000Y-96400001D01*
G75*
G02*
X51100001Y-96650000I-249999J0D01*
G01*
X50449999Y-96650000D01*
G75*
G02*
X50200000Y-96400001I0J249999D01*
G01*
X50200000Y-95099999D01*
G75*
G02*
X50449999Y-94850000I249999J0D01*
G01*
X51100001Y-94850000D01*
G75*
G02*
X51350000Y-95099999I0J-249999D01*
G01*
G37*
G36*
G01*
X54300000Y-95099999D02*
X54300000Y-96400001D01*
G75*
G02*
X54050001Y-96650000I-249999J0D01*
G01*
X53399999Y-96650000D01*
G75*
G02*
X53150000Y-96400001I0J249999D01*
G01*
X53150000Y-95099999D01*
G75*
G02*
X53399999Y-94850000I249999J0D01*
G01*
X54050001Y-94850000D01*
G75*
G02*
X54300000Y-95099999I0J-249999D01*
G01*
G37*
G04 #@! TD*
G04 #@! TO.C,C2*
G36*
G01*
X56950000Y-95975000D02*
X56950000Y-95025000D01*
G75*
G02*
X57200000Y-94775000I250000J0D01*
G01*
X57700000Y-94775000D01*
G75*
G02*
X57950000Y-95025000I0J-250000D01*
G01*
X57950000Y-95975000D01*
G75*
G02*
X57700000Y-96225000I-250000J0D01*
G01*
X57200000Y-96225000D01*
G75*
G02*
X56950000Y-95975000I0J250000D01*
G01*
G37*
G36*
G01*
X55050000Y-95975000D02*
X55050000Y-95025000D01*
G75*
G02*
X55300000Y-94775000I250000J0D01*
G01*
X55800000Y-94775000D01*
G75*
G02*
X56050000Y-95025000I0J-250000D01*
G01*
X56050000Y-95975000D01*
G75*
G02*
X55800000Y-96225000I-250000J0D01*
G01*
X55300000Y-96225000D01*
G75*
G02*
X55050000Y-95975000I0J250000D01*
G01*
G37*
G04 #@! TD*
M02*
