G04 #@! TF.GenerationSoftware,KiCad,Pcbnew,(5.1.9)-1*
G04 #@! TF.CreationDate,2021-03-08T14:29:57+02:00*
G04 #@! TF.ProjectId,Voltlog ESP32 Relay Controller,566f6c74-6c6f-4672-9045-535033322052,rev?*
G04 #@! TF.SameCoordinates,Original*
G04 #@! TF.FileFunction,Legend,Bot*
G04 #@! TF.FilePolarity,Positive*
%FSLAX46Y46*%
G04 Gerber Fmt 4.6, Leading zero omitted, Abs format (unit mm)*
G04 Created by KiCad (PCBNEW (5.1.9)-1) date 2021-03-08 14:29:57*
%MOMM*%
%LPD*%
G01*
G04 APERTURE LIST*
%ADD10C,0.400000*%
%ADD11C,0.250000*%
%ADD12C,0.200000*%
%ADD13C,0.150000*%
G04 APERTURE END LIST*
D10*
X136357142Y-88404761D02*
X135690476Y-90404761D01*
X135023809Y-88404761D01*
X134071428Y-90404761D02*
X134261904Y-90309523D01*
X134357142Y-90214285D01*
X134452380Y-90023809D01*
X134452380Y-89452380D01*
X134357142Y-89261904D01*
X134261904Y-89166666D01*
X134071428Y-89071428D01*
X133785714Y-89071428D01*
X133595238Y-89166666D01*
X133500000Y-89261904D01*
X133404761Y-89452380D01*
X133404761Y-90023809D01*
X133500000Y-90214285D01*
X133595238Y-90309523D01*
X133785714Y-90404761D01*
X134071428Y-90404761D01*
X132261904Y-90404761D02*
X132452380Y-90309523D01*
X132547619Y-90119047D01*
X132547619Y-88404761D01*
X131785714Y-89071428D02*
X131023809Y-89071428D01*
X131500000Y-88404761D02*
X131500000Y-90119047D01*
X131404761Y-90309523D01*
X131214285Y-90404761D01*
X131023809Y-90404761D01*
X130071428Y-90404761D02*
X130261904Y-90309523D01*
X130357142Y-90119047D01*
X130357142Y-88404761D01*
X129023809Y-90404761D02*
X129214285Y-90309523D01*
X129309523Y-90214285D01*
X129404761Y-90023809D01*
X129404761Y-89452380D01*
X129309523Y-89261904D01*
X129214285Y-89166666D01*
X129023809Y-89071428D01*
X128738095Y-89071428D01*
X128547619Y-89166666D01*
X128452380Y-89261904D01*
X128357142Y-89452380D01*
X128357142Y-90023809D01*
X128452380Y-90214285D01*
X128547619Y-90309523D01*
X128738095Y-90404761D01*
X129023809Y-90404761D01*
X126642857Y-89071428D02*
X126642857Y-90690476D01*
X126738095Y-90880952D01*
X126833333Y-90976190D01*
X127023809Y-91071428D01*
X127309523Y-91071428D01*
X127500000Y-90976190D01*
X126642857Y-90309523D02*
X126833333Y-90404761D01*
X127214285Y-90404761D01*
X127404761Y-90309523D01*
X127500000Y-90214285D01*
X127595238Y-90023809D01*
X127595238Y-89452380D01*
X127500000Y-89261904D01*
X127404761Y-89166666D01*
X127214285Y-89071428D01*
X126833333Y-89071428D01*
X126642857Y-89166666D01*
X124261904Y-89833333D02*
X123309523Y-89833333D01*
X124452380Y-90404761D02*
X123785714Y-88404761D01*
X123119047Y-90404761D01*
X121595238Y-89071428D02*
X121595238Y-91071428D01*
X121595238Y-90309523D02*
X121785714Y-90404761D01*
X122166666Y-90404761D01*
X122357142Y-90309523D01*
X122452380Y-90214285D01*
X122547619Y-90023809D01*
X122547619Y-89452380D01*
X122452380Y-89261904D01*
X122357142Y-89166666D01*
X122166666Y-89071428D01*
X121785714Y-89071428D01*
X121595238Y-89166666D01*
X119785714Y-89071428D02*
X119785714Y-90404761D01*
X120642857Y-89071428D02*
X120642857Y-90119047D01*
X120547619Y-90309523D01*
X120357142Y-90404761D01*
X120071428Y-90404761D01*
X119880952Y-90309523D01*
X119785714Y-90214285D01*
X117976190Y-90404761D02*
X117976190Y-89357142D01*
X118071428Y-89166666D01*
X118261904Y-89071428D01*
X118642857Y-89071428D01*
X118833333Y-89166666D01*
X117976190Y-90309523D02*
X118166666Y-90404761D01*
X118642857Y-90404761D01*
X118833333Y-90309523D01*
X118928571Y-90119047D01*
X118928571Y-89928571D01*
X118833333Y-89738095D01*
X118642857Y-89642857D01*
X118166666Y-89642857D01*
X117976190Y-89547619D01*
X117023809Y-90404761D02*
X117023809Y-89071428D01*
X117023809Y-89452380D02*
X116928571Y-89261904D01*
X116833333Y-89166666D01*
X116642857Y-89071428D01*
X116452380Y-89071428D01*
X115785714Y-90404761D02*
X115785714Y-89071428D01*
X115785714Y-88404761D02*
X115880952Y-88500000D01*
X115785714Y-88595238D01*
X115690476Y-88500000D01*
X115785714Y-88404761D01*
X115785714Y-88595238D01*
X113976190Y-89071428D02*
X113976190Y-90404761D01*
X114833333Y-89071428D02*
X114833333Y-90119047D01*
X114738095Y-90309523D01*
X114547619Y-90404761D01*
X114261904Y-90404761D01*
X114071428Y-90309523D01*
X113976190Y-90214285D01*
X113023809Y-90404761D02*
X113023809Y-89071428D01*
X113023809Y-89261904D02*
X112928571Y-89166666D01*
X112738095Y-89071428D01*
X112452380Y-89071428D01*
X112261904Y-89166666D01*
X112166666Y-89357142D01*
X112166666Y-90404761D01*
X112166666Y-89357142D02*
X112071428Y-89166666D01*
X111880952Y-89071428D01*
X111595238Y-89071428D01*
X111404761Y-89166666D01*
X111309523Y-89357142D01*
X111309523Y-90404761D01*
X107690476Y-90214285D02*
X107785714Y-90309523D01*
X108071428Y-90404761D01*
X108261904Y-90404761D01*
X108547619Y-90309523D01*
X108738095Y-90119047D01*
X108833333Y-89928571D01*
X108928571Y-89547619D01*
X108928571Y-89261904D01*
X108833333Y-88880952D01*
X108738095Y-88690476D01*
X108547619Y-88500000D01*
X108261904Y-88404761D01*
X108071428Y-88404761D01*
X107785714Y-88500000D01*
X107690476Y-88595238D01*
X106547619Y-90404761D02*
X106738095Y-90309523D01*
X106833333Y-90214285D01*
X106928571Y-90023809D01*
X106928571Y-89452380D01*
X106833333Y-89261904D01*
X106738095Y-89166666D01*
X106547619Y-89071428D01*
X106261904Y-89071428D01*
X106071428Y-89166666D01*
X105976190Y-89261904D01*
X105880952Y-89452380D01*
X105880952Y-90023809D01*
X105976190Y-90214285D01*
X106071428Y-90309523D01*
X106261904Y-90404761D01*
X106547619Y-90404761D01*
X105023809Y-89071428D02*
X105023809Y-90404761D01*
X105023809Y-89261904D02*
X104928571Y-89166666D01*
X104738095Y-89071428D01*
X104452380Y-89071428D01*
X104261904Y-89166666D01*
X104166666Y-89357142D01*
X104166666Y-90404761D01*
X103500000Y-89071428D02*
X102738095Y-89071428D01*
X103214285Y-88404761D02*
X103214285Y-90119047D01*
X103119047Y-90309523D01*
X102928571Y-90404761D01*
X102738095Y-90404761D01*
X102071428Y-90404761D02*
X102071428Y-89071428D01*
X102071428Y-89452380D02*
X101976190Y-89261904D01*
X101880952Y-89166666D01*
X101690476Y-89071428D01*
X101500000Y-89071428D01*
X100547619Y-90404761D02*
X100738095Y-90309523D01*
X100833333Y-90214285D01*
X100928571Y-90023809D01*
X100928571Y-89452380D01*
X100833333Y-89261904D01*
X100738095Y-89166666D01*
X100547619Y-89071428D01*
X100261904Y-89071428D01*
X100071428Y-89166666D01*
X99976190Y-89261904D01*
X99880952Y-89452380D01*
X99880952Y-90023809D01*
X99976190Y-90214285D01*
X100071428Y-90309523D01*
X100261904Y-90404761D01*
X100547619Y-90404761D01*
X98738095Y-90404761D02*
X98928571Y-90309523D01*
X99023809Y-90119047D01*
X99023809Y-88404761D01*
X97690476Y-90404761D02*
X97880952Y-90309523D01*
X97976190Y-90119047D01*
X97976190Y-88404761D01*
X96166666Y-90309523D02*
X96357142Y-90404761D01*
X96738095Y-90404761D01*
X96928571Y-90309523D01*
X97023809Y-90119047D01*
X97023809Y-89357142D01*
X96928571Y-89166666D01*
X96738095Y-89071428D01*
X96357142Y-89071428D01*
X96166666Y-89166666D01*
X96071428Y-89357142D01*
X96071428Y-89547619D01*
X97023809Y-89738095D01*
X95214285Y-90404761D02*
X95214285Y-89071428D01*
X95214285Y-89452380D02*
X95119047Y-89261904D01*
X95023809Y-89166666D01*
X94833333Y-89071428D01*
X94642857Y-89071428D01*
D11*
X126214285Y-91928571D02*
X125857142Y-93428571D01*
X125571428Y-92357142D01*
X125285714Y-93428571D01*
X124928571Y-91928571D01*
X124500000Y-91928571D02*
X124142857Y-93428571D01*
X123857142Y-92357142D01*
X123571428Y-93428571D01*
X123214285Y-91928571D01*
X122785714Y-91928571D02*
X122428571Y-93428571D01*
X122142857Y-92357142D01*
X121857142Y-93428571D01*
X121500000Y-91928571D01*
X120928571Y-93285714D02*
X120857142Y-93357142D01*
X120928571Y-93428571D01*
X121000000Y-93357142D01*
X120928571Y-93285714D01*
X120928571Y-93428571D01*
X120428571Y-91928571D02*
X119928571Y-93428571D01*
X119428571Y-91928571D01*
X118642857Y-91928571D02*
X118357142Y-91928571D01*
X118214285Y-92000000D01*
X118071428Y-92142857D01*
X118000000Y-92428571D01*
X118000000Y-92928571D01*
X118071428Y-93214285D01*
X118214285Y-93357142D01*
X118357142Y-93428571D01*
X118642857Y-93428571D01*
X118785714Y-93357142D01*
X118928571Y-93214285D01*
X119000000Y-92928571D01*
X119000000Y-92428571D01*
X118928571Y-92142857D01*
X118785714Y-92000000D01*
X118642857Y-91928571D01*
X116642857Y-93428571D02*
X117357142Y-93428571D01*
X117357142Y-91928571D01*
X116357142Y-91928571D02*
X115500000Y-91928571D01*
X115928571Y-93428571D02*
X115928571Y-91928571D01*
X114285714Y-93428571D02*
X115000000Y-93428571D01*
X115000000Y-91928571D01*
X113500000Y-91928571D02*
X113214285Y-91928571D01*
X113071428Y-92000000D01*
X112928571Y-92142857D01*
X112857142Y-92428571D01*
X112857142Y-92928571D01*
X112928571Y-93214285D01*
X113071428Y-93357142D01*
X113214285Y-93428571D01*
X113500000Y-93428571D01*
X113642857Y-93357142D01*
X113785714Y-93214285D01*
X113857142Y-92928571D01*
X113857142Y-92428571D01*
X113785714Y-92142857D01*
X113642857Y-92000000D01*
X113500000Y-91928571D01*
X111428571Y-92000000D02*
X111571428Y-91928571D01*
X111785714Y-91928571D01*
X112000000Y-92000000D01*
X112142857Y-92142857D01*
X112214285Y-92285714D01*
X112285714Y-92571428D01*
X112285714Y-92785714D01*
X112214285Y-93071428D01*
X112142857Y-93214285D01*
X112000000Y-93357142D01*
X111785714Y-93428571D01*
X111642857Y-93428571D01*
X111428571Y-93357142D01*
X111357142Y-93285714D01*
X111357142Y-92785714D01*
X111642857Y-92785714D01*
X110714285Y-93285714D02*
X110642857Y-93357142D01*
X110714285Y-93428571D01*
X110785714Y-93357142D01*
X110714285Y-93285714D01*
X110714285Y-93428571D01*
X109142857Y-93285714D02*
X109214285Y-93357142D01*
X109428571Y-93428571D01*
X109571428Y-93428571D01*
X109785714Y-93357142D01*
X109928571Y-93214285D01*
X110000000Y-93071428D01*
X110071428Y-92785714D01*
X110071428Y-92571428D01*
X110000000Y-92285714D01*
X109928571Y-92142857D01*
X109785714Y-92000000D01*
X109571428Y-91928571D01*
X109428571Y-91928571D01*
X109214285Y-92000000D01*
X109142857Y-92071428D01*
X108214285Y-91928571D02*
X107928571Y-91928571D01*
X107785714Y-92000000D01*
X107642857Y-92142857D01*
X107571428Y-92428571D01*
X107571428Y-92928571D01*
X107642857Y-93214285D01*
X107785714Y-93357142D01*
X107928571Y-93428571D01*
X108214285Y-93428571D01*
X108357142Y-93357142D01*
X108500000Y-93214285D01*
X108571428Y-92928571D01*
X108571428Y-92428571D01*
X108500000Y-92142857D01*
X108357142Y-92000000D01*
X108214285Y-91928571D01*
X106928571Y-93428571D02*
X106928571Y-91928571D01*
X106428571Y-93000000D01*
X105928571Y-91928571D01*
X105928571Y-93428571D01*
D12*
X142535714Y-143607142D02*
X142583333Y-143654761D01*
X142726190Y-143702380D01*
X142821428Y-143702380D01*
X142964285Y-143654761D01*
X143059523Y-143559523D01*
X143107142Y-143464285D01*
X143154761Y-143273809D01*
X143154761Y-143130952D01*
X143107142Y-142940476D01*
X143059523Y-142845238D01*
X142964285Y-142750000D01*
X142821428Y-142702380D01*
X142726190Y-142702380D01*
X142583333Y-142750000D01*
X142535714Y-142797619D01*
X141916666Y-142702380D02*
X141726190Y-142702380D01*
X141630952Y-142750000D01*
X141535714Y-142845238D01*
X141488095Y-143035714D01*
X141488095Y-143369047D01*
X141535714Y-143559523D01*
X141630952Y-143654761D01*
X141726190Y-143702380D01*
X141916666Y-143702380D01*
X142011904Y-143654761D01*
X142107142Y-143559523D01*
X142154761Y-143369047D01*
X142154761Y-143035714D01*
X142107142Y-142845238D01*
X142011904Y-142750000D01*
X141916666Y-142702380D01*
X141059523Y-143702380D02*
X141059523Y-142702380D01*
X140726190Y-143416666D01*
X140392857Y-142702380D01*
X140392857Y-143702380D01*
X137559523Y-143702380D02*
X137559523Y-142702380D01*
X136988095Y-143702380D01*
X136988095Y-142702380D01*
X136321428Y-142702380D02*
X136130952Y-142702380D01*
X136035714Y-142750000D01*
X135940476Y-142845238D01*
X135892857Y-143035714D01*
X135892857Y-143369047D01*
X135940476Y-143559523D01*
X136035714Y-143654761D01*
X136130952Y-143702380D01*
X136321428Y-143702380D01*
X136416666Y-143654761D01*
X136511904Y-143559523D01*
X136559523Y-143369047D01*
X136559523Y-143035714D01*
X136511904Y-142845238D01*
X136416666Y-142750000D01*
X136321428Y-142702380D01*
X147535714Y-143702380D02*
X147535714Y-142702380D01*
X146964285Y-143702380D01*
X146964285Y-142702380D01*
X145916666Y-143607142D02*
X145964285Y-143654761D01*
X146107142Y-143702380D01*
X146202380Y-143702380D01*
X146345238Y-143654761D01*
X146440476Y-143559523D01*
X146488095Y-143464285D01*
X146535714Y-143273809D01*
X146535714Y-143130952D01*
X146488095Y-142940476D01*
X146440476Y-142845238D01*
X146345238Y-142750000D01*
X146202380Y-142702380D01*
X146107142Y-142702380D01*
X145964285Y-142750000D01*
X145916666Y-142797619D01*
X109559523Y-143702380D02*
X109559523Y-142702380D01*
X108988095Y-143702380D01*
X108988095Y-142702380D01*
X108321428Y-142702380D02*
X108130952Y-142702380D01*
X108035714Y-142750000D01*
X107940476Y-142845238D01*
X107892857Y-143035714D01*
X107892857Y-143369047D01*
X107940476Y-143559523D01*
X108035714Y-143654761D01*
X108130952Y-143702380D01*
X108321428Y-143702380D01*
X108416666Y-143654761D01*
X108511904Y-143559523D01*
X108559523Y-143369047D01*
X108559523Y-143035714D01*
X108511904Y-142845238D01*
X108416666Y-142750000D01*
X108321428Y-142702380D01*
X114785714Y-143607142D02*
X114833333Y-143654761D01*
X114976190Y-143702380D01*
X115071428Y-143702380D01*
X115214285Y-143654761D01*
X115309523Y-143559523D01*
X115357142Y-143464285D01*
X115404761Y-143273809D01*
X115404761Y-143130952D01*
X115357142Y-142940476D01*
X115309523Y-142845238D01*
X115214285Y-142750000D01*
X115071428Y-142702380D01*
X114976190Y-142702380D01*
X114833333Y-142750000D01*
X114785714Y-142797619D01*
X114166666Y-142702380D02*
X113976190Y-142702380D01*
X113880952Y-142750000D01*
X113785714Y-142845238D01*
X113738095Y-143035714D01*
X113738095Y-143369047D01*
X113785714Y-143559523D01*
X113880952Y-143654761D01*
X113976190Y-143702380D01*
X114166666Y-143702380D01*
X114261904Y-143654761D01*
X114357142Y-143559523D01*
X114404761Y-143369047D01*
X114404761Y-143035714D01*
X114357142Y-142845238D01*
X114261904Y-142750000D01*
X114166666Y-142702380D01*
X113309523Y-143702380D02*
X113309523Y-142702380D01*
X112976190Y-143416666D01*
X112642857Y-142702380D01*
X112642857Y-143702380D01*
X119785714Y-143702380D02*
X119785714Y-142702380D01*
X119214285Y-143702380D01*
X119214285Y-142702380D01*
X118166666Y-143607142D02*
X118214285Y-143654761D01*
X118357142Y-143702380D01*
X118452380Y-143702380D01*
X118595238Y-143654761D01*
X118690476Y-143559523D01*
X118738095Y-143464285D01*
X118785714Y-143273809D01*
X118785714Y-143130952D01*
X118738095Y-142940476D01*
X118690476Y-142845238D01*
X118595238Y-142750000D01*
X118452380Y-142702380D01*
X118357142Y-142702380D01*
X118214285Y-142750000D01*
X118166666Y-142797619D01*
X86785714Y-143607142D02*
X86833333Y-143654761D01*
X86976190Y-143702380D01*
X87071428Y-143702380D01*
X87214285Y-143654761D01*
X87309523Y-143559523D01*
X87357142Y-143464285D01*
X87404761Y-143273809D01*
X87404761Y-143130952D01*
X87357142Y-142940476D01*
X87309523Y-142845238D01*
X87214285Y-142750000D01*
X87071428Y-142702380D01*
X86976190Y-142702380D01*
X86833333Y-142750000D01*
X86785714Y-142797619D01*
X86166666Y-142702380D02*
X85976190Y-142702380D01*
X85880952Y-142750000D01*
X85785714Y-142845238D01*
X85738095Y-143035714D01*
X85738095Y-143369047D01*
X85785714Y-143559523D01*
X85880952Y-143654761D01*
X85976190Y-143702380D01*
X86166666Y-143702380D01*
X86261904Y-143654761D01*
X86357142Y-143559523D01*
X86404761Y-143369047D01*
X86404761Y-143035714D01*
X86357142Y-142845238D01*
X86261904Y-142750000D01*
X86166666Y-142702380D01*
X85309523Y-143702380D02*
X85309523Y-142702380D01*
X84976190Y-143416666D01*
X84642857Y-142702380D01*
X84642857Y-143702380D01*
X91785714Y-143702380D02*
X91785714Y-142702380D01*
X91214285Y-143702380D01*
X91214285Y-142702380D01*
X90166666Y-143607142D02*
X90214285Y-143654761D01*
X90357142Y-143702380D01*
X90452380Y-143702380D01*
X90595238Y-143654761D01*
X90690476Y-143559523D01*
X90738095Y-143464285D01*
X90785714Y-143273809D01*
X90785714Y-143130952D01*
X90738095Y-142940476D01*
X90690476Y-142845238D01*
X90595238Y-142750000D01*
X90452380Y-142702380D01*
X90357142Y-142702380D01*
X90214285Y-142750000D01*
X90166666Y-142797619D01*
X81809523Y-143702380D02*
X81809523Y-142702380D01*
X81238095Y-143702380D01*
X81238095Y-142702380D01*
X80571428Y-142702380D02*
X80380952Y-142702380D01*
X80285714Y-142750000D01*
X80190476Y-142845238D01*
X80142857Y-143035714D01*
X80142857Y-143369047D01*
X80190476Y-143559523D01*
X80285714Y-143654761D01*
X80380952Y-143702380D01*
X80571428Y-143702380D01*
X80666666Y-143654761D01*
X80761904Y-143559523D01*
X80809523Y-143369047D01*
X80809523Y-143035714D01*
X80761904Y-142845238D01*
X80666666Y-142750000D01*
X80571428Y-142702380D01*
X58535714Y-143857142D02*
X58583333Y-143904761D01*
X58726190Y-143952380D01*
X58821428Y-143952380D01*
X58964285Y-143904761D01*
X59059523Y-143809523D01*
X59107142Y-143714285D01*
X59154761Y-143523809D01*
X59154761Y-143380952D01*
X59107142Y-143190476D01*
X59059523Y-143095238D01*
X58964285Y-143000000D01*
X58821428Y-142952380D01*
X58726190Y-142952380D01*
X58583333Y-143000000D01*
X58535714Y-143047619D01*
X57916666Y-142952380D02*
X57726190Y-142952380D01*
X57630952Y-143000000D01*
X57535714Y-143095238D01*
X57488095Y-143285714D01*
X57488095Y-143619047D01*
X57535714Y-143809523D01*
X57630952Y-143904761D01*
X57726190Y-143952380D01*
X57916666Y-143952380D01*
X58011904Y-143904761D01*
X58107142Y-143809523D01*
X58154761Y-143619047D01*
X58154761Y-143285714D01*
X58107142Y-143095238D01*
X58011904Y-143000000D01*
X57916666Y-142952380D01*
X57059523Y-143952380D02*
X57059523Y-142952380D01*
X56726190Y-143666666D01*
X56392857Y-142952380D01*
X56392857Y-143952380D01*
X63535714Y-143952380D02*
X63535714Y-142952380D01*
X62964285Y-143952380D01*
X62964285Y-142952380D01*
X61916666Y-143857142D02*
X61964285Y-143904761D01*
X62107142Y-143952380D01*
X62202380Y-143952380D01*
X62345238Y-143904761D01*
X62440476Y-143809523D01*
X62488095Y-143714285D01*
X62535714Y-143523809D01*
X62535714Y-143380952D01*
X62488095Y-143190476D01*
X62440476Y-143095238D01*
X62345238Y-143000000D01*
X62202380Y-142952380D01*
X62107142Y-142952380D01*
X61964285Y-143000000D01*
X61916666Y-143047619D01*
X53559523Y-143952380D02*
X53559523Y-142952380D01*
X52988095Y-143952380D01*
X52988095Y-142952380D01*
X52321428Y-142952380D02*
X52130952Y-142952380D01*
X52035714Y-143000000D01*
X51940476Y-143095238D01*
X51892857Y-143285714D01*
X51892857Y-143619047D01*
X51940476Y-143809523D01*
X52035714Y-143904761D01*
X52130952Y-143952380D01*
X52321428Y-143952380D01*
X52416666Y-143904761D01*
X52511904Y-143809523D01*
X52559523Y-143619047D01*
X52559523Y-143285714D01*
X52511904Y-143095238D01*
X52416666Y-143000000D01*
X52321428Y-142952380D01*
X151085714Y-100252380D02*
X151085714Y-99252380D01*
X150514285Y-100252380D01*
X150514285Y-99252380D01*
X150390476Y-105752380D02*
X150866666Y-105752380D01*
X150866666Y-104752380D01*
D13*
X153790476Y-90052380D02*
X154266666Y-90052380D01*
X154266666Y-89052380D01*
X154514285Y-65528571D02*
X154180952Y-65528571D01*
X154038095Y-66052380D02*
X154514285Y-66052380D01*
X154514285Y-65052380D01*
X154038095Y-65052380D01*
X154485714Y-77852380D02*
X154485714Y-76852380D01*
X153914285Y-77852380D01*
X153914285Y-76852380D01*
X120685714Y-85571428D02*
X119923809Y-85571428D01*
X120304761Y-85952380D02*
X120304761Y-85190476D01*
X118971428Y-84952380D02*
X119447619Y-84952380D01*
X119495238Y-85428571D01*
X119447619Y-85380952D01*
X119352380Y-85333333D01*
X119114285Y-85333333D01*
X119019047Y-85380952D01*
X118971428Y-85428571D01*
X118923809Y-85523809D01*
X118923809Y-85761904D01*
X118971428Y-85857142D01*
X119019047Y-85904761D01*
X119114285Y-85952380D01*
X119352380Y-85952380D01*
X119447619Y-85904761D01*
X119495238Y-85857142D01*
X118638095Y-84952380D02*
X118304761Y-85952380D01*
X117971428Y-84952380D01*
X119961904Y-69000000D02*
X120057142Y-68952380D01*
X120200000Y-68952380D01*
X120342857Y-69000000D01*
X120438095Y-69095238D01*
X120485714Y-69190476D01*
X120533333Y-69380952D01*
X120533333Y-69523809D01*
X120485714Y-69714285D01*
X120438095Y-69809523D01*
X120342857Y-69904761D01*
X120200000Y-69952380D01*
X120104761Y-69952380D01*
X119961904Y-69904761D01*
X119914285Y-69857142D01*
X119914285Y-69523809D01*
X120104761Y-69523809D01*
X119485714Y-69952380D02*
X119485714Y-68952380D01*
X118914285Y-69952380D01*
X118914285Y-68952380D01*
X118438095Y-69952380D02*
X118438095Y-68952380D01*
X118200000Y-68952380D01*
X118057142Y-69000000D01*
X117961904Y-69095238D01*
X117914285Y-69190476D01*
X117866666Y-69380952D01*
X117866666Y-69523809D01*
X117914285Y-69714285D01*
X117961904Y-69809523D01*
X118057142Y-69904761D01*
X118200000Y-69952380D01*
X118438095Y-69952380D01*
M02*
