G04 #@! TF.GenerationSoftware,KiCad,Pcbnew,(5.1.9)-1*
G04 #@! TF.CreationDate,2021-03-08T14:29:57+02:00*
G04 #@! TF.ProjectId,Voltlog ESP32 Relay Controller,566f6c74-6c6f-4672-9045-535033322052,rev?*
G04 #@! TF.SameCoordinates,Original*
G04 #@! TF.FileFunction,Soldermask,Bot*
G04 #@! TF.FilePolarity,Negative*
%FSLAX46Y46*%
G04 Gerber Fmt 4.6, Leading zero omitted, Abs format (unit mm)*
G04 Created by KiCad (PCBNEW (5.1.9)-1) date 2021-03-08 14:29:57*
%MOMM*%
%LPD*%
G01*
G04 APERTURE LIST*
%ADD10C,1.800000*%
%ADD11R,5.000000X10.000000*%
%ADD12C,2.000000*%
%ADD13C,2.500000*%
%ADD14R,2.500000X2.500000*%
%ADD15C,3.000000*%
%ADD16C,2.600000*%
%ADD17R,2.600000X2.600000*%
%ADD18O,1.700000X1.700000*%
%ADD19R,1.700000X1.700000*%
%ADD20C,2.100000*%
%ADD21R,2.100000X2.100000*%
G04 APERTURE END LIST*
D10*
G04 #@! TO.C,RV1*
X139500000Y-99700000D03*
X132000000Y-97500000D03*
G04 #@! TD*
D11*
G04 #@! TO.C,TP1*
X151000000Y-65500000D03*
G04 #@! TD*
D12*
G04 #@! TO.C,PS1*
X116000000Y-77500000D03*
X116000000Y-73500000D03*
X116000000Y-81500000D03*
X116000000Y-69500000D03*
X116000000Y-85500000D03*
X156500000Y-65500000D03*
X156500000Y-77500000D03*
X156500000Y-89500000D03*
G04 #@! TD*
D13*
G04 #@! TO.C,J1*
X148000000Y-105080000D03*
D14*
X148000000Y-100000000D03*
G04 #@! TD*
D15*
G04 #@! TO.C,K4*
X58000000Y-112000000D03*
X64000000Y-114000000D03*
X64000000Y-126200000D03*
X52000000Y-126200000D03*
X52000000Y-114000000D03*
G04 #@! TD*
G04 #@! TO.C,K3*
X86000000Y-112000000D03*
X92000000Y-114000000D03*
X92000000Y-126200000D03*
X80000000Y-126200000D03*
X80000000Y-114000000D03*
G04 #@! TD*
G04 #@! TO.C,K2*
X114000000Y-112000000D03*
X120000000Y-114000000D03*
X120000000Y-126200000D03*
X108000000Y-126200000D03*
X108000000Y-114000000D03*
G04 #@! TD*
G04 #@! TO.C,K1*
X142000000Y-112000000D03*
X148000000Y-114000000D03*
X148000000Y-126200000D03*
X136000000Y-126200000D03*
X136000000Y-114000000D03*
G04 #@! TD*
D16*
G04 #@! TO.C,J11*
X52840000Y-138500000D03*
X57920000Y-138500000D03*
D17*
X63000000Y-138500000D03*
G04 #@! TD*
D16*
G04 #@! TO.C,J10*
X80840000Y-138500000D03*
X85920000Y-138500000D03*
D17*
X91000000Y-138500000D03*
G04 #@! TD*
D16*
G04 #@! TO.C,J9*
X108920000Y-138500000D03*
X114000000Y-138500000D03*
D17*
X119080000Y-138500000D03*
G04 #@! TD*
D16*
G04 #@! TO.C,J8*
X136840000Y-138500000D03*
X141920000Y-138500000D03*
D17*
X147000000Y-138500000D03*
G04 #@! TD*
D18*
G04 #@! TO.C,J7*
X77978000Y-81534000D03*
X80518000Y-81534000D03*
X83058000Y-81534000D03*
X85598000Y-81534000D03*
X88138000Y-81534000D03*
D19*
X90678000Y-81534000D03*
G04 #@! TD*
D18*
G04 #@! TO.C,J6*
X62050000Y-96000000D03*
X64590000Y-96000000D03*
X67130000Y-96000000D03*
X69670000Y-96000000D03*
X72210000Y-96000000D03*
D19*
X74750000Y-96000000D03*
G04 #@! TD*
D18*
G04 #@! TO.C,J4*
X77978000Y-77750000D03*
X80518000Y-77750000D03*
X83058000Y-77750000D03*
D19*
X85598000Y-77750000D03*
G04 #@! TD*
D20*
G04 #@! TO.C,J3*
X85160000Y-65000000D03*
X80080000Y-65000000D03*
D21*
X75000000Y-65000000D03*
G04 #@! TD*
D20*
G04 #@! TO.C,J2*
X101660000Y-65000000D03*
X96580000Y-65000000D03*
D21*
X91500000Y-65000000D03*
G04 #@! TD*
D15*
G04 #@! TO.C,F5*
X44000000Y-112400000D03*
X44000000Y-135000000D03*
G04 #@! TD*
G04 #@! TO.C,F4*
X72000000Y-112400000D03*
X72000000Y-135000000D03*
G04 #@! TD*
G04 #@! TO.C,F3*
X100000000Y-112400000D03*
X100000000Y-135000000D03*
G04 #@! TD*
G04 #@! TO.C,F2*
X128000000Y-112400000D03*
X128000000Y-135000000D03*
G04 #@! TD*
G04 #@! TO.C,F1*
X156000000Y-134600000D03*
X156000000Y-112000000D03*
G04 #@! TD*
M02*
