G04 #@! TF.GenerationSoftware,KiCad,Pcbnew,(5.1.9)-1*
G04 #@! TF.CreationDate,2021-03-08T14:29:57+02:00*
G04 #@! TF.ProjectId,Voltlog ESP32 Relay Controller,566f6c74-6c6f-4672-9045-535033322052,rev?*
G04 #@! TF.SameCoordinates,Original*
G04 #@! TF.FileFunction,Legend,Top*
G04 #@! TF.FilePolarity,Positive*
%FSLAX46Y46*%
G04 Gerber Fmt 4.6, Leading zero omitted, Abs format (unit mm)*
G04 Created by KiCad (PCBNEW (5.1.9)-1) date 2021-03-08 14:29:57*
%MOMM*%
%LPD*%
G01*
G04 APERTURE LIST*
%ADD10C,0.250000*%
%ADD11C,0.150000*%
%ADD12C,0.200000*%
%ADD13C,0.120000*%
%ADD14C,0.100000*%
G04 APERTURE END LIST*
D10*
X116628571Y-101917857D02*
X116914285Y-103117857D01*
X117142857Y-102260714D01*
X117371428Y-103117857D01*
X117657142Y-101917857D01*
X118057142Y-102775000D02*
X118628571Y-102775000D01*
X117942857Y-103117857D02*
X118342857Y-101917857D01*
X118742857Y-103117857D01*
X119828571Y-103117857D02*
X119428571Y-102546428D01*
X119142857Y-103117857D02*
X119142857Y-101917857D01*
X119600000Y-101917857D01*
X119714285Y-101975000D01*
X119771428Y-102032142D01*
X119828571Y-102146428D01*
X119828571Y-102317857D01*
X119771428Y-102432142D01*
X119714285Y-102489285D01*
X119600000Y-102546428D01*
X119142857Y-102546428D01*
X120342857Y-103117857D02*
X120342857Y-101917857D01*
X121028571Y-103117857D01*
X121028571Y-101917857D01*
X121600000Y-103117857D02*
X121600000Y-101917857D01*
X122171428Y-103117857D02*
X122171428Y-101917857D01*
X122857142Y-103117857D01*
X122857142Y-101917857D01*
X124057142Y-101975000D02*
X123942857Y-101917857D01*
X123771428Y-101917857D01*
X123600000Y-101975000D01*
X123485714Y-102089285D01*
X123428571Y-102203571D01*
X123371428Y-102432142D01*
X123371428Y-102603571D01*
X123428571Y-102832142D01*
X123485714Y-102946428D01*
X123600000Y-103060714D01*
X123771428Y-103117857D01*
X123885714Y-103117857D01*
X124057142Y-103060714D01*
X124114285Y-103003571D01*
X124114285Y-102603571D01*
X123885714Y-102603571D01*
X114057142Y-105167857D02*
X114057142Y-103967857D01*
X114057142Y-104539285D02*
X114742857Y-104539285D01*
X114742857Y-105167857D02*
X114742857Y-103967857D01*
X115314285Y-105167857D02*
X115314285Y-103967857D01*
X116514285Y-104025000D02*
X116400000Y-103967857D01*
X116228571Y-103967857D01*
X116057142Y-104025000D01*
X115942857Y-104139285D01*
X115885714Y-104253571D01*
X115828571Y-104482142D01*
X115828571Y-104653571D01*
X115885714Y-104882142D01*
X115942857Y-104996428D01*
X116057142Y-105110714D01*
X116228571Y-105167857D01*
X116342857Y-105167857D01*
X116514285Y-105110714D01*
X116571428Y-105053571D01*
X116571428Y-104653571D01*
X116342857Y-104653571D01*
X117085714Y-105167857D02*
X117085714Y-103967857D01*
X117085714Y-104539285D02*
X117771428Y-104539285D01*
X117771428Y-105167857D02*
X117771428Y-103967857D01*
X119085714Y-103967857D02*
X119485714Y-105167857D01*
X119885714Y-103967857D01*
X120514285Y-103967857D02*
X120742857Y-103967857D01*
X120857142Y-104025000D01*
X120971428Y-104139285D01*
X121028571Y-104367857D01*
X121028571Y-104767857D01*
X120971428Y-104996428D01*
X120857142Y-105110714D01*
X120742857Y-105167857D01*
X120514285Y-105167857D01*
X120400000Y-105110714D01*
X120285714Y-104996428D01*
X120228571Y-104767857D01*
X120228571Y-104367857D01*
X120285714Y-104139285D01*
X120400000Y-104025000D01*
X120514285Y-103967857D01*
X122114285Y-105167857D02*
X121542857Y-105167857D01*
X121542857Y-103967857D01*
X122342857Y-103967857D02*
X123028571Y-103967857D01*
X122685714Y-105167857D02*
X122685714Y-103967857D01*
X123371428Y-104825000D02*
X123942857Y-104825000D01*
X123257142Y-105167857D02*
X123657142Y-103967857D01*
X124057142Y-105167857D01*
X125085714Y-104025000D02*
X124971428Y-103967857D01*
X124800000Y-103967857D01*
X124628571Y-104025000D01*
X124514285Y-104139285D01*
X124457142Y-104253571D01*
X124400000Y-104482142D01*
X124400000Y-104653571D01*
X124457142Y-104882142D01*
X124514285Y-104996428D01*
X124628571Y-105110714D01*
X124800000Y-105167857D01*
X124914285Y-105167857D01*
X125085714Y-105110714D01*
X125142857Y-105053571D01*
X125142857Y-104653571D01*
X124914285Y-104653571D01*
X125657142Y-104539285D02*
X126057142Y-104539285D01*
X126228571Y-105167857D02*
X125657142Y-105167857D01*
X125657142Y-103967857D01*
X126228571Y-103967857D01*
X126742857Y-105053571D02*
X126800000Y-105110714D01*
X126742857Y-105167857D01*
X126685714Y-105110714D01*
X126742857Y-105053571D01*
X126742857Y-105167857D01*
X126742857Y-104710714D02*
X126685714Y-104025000D01*
X126742857Y-103967857D01*
X126800000Y-104025000D01*
X126742857Y-104710714D01*
X126742857Y-103967857D01*
X61028571Y-102117857D02*
X61314285Y-103317857D01*
X61542857Y-102460714D01*
X61771428Y-103317857D01*
X62057142Y-102117857D01*
X62457142Y-102975000D02*
X63028571Y-102975000D01*
X62342857Y-103317857D02*
X62742857Y-102117857D01*
X63142857Y-103317857D01*
X64228571Y-103317857D02*
X63828571Y-102746428D01*
X63542857Y-103317857D02*
X63542857Y-102117857D01*
X64000000Y-102117857D01*
X64114285Y-102175000D01*
X64171428Y-102232142D01*
X64228571Y-102346428D01*
X64228571Y-102517857D01*
X64171428Y-102632142D01*
X64114285Y-102689285D01*
X64000000Y-102746428D01*
X63542857Y-102746428D01*
X64742857Y-103317857D02*
X64742857Y-102117857D01*
X65428571Y-103317857D01*
X65428571Y-102117857D01*
X66000000Y-103317857D02*
X66000000Y-102117857D01*
X66571428Y-103317857D02*
X66571428Y-102117857D01*
X67257142Y-103317857D01*
X67257142Y-102117857D01*
X68457142Y-102175000D02*
X68342857Y-102117857D01*
X68171428Y-102117857D01*
X68000000Y-102175000D01*
X67885714Y-102289285D01*
X67828571Y-102403571D01*
X67771428Y-102632142D01*
X67771428Y-102803571D01*
X67828571Y-103032142D01*
X67885714Y-103146428D01*
X68000000Y-103260714D01*
X68171428Y-103317857D01*
X68285714Y-103317857D01*
X68457142Y-103260714D01*
X68514285Y-103203571D01*
X68514285Y-102803571D01*
X68285714Y-102803571D01*
X58457142Y-105367857D02*
X58457142Y-104167857D01*
X58457142Y-104739285D02*
X59142857Y-104739285D01*
X59142857Y-105367857D02*
X59142857Y-104167857D01*
X59714285Y-105367857D02*
X59714285Y-104167857D01*
X60914285Y-104225000D02*
X60800000Y-104167857D01*
X60628571Y-104167857D01*
X60457142Y-104225000D01*
X60342857Y-104339285D01*
X60285714Y-104453571D01*
X60228571Y-104682142D01*
X60228571Y-104853571D01*
X60285714Y-105082142D01*
X60342857Y-105196428D01*
X60457142Y-105310714D01*
X60628571Y-105367857D01*
X60742857Y-105367857D01*
X60914285Y-105310714D01*
X60971428Y-105253571D01*
X60971428Y-104853571D01*
X60742857Y-104853571D01*
X61485714Y-105367857D02*
X61485714Y-104167857D01*
X61485714Y-104739285D02*
X62171428Y-104739285D01*
X62171428Y-105367857D02*
X62171428Y-104167857D01*
X63485714Y-104167857D02*
X63885714Y-105367857D01*
X64285714Y-104167857D01*
X64914285Y-104167857D02*
X65142857Y-104167857D01*
X65257142Y-104225000D01*
X65371428Y-104339285D01*
X65428571Y-104567857D01*
X65428571Y-104967857D01*
X65371428Y-105196428D01*
X65257142Y-105310714D01*
X65142857Y-105367857D01*
X64914285Y-105367857D01*
X64800000Y-105310714D01*
X64685714Y-105196428D01*
X64628571Y-104967857D01*
X64628571Y-104567857D01*
X64685714Y-104339285D01*
X64800000Y-104225000D01*
X64914285Y-104167857D01*
X66514285Y-105367857D02*
X65942857Y-105367857D01*
X65942857Y-104167857D01*
X66742857Y-104167857D02*
X67428571Y-104167857D01*
X67085714Y-105367857D02*
X67085714Y-104167857D01*
X67771428Y-105025000D02*
X68342857Y-105025000D01*
X67657142Y-105367857D02*
X68057142Y-104167857D01*
X68457142Y-105367857D01*
X69485714Y-104225000D02*
X69371428Y-104167857D01*
X69200000Y-104167857D01*
X69028571Y-104225000D01*
X68914285Y-104339285D01*
X68857142Y-104453571D01*
X68800000Y-104682142D01*
X68800000Y-104853571D01*
X68857142Y-105082142D01*
X68914285Y-105196428D01*
X69028571Y-105310714D01*
X69200000Y-105367857D01*
X69314285Y-105367857D01*
X69485714Y-105310714D01*
X69542857Y-105253571D01*
X69542857Y-104853571D01*
X69314285Y-104853571D01*
X70057142Y-104739285D02*
X70457142Y-104739285D01*
X70628571Y-105367857D02*
X70057142Y-105367857D01*
X70057142Y-104167857D01*
X70628571Y-104167857D01*
X71142857Y-105253571D02*
X71200000Y-105310714D01*
X71142857Y-105367857D01*
X71085714Y-105310714D01*
X71142857Y-105253571D01*
X71142857Y-105367857D01*
X71142857Y-104910714D02*
X71085714Y-104225000D01*
X71142857Y-104167857D01*
X71200000Y-104225000D01*
X71142857Y-104910714D01*
X71142857Y-104167857D01*
X152571428Y-137202380D02*
X152666666Y-137202380D01*
X152761904Y-137250000D01*
X152809523Y-137297619D01*
X152857142Y-137392857D01*
X152904761Y-137583333D01*
X152904761Y-137821428D01*
X152857142Y-138011904D01*
X152809523Y-138107142D01*
X152761904Y-138154761D01*
X152666666Y-138202380D01*
X152571428Y-138202380D01*
X152476190Y-138154761D01*
X152428571Y-138107142D01*
X152380952Y-138011904D01*
X152333333Y-137821428D01*
X152333333Y-137583333D01*
X152380952Y-137392857D01*
X152428571Y-137297619D01*
X152476190Y-137250000D01*
X152571428Y-137202380D01*
X153333333Y-138107142D02*
X153380952Y-138154761D01*
X153333333Y-138202380D01*
X153285714Y-138154761D01*
X153333333Y-138107142D01*
X153333333Y-138202380D01*
X153761904Y-137297619D02*
X153809523Y-137250000D01*
X153904761Y-137202380D01*
X154142857Y-137202380D01*
X154238095Y-137250000D01*
X154285714Y-137297619D01*
X154333333Y-137392857D01*
X154333333Y-137488095D01*
X154285714Y-137630952D01*
X153714285Y-138202380D01*
X154333333Y-138202380D01*
X154714285Y-137916666D02*
X155190476Y-137916666D01*
X154619047Y-138202380D02*
X154952380Y-137202380D01*
X155285714Y-138202380D01*
X156333333Y-137297619D02*
X156380952Y-137250000D01*
X156476190Y-137202380D01*
X156714285Y-137202380D01*
X156809523Y-137250000D01*
X156857142Y-137297619D01*
X156904761Y-137392857D01*
X156904761Y-137488095D01*
X156857142Y-137630952D01*
X156285714Y-138202380D01*
X156904761Y-138202380D01*
X157809523Y-137202380D02*
X157333333Y-137202380D01*
X157285714Y-137678571D01*
X157333333Y-137630952D01*
X157428571Y-137583333D01*
X157666666Y-137583333D01*
X157761904Y-137630952D01*
X157809523Y-137678571D01*
X157857142Y-137773809D01*
X157857142Y-138011904D01*
X157809523Y-138107142D01*
X157761904Y-138154761D01*
X157666666Y-138202380D01*
X157428571Y-138202380D01*
X157333333Y-138154761D01*
X157285714Y-138107142D01*
X158476190Y-137202380D02*
X158571428Y-137202380D01*
X158666666Y-137250000D01*
X158714285Y-137297619D01*
X158761904Y-137392857D01*
X158809523Y-137583333D01*
X158809523Y-137821428D01*
X158761904Y-138011904D01*
X158714285Y-138107142D01*
X158666666Y-138154761D01*
X158571428Y-138202380D01*
X158476190Y-138202380D01*
X158380952Y-138154761D01*
X158333333Y-138107142D01*
X158285714Y-138011904D01*
X158238095Y-137821428D01*
X158238095Y-137583333D01*
X158285714Y-137392857D01*
X158333333Y-137297619D01*
X158380952Y-137250000D01*
X158476190Y-137202380D01*
X159095238Y-137202380D02*
X159428571Y-138202380D01*
X159761904Y-137202380D01*
X125321428Y-138577380D02*
X124845238Y-138577380D01*
X124797619Y-139053571D01*
X124845238Y-139005952D01*
X124940476Y-138958333D01*
X125178571Y-138958333D01*
X125273809Y-139005952D01*
X125321428Y-139053571D01*
X125369047Y-139148809D01*
X125369047Y-139386904D01*
X125321428Y-139482142D01*
X125273809Y-139529761D01*
X125178571Y-139577380D01*
X124940476Y-139577380D01*
X124845238Y-139529761D01*
X124797619Y-139482142D01*
X125750000Y-139291666D02*
X126226190Y-139291666D01*
X125654761Y-139577380D02*
X125988095Y-138577380D01*
X126321428Y-139577380D01*
X127369047Y-138672619D02*
X127416666Y-138625000D01*
X127511904Y-138577380D01*
X127750000Y-138577380D01*
X127845238Y-138625000D01*
X127892857Y-138672619D01*
X127940476Y-138767857D01*
X127940476Y-138863095D01*
X127892857Y-139005952D01*
X127321428Y-139577380D01*
X127940476Y-139577380D01*
X128845238Y-138577380D02*
X128369047Y-138577380D01*
X128321428Y-139053571D01*
X128369047Y-139005952D01*
X128464285Y-138958333D01*
X128702380Y-138958333D01*
X128797619Y-139005952D01*
X128845238Y-139053571D01*
X128892857Y-139148809D01*
X128892857Y-139386904D01*
X128845238Y-139482142D01*
X128797619Y-139529761D01*
X128702380Y-139577380D01*
X128464285Y-139577380D01*
X128369047Y-139529761D01*
X128321428Y-139482142D01*
X129511904Y-138577380D02*
X129607142Y-138577380D01*
X129702380Y-138625000D01*
X129750000Y-138672619D01*
X129797619Y-138767857D01*
X129845238Y-138958333D01*
X129845238Y-139196428D01*
X129797619Y-139386904D01*
X129750000Y-139482142D01*
X129702380Y-139529761D01*
X129607142Y-139577380D01*
X129511904Y-139577380D01*
X129416666Y-139529761D01*
X129369047Y-139482142D01*
X129321428Y-139386904D01*
X129273809Y-139196428D01*
X129273809Y-138958333D01*
X129321428Y-138767857D01*
X129369047Y-138672619D01*
X129416666Y-138625000D01*
X129511904Y-138577380D01*
X130130952Y-138577380D02*
X130464285Y-139577380D01*
X130797619Y-138577380D01*
X126654761Y-141327380D02*
X126654761Y-140327380D01*
X126988095Y-141041666D01*
X127321428Y-140327380D01*
X127321428Y-141327380D01*
X127750000Y-141041666D02*
X128226190Y-141041666D01*
X127654761Y-141327380D02*
X127988095Y-140327380D01*
X128321428Y-141327380D01*
X128559523Y-140327380D02*
X129226190Y-141327380D01*
X129226190Y-140327380D02*
X128559523Y-141327380D01*
X129607142Y-141232142D02*
X129654761Y-141279761D01*
X129607142Y-141327380D01*
X129559523Y-141279761D01*
X129607142Y-141232142D01*
X129607142Y-141327380D01*
X129607142Y-140946428D02*
X129559523Y-140375000D01*
X129607142Y-140327380D01*
X129654761Y-140375000D01*
X129607142Y-140946428D01*
X129607142Y-140327380D01*
X97571428Y-138577380D02*
X97095238Y-138577380D01*
X97047619Y-139053571D01*
X97095238Y-139005952D01*
X97190476Y-138958333D01*
X97428571Y-138958333D01*
X97523809Y-139005952D01*
X97571428Y-139053571D01*
X97619047Y-139148809D01*
X97619047Y-139386904D01*
X97571428Y-139482142D01*
X97523809Y-139529761D01*
X97428571Y-139577380D01*
X97190476Y-139577380D01*
X97095238Y-139529761D01*
X97047619Y-139482142D01*
X98000000Y-139291666D02*
X98476190Y-139291666D01*
X97904761Y-139577380D02*
X98238095Y-138577380D01*
X98571428Y-139577380D01*
X99619047Y-138672619D02*
X99666666Y-138625000D01*
X99761904Y-138577380D01*
X100000000Y-138577380D01*
X100095238Y-138625000D01*
X100142857Y-138672619D01*
X100190476Y-138767857D01*
X100190476Y-138863095D01*
X100142857Y-139005952D01*
X99571428Y-139577380D01*
X100190476Y-139577380D01*
X101095238Y-138577380D02*
X100619047Y-138577380D01*
X100571428Y-139053571D01*
X100619047Y-139005952D01*
X100714285Y-138958333D01*
X100952380Y-138958333D01*
X101047619Y-139005952D01*
X101095238Y-139053571D01*
X101142857Y-139148809D01*
X101142857Y-139386904D01*
X101095238Y-139482142D01*
X101047619Y-139529761D01*
X100952380Y-139577380D01*
X100714285Y-139577380D01*
X100619047Y-139529761D01*
X100571428Y-139482142D01*
X101761904Y-138577380D02*
X101857142Y-138577380D01*
X101952380Y-138625000D01*
X102000000Y-138672619D01*
X102047619Y-138767857D01*
X102095238Y-138958333D01*
X102095238Y-139196428D01*
X102047619Y-139386904D01*
X102000000Y-139482142D01*
X101952380Y-139529761D01*
X101857142Y-139577380D01*
X101761904Y-139577380D01*
X101666666Y-139529761D01*
X101619047Y-139482142D01*
X101571428Y-139386904D01*
X101523809Y-139196428D01*
X101523809Y-138958333D01*
X101571428Y-138767857D01*
X101619047Y-138672619D01*
X101666666Y-138625000D01*
X101761904Y-138577380D01*
X102380952Y-138577380D02*
X102714285Y-139577380D01*
X103047619Y-138577380D01*
X98904761Y-141327380D02*
X98904761Y-140327380D01*
X99238095Y-141041666D01*
X99571428Y-140327380D01*
X99571428Y-141327380D01*
X100000000Y-141041666D02*
X100476190Y-141041666D01*
X99904761Y-141327380D02*
X100238095Y-140327380D01*
X100571428Y-141327380D01*
X100809523Y-140327380D02*
X101476190Y-141327380D01*
X101476190Y-140327380D02*
X100809523Y-141327380D01*
X101857142Y-141232142D02*
X101904761Y-141279761D01*
X101857142Y-141327380D01*
X101809523Y-141279761D01*
X101857142Y-141232142D01*
X101857142Y-141327380D01*
X101857142Y-140946428D02*
X101809523Y-140375000D01*
X101857142Y-140327380D01*
X101904761Y-140375000D01*
X101857142Y-140946428D01*
X101857142Y-140327380D01*
X69321428Y-138327380D02*
X68845238Y-138327380D01*
X68797619Y-138803571D01*
X68845238Y-138755952D01*
X68940476Y-138708333D01*
X69178571Y-138708333D01*
X69273809Y-138755952D01*
X69321428Y-138803571D01*
X69369047Y-138898809D01*
X69369047Y-139136904D01*
X69321428Y-139232142D01*
X69273809Y-139279761D01*
X69178571Y-139327380D01*
X68940476Y-139327380D01*
X68845238Y-139279761D01*
X68797619Y-139232142D01*
X69750000Y-139041666D02*
X70226190Y-139041666D01*
X69654761Y-139327380D02*
X69988095Y-138327380D01*
X70321428Y-139327380D01*
X71369047Y-138422619D02*
X71416666Y-138375000D01*
X71511904Y-138327380D01*
X71750000Y-138327380D01*
X71845238Y-138375000D01*
X71892857Y-138422619D01*
X71940476Y-138517857D01*
X71940476Y-138613095D01*
X71892857Y-138755952D01*
X71321428Y-139327380D01*
X71940476Y-139327380D01*
X72845238Y-138327380D02*
X72369047Y-138327380D01*
X72321428Y-138803571D01*
X72369047Y-138755952D01*
X72464285Y-138708333D01*
X72702380Y-138708333D01*
X72797619Y-138755952D01*
X72845238Y-138803571D01*
X72892857Y-138898809D01*
X72892857Y-139136904D01*
X72845238Y-139232142D01*
X72797619Y-139279761D01*
X72702380Y-139327380D01*
X72464285Y-139327380D01*
X72369047Y-139279761D01*
X72321428Y-139232142D01*
X73511904Y-138327380D02*
X73607142Y-138327380D01*
X73702380Y-138375000D01*
X73750000Y-138422619D01*
X73797619Y-138517857D01*
X73845238Y-138708333D01*
X73845238Y-138946428D01*
X73797619Y-139136904D01*
X73750000Y-139232142D01*
X73702380Y-139279761D01*
X73607142Y-139327380D01*
X73511904Y-139327380D01*
X73416666Y-139279761D01*
X73369047Y-139232142D01*
X73321428Y-139136904D01*
X73273809Y-138946428D01*
X73273809Y-138708333D01*
X73321428Y-138517857D01*
X73369047Y-138422619D01*
X73416666Y-138375000D01*
X73511904Y-138327380D01*
X74130952Y-138327380D02*
X74464285Y-139327380D01*
X74797619Y-138327380D01*
X70654761Y-141077380D02*
X70654761Y-140077380D01*
X70988095Y-140791666D01*
X71321428Y-140077380D01*
X71321428Y-141077380D01*
X71750000Y-140791666D02*
X72226190Y-140791666D01*
X71654761Y-141077380D02*
X71988095Y-140077380D01*
X72321428Y-141077380D01*
X72559523Y-140077380D02*
X73226190Y-141077380D01*
X73226190Y-140077380D02*
X72559523Y-141077380D01*
X73607142Y-140982142D02*
X73654761Y-141029761D01*
X73607142Y-141077380D01*
X73559523Y-141029761D01*
X73607142Y-140982142D01*
X73607142Y-141077380D01*
X73607142Y-140696428D02*
X73559523Y-140125000D01*
X73607142Y-140077380D01*
X73654761Y-140125000D01*
X73607142Y-140696428D01*
X73607142Y-140077380D01*
D11*
X153964285Y-77702380D02*
X153964285Y-76702380D01*
X154535714Y-77702380D01*
X154535714Y-76702380D01*
X154559523Y-89952380D02*
X154083333Y-89952380D01*
X154083333Y-88952380D01*
X154035714Y-65428571D02*
X154369047Y-65428571D01*
X154511904Y-65952380D02*
X154035714Y-65952380D01*
X154035714Y-64952380D01*
X154511904Y-64952380D01*
X118538095Y-69000000D02*
X118442857Y-68952380D01*
X118300000Y-68952380D01*
X118157142Y-69000000D01*
X118061904Y-69095238D01*
X118014285Y-69190476D01*
X117966666Y-69380952D01*
X117966666Y-69523809D01*
X118014285Y-69714285D01*
X118061904Y-69809523D01*
X118157142Y-69904761D01*
X118300000Y-69952380D01*
X118395238Y-69952380D01*
X118538095Y-69904761D01*
X118585714Y-69857142D01*
X118585714Y-69523809D01*
X118395238Y-69523809D01*
X119014285Y-69952380D02*
X119014285Y-68952380D01*
X119585714Y-69952380D01*
X119585714Y-68952380D01*
X120061904Y-69952380D02*
X120061904Y-68952380D01*
X120300000Y-68952380D01*
X120442857Y-69000000D01*
X120538095Y-69095238D01*
X120585714Y-69190476D01*
X120633333Y-69380952D01*
X120633333Y-69523809D01*
X120585714Y-69714285D01*
X120538095Y-69809523D01*
X120442857Y-69904761D01*
X120300000Y-69952380D01*
X120061904Y-69952380D01*
X117814285Y-85571428D02*
X118576190Y-85571428D01*
X118195238Y-85952380D02*
X118195238Y-85190476D01*
X119528571Y-84952380D02*
X119052380Y-84952380D01*
X119004761Y-85428571D01*
X119052380Y-85380952D01*
X119147619Y-85333333D01*
X119385714Y-85333333D01*
X119480952Y-85380952D01*
X119528571Y-85428571D01*
X119576190Y-85523809D01*
X119576190Y-85761904D01*
X119528571Y-85857142D01*
X119480952Y-85904761D01*
X119385714Y-85952380D01*
X119147619Y-85952380D01*
X119052380Y-85904761D01*
X119004761Y-85857142D01*
X119861904Y-84952380D02*
X120195238Y-85952380D01*
X120528571Y-84952380D01*
X85239847Y-75390592D02*
X85590033Y-75040406D01*
X85616971Y-75444467D01*
X85697783Y-75363654D01*
X85778595Y-75336717D01*
X85832470Y-75336717D01*
X85913282Y-75363654D01*
X86047969Y-75498341D01*
X86074906Y-75579154D01*
X86074906Y-75633028D01*
X86047969Y-75713841D01*
X85886345Y-75875465D01*
X85805532Y-75902402D01*
X85751658Y-75902402D01*
X85751658Y-74878781D02*
X86505905Y-75255905D01*
X86128781Y-74501658D01*
X86263468Y-74366971D02*
X86613654Y-74016784D01*
X86640592Y-74420845D01*
X86721404Y-74340033D01*
X86802216Y-74313096D01*
X86856091Y-74313096D01*
X86936903Y-74340033D01*
X87071590Y-74474720D01*
X87098528Y-74555532D01*
X87098528Y-74609407D01*
X87071590Y-74690219D01*
X86909966Y-74851844D01*
X86829154Y-74878781D01*
X86775279Y-74878781D01*
X83170845Y-76090964D02*
X82605160Y-75525279D01*
X82982284Y-75148155D02*
X83090033Y-75040406D01*
X83170845Y-75013468D01*
X83278595Y-75013468D01*
X83413282Y-75094280D01*
X83601844Y-75282842D01*
X83682656Y-75417529D01*
X83682656Y-75525279D01*
X83655719Y-75606091D01*
X83547969Y-75713841D01*
X83467157Y-75740778D01*
X83359407Y-75740778D01*
X83224720Y-75659966D01*
X83036158Y-75471404D01*
X82955346Y-75336717D01*
X82955346Y-75228967D01*
X82982284Y-75148155D01*
X83413282Y-74717157D02*
X83763468Y-74366971D01*
X83790406Y-74771032D01*
X83871218Y-74690219D01*
X83952030Y-74663282D01*
X84005905Y-74663282D01*
X84086717Y-74690219D01*
X84221404Y-74824906D01*
X84248341Y-74905719D01*
X84248341Y-74959593D01*
X84221404Y-75040406D01*
X84059780Y-75202030D01*
X83978967Y-75228967D01*
X83925093Y-75228967D01*
X84436903Y-74070659D02*
X84814027Y-74447783D01*
X84086717Y-73989847D02*
X84356091Y-74528595D01*
X84706277Y-74178409D01*
X80670845Y-76090964D02*
X80105160Y-75525279D01*
X80482284Y-75148155D02*
X80590033Y-75040406D01*
X80670845Y-75013468D01*
X80778595Y-75013468D01*
X80913282Y-75094280D01*
X81101844Y-75282842D01*
X81182656Y-75417529D01*
X81182656Y-75525279D01*
X81155719Y-75606091D01*
X81047969Y-75713841D01*
X80967157Y-75740778D01*
X80859407Y-75740778D01*
X80724720Y-75659966D01*
X80536158Y-75471404D01*
X80455346Y-75336717D01*
X80455346Y-75228967D01*
X80482284Y-75148155D01*
X80913282Y-74717157D02*
X81263468Y-74366971D01*
X81290406Y-74771032D01*
X81371218Y-74690219D01*
X81452030Y-74663282D01*
X81505905Y-74663282D01*
X81586717Y-74690219D01*
X81721404Y-74824906D01*
X81748341Y-74905719D01*
X81748341Y-74959593D01*
X81721404Y-75040406D01*
X81559780Y-75202030D01*
X81478967Y-75228967D01*
X81425093Y-75228967D01*
X81775279Y-73855160D02*
X81505905Y-74124534D01*
X81748341Y-74420845D01*
X81748341Y-74366971D01*
X81775279Y-74286158D01*
X81909966Y-74151471D01*
X81990778Y-74124534D01*
X82044653Y-74124534D01*
X82125465Y-74151471D01*
X82260152Y-74286158D01*
X82287089Y-74366971D01*
X82287089Y-74420845D01*
X82260152Y-74501658D01*
X82125465Y-74636345D01*
X82044653Y-74663282D01*
X81990778Y-74663282D01*
X77536158Y-75398155D02*
X77455346Y-75425093D01*
X77374534Y-75505905D01*
X77320659Y-75613654D01*
X77320659Y-75721404D01*
X77347597Y-75802216D01*
X77428409Y-75936903D01*
X77509221Y-76017715D01*
X77643908Y-76098528D01*
X77724720Y-76125465D01*
X77832470Y-76125465D01*
X77940219Y-76071590D01*
X77994094Y-76017715D01*
X78047969Y-75909966D01*
X78047969Y-75856091D01*
X77859407Y-75667529D01*
X77751658Y-75775279D01*
X78344280Y-75667529D02*
X77778595Y-75101844D01*
X78667529Y-75344280D01*
X78101844Y-74778595D01*
X78936903Y-75074906D02*
X78371218Y-74509221D01*
X78505905Y-74374534D01*
X78613654Y-74320659D01*
X78721404Y-74320659D01*
X78802216Y-74347597D01*
X78936903Y-74428409D01*
X79017715Y-74509221D01*
X79098528Y-74643908D01*
X79125465Y-74724720D01*
X79125465Y-74832470D01*
X79071590Y-74940219D01*
X78936903Y-75074906D01*
X90859407Y-83239847D02*
X91209593Y-83590033D01*
X90805532Y-83616971D01*
X90886345Y-83697783D01*
X90913282Y-83778595D01*
X90913282Y-83832470D01*
X90886345Y-83913282D01*
X90751658Y-84047969D01*
X90670845Y-84074906D01*
X90616971Y-84074906D01*
X90536158Y-84047969D01*
X90374534Y-83886345D01*
X90347597Y-83805532D01*
X90347597Y-83751658D01*
X91371218Y-83751658D02*
X90994094Y-84505905D01*
X91748341Y-84128781D01*
X91883028Y-84263468D02*
X92233215Y-84613654D01*
X91829154Y-84640592D01*
X91909966Y-84721404D01*
X91936903Y-84802216D01*
X91936903Y-84856091D01*
X91909966Y-84936903D01*
X91775279Y-85071590D01*
X91694467Y-85098528D01*
X91640592Y-85098528D01*
X91559780Y-85071590D01*
X91398155Y-84909966D01*
X91371218Y-84829154D01*
X91371218Y-84775279D01*
X78351844Y-83536158D02*
X78324906Y-83455346D01*
X78244094Y-83374534D01*
X78136345Y-83320659D01*
X78028595Y-83320659D01*
X77947783Y-83347597D01*
X77813096Y-83428409D01*
X77732284Y-83509221D01*
X77651471Y-83643908D01*
X77624534Y-83724720D01*
X77624534Y-83832470D01*
X77678409Y-83940219D01*
X77732284Y-83994094D01*
X77840033Y-84047969D01*
X77893908Y-84047969D01*
X78082470Y-83859407D01*
X77974720Y-83751658D01*
X78082470Y-84344280D02*
X78648155Y-83778595D01*
X78405719Y-84667529D01*
X78971404Y-84101844D01*
X78675093Y-84936903D02*
X79240778Y-84371218D01*
X79375465Y-84505905D01*
X79429340Y-84613654D01*
X79429340Y-84721404D01*
X79402402Y-84802216D01*
X79321590Y-84936903D01*
X79240778Y-85017715D01*
X79106091Y-85098528D01*
X79025279Y-85125465D01*
X78917529Y-85125465D01*
X78809780Y-85071590D01*
X78675093Y-84936903D01*
X87659035Y-83670845D02*
X88224720Y-83105160D01*
X88601844Y-83482284D02*
X88709593Y-83590033D01*
X88736531Y-83670845D01*
X88736531Y-83778595D01*
X88655719Y-83913282D01*
X88467157Y-84101844D01*
X88332470Y-84182656D01*
X88224720Y-84182656D01*
X88143908Y-84155719D01*
X88036158Y-84047969D01*
X88009221Y-83967157D01*
X88009221Y-83859407D01*
X88090033Y-83724720D01*
X88278595Y-83536158D01*
X88413282Y-83455346D01*
X88521032Y-83455346D01*
X88601844Y-83482284D01*
X89032842Y-83913282D02*
X89383028Y-84263468D01*
X88978967Y-84290406D01*
X89059780Y-84371218D01*
X89086717Y-84452030D01*
X89086717Y-84505905D01*
X89059780Y-84586717D01*
X88925093Y-84721404D01*
X88844280Y-84748341D01*
X88790406Y-84748341D01*
X88709593Y-84721404D01*
X88547969Y-84559780D01*
X88521032Y-84478967D01*
X88521032Y-84425093D01*
X89571590Y-84452030D02*
X89921776Y-84802216D01*
X89517715Y-84829154D01*
X89598528Y-84909966D01*
X89625465Y-84990778D01*
X89625465Y-85044653D01*
X89598528Y-85125465D01*
X89463841Y-85260152D01*
X89383028Y-85287089D01*
X89329154Y-85287089D01*
X89248341Y-85260152D01*
X89086717Y-85098528D01*
X89059780Y-85017715D01*
X89059780Y-84963841D01*
X79909035Y-83670845D02*
X80474720Y-83105160D01*
X80851844Y-83482284D02*
X80959593Y-83590033D01*
X80986531Y-83670845D01*
X80986531Y-83778595D01*
X80905719Y-83913282D01*
X80717157Y-84101844D01*
X80582470Y-84182656D01*
X80474720Y-84182656D01*
X80393908Y-84155719D01*
X80286158Y-84047969D01*
X80259221Y-83967157D01*
X80259221Y-83859407D01*
X80340033Y-83724720D01*
X80528595Y-83536158D01*
X80663282Y-83455346D01*
X80771032Y-83455346D01*
X80851844Y-83482284D01*
X81282842Y-83913282D02*
X81633028Y-84263468D01*
X81228967Y-84290406D01*
X81309780Y-84371218D01*
X81336717Y-84452030D01*
X81336717Y-84505905D01*
X81309780Y-84586717D01*
X81175093Y-84721404D01*
X81094280Y-84748341D01*
X81040406Y-84748341D01*
X80959593Y-84721404D01*
X80797969Y-84559780D01*
X80771032Y-84478967D01*
X80771032Y-84425093D01*
X82144839Y-84775279D02*
X81875465Y-84505905D01*
X81579154Y-84748341D01*
X81633028Y-84748341D01*
X81713841Y-84775279D01*
X81848528Y-84909966D01*
X81875465Y-84990778D01*
X81875465Y-85044653D01*
X81848528Y-85125465D01*
X81713841Y-85260152D01*
X81633028Y-85287089D01*
X81579154Y-85287089D01*
X81498341Y-85260152D01*
X81363654Y-85125465D01*
X81336717Y-85044653D01*
X81336717Y-84990778D01*
X84909035Y-83670845D02*
X85474720Y-83105160D01*
X85851844Y-83482284D02*
X85959593Y-83590033D01*
X85986531Y-83670845D01*
X85986531Y-83778595D01*
X85905719Y-83913282D01*
X85717157Y-84101844D01*
X85582470Y-84182656D01*
X85474720Y-84182656D01*
X85393908Y-84155719D01*
X85286158Y-84047969D01*
X85259221Y-83967157D01*
X85259221Y-83859407D01*
X85340033Y-83724720D01*
X85528595Y-83536158D01*
X85663282Y-83455346D01*
X85771032Y-83455346D01*
X85851844Y-83482284D01*
X86282842Y-83913282D02*
X86633028Y-84263468D01*
X86228967Y-84290406D01*
X86309780Y-84371218D01*
X86336717Y-84452030D01*
X86336717Y-84505905D01*
X86309780Y-84586717D01*
X86175093Y-84721404D01*
X86094280Y-84748341D01*
X86040406Y-84748341D01*
X85959593Y-84721404D01*
X85797969Y-84559780D01*
X85771032Y-84478967D01*
X85771032Y-84425093D01*
X86794653Y-84532842D02*
X86848528Y-84532842D01*
X86929340Y-84559780D01*
X87064027Y-84694467D01*
X87090964Y-84775279D01*
X87090964Y-84829154D01*
X87064027Y-84909966D01*
X87010152Y-84963841D01*
X86902402Y-85017715D01*
X86255905Y-85017715D01*
X86606091Y-85367902D01*
X82409035Y-83670845D02*
X82974720Y-83105160D01*
X83351844Y-83482284D02*
X83459593Y-83590033D01*
X83486531Y-83670845D01*
X83486531Y-83778595D01*
X83405719Y-83913282D01*
X83217157Y-84101844D01*
X83082470Y-84182656D01*
X82974720Y-84182656D01*
X82893908Y-84155719D01*
X82786158Y-84047969D01*
X82759221Y-83967157D01*
X82759221Y-83859407D01*
X82840033Y-83724720D01*
X83028595Y-83536158D01*
X83163282Y-83455346D01*
X83271032Y-83455346D01*
X83351844Y-83482284D01*
X83782842Y-83913282D02*
X84133028Y-84263468D01*
X83728967Y-84290406D01*
X83809780Y-84371218D01*
X83836717Y-84452030D01*
X83836717Y-84505905D01*
X83809780Y-84586717D01*
X83675093Y-84721404D01*
X83594280Y-84748341D01*
X83540406Y-84748341D01*
X83459593Y-84721404D01*
X83297969Y-84559780D01*
X83271032Y-84478967D01*
X83271032Y-84425093D01*
X84429340Y-84936903D02*
X84052216Y-85314027D01*
X84510152Y-84586717D02*
X83971404Y-84856091D01*
X84321590Y-85206277D01*
X74311904Y-99990476D02*
X74311904Y-99495238D01*
X74616666Y-99761904D01*
X74616666Y-99647619D01*
X74654761Y-99571428D01*
X74692857Y-99533333D01*
X74769047Y-99495238D01*
X74959523Y-99495238D01*
X75035714Y-99533333D01*
X75073809Y-99571428D01*
X75111904Y-99647619D01*
X75111904Y-99876190D01*
X75073809Y-99952380D01*
X75035714Y-99990476D01*
X74311904Y-99266666D02*
X75111904Y-99000000D01*
X74311904Y-98733333D01*
X74311904Y-98542857D02*
X74311904Y-98047619D01*
X74616666Y-98314285D01*
X74616666Y-98200000D01*
X74654761Y-98123809D01*
X74692857Y-98085714D01*
X74769047Y-98047619D01*
X74959523Y-98047619D01*
X75035714Y-98085714D01*
X75073809Y-98123809D01*
X75111904Y-98200000D01*
X75111904Y-98428571D01*
X75073809Y-98504761D01*
X75035714Y-98542857D01*
X61600000Y-99609523D02*
X61561904Y-99685714D01*
X61561904Y-99800000D01*
X61600000Y-99914285D01*
X61676190Y-99990476D01*
X61752380Y-100028571D01*
X61904761Y-100066666D01*
X62019047Y-100066666D01*
X62171428Y-100028571D01*
X62247619Y-99990476D01*
X62323809Y-99914285D01*
X62361904Y-99800000D01*
X62361904Y-99723809D01*
X62323809Y-99609523D01*
X62285714Y-99571428D01*
X62019047Y-99571428D01*
X62019047Y-99723809D01*
X62361904Y-99228571D02*
X61561904Y-99228571D01*
X62361904Y-98771428D01*
X61561904Y-98771428D01*
X62361904Y-98390476D02*
X61561904Y-98390476D01*
X61561904Y-98200000D01*
X61600000Y-98085714D01*
X61676190Y-98009523D01*
X61752380Y-97971428D01*
X61904761Y-97933333D01*
X62019047Y-97933333D01*
X62171428Y-97971428D01*
X62247619Y-98009523D01*
X62323809Y-98085714D01*
X62361904Y-98200000D01*
X62361904Y-98390476D01*
X72611904Y-100180952D02*
X71811904Y-100180952D01*
X71811904Y-99647619D02*
X71811904Y-99495238D01*
X71850000Y-99419047D01*
X71926190Y-99342857D01*
X72078571Y-99304761D01*
X72345238Y-99304761D01*
X72497619Y-99342857D01*
X72573809Y-99419047D01*
X72611904Y-99495238D01*
X72611904Y-99647619D01*
X72573809Y-99723809D01*
X72497619Y-99800000D01*
X72345238Y-99838095D01*
X72078571Y-99838095D01*
X71926190Y-99800000D01*
X71850000Y-99723809D01*
X71811904Y-99647619D01*
X71811904Y-99038095D02*
X71811904Y-98542857D01*
X72116666Y-98809523D01*
X72116666Y-98695238D01*
X72154761Y-98619047D01*
X72192857Y-98580952D01*
X72269047Y-98542857D01*
X72459523Y-98542857D01*
X72535714Y-98580952D01*
X72573809Y-98619047D01*
X72611904Y-98695238D01*
X72611904Y-98923809D01*
X72573809Y-99000000D01*
X72535714Y-99038095D01*
X71811904Y-98276190D02*
X71811904Y-97780952D01*
X72116666Y-98047619D01*
X72116666Y-97933333D01*
X72154761Y-97857142D01*
X72192857Y-97819047D01*
X72269047Y-97780952D01*
X72459523Y-97780952D01*
X72535714Y-97819047D01*
X72573809Y-97857142D01*
X72611904Y-97933333D01*
X72611904Y-98161904D01*
X72573809Y-98238095D01*
X72535714Y-98276190D01*
X69861904Y-100180952D02*
X69061904Y-100180952D01*
X69061904Y-99647619D02*
X69061904Y-99495238D01*
X69100000Y-99419047D01*
X69176190Y-99342857D01*
X69328571Y-99304761D01*
X69595238Y-99304761D01*
X69747619Y-99342857D01*
X69823809Y-99419047D01*
X69861904Y-99495238D01*
X69861904Y-99647619D01*
X69823809Y-99723809D01*
X69747619Y-99800000D01*
X69595238Y-99838095D01*
X69328571Y-99838095D01*
X69176190Y-99800000D01*
X69100000Y-99723809D01*
X69061904Y-99647619D01*
X69061904Y-99038095D02*
X69061904Y-98542857D01*
X69366666Y-98809523D01*
X69366666Y-98695238D01*
X69404761Y-98619047D01*
X69442857Y-98580952D01*
X69519047Y-98542857D01*
X69709523Y-98542857D01*
X69785714Y-98580952D01*
X69823809Y-98619047D01*
X69861904Y-98695238D01*
X69861904Y-98923809D01*
X69823809Y-99000000D01*
X69785714Y-99038095D01*
X69138095Y-98238095D02*
X69100000Y-98200000D01*
X69061904Y-98123809D01*
X69061904Y-97933333D01*
X69100000Y-97857142D01*
X69138095Y-97819047D01*
X69214285Y-97780952D01*
X69290476Y-97780952D01*
X69404761Y-97819047D01*
X69861904Y-98276190D01*
X69861904Y-97780952D01*
X67361904Y-100180952D02*
X66561904Y-100180952D01*
X66561904Y-99647619D02*
X66561904Y-99495238D01*
X66600000Y-99419047D01*
X66676190Y-99342857D01*
X66828571Y-99304761D01*
X67095238Y-99304761D01*
X67247619Y-99342857D01*
X67323809Y-99419047D01*
X67361904Y-99495238D01*
X67361904Y-99647619D01*
X67323809Y-99723809D01*
X67247619Y-99800000D01*
X67095238Y-99838095D01*
X66828571Y-99838095D01*
X66676190Y-99800000D01*
X66600000Y-99723809D01*
X66561904Y-99647619D01*
X66561904Y-99038095D02*
X66561904Y-98542857D01*
X66866666Y-98809523D01*
X66866666Y-98695238D01*
X66904761Y-98619047D01*
X66942857Y-98580952D01*
X67019047Y-98542857D01*
X67209523Y-98542857D01*
X67285714Y-98580952D01*
X67323809Y-98619047D01*
X67361904Y-98695238D01*
X67361904Y-98923809D01*
X67323809Y-99000000D01*
X67285714Y-99038095D01*
X66828571Y-97857142D02*
X67361904Y-97857142D01*
X66523809Y-98047619D02*
X67095238Y-98238095D01*
X67095238Y-97742857D01*
X64861904Y-100180952D02*
X64061904Y-100180952D01*
X64061904Y-99647619D02*
X64061904Y-99495238D01*
X64100000Y-99419047D01*
X64176190Y-99342857D01*
X64328571Y-99304761D01*
X64595238Y-99304761D01*
X64747619Y-99342857D01*
X64823809Y-99419047D01*
X64861904Y-99495238D01*
X64861904Y-99647619D01*
X64823809Y-99723809D01*
X64747619Y-99800000D01*
X64595238Y-99838095D01*
X64328571Y-99838095D01*
X64176190Y-99800000D01*
X64100000Y-99723809D01*
X64061904Y-99647619D01*
X64061904Y-99038095D02*
X64061904Y-98542857D01*
X64366666Y-98809523D01*
X64366666Y-98695238D01*
X64404761Y-98619047D01*
X64442857Y-98580952D01*
X64519047Y-98542857D01*
X64709523Y-98542857D01*
X64785714Y-98580952D01*
X64823809Y-98619047D01*
X64861904Y-98695238D01*
X64861904Y-98923809D01*
X64823809Y-99000000D01*
X64785714Y-99038095D01*
X64061904Y-97819047D02*
X64061904Y-98200000D01*
X64442857Y-98238095D01*
X64404761Y-98200000D01*
X64366666Y-98123809D01*
X64366666Y-97933333D01*
X64404761Y-97857142D01*
X64442857Y-97819047D01*
X64519047Y-97780952D01*
X64709523Y-97780952D01*
X64785714Y-97819047D01*
X64823809Y-97857142D01*
X64861904Y-97933333D01*
X64861904Y-98123809D01*
X64823809Y-98200000D01*
X64785714Y-98238095D01*
D12*
X62214285Y-132452380D02*
X62214285Y-131452380D01*
X62785714Y-132452380D01*
X62785714Y-131452380D01*
X63833333Y-132357142D02*
X63785714Y-132404761D01*
X63642857Y-132452380D01*
X63547619Y-132452380D01*
X63404761Y-132404761D01*
X63309523Y-132309523D01*
X63261904Y-132214285D01*
X63214285Y-132023809D01*
X63214285Y-131880952D01*
X63261904Y-131690476D01*
X63309523Y-131595238D01*
X63404761Y-131500000D01*
X63547619Y-131452380D01*
X63642857Y-131452380D01*
X63785714Y-131500000D01*
X63833333Y-131547619D01*
X57214285Y-132357142D02*
X57166666Y-132404761D01*
X57023809Y-132452380D01*
X56928571Y-132452380D01*
X56785714Y-132404761D01*
X56690476Y-132309523D01*
X56642857Y-132214285D01*
X56595238Y-132023809D01*
X56595238Y-131880952D01*
X56642857Y-131690476D01*
X56690476Y-131595238D01*
X56785714Y-131500000D01*
X56928571Y-131452380D01*
X57023809Y-131452380D01*
X57166666Y-131500000D01*
X57214285Y-131547619D01*
X57833333Y-131452380D02*
X58023809Y-131452380D01*
X58119047Y-131500000D01*
X58214285Y-131595238D01*
X58261904Y-131785714D01*
X58261904Y-132119047D01*
X58214285Y-132309523D01*
X58119047Y-132404761D01*
X58023809Y-132452380D01*
X57833333Y-132452380D01*
X57738095Y-132404761D01*
X57642857Y-132309523D01*
X57595238Y-132119047D01*
X57595238Y-131785714D01*
X57642857Y-131595238D01*
X57738095Y-131500000D01*
X57833333Y-131452380D01*
X58690476Y-132452380D02*
X58690476Y-131452380D01*
X59023809Y-132166666D01*
X59357142Y-131452380D01*
X59357142Y-132452380D01*
X52190476Y-132452380D02*
X52190476Y-131452380D01*
X52761904Y-132452380D01*
X52761904Y-131452380D01*
X53428571Y-131452380D02*
X53619047Y-131452380D01*
X53714285Y-131500000D01*
X53809523Y-131595238D01*
X53857142Y-131785714D01*
X53857142Y-132119047D01*
X53809523Y-132309523D01*
X53714285Y-132404761D01*
X53619047Y-132452380D01*
X53428571Y-132452380D01*
X53333333Y-132404761D01*
X53238095Y-132309523D01*
X53190476Y-132119047D01*
X53190476Y-131785714D01*
X53238095Y-131595238D01*
X53333333Y-131500000D01*
X53428571Y-131452380D01*
X84964285Y-132357142D02*
X84916666Y-132404761D01*
X84773809Y-132452380D01*
X84678571Y-132452380D01*
X84535714Y-132404761D01*
X84440476Y-132309523D01*
X84392857Y-132214285D01*
X84345238Y-132023809D01*
X84345238Y-131880952D01*
X84392857Y-131690476D01*
X84440476Y-131595238D01*
X84535714Y-131500000D01*
X84678571Y-131452380D01*
X84773809Y-131452380D01*
X84916666Y-131500000D01*
X84964285Y-131547619D01*
X85583333Y-131452380D02*
X85773809Y-131452380D01*
X85869047Y-131500000D01*
X85964285Y-131595238D01*
X86011904Y-131785714D01*
X86011904Y-132119047D01*
X85964285Y-132309523D01*
X85869047Y-132404761D01*
X85773809Y-132452380D01*
X85583333Y-132452380D01*
X85488095Y-132404761D01*
X85392857Y-132309523D01*
X85345238Y-132119047D01*
X85345238Y-131785714D01*
X85392857Y-131595238D01*
X85488095Y-131500000D01*
X85583333Y-131452380D01*
X86440476Y-132452380D02*
X86440476Y-131452380D01*
X86773809Y-132166666D01*
X87107142Y-131452380D01*
X87107142Y-132452380D01*
X89964285Y-132452380D02*
X89964285Y-131452380D01*
X90535714Y-132452380D01*
X90535714Y-131452380D01*
X91583333Y-132357142D02*
X91535714Y-132404761D01*
X91392857Y-132452380D01*
X91297619Y-132452380D01*
X91154761Y-132404761D01*
X91059523Y-132309523D01*
X91011904Y-132214285D01*
X90964285Y-132023809D01*
X90964285Y-131880952D01*
X91011904Y-131690476D01*
X91059523Y-131595238D01*
X91154761Y-131500000D01*
X91297619Y-131452380D01*
X91392857Y-131452380D01*
X91535714Y-131500000D01*
X91583333Y-131547619D01*
X79940476Y-132452380D02*
X79940476Y-131452380D01*
X80511904Y-132452380D01*
X80511904Y-131452380D01*
X81178571Y-131452380D02*
X81369047Y-131452380D01*
X81464285Y-131500000D01*
X81559523Y-131595238D01*
X81607142Y-131785714D01*
X81607142Y-132119047D01*
X81559523Y-132309523D01*
X81464285Y-132404761D01*
X81369047Y-132452380D01*
X81178571Y-132452380D01*
X81083333Y-132404761D01*
X80988095Y-132309523D01*
X80940476Y-132119047D01*
X80940476Y-131785714D01*
X80988095Y-131595238D01*
X81083333Y-131500000D01*
X81178571Y-131452380D01*
X113214285Y-132357142D02*
X113166666Y-132404761D01*
X113023809Y-132452380D01*
X112928571Y-132452380D01*
X112785714Y-132404761D01*
X112690476Y-132309523D01*
X112642857Y-132214285D01*
X112595238Y-132023809D01*
X112595238Y-131880952D01*
X112642857Y-131690476D01*
X112690476Y-131595238D01*
X112785714Y-131500000D01*
X112928571Y-131452380D01*
X113023809Y-131452380D01*
X113166666Y-131500000D01*
X113214285Y-131547619D01*
X113833333Y-131452380D02*
X114023809Y-131452380D01*
X114119047Y-131500000D01*
X114214285Y-131595238D01*
X114261904Y-131785714D01*
X114261904Y-132119047D01*
X114214285Y-132309523D01*
X114119047Y-132404761D01*
X114023809Y-132452380D01*
X113833333Y-132452380D01*
X113738095Y-132404761D01*
X113642857Y-132309523D01*
X113595238Y-132119047D01*
X113595238Y-131785714D01*
X113642857Y-131595238D01*
X113738095Y-131500000D01*
X113833333Y-131452380D01*
X114690476Y-132452380D02*
X114690476Y-131452380D01*
X115023809Y-132166666D01*
X115357142Y-131452380D01*
X115357142Y-132452380D01*
X118214285Y-132452380D02*
X118214285Y-131452380D01*
X118785714Y-132452380D01*
X118785714Y-131452380D01*
X119833333Y-132357142D02*
X119785714Y-132404761D01*
X119642857Y-132452380D01*
X119547619Y-132452380D01*
X119404761Y-132404761D01*
X119309523Y-132309523D01*
X119261904Y-132214285D01*
X119214285Y-132023809D01*
X119214285Y-131880952D01*
X119261904Y-131690476D01*
X119309523Y-131595238D01*
X119404761Y-131500000D01*
X119547619Y-131452380D01*
X119642857Y-131452380D01*
X119785714Y-131500000D01*
X119833333Y-131547619D01*
X108190476Y-132452380D02*
X108190476Y-131452380D01*
X108761904Y-132452380D01*
X108761904Y-131452380D01*
X109428571Y-131452380D02*
X109619047Y-131452380D01*
X109714285Y-131500000D01*
X109809523Y-131595238D01*
X109857142Y-131785714D01*
X109857142Y-132119047D01*
X109809523Y-132309523D01*
X109714285Y-132404761D01*
X109619047Y-132452380D01*
X109428571Y-132452380D01*
X109333333Y-132404761D01*
X109238095Y-132309523D01*
X109190476Y-132119047D01*
X109190476Y-131785714D01*
X109238095Y-131595238D01*
X109333333Y-131500000D01*
X109428571Y-131452380D01*
X141214285Y-132357142D02*
X141166666Y-132404761D01*
X141023809Y-132452380D01*
X140928571Y-132452380D01*
X140785714Y-132404761D01*
X140690476Y-132309523D01*
X140642857Y-132214285D01*
X140595238Y-132023809D01*
X140595238Y-131880952D01*
X140642857Y-131690476D01*
X140690476Y-131595238D01*
X140785714Y-131500000D01*
X140928571Y-131452380D01*
X141023809Y-131452380D01*
X141166666Y-131500000D01*
X141214285Y-131547619D01*
X141833333Y-131452380D02*
X142023809Y-131452380D01*
X142119047Y-131500000D01*
X142214285Y-131595238D01*
X142261904Y-131785714D01*
X142261904Y-132119047D01*
X142214285Y-132309523D01*
X142119047Y-132404761D01*
X142023809Y-132452380D01*
X141833333Y-132452380D01*
X141738095Y-132404761D01*
X141642857Y-132309523D01*
X141595238Y-132119047D01*
X141595238Y-131785714D01*
X141642857Y-131595238D01*
X141738095Y-131500000D01*
X141833333Y-131452380D01*
X142690476Y-132452380D02*
X142690476Y-131452380D01*
X143023809Y-132166666D01*
X143357142Y-131452380D01*
X143357142Y-132452380D01*
X136190476Y-132452380D02*
X136190476Y-131452380D01*
X136761904Y-132452380D01*
X136761904Y-131452380D01*
X137428571Y-131452380D02*
X137619047Y-131452380D01*
X137714285Y-131500000D01*
X137809523Y-131595238D01*
X137857142Y-131785714D01*
X137857142Y-132119047D01*
X137809523Y-132309523D01*
X137714285Y-132404761D01*
X137619047Y-132452380D01*
X137428571Y-132452380D01*
X137333333Y-132404761D01*
X137238095Y-132309523D01*
X137190476Y-132119047D01*
X137190476Y-131785714D01*
X137238095Y-131595238D01*
X137333333Y-131500000D01*
X137428571Y-131452380D01*
X146214285Y-132452380D02*
X146214285Y-131452380D01*
X146785714Y-132452380D01*
X146785714Y-131452380D01*
X147833333Y-132357142D02*
X147785714Y-132404761D01*
X147642857Y-132452380D01*
X147547619Y-132452380D01*
X147404761Y-132404761D01*
X147309523Y-132309523D01*
X147261904Y-132214285D01*
X147214285Y-132023809D01*
X147214285Y-131880952D01*
X147261904Y-131690476D01*
X147309523Y-131595238D01*
X147404761Y-131500000D01*
X147547619Y-131452380D01*
X147642857Y-131452380D01*
X147785714Y-131500000D01*
X147833333Y-131547619D01*
D10*
X152059523Y-105452380D02*
X151583333Y-105452380D01*
X151583333Y-104452380D01*
X151464285Y-100202380D02*
X151464285Y-99202380D01*
X152035714Y-100202380D01*
X152035714Y-99202380D01*
D12*
X97547619Y-87661904D02*
X97166666Y-87661904D01*
X97128571Y-88042857D01*
X97166666Y-88004761D01*
X97242857Y-87966666D01*
X97433333Y-87966666D01*
X97509523Y-88004761D01*
X97547619Y-88042857D01*
X97585714Y-88119047D01*
X97585714Y-88309523D01*
X97547619Y-88385714D01*
X97509523Y-88423809D01*
X97433333Y-88461904D01*
X97242857Y-88461904D01*
X97166666Y-88423809D01*
X97128571Y-88385714D01*
X97814285Y-87661904D02*
X98080952Y-88461904D01*
X98347619Y-87661904D01*
X95609523Y-77400000D02*
X95533333Y-77361904D01*
X95419047Y-77361904D01*
X95304761Y-77400000D01*
X95228571Y-77476190D01*
X95190476Y-77552380D01*
X95152380Y-77704761D01*
X95152380Y-77819047D01*
X95190476Y-77971428D01*
X95228571Y-78047619D01*
X95304761Y-78123809D01*
X95419047Y-78161904D01*
X95495238Y-78161904D01*
X95609523Y-78123809D01*
X95647619Y-78085714D01*
X95647619Y-77819047D01*
X95495238Y-77819047D01*
X93809523Y-74861904D02*
X94304761Y-74861904D01*
X94038095Y-75166666D01*
X94152380Y-75166666D01*
X94228571Y-75204761D01*
X94266666Y-75242857D01*
X94304761Y-75319047D01*
X94304761Y-75509523D01*
X94266666Y-75585714D01*
X94228571Y-75623809D01*
X94152380Y-75661904D01*
X93923809Y-75661904D01*
X93847619Y-75623809D01*
X93809523Y-75585714D01*
X94533333Y-74861904D02*
X94800000Y-75661904D01*
X95066666Y-74861904D01*
X95257142Y-74861904D02*
X95752380Y-74861904D01*
X95485714Y-75166666D01*
X95600000Y-75166666D01*
X95676190Y-75204761D01*
X95714285Y-75242857D01*
X95752380Y-75319047D01*
X95752380Y-75509523D01*
X95714285Y-75585714D01*
X95676190Y-75623809D01*
X95600000Y-75661904D01*
X95371428Y-75661904D01*
X95295238Y-75623809D01*
X95257142Y-75585714D01*
D10*
X104952380Y-62685714D02*
X104952380Y-62114285D01*
X105952380Y-62400000D02*
X104952380Y-62400000D01*
X105952380Y-61780952D02*
X104952380Y-61780952D01*
X105428571Y-61780952D02*
X105428571Y-61209523D01*
X105952380Y-61209523D02*
X104952380Y-61209523D01*
X105047619Y-60780952D02*
X105000000Y-60733333D01*
X104952380Y-60638095D01*
X104952380Y-60400000D01*
X105000000Y-60304761D01*
X105047619Y-60257142D01*
X105142857Y-60209523D01*
X105238095Y-60209523D01*
X105380952Y-60257142D01*
X105952380Y-60828571D01*
X105952380Y-60209523D01*
X70752380Y-62585714D02*
X70752380Y-62014285D01*
X71752380Y-62300000D02*
X70752380Y-62300000D01*
X71752380Y-61680952D02*
X70752380Y-61680952D01*
X71228571Y-61680952D02*
X71228571Y-61109523D01*
X71752380Y-61109523D02*
X70752380Y-61109523D01*
X71752380Y-60109523D02*
X71752380Y-60680952D01*
X71752380Y-60395238D02*
X70752380Y-60395238D01*
X70895238Y-60490476D01*
X70990476Y-60585714D01*
X71038095Y-60680952D01*
D11*
X59692857Y-62590476D02*
X59692857Y-62323809D01*
X60111904Y-62209523D02*
X60111904Y-62590476D01*
X59311904Y-62590476D01*
X59311904Y-62209523D01*
X60111904Y-61866666D02*
X59311904Y-61866666D01*
X60111904Y-61409523D01*
X59311904Y-61409523D01*
X59111904Y-62550000D02*
X58311904Y-62550000D01*
X58311904Y-62016666D02*
X58311904Y-61864285D01*
X58350000Y-61788095D01*
X58426190Y-61711904D01*
X58578571Y-61673809D01*
X58845238Y-61673809D01*
X58997619Y-61711904D01*
X59073809Y-61788095D01*
X59111904Y-61864285D01*
X59111904Y-62016666D01*
X59073809Y-62092857D01*
X58997619Y-62169047D01*
X58845238Y-62207142D01*
X58578571Y-62207142D01*
X58426190Y-62169047D01*
X58350000Y-62092857D01*
X58311904Y-62016666D01*
X58311904Y-61178571D02*
X58311904Y-61102380D01*
X58350000Y-61026190D01*
X58388095Y-60988095D01*
X58464285Y-60950000D01*
X58616666Y-60911904D01*
X58807142Y-60911904D01*
X58959523Y-60950000D01*
X59035714Y-60988095D01*
X59073809Y-61026190D01*
X59111904Y-61102380D01*
X59111904Y-61178571D01*
X59073809Y-61254761D01*
X59035714Y-61292857D01*
X58959523Y-61330952D01*
X58807142Y-61369047D01*
X58616666Y-61369047D01*
X58464285Y-61330952D01*
X58388095Y-61292857D01*
X58350000Y-61254761D01*
X58311904Y-61178571D01*
X58111904Y-62133333D02*
X57730952Y-62400000D01*
X58111904Y-62590476D02*
X57311904Y-62590476D01*
X57311904Y-62285714D01*
X57350000Y-62209523D01*
X57388095Y-62171428D01*
X57464285Y-62133333D01*
X57578571Y-62133333D01*
X57654761Y-62171428D01*
X57692857Y-62209523D01*
X57730952Y-62285714D01*
X57730952Y-62590476D01*
X57311904Y-61866666D02*
X58111904Y-61333333D01*
X57311904Y-61333333D02*
X58111904Y-61866666D01*
X56311904Y-62609523D02*
X56311904Y-62152380D01*
X57111904Y-62380952D02*
X56311904Y-62380952D01*
X56311904Y-61961904D02*
X57111904Y-61428571D01*
X56311904Y-61428571D02*
X57111904Y-61961904D01*
X55350000Y-62209523D02*
X55311904Y-62285714D01*
X55311904Y-62400000D01*
X55350000Y-62514285D01*
X55426190Y-62590476D01*
X55502380Y-62628571D01*
X55654761Y-62666666D01*
X55769047Y-62666666D01*
X55921428Y-62628571D01*
X55997619Y-62590476D01*
X56073809Y-62514285D01*
X56111904Y-62400000D01*
X56111904Y-62323809D01*
X56073809Y-62209523D01*
X56035714Y-62171428D01*
X55769047Y-62171428D01*
X55769047Y-62323809D01*
X56111904Y-61828571D02*
X55311904Y-61828571D01*
X56111904Y-61371428D01*
X55311904Y-61371428D01*
X56111904Y-60990476D02*
X55311904Y-60990476D01*
X55311904Y-60800000D01*
X55350000Y-60685714D01*
X55426190Y-60609523D01*
X55502380Y-60571428D01*
X55654761Y-60533333D01*
X55769047Y-60533333D01*
X55921428Y-60571428D01*
X55997619Y-60609523D01*
X56073809Y-60685714D01*
X56111904Y-60800000D01*
X56111904Y-60990476D01*
X54807142Y-63509523D02*
X54807142Y-62900000D01*
X55111904Y-63204761D02*
X54502380Y-63204761D01*
X54311904Y-62595238D02*
X54311904Y-62100000D01*
X54616666Y-62366666D01*
X54616666Y-62252380D01*
X54654761Y-62176190D01*
X54692857Y-62138095D01*
X54769047Y-62100000D01*
X54959523Y-62100000D01*
X55035714Y-62138095D01*
X55073809Y-62176190D01*
X55111904Y-62252380D01*
X55111904Y-62480952D01*
X55073809Y-62557142D01*
X55035714Y-62595238D01*
X54311904Y-61871428D02*
X55111904Y-61604761D01*
X54311904Y-61338095D01*
X54311904Y-61147619D02*
X54311904Y-60652380D01*
X54616666Y-60919047D01*
X54616666Y-60804761D01*
X54654761Y-60728571D01*
X54692857Y-60690476D01*
X54769047Y-60652380D01*
X54959523Y-60652380D01*
X55035714Y-60690476D01*
X55073809Y-60728571D01*
X55111904Y-60804761D01*
X55111904Y-61033333D01*
X55073809Y-61109523D01*
X55035714Y-61147619D01*
G04 #@! TO.C,RV1*
X129750000Y-96100000D02*
X129750000Y-101100000D01*
X141750000Y-96100000D02*
X141750000Y-101100000D01*
X129750000Y-96100000D02*
X141750000Y-96100000D01*
X129750000Y-101100000D02*
X141750000Y-101100000D01*
D13*
G04 #@! TO.C,TP4*
X97450000Y-75250000D02*
G75*
G03*
X97450000Y-75250000I-700000J0D01*
G01*
G04 #@! TO.C,TP3*
X97450000Y-77750000D02*
G75*
G03*
X97450000Y-77750000I-700000J0D01*
G01*
G04 #@! TO.C,TP2*
X100700000Y-88000000D02*
G75*
G03*
X100700000Y-88000000I-700000J0D01*
G01*
G04 #@! TO.C,C1*
X53011252Y-92765000D02*
X52488748Y-92765000D01*
X53011252Y-94235000D02*
X52488748Y-94235000D01*
G04 #@! TO.C,U3*
X68560000Y-65000000D02*
X68560000Y-61550000D01*
X68560000Y-65000000D02*
X68560000Y-66950000D01*
X63440000Y-65000000D02*
X63440000Y-63050000D01*
X63440000Y-65000000D02*
X63440000Y-66950000D01*
G04 #@! TO.C,C17*
X70735000Y-67261252D02*
X70735000Y-66738748D01*
X69265000Y-67261252D02*
X69265000Y-66738748D01*
D12*
G04 #@! TO.C,PS1*
X115250000Y-95750000D02*
X111750000Y-93000000D01*
X160750000Y-95750000D02*
X160750000Y-59250000D01*
X115250000Y-95750000D02*
X160750000Y-95750000D01*
X111750000Y-59250000D02*
X111750000Y-93000000D01*
X160750000Y-59250000D02*
X111750000Y-59250000D01*
D14*
G36*
X161250000Y-89500000D02*
G01*
X163000000Y-88750000D01*
X163000000Y-90250000D01*
X161250000Y-89500000D01*
G37*
X161250000Y-89500000D02*
X163000000Y-88750000D01*
X163000000Y-90250000D01*
X161250000Y-89500000D01*
D13*
G04 #@! TO.C,RN3*
X92680000Y-98000000D02*
X92680000Y-99000000D01*
X89320000Y-98000000D02*
X89320000Y-99000000D01*
G04 #@! TO.C,RN1*
X97820000Y-94250000D02*
X97820000Y-93250000D01*
X101180000Y-94250000D02*
X101180000Y-93250000D01*
G04 #@! TO.C,J1*
X149680000Y-105080000D02*
G75*
G03*
X149680000Y-105080000I-1680000J0D01*
G01*
X143300000Y-97400000D02*
X143300000Y-107680000D01*
X145500000Y-97400000D02*
X145500000Y-107680000D01*
X151300000Y-97400000D02*
X151300000Y-107680000D01*
X153360000Y-97400000D02*
X153360000Y-107680000D01*
X142640000Y-97400000D02*
X142640000Y-107680000D01*
X153360000Y-97400000D02*
X142640000Y-97400000D01*
X153360000Y-107680000D02*
X142640000Y-107680000D01*
X153050000Y-98750000D02*
X153050000Y-101250000D01*
X152550000Y-98750000D02*
X152550000Y-101250000D01*
X153050000Y-98750000D02*
X152550000Y-98750000D01*
X153050000Y-101250000D02*
X152550000Y-101250000D01*
X149069000Y-106355000D02*
X148976000Y-106261000D01*
X146784000Y-104070000D02*
X146726000Y-104011000D01*
X149275000Y-106150000D02*
X149216000Y-106091000D01*
X147024000Y-103900000D02*
X146931000Y-103806000D01*
X153050000Y-103830000D02*
X153050000Y-106330000D01*
X152550000Y-103830000D02*
X152550000Y-106330000D01*
X153050000Y-103830000D02*
X152550000Y-103830000D01*
X153050000Y-106330000D02*
X152550000Y-106330000D01*
X143240000Y-97160000D02*
X142400000Y-97160000D01*
X142400000Y-97160000D02*
X142400000Y-97760000D01*
X146319550Y-100029383D02*
G75*
G02*
X146516000Y-99211000I1680450J29383D01*
G01*
X147210912Y-98516047D02*
G75*
G02*
X148789000Y-98516000I789088J-1483953D01*
G01*
X149483953Y-99210912D02*
G75*
G02*
X149484000Y-100789000I-1483953J-789088D01*
G01*
X148789088Y-101483953D02*
G75*
G02*
X147211000Y-101484000I-789088J1483953D01*
G01*
X146516648Y-100788712D02*
G75*
G02*
X146320000Y-100000000I1483352J788712D01*
G01*
G04 #@! TO.C,K4*
X56800000Y-110500000D02*
X50300000Y-110500000D01*
X65700000Y-110500000D02*
X59200000Y-110500000D01*
X65700000Y-110500000D02*
X65700000Y-129700000D01*
X65700000Y-129700000D02*
X50300000Y-129700000D01*
X50300000Y-129700000D02*
X50300000Y-110500000D01*
X53700000Y-126200000D02*
X56000000Y-126200000D01*
X62300000Y-126200000D02*
X60000000Y-126200000D01*
X52000000Y-115700000D02*
X52000000Y-118000000D01*
X58000000Y-114600000D02*
X58000000Y-113700000D01*
X64000000Y-118000000D02*
X64000000Y-115700000D01*
X58000000Y-121500000D02*
X58000000Y-123000000D01*
X58000000Y-123000000D02*
X60700000Y-127500000D01*
X54300000Y-121500000D02*
X54300000Y-114600000D01*
X58000000Y-121500000D02*
X54300000Y-121500000D01*
X58000000Y-114600000D02*
X54300000Y-114600000D01*
X64000000Y-118000000D02*
X59500000Y-118000000D01*
X56500000Y-118000000D02*
X52000000Y-118000000D01*
X56500000Y-120500000D02*
X59500000Y-115500000D01*
X56500000Y-115500000D02*
X59500000Y-115500000D01*
X59500000Y-115500000D02*
X59500000Y-120500000D01*
X59500000Y-120500000D02*
X56500000Y-120500000D01*
X56500000Y-120500000D02*
X56500000Y-115500000D01*
G04 #@! TO.C,K3*
X84800000Y-110500000D02*
X78300000Y-110500000D01*
X93700000Y-110500000D02*
X87200000Y-110500000D01*
X93700000Y-110500000D02*
X93700000Y-129700000D01*
X93700000Y-129700000D02*
X78300000Y-129700000D01*
X78300000Y-129700000D02*
X78300000Y-110500000D01*
X81700000Y-126200000D02*
X84000000Y-126200000D01*
X90300000Y-126200000D02*
X88000000Y-126200000D01*
X80000000Y-115700000D02*
X80000000Y-118000000D01*
X86000000Y-114600000D02*
X86000000Y-113700000D01*
X92000000Y-118000000D02*
X92000000Y-115700000D01*
X86000000Y-121500000D02*
X86000000Y-123000000D01*
X86000000Y-123000000D02*
X88700000Y-127500000D01*
X82300000Y-121500000D02*
X82300000Y-114600000D01*
X86000000Y-121500000D02*
X82300000Y-121500000D01*
X86000000Y-114600000D02*
X82300000Y-114600000D01*
X92000000Y-118000000D02*
X87500000Y-118000000D01*
X84500000Y-118000000D02*
X80000000Y-118000000D01*
X84500000Y-120500000D02*
X87500000Y-115500000D01*
X84500000Y-115500000D02*
X87500000Y-115500000D01*
X87500000Y-115500000D02*
X87500000Y-120500000D01*
X87500000Y-120500000D02*
X84500000Y-120500000D01*
X84500000Y-120500000D02*
X84500000Y-115500000D01*
G04 #@! TO.C,K2*
X112800000Y-110500000D02*
X106300000Y-110500000D01*
X121700000Y-110500000D02*
X115200000Y-110500000D01*
X121700000Y-110500000D02*
X121700000Y-129700000D01*
X121700000Y-129700000D02*
X106300000Y-129700000D01*
X106300000Y-129700000D02*
X106300000Y-110500000D01*
X109700000Y-126200000D02*
X112000000Y-126200000D01*
X118300000Y-126200000D02*
X116000000Y-126200000D01*
X108000000Y-115700000D02*
X108000000Y-118000000D01*
X114000000Y-114600000D02*
X114000000Y-113700000D01*
X120000000Y-118000000D02*
X120000000Y-115700000D01*
X114000000Y-121500000D02*
X114000000Y-123000000D01*
X114000000Y-123000000D02*
X116700000Y-127500000D01*
X110300000Y-121500000D02*
X110300000Y-114600000D01*
X114000000Y-121500000D02*
X110300000Y-121500000D01*
X114000000Y-114600000D02*
X110300000Y-114600000D01*
X120000000Y-118000000D02*
X115500000Y-118000000D01*
X112500000Y-118000000D02*
X108000000Y-118000000D01*
X112500000Y-120500000D02*
X115500000Y-115500000D01*
X112500000Y-115500000D02*
X115500000Y-115500000D01*
X115500000Y-115500000D02*
X115500000Y-120500000D01*
X115500000Y-120500000D02*
X112500000Y-120500000D01*
X112500000Y-120500000D02*
X112500000Y-115500000D01*
G04 #@! TO.C,K1*
X140800000Y-110500000D02*
X134300000Y-110500000D01*
X149700000Y-110500000D02*
X143200000Y-110500000D01*
X149700000Y-110500000D02*
X149700000Y-129700000D01*
X149700000Y-129700000D02*
X134300000Y-129700000D01*
X134300000Y-129700000D02*
X134300000Y-110500000D01*
X137700000Y-126200000D02*
X140000000Y-126200000D01*
X146300000Y-126200000D02*
X144000000Y-126200000D01*
X136000000Y-115700000D02*
X136000000Y-118000000D01*
X142000000Y-114600000D02*
X142000000Y-113700000D01*
X148000000Y-118000000D02*
X148000000Y-115700000D01*
X142000000Y-121500000D02*
X142000000Y-123000000D01*
X142000000Y-123000000D02*
X144700000Y-127500000D01*
X138300000Y-121500000D02*
X138300000Y-114600000D01*
X142000000Y-121500000D02*
X138300000Y-121500000D01*
X142000000Y-114600000D02*
X138300000Y-114600000D01*
X148000000Y-118000000D02*
X143500000Y-118000000D01*
X140500000Y-118000000D02*
X136000000Y-118000000D01*
X140500000Y-120500000D02*
X143500000Y-115500000D01*
X140500000Y-115500000D02*
X143500000Y-115500000D01*
X143500000Y-115500000D02*
X143500000Y-120500000D01*
X143500000Y-120500000D02*
X140500000Y-120500000D01*
X140500000Y-120500000D02*
X140500000Y-115500000D01*
G04 #@! TO.C,U4*
X94440000Y-100500000D02*
X94440000Y-102450000D01*
X94440000Y-100500000D02*
X94440000Y-98550000D01*
X104560000Y-100500000D02*
X104560000Y-102450000D01*
X104560000Y-100500000D02*
X104560000Y-97050000D01*
G04 #@! TO.C,U2*
X110660000Y-73090000D02*
X109400000Y-73090000D01*
X103840000Y-73090000D02*
X105100000Y-73090000D01*
X110660000Y-76850000D02*
X110660000Y-73090000D01*
X103840000Y-79100000D02*
X103840000Y-73090000D01*
G04 #@! TO.C,U1*
X69600000Y-91620000D02*
X70380000Y-91620000D01*
X70380000Y-91620000D02*
X70380000Y-90620000D01*
X69600000Y-73380000D02*
X70380000Y-73380000D01*
X70380000Y-73380000D02*
X70380000Y-74380000D01*
X44635000Y-91620000D02*
X44635000Y-73380000D01*
X44635000Y-73380000D02*
X51055000Y-73380000D01*
X44635000Y-91620000D02*
X51055000Y-91620000D01*
X51055000Y-91620000D02*
X51055000Y-92000000D01*
G04 #@! TO.C,SW1*
X74770000Y-92480000D02*
X74770000Y-92450000D01*
X74770000Y-86020000D02*
X74770000Y-86050000D01*
X81230000Y-86020000D02*
X81230000Y-86050000D01*
X81230000Y-92450000D02*
X81230000Y-92480000D01*
X74770000Y-90550000D02*
X74770000Y-87950000D01*
X81230000Y-92480000D02*
X74770000Y-92480000D01*
X81230000Y-90550000D02*
X81230000Y-87950000D01*
X81230000Y-86020000D02*
X74770000Y-86020000D01*
G04 #@! TO.C,R7*
X96265000Y-81227064D02*
X96265000Y-80772936D01*
X97735000Y-81227064D02*
X97735000Y-80772936D01*
G04 #@! TO.C,R6*
X87235000Y-87272936D02*
X87235000Y-87727064D01*
X85765000Y-87272936D02*
X85765000Y-87727064D01*
G04 #@! TO.C,R5*
X78727064Y-71985000D02*
X78272936Y-71985000D01*
X78727064Y-70515000D02*
X78272936Y-70515000D01*
G04 #@! TO.C,R4*
X95064564Y-71985000D02*
X94610436Y-71985000D01*
X95064564Y-70515000D02*
X94610436Y-70515000D01*
G04 #@! TO.C,R3*
X89727064Y-74485000D02*
X89272936Y-74485000D01*
X89727064Y-73015000D02*
X89272936Y-73015000D01*
G04 #@! TO.C,R2*
X89727064Y-72485000D02*
X89272936Y-72485000D01*
X89727064Y-71015000D02*
X89272936Y-71015000D01*
G04 #@! TO.C,R1*
X56727064Y-94235000D02*
X56272936Y-94235000D01*
X56727064Y-92765000D02*
X56272936Y-92765000D01*
G04 #@! TO.C,J11*
X65180000Y-138500000D02*
G75*
G03*
X65180000Y-138500000I-2180000J0D01*
G01*
X60100000Y-138500000D02*
G75*
G03*
X60100000Y-138500000I-2180000J0D01*
G01*
X55020000Y-138500000D02*
G75*
G03*
X55020000Y-138500000I-2180000J0D01*
G01*
X65600000Y-133700000D02*
X50240000Y-133700000D01*
X65600000Y-136200000D02*
X50240000Y-136200000D01*
X65600000Y-142400000D02*
X50240000Y-142400000D01*
X65600000Y-144460000D02*
X50240000Y-144460000D01*
X65600000Y-133140000D02*
X50240000Y-133140000D01*
X65600000Y-144460000D02*
X65600000Y-133140000D01*
X50240000Y-144460000D02*
X50240000Y-133140000D01*
X61346000Y-139888000D02*
X61453000Y-139781000D01*
X64282000Y-136953000D02*
X64388000Y-136846000D01*
X61612000Y-140154000D02*
X61719000Y-140047000D01*
X64548000Y-137219000D02*
X64654000Y-137112000D01*
X56266000Y-139888000D02*
X56661000Y-139492000D01*
X58927000Y-137226000D02*
X59307000Y-136846000D01*
X56532000Y-140154000D02*
X56912000Y-139774000D01*
X59178000Y-137508000D02*
X59573000Y-137112000D01*
X51186000Y-139888000D02*
X51581000Y-139492000D01*
X53847000Y-137226000D02*
X54227000Y-136846000D01*
X51452000Y-140154000D02*
X51832000Y-139774000D01*
X54098000Y-137508000D02*
X54493000Y-137112000D01*
X65840000Y-133640000D02*
X65840000Y-132900000D01*
X65840000Y-132900000D02*
X65340000Y-132900000D01*
G04 #@! TO.C,J10*
X93180000Y-138500000D02*
G75*
G03*
X93180000Y-138500000I-2180000J0D01*
G01*
X88100000Y-138500000D02*
G75*
G03*
X88100000Y-138500000I-2180000J0D01*
G01*
X83020000Y-138500000D02*
G75*
G03*
X83020000Y-138500000I-2180000J0D01*
G01*
X93600000Y-133700000D02*
X78240000Y-133700000D01*
X93600000Y-136200000D02*
X78240000Y-136200000D01*
X93600000Y-142400000D02*
X78240000Y-142400000D01*
X93600000Y-144460000D02*
X78240000Y-144460000D01*
X93600000Y-133140000D02*
X78240000Y-133140000D01*
X93600000Y-144460000D02*
X93600000Y-133140000D01*
X78240000Y-144460000D02*
X78240000Y-133140000D01*
X89346000Y-139888000D02*
X89453000Y-139781000D01*
X92282000Y-136953000D02*
X92388000Y-136846000D01*
X89612000Y-140154000D02*
X89719000Y-140047000D01*
X92548000Y-137219000D02*
X92654000Y-137112000D01*
X84266000Y-139888000D02*
X84661000Y-139492000D01*
X86927000Y-137226000D02*
X87307000Y-136846000D01*
X84532000Y-140154000D02*
X84912000Y-139774000D01*
X87178000Y-137508000D02*
X87573000Y-137112000D01*
X79186000Y-139888000D02*
X79581000Y-139492000D01*
X81847000Y-137226000D02*
X82227000Y-136846000D01*
X79452000Y-140154000D02*
X79832000Y-139774000D01*
X82098000Y-137508000D02*
X82493000Y-137112000D01*
X93840000Y-133640000D02*
X93840000Y-132900000D01*
X93840000Y-132900000D02*
X93340000Y-132900000D01*
G04 #@! TO.C,J9*
X121260000Y-138500000D02*
G75*
G03*
X121260000Y-138500000I-2180000J0D01*
G01*
X116180000Y-138500000D02*
G75*
G03*
X116180000Y-138500000I-2180000J0D01*
G01*
X111100000Y-138500000D02*
G75*
G03*
X111100000Y-138500000I-2180000J0D01*
G01*
X121680000Y-133700000D02*
X106320000Y-133700000D01*
X121680000Y-136200000D02*
X106320000Y-136200000D01*
X121680000Y-142400000D02*
X106320000Y-142400000D01*
X121680000Y-144460000D02*
X106320000Y-144460000D01*
X121680000Y-133140000D02*
X106320000Y-133140000D01*
X121680000Y-144460000D02*
X121680000Y-133140000D01*
X106320000Y-144460000D02*
X106320000Y-133140000D01*
X117426000Y-139888000D02*
X117533000Y-139781000D01*
X120362000Y-136953000D02*
X120468000Y-136846000D01*
X117692000Y-140154000D02*
X117799000Y-140047000D01*
X120628000Y-137219000D02*
X120734000Y-137112000D01*
X112346000Y-139888000D02*
X112741000Y-139492000D01*
X115007000Y-137226000D02*
X115387000Y-136846000D01*
X112612000Y-140154000D02*
X112992000Y-139774000D01*
X115258000Y-137508000D02*
X115653000Y-137112000D01*
X107266000Y-139888000D02*
X107661000Y-139492000D01*
X109927000Y-137226000D02*
X110307000Y-136846000D01*
X107532000Y-140154000D02*
X107912000Y-139774000D01*
X110178000Y-137508000D02*
X110573000Y-137112000D01*
X121920000Y-133640000D02*
X121920000Y-132900000D01*
X121920000Y-132900000D02*
X121420000Y-132900000D01*
G04 #@! TO.C,J8*
X149180000Y-138500000D02*
G75*
G03*
X149180000Y-138500000I-2180000J0D01*
G01*
X144100000Y-138500000D02*
G75*
G03*
X144100000Y-138500000I-2180000J0D01*
G01*
X139020000Y-138500000D02*
G75*
G03*
X139020000Y-138500000I-2180000J0D01*
G01*
X149600000Y-133700000D02*
X134240000Y-133700000D01*
X149600000Y-136200000D02*
X134240000Y-136200000D01*
X149600000Y-142400000D02*
X134240000Y-142400000D01*
X149600000Y-144460000D02*
X134240000Y-144460000D01*
X149600000Y-133140000D02*
X134240000Y-133140000D01*
X149600000Y-144460000D02*
X149600000Y-133140000D01*
X134240000Y-144460000D02*
X134240000Y-133140000D01*
X145346000Y-139888000D02*
X145453000Y-139781000D01*
X148282000Y-136953000D02*
X148388000Y-136846000D01*
X145612000Y-140154000D02*
X145719000Y-140047000D01*
X148548000Y-137219000D02*
X148654000Y-137112000D01*
X140266000Y-139888000D02*
X140661000Y-139492000D01*
X142927000Y-137226000D02*
X143307000Y-136846000D01*
X140532000Y-140154000D02*
X140912000Y-139774000D01*
X143178000Y-137508000D02*
X143573000Y-137112000D01*
X135186000Y-139888000D02*
X135581000Y-139492000D01*
X137847000Y-137226000D02*
X138227000Y-136846000D01*
X135452000Y-140154000D02*
X135832000Y-139774000D01*
X138098000Y-137508000D02*
X138493000Y-137112000D01*
X149840000Y-133640000D02*
X149840000Y-132900000D01*
X149840000Y-132900000D02*
X149340000Y-132900000D01*
G04 #@! TO.C,J7*
X76648000Y-80204000D02*
X76648000Y-82864000D01*
X89408000Y-80204000D02*
X76648000Y-80204000D01*
X89408000Y-82864000D02*
X76648000Y-82864000D01*
X89408000Y-80204000D02*
X89408000Y-82864000D01*
X90678000Y-80204000D02*
X92008000Y-80204000D01*
X92008000Y-80204000D02*
X92008000Y-81534000D01*
G04 #@! TO.C,J6*
X60720000Y-94670000D02*
X60720000Y-97330000D01*
X73480000Y-94670000D02*
X60720000Y-94670000D01*
X73480000Y-97330000D02*
X60720000Y-97330000D01*
X73480000Y-94670000D02*
X73480000Y-97330000D01*
X74750000Y-94670000D02*
X76080000Y-94670000D01*
X76080000Y-94670000D02*
X76080000Y-96000000D01*
G04 #@! TO.C,J5*
X61360000Y-66290000D02*
X61360000Y-65140000D01*
X61360000Y-65140000D02*
X60310000Y-65140000D01*
X60310000Y-65140000D02*
X60310000Y-64150000D01*
X53140000Y-66290000D02*
X53140000Y-65140000D01*
X53140000Y-65140000D02*
X54190000Y-65140000D01*
X60190000Y-68260000D02*
X54310000Y-68260000D01*
G04 #@! TO.C,J4*
X76648000Y-76420000D02*
X76648000Y-79080000D01*
X84328000Y-76420000D02*
X76648000Y-76420000D01*
X84328000Y-79080000D02*
X76648000Y-79080000D01*
X84328000Y-76420000D02*
X84328000Y-79080000D01*
X85598000Y-76420000D02*
X86928000Y-76420000D01*
X86928000Y-76420000D02*
X86928000Y-77750000D01*
G04 #@! TO.C,J3*
X81510000Y-65000000D02*
G75*
G03*
X81510000Y-65000000I-1430000J0D01*
G01*
X86590000Y-65000000D02*
G75*
G03*
X86590000Y-65000000I-1430000J0D01*
G01*
X72400000Y-68550000D02*
X87760000Y-68550000D01*
X72400000Y-67450000D02*
X87760000Y-67450000D01*
X72400000Y-62450000D02*
X87760000Y-62450000D01*
X72400000Y-60540000D02*
X87760000Y-60540000D01*
X72400000Y-69110000D02*
X87760000Y-69110000D01*
X72400000Y-60540000D02*
X72400000Y-69110000D01*
X87760000Y-60540000D02*
X87760000Y-69110000D01*
X73750000Y-60600000D02*
X76250000Y-60600000D01*
X73750000Y-61600000D02*
X76250000Y-61600000D01*
X73750000Y-60600000D02*
X73750000Y-61600000D01*
X76250000Y-60600000D02*
X76250000Y-61600000D01*
X81165000Y-64090000D02*
X81105000Y-64149000D01*
X79210000Y-66045000D02*
X79170000Y-66085000D01*
X80991000Y-63915000D02*
X80951000Y-63955000D01*
X79056000Y-65850000D02*
X78996000Y-65910000D01*
X78830000Y-60600000D02*
X81330000Y-60600000D01*
X78830000Y-61600000D02*
X81330000Y-61600000D01*
X78830000Y-60600000D02*
X78830000Y-61600000D01*
X81330000Y-60600000D02*
X81330000Y-61600000D01*
X86245000Y-64090000D02*
X86185000Y-64149000D01*
X84290000Y-66045000D02*
X84250000Y-66085000D01*
X86071000Y-63915000D02*
X86031000Y-63955000D01*
X84136000Y-65850000D02*
X84076000Y-65910000D01*
X83910000Y-60600000D02*
X86410000Y-60600000D01*
X83910000Y-61600000D02*
X86410000Y-61600000D01*
X83910000Y-60600000D02*
X83910000Y-61600000D01*
X86410000Y-60600000D02*
X86410000Y-61600000D01*
X72160000Y-68610000D02*
X72160000Y-69350000D01*
X72160000Y-69350000D02*
X72660000Y-69350000D01*
X75024280Y-66430940D02*
G75*
G02*
X74372000Y-66286000I-24280J1430940D01*
G01*
X73713389Y-65626746D02*
G75*
G02*
X73714000Y-64372000I1286611J626746D01*
G01*
X74372638Y-63714176D02*
G75*
G02*
X75627000Y-63714000I627362J-1285824D01*
G01*
X76285824Y-64372638D02*
G75*
G02*
X76286000Y-65627000I-1285824J-627362D01*
G01*
X75626871Y-66285275D02*
G75*
G02*
X75000000Y-66430000I-626871J1285275D01*
G01*
G04 #@! TO.C,J2*
X98010000Y-65000000D02*
G75*
G03*
X98010000Y-65000000I-1430000J0D01*
G01*
X103090000Y-65000000D02*
G75*
G03*
X103090000Y-65000000I-1430000J0D01*
G01*
X88900000Y-68550000D02*
X104260000Y-68550000D01*
X88900000Y-67450000D02*
X104260000Y-67450000D01*
X88900000Y-62450000D02*
X104260000Y-62450000D01*
X88900000Y-60540000D02*
X104260000Y-60540000D01*
X88900000Y-69110000D02*
X104260000Y-69110000D01*
X88900000Y-60540000D02*
X88900000Y-69110000D01*
X104260000Y-60540000D02*
X104260000Y-69110000D01*
X90250000Y-60600000D02*
X92750000Y-60600000D01*
X90250000Y-61600000D02*
X92750000Y-61600000D01*
X90250000Y-60600000D02*
X90250000Y-61600000D01*
X92750000Y-60600000D02*
X92750000Y-61600000D01*
X97665000Y-64090000D02*
X97605000Y-64149000D01*
X95710000Y-66045000D02*
X95670000Y-66085000D01*
X97491000Y-63915000D02*
X97451000Y-63955000D01*
X95556000Y-65850000D02*
X95496000Y-65910000D01*
X95330000Y-60600000D02*
X97830000Y-60600000D01*
X95330000Y-61600000D02*
X97830000Y-61600000D01*
X95330000Y-60600000D02*
X95330000Y-61600000D01*
X97830000Y-60600000D02*
X97830000Y-61600000D01*
X102745000Y-64090000D02*
X102685000Y-64149000D01*
X100790000Y-66045000D02*
X100750000Y-66085000D01*
X102571000Y-63915000D02*
X102531000Y-63955000D01*
X100636000Y-65850000D02*
X100576000Y-65910000D01*
X100410000Y-60600000D02*
X102910000Y-60600000D01*
X100410000Y-61600000D02*
X102910000Y-61600000D01*
X100410000Y-60600000D02*
X100410000Y-61600000D01*
X102910000Y-60600000D02*
X102910000Y-61600000D01*
X88660000Y-68610000D02*
X88660000Y-69350000D01*
X88660000Y-69350000D02*
X89160000Y-69350000D01*
X91524280Y-66430940D02*
G75*
G02*
X90872000Y-66286000I-24280J1430940D01*
G01*
X90213389Y-65626746D02*
G75*
G02*
X90214000Y-64372000I1286611J626746D01*
G01*
X90872638Y-63714176D02*
G75*
G02*
X92127000Y-63714000I627362J-1285824D01*
G01*
X92785824Y-64372638D02*
G75*
G02*
X92786000Y-65627000I-1285824J-627362D01*
G01*
X92126871Y-66285275D02*
G75*
G02*
X91500000Y-66430000I-626871J1285275D01*
G01*
G04 #@! TO.C,F5*
X48800000Y-112400000D02*
X46000000Y-112400000D01*
X42000000Y-112400000D02*
X39200000Y-112400000D01*
X42000000Y-135000000D02*
X39200000Y-135000000D01*
X39200000Y-135000000D02*
X39200000Y-112400000D01*
X48800000Y-135000000D02*
X48800000Y-112400000D01*
X48800000Y-135000000D02*
X46000000Y-135000000D01*
G04 #@! TO.C,F4*
X76800000Y-112400000D02*
X74000000Y-112400000D01*
X70000000Y-112400000D02*
X67200000Y-112400000D01*
X70000000Y-135000000D02*
X67200000Y-135000000D01*
X67200000Y-135000000D02*
X67200000Y-112400000D01*
X76800000Y-135000000D02*
X76800000Y-112400000D01*
X76800000Y-135000000D02*
X74000000Y-135000000D01*
G04 #@! TO.C,F3*
X104800000Y-112400000D02*
X102000000Y-112400000D01*
X98000000Y-112400000D02*
X95200000Y-112400000D01*
X98000000Y-135000000D02*
X95200000Y-135000000D01*
X95200000Y-135000000D02*
X95200000Y-112400000D01*
X104800000Y-135000000D02*
X104800000Y-112400000D01*
X104800000Y-135000000D02*
X102000000Y-135000000D01*
G04 #@! TO.C,F2*
X132800000Y-112400000D02*
X130000000Y-112400000D01*
X126000000Y-112400000D02*
X123200000Y-112400000D01*
X126000000Y-135000000D02*
X123200000Y-135000000D01*
X123200000Y-135000000D02*
X123200000Y-112400000D01*
X132800000Y-135000000D02*
X132800000Y-112400000D01*
X132800000Y-135000000D02*
X130000000Y-135000000D01*
G04 #@! TO.C,F1*
X151200000Y-134600000D02*
X154000000Y-134600000D01*
X158000000Y-134600000D02*
X160800000Y-134600000D01*
X158000000Y-112000000D02*
X160800000Y-112000000D01*
X160800000Y-112000000D02*
X160800000Y-134600000D01*
X151200000Y-112000000D02*
X151200000Y-134600000D01*
X151200000Y-112000000D02*
X154000000Y-112000000D01*
G04 #@! TO.C,D6*
X53960000Y-109250000D02*
X53960000Y-106565000D01*
X53960000Y-106565000D02*
X52040000Y-106565000D01*
X52040000Y-106565000D02*
X52040000Y-109250000D01*
G04 #@! TO.C,D5*
X81960000Y-109250000D02*
X81960000Y-106565000D01*
X81960000Y-106565000D02*
X80040000Y-106565000D01*
X80040000Y-106565000D02*
X80040000Y-109250000D01*
G04 #@! TO.C,D4*
X109960000Y-109250000D02*
X109960000Y-106565000D01*
X109960000Y-106565000D02*
X108040000Y-106565000D01*
X108040000Y-106565000D02*
X108040000Y-109250000D01*
G04 #@! TO.C,D3*
X137960000Y-109250000D02*
X137960000Y-106565000D01*
X137960000Y-106565000D02*
X136040000Y-106565000D01*
X136040000Y-106565000D02*
X136040000Y-109250000D01*
G04 #@! TO.C,D2*
X97960000Y-85562500D02*
X97960000Y-82877500D01*
X97960000Y-82877500D02*
X96040000Y-82877500D01*
X96040000Y-82877500D02*
X96040000Y-85562500D01*
G04 #@! TO.C,D1*
X98850000Y-86050000D02*
X103150000Y-86050000D01*
X103150000Y-86050000D02*
X103150000Y-80350000D01*
X98850000Y-86050000D02*
X98850000Y-80350000D01*
G04 #@! TO.C,C16*
X51735000Y-107988748D02*
X51735000Y-108511252D01*
X50265000Y-107988748D02*
X50265000Y-108511252D01*
G04 #@! TO.C,C15*
X79785000Y-108038748D02*
X79785000Y-108561252D01*
X78315000Y-108038748D02*
X78315000Y-108561252D01*
G04 #@! TO.C,C14*
X107735000Y-107988748D02*
X107735000Y-108511252D01*
X106265000Y-107988748D02*
X106265000Y-108511252D01*
G04 #@! TO.C,C13*
X135735000Y-107988748D02*
X135735000Y-108511252D01*
X134265000Y-107988748D02*
X134265000Y-108511252D01*
G04 #@! TO.C,C12*
X92511252Y-103985000D02*
X91988748Y-103985000D01*
X92511252Y-102515000D02*
X91988748Y-102515000D01*
G04 #@! TO.C,C11*
X100985000Y-76238748D02*
X100985000Y-76761252D01*
X99515000Y-76238748D02*
X99515000Y-76761252D01*
G04 #@! TO.C,C10*
X83765000Y-87761252D02*
X83765000Y-87238748D01*
X85235000Y-87761252D02*
X85235000Y-87238748D01*
G04 #@! TO.C,C9*
X102985000Y-76238748D02*
X102985000Y-76761252D01*
X101515000Y-76238748D02*
X101515000Y-76761252D01*
G04 #@! TO.C,C8*
X107011252Y-81735000D02*
X106488748Y-81735000D01*
X107011252Y-80265000D02*
X106488748Y-80265000D01*
G04 #@! TO.C,C7*
X107011252Y-83735000D02*
X106488748Y-83735000D01*
X107011252Y-82265000D02*
X106488748Y-82265000D01*
G04 #@! TO.C,C6*
X81738748Y-70515000D02*
X82261252Y-70515000D01*
X81738748Y-71985000D02*
X82261252Y-71985000D01*
G04 #@! TO.C,C5*
X97988748Y-70515000D02*
X98511252Y-70515000D01*
X97988748Y-71985000D02*
X98511252Y-71985000D01*
G04 #@! TO.C,C4*
X102640000Y-95360000D02*
X105490000Y-95360000D01*
X111360000Y-95360000D02*
X108510000Y-95360000D01*
X111360000Y-87704437D02*
X111360000Y-95360000D01*
X102640000Y-87704437D02*
X102640000Y-95360000D01*
X103704437Y-86640000D02*
X105490000Y-86640000D01*
X110295563Y-86640000D02*
X108510000Y-86640000D01*
X110295563Y-86640000D02*
X111360000Y-87704437D01*
X103704437Y-86640000D02*
X102640000Y-87704437D01*
X109510000Y-85400000D02*
X109510000Y-86400000D01*
X110010000Y-85900000D02*
X109010000Y-85900000D01*
G04 #@! TO.C,C3*
X52961252Y-96660000D02*
X51538748Y-96660000D01*
X52961252Y-94840000D02*
X51538748Y-94840000D01*
G04 #@! TO.C,C2*
X56238748Y-94765000D02*
X56761252Y-94765000D01*
X56238748Y-96235000D02*
X56761252Y-96235000D01*
G04 #@! TO.C,RV1*
D12*
X128907142Y-99135714D02*
X128478571Y-99435714D01*
X128907142Y-99650000D02*
X128007142Y-99650000D01*
X128007142Y-99307142D01*
X128050000Y-99221428D01*
X128092857Y-99178571D01*
X128178571Y-99135714D01*
X128307142Y-99135714D01*
X128392857Y-99178571D01*
X128435714Y-99221428D01*
X128478571Y-99307142D01*
X128478571Y-99650000D01*
X128007142Y-98878571D02*
X128907142Y-98578571D01*
X128007142Y-98278571D01*
X128907142Y-97507142D02*
X128907142Y-98021428D01*
X128907142Y-97764285D02*
X128007142Y-97764285D01*
X128135714Y-97850000D01*
X128221428Y-97935714D01*
X128264285Y-98021428D01*
G04 #@! TO.C,C1*
X49350000Y-93571428D02*
X49307142Y-93614285D01*
X49178571Y-93657142D01*
X49092857Y-93657142D01*
X48964285Y-93614285D01*
X48878571Y-93528571D01*
X48835714Y-93442857D01*
X48792857Y-93271428D01*
X48792857Y-93142857D01*
X48835714Y-92971428D01*
X48878571Y-92885714D01*
X48964285Y-92800000D01*
X49092857Y-92757142D01*
X49178571Y-92757142D01*
X49307142Y-92800000D01*
X49350000Y-92842857D01*
X50207142Y-93657142D02*
X49692857Y-93657142D01*
X49950000Y-93657142D02*
X49950000Y-92757142D01*
X49864285Y-92885714D01*
X49778571Y-92971428D01*
X49692857Y-93014285D01*
G04 #@! TO.C,U3*
X69007142Y-64785714D02*
X69735714Y-64785714D01*
X69821428Y-64742857D01*
X69864285Y-64700000D01*
X69907142Y-64614285D01*
X69907142Y-64442857D01*
X69864285Y-64357142D01*
X69821428Y-64314285D01*
X69735714Y-64271428D01*
X69007142Y-64271428D01*
X69007142Y-63928571D02*
X69007142Y-63371428D01*
X69350000Y-63671428D01*
X69350000Y-63542857D01*
X69392857Y-63457142D01*
X69435714Y-63414285D01*
X69521428Y-63371428D01*
X69735714Y-63371428D01*
X69821428Y-63414285D01*
X69864285Y-63457142D01*
X69907142Y-63542857D01*
X69907142Y-63800000D01*
X69864285Y-63885714D01*
X69821428Y-63928571D01*
G04 #@! TO.C,C17*
X70521428Y-70678571D02*
X70564285Y-70721428D01*
X70607142Y-70850000D01*
X70607142Y-70935714D01*
X70564285Y-71064285D01*
X70478571Y-71150000D01*
X70392857Y-71192857D01*
X70221428Y-71235714D01*
X70092857Y-71235714D01*
X69921428Y-71192857D01*
X69835714Y-71150000D01*
X69750000Y-71064285D01*
X69707142Y-70935714D01*
X69707142Y-70850000D01*
X69750000Y-70721428D01*
X69792857Y-70678571D01*
X70607142Y-69821428D02*
X70607142Y-70335714D01*
X70607142Y-70078571D02*
X69707142Y-70078571D01*
X69835714Y-70164285D01*
X69921428Y-70250000D01*
X69964285Y-70335714D01*
X69707142Y-69521428D02*
X69707142Y-68921428D01*
X70607142Y-69307142D01*
G04 #@! TO.C,PS1*
X111207142Y-62192857D02*
X110307142Y-62192857D01*
X110307142Y-61850000D01*
X110350000Y-61764285D01*
X110392857Y-61721428D01*
X110478571Y-61678571D01*
X110607142Y-61678571D01*
X110692857Y-61721428D01*
X110735714Y-61764285D01*
X110778571Y-61850000D01*
X110778571Y-62192857D01*
X111164285Y-61335714D02*
X111207142Y-61207142D01*
X111207142Y-60992857D01*
X111164285Y-60907142D01*
X111121428Y-60864285D01*
X111035714Y-60821428D01*
X110950000Y-60821428D01*
X110864285Y-60864285D01*
X110821428Y-60907142D01*
X110778571Y-60992857D01*
X110735714Y-61164285D01*
X110692857Y-61250000D01*
X110650000Y-61292857D01*
X110564285Y-61335714D01*
X110478571Y-61335714D01*
X110392857Y-61292857D01*
X110350000Y-61250000D01*
X110307142Y-61164285D01*
X110307142Y-60950000D01*
X110350000Y-60821428D01*
X111207142Y-59964285D02*
X111207142Y-60478571D01*
X111207142Y-60221428D02*
X110307142Y-60221428D01*
X110435714Y-60307142D01*
X110521428Y-60392857D01*
X110564285Y-60478571D01*
G04 #@! TO.C,RN3*
X90478571Y-96707142D02*
X90178571Y-96278571D01*
X89964285Y-96707142D02*
X89964285Y-95807142D01*
X90307142Y-95807142D01*
X90392857Y-95850000D01*
X90435714Y-95892857D01*
X90478571Y-95978571D01*
X90478571Y-96107142D01*
X90435714Y-96192857D01*
X90392857Y-96235714D01*
X90307142Y-96278571D01*
X89964285Y-96278571D01*
X90864285Y-96707142D02*
X90864285Y-95807142D01*
X91378571Y-96707142D01*
X91378571Y-95807142D01*
X91721428Y-95807142D02*
X92278571Y-95807142D01*
X91978571Y-96150000D01*
X92107142Y-96150000D01*
X92192857Y-96192857D01*
X92235714Y-96235714D01*
X92278571Y-96321428D01*
X92278571Y-96535714D01*
X92235714Y-96621428D01*
X92192857Y-96664285D01*
X92107142Y-96707142D01*
X91850000Y-96707142D01*
X91764285Y-96664285D01*
X91721428Y-96621428D01*
G04 #@! TO.C,RN1*
X98978571Y-91907142D02*
X98678571Y-91478571D01*
X98464285Y-91907142D02*
X98464285Y-91007142D01*
X98807142Y-91007142D01*
X98892857Y-91050000D01*
X98935714Y-91092857D01*
X98978571Y-91178571D01*
X98978571Y-91307142D01*
X98935714Y-91392857D01*
X98892857Y-91435714D01*
X98807142Y-91478571D01*
X98464285Y-91478571D01*
X99364285Y-91907142D02*
X99364285Y-91007142D01*
X99878571Y-91907142D01*
X99878571Y-91007142D01*
X100778571Y-91907142D02*
X100264285Y-91907142D01*
X100521428Y-91907142D02*
X100521428Y-91007142D01*
X100435714Y-91135714D01*
X100350000Y-91221428D01*
X100264285Y-91264285D01*
G04 #@! TO.C,J1*
D10*
X140852380Y-106833333D02*
X141566666Y-106833333D01*
X141709523Y-106880952D01*
X141804761Y-106976190D01*
X141852380Y-107119047D01*
X141852380Y-107214285D01*
X141852380Y-105833333D02*
X141852380Y-106404761D01*
X141852380Y-106119047D02*
X140852380Y-106119047D01*
X140995238Y-106214285D01*
X141090476Y-106309523D01*
X141138095Y-106404761D01*
G04 #@! TO.C,K4*
D12*
X57235714Y-131107142D02*
X57235714Y-130207142D01*
X57750000Y-131107142D02*
X57364285Y-130592857D01*
X57750000Y-130207142D02*
X57235714Y-130721428D01*
X58521428Y-130507142D02*
X58521428Y-131107142D01*
X58307142Y-130164285D02*
X58092857Y-130807142D01*
X58650000Y-130807142D01*
G04 #@! TO.C,K3*
X85335714Y-131107142D02*
X85335714Y-130207142D01*
X85850000Y-131107142D02*
X85464285Y-130592857D01*
X85850000Y-130207142D02*
X85335714Y-130721428D01*
X86150000Y-130207142D02*
X86707142Y-130207142D01*
X86407142Y-130550000D01*
X86535714Y-130550000D01*
X86621428Y-130592857D01*
X86664285Y-130635714D01*
X86707142Y-130721428D01*
X86707142Y-130935714D01*
X86664285Y-131021428D01*
X86621428Y-131064285D01*
X86535714Y-131107142D01*
X86278571Y-131107142D01*
X86192857Y-131064285D01*
X86150000Y-131021428D01*
G04 #@! TO.C,K2*
X113235714Y-131107142D02*
X113235714Y-130207142D01*
X113750000Y-131107142D02*
X113364285Y-130592857D01*
X113750000Y-130207142D02*
X113235714Y-130721428D01*
X114092857Y-130292857D02*
X114135714Y-130250000D01*
X114221428Y-130207142D01*
X114435714Y-130207142D01*
X114521428Y-130250000D01*
X114564285Y-130292857D01*
X114607142Y-130378571D01*
X114607142Y-130464285D01*
X114564285Y-130592857D01*
X114050000Y-131107142D01*
X114607142Y-131107142D01*
G04 #@! TO.C,K1*
X141635714Y-131107142D02*
X141635714Y-130207142D01*
X142150000Y-131107142D02*
X141764285Y-130592857D01*
X142150000Y-130207142D02*
X141635714Y-130721428D01*
X143007142Y-131107142D02*
X142492857Y-131107142D01*
X142750000Y-131107142D02*
X142750000Y-130207142D01*
X142664285Y-130335714D01*
X142578571Y-130421428D01*
X142492857Y-130464285D01*
G04 #@! TO.C,U4*
X104907142Y-101185714D02*
X105635714Y-101185714D01*
X105721428Y-101142857D01*
X105764285Y-101100000D01*
X105807142Y-101014285D01*
X105807142Y-100842857D01*
X105764285Y-100757142D01*
X105721428Y-100714285D01*
X105635714Y-100671428D01*
X104907142Y-100671428D01*
X105207142Y-99857142D02*
X105807142Y-99857142D01*
X104864285Y-100071428D02*
X105507142Y-100285714D01*
X105507142Y-99728571D01*
G04 #@! TO.C,U2*
X106714285Y-69507142D02*
X106714285Y-70235714D01*
X106757142Y-70321428D01*
X106800000Y-70364285D01*
X106885714Y-70407142D01*
X107057142Y-70407142D01*
X107142857Y-70364285D01*
X107185714Y-70321428D01*
X107228571Y-70235714D01*
X107228571Y-69507142D01*
X107614285Y-69592857D02*
X107657142Y-69550000D01*
X107742857Y-69507142D01*
X107957142Y-69507142D01*
X108042857Y-69550000D01*
X108085714Y-69592857D01*
X108128571Y-69678571D01*
X108128571Y-69764285D01*
X108085714Y-69892857D01*
X107571428Y-70407142D01*
X108128571Y-70407142D01*
G04 #@! TO.C,U1*
X47814285Y-71257142D02*
X47814285Y-71985714D01*
X47857142Y-72071428D01*
X47900000Y-72114285D01*
X47985714Y-72157142D01*
X48157142Y-72157142D01*
X48242857Y-72114285D01*
X48285714Y-72071428D01*
X48328571Y-71985714D01*
X48328571Y-71257142D01*
X49228571Y-72157142D02*
X48714285Y-72157142D01*
X48971428Y-72157142D02*
X48971428Y-71257142D01*
X48885714Y-71385714D01*
X48800000Y-71471428D01*
X48714285Y-71514285D01*
G04 #@! TO.C,SW1*
X76800000Y-93664285D02*
X76928571Y-93707142D01*
X77142857Y-93707142D01*
X77228571Y-93664285D01*
X77271428Y-93621428D01*
X77314285Y-93535714D01*
X77314285Y-93450000D01*
X77271428Y-93364285D01*
X77228571Y-93321428D01*
X77142857Y-93278571D01*
X76971428Y-93235714D01*
X76885714Y-93192857D01*
X76842857Y-93150000D01*
X76800000Y-93064285D01*
X76800000Y-92978571D01*
X76842857Y-92892857D01*
X76885714Y-92850000D01*
X76971428Y-92807142D01*
X77185714Y-92807142D01*
X77314285Y-92850000D01*
X77614285Y-92807142D02*
X77828571Y-93707142D01*
X78000000Y-93064285D01*
X78171428Y-93707142D01*
X78385714Y-92807142D01*
X79200000Y-93707142D02*
X78685714Y-93707142D01*
X78942857Y-93707142D02*
X78942857Y-92807142D01*
X78857142Y-92935714D01*
X78771428Y-93021428D01*
X78685714Y-93064285D01*
G04 #@! TO.C,R7*
X95807142Y-80150000D02*
X95378571Y-80450000D01*
X95807142Y-80664285D02*
X94907142Y-80664285D01*
X94907142Y-80321428D01*
X94950000Y-80235714D01*
X94992857Y-80192857D01*
X95078571Y-80150000D01*
X95207142Y-80150000D01*
X95292857Y-80192857D01*
X95335714Y-80235714D01*
X95378571Y-80321428D01*
X95378571Y-80664285D01*
X94907142Y-79850000D02*
X94907142Y-79250000D01*
X95807142Y-79635714D01*
G04 #@! TO.C,R6*
X86907142Y-90350000D02*
X86478571Y-90650000D01*
X86907142Y-90864285D02*
X86007142Y-90864285D01*
X86007142Y-90521428D01*
X86050000Y-90435714D01*
X86092857Y-90392857D01*
X86178571Y-90350000D01*
X86307142Y-90350000D01*
X86392857Y-90392857D01*
X86435714Y-90435714D01*
X86478571Y-90521428D01*
X86478571Y-90864285D01*
X86007142Y-89578571D02*
X86007142Y-89750000D01*
X86050000Y-89835714D01*
X86092857Y-89878571D01*
X86221428Y-89964285D01*
X86392857Y-90007142D01*
X86735714Y-90007142D01*
X86821428Y-89964285D01*
X86864285Y-89921428D01*
X86907142Y-89835714D01*
X86907142Y-89664285D01*
X86864285Y-89578571D01*
X86821428Y-89535714D01*
X86735714Y-89492857D01*
X86521428Y-89492857D01*
X86435714Y-89535714D01*
X86392857Y-89578571D01*
X86350000Y-89664285D01*
X86350000Y-89835714D01*
X86392857Y-89921428D01*
X86435714Y-89964285D01*
X86521428Y-90007142D01*
G04 #@! TO.C,R5*
X79150000Y-73307142D02*
X78850000Y-72878571D01*
X78635714Y-73307142D02*
X78635714Y-72407142D01*
X78978571Y-72407142D01*
X79064285Y-72450000D01*
X79107142Y-72492857D01*
X79150000Y-72578571D01*
X79150000Y-72707142D01*
X79107142Y-72792857D01*
X79064285Y-72835714D01*
X78978571Y-72878571D01*
X78635714Y-72878571D01*
X79964285Y-72407142D02*
X79535714Y-72407142D01*
X79492857Y-72835714D01*
X79535714Y-72792857D01*
X79621428Y-72750000D01*
X79835714Y-72750000D01*
X79921428Y-72792857D01*
X79964285Y-72835714D01*
X80007142Y-72921428D01*
X80007142Y-73135714D01*
X79964285Y-73221428D01*
X79921428Y-73264285D01*
X79835714Y-73307142D01*
X79621428Y-73307142D01*
X79535714Y-73264285D01*
X79492857Y-73221428D01*
G04 #@! TO.C,R4*
X95750000Y-73307142D02*
X95450000Y-72878571D01*
X95235714Y-73307142D02*
X95235714Y-72407142D01*
X95578571Y-72407142D01*
X95664285Y-72450000D01*
X95707142Y-72492857D01*
X95750000Y-72578571D01*
X95750000Y-72707142D01*
X95707142Y-72792857D01*
X95664285Y-72835714D01*
X95578571Y-72878571D01*
X95235714Y-72878571D01*
X96521428Y-72707142D02*
X96521428Y-73307142D01*
X96307142Y-72364285D02*
X96092857Y-73007142D01*
X96650000Y-73007142D01*
G04 #@! TO.C,R3*
X91950000Y-74207142D02*
X91650000Y-73778571D01*
X91435714Y-74207142D02*
X91435714Y-73307142D01*
X91778571Y-73307142D01*
X91864285Y-73350000D01*
X91907142Y-73392857D01*
X91950000Y-73478571D01*
X91950000Y-73607142D01*
X91907142Y-73692857D01*
X91864285Y-73735714D01*
X91778571Y-73778571D01*
X91435714Y-73778571D01*
X92250000Y-73307142D02*
X92807142Y-73307142D01*
X92507142Y-73650000D01*
X92635714Y-73650000D01*
X92721428Y-73692857D01*
X92764285Y-73735714D01*
X92807142Y-73821428D01*
X92807142Y-74035714D01*
X92764285Y-74121428D01*
X92721428Y-74164285D01*
X92635714Y-74207142D01*
X92378571Y-74207142D01*
X92292857Y-74164285D01*
X92250000Y-74121428D01*
G04 #@! TO.C,R2*
X91950000Y-72207142D02*
X91650000Y-71778571D01*
X91435714Y-72207142D02*
X91435714Y-71307142D01*
X91778571Y-71307142D01*
X91864285Y-71350000D01*
X91907142Y-71392857D01*
X91950000Y-71478571D01*
X91950000Y-71607142D01*
X91907142Y-71692857D01*
X91864285Y-71735714D01*
X91778571Y-71778571D01*
X91435714Y-71778571D01*
X92292857Y-71392857D02*
X92335714Y-71350000D01*
X92421428Y-71307142D01*
X92635714Y-71307142D01*
X92721428Y-71350000D01*
X92764285Y-71392857D01*
X92807142Y-71478571D01*
X92807142Y-71564285D01*
X92764285Y-71692857D01*
X92250000Y-72207142D01*
X92807142Y-72207142D01*
G04 #@! TO.C,R1*
X59100000Y-96157142D02*
X58800000Y-95728571D01*
X58585714Y-96157142D02*
X58585714Y-95257142D01*
X58928571Y-95257142D01*
X59014285Y-95300000D01*
X59057142Y-95342857D01*
X59100000Y-95428571D01*
X59100000Y-95557142D01*
X59057142Y-95642857D01*
X59014285Y-95685714D01*
X58928571Y-95728571D01*
X58585714Y-95728571D01*
X59957142Y-96157142D02*
X59442857Y-96157142D01*
X59700000Y-96157142D02*
X59700000Y-95257142D01*
X59614285Y-95385714D01*
X59528571Y-95471428D01*
X59442857Y-95514285D01*
G04 #@! TO.C,J11*
D10*
X66790476Y-142702380D02*
X66790476Y-143416666D01*
X66742857Y-143559523D01*
X66647619Y-143654761D01*
X66504761Y-143702380D01*
X66409523Y-143702380D01*
X67790476Y-143702380D02*
X67219047Y-143702380D01*
X67504761Y-143702380D02*
X67504761Y-142702380D01*
X67409523Y-142845238D01*
X67314285Y-142940476D01*
X67219047Y-142988095D01*
X68742857Y-143702380D02*
X68171428Y-143702380D01*
X68457142Y-143702380D02*
X68457142Y-142702380D01*
X68361904Y-142845238D01*
X68266666Y-142940476D01*
X68171428Y-142988095D01*
G04 #@! TO.C,J10*
X94790476Y-142852380D02*
X94790476Y-143566666D01*
X94742857Y-143709523D01*
X94647619Y-143804761D01*
X94504761Y-143852380D01*
X94409523Y-143852380D01*
X95790476Y-143852380D02*
X95219047Y-143852380D01*
X95504761Y-143852380D02*
X95504761Y-142852380D01*
X95409523Y-142995238D01*
X95314285Y-143090476D01*
X95219047Y-143138095D01*
X96409523Y-142852380D02*
X96504761Y-142852380D01*
X96600000Y-142900000D01*
X96647619Y-142947619D01*
X96695238Y-143042857D01*
X96742857Y-143233333D01*
X96742857Y-143471428D01*
X96695238Y-143661904D01*
X96647619Y-143757142D01*
X96600000Y-143804761D01*
X96504761Y-143852380D01*
X96409523Y-143852380D01*
X96314285Y-143804761D01*
X96266666Y-143757142D01*
X96219047Y-143661904D01*
X96171428Y-143471428D01*
X96171428Y-143233333D01*
X96219047Y-143042857D01*
X96266666Y-142947619D01*
X96314285Y-142900000D01*
X96409523Y-142852380D01*
G04 #@! TO.C,J9*
X122866666Y-142952380D02*
X122866666Y-143666666D01*
X122819047Y-143809523D01*
X122723809Y-143904761D01*
X122580952Y-143952380D01*
X122485714Y-143952380D01*
X123390476Y-143952380D02*
X123580952Y-143952380D01*
X123676190Y-143904761D01*
X123723809Y-143857142D01*
X123819047Y-143714285D01*
X123866666Y-143523809D01*
X123866666Y-143142857D01*
X123819047Y-143047619D01*
X123771428Y-143000000D01*
X123676190Y-142952380D01*
X123485714Y-142952380D01*
X123390476Y-143000000D01*
X123342857Y-143047619D01*
X123295238Y-143142857D01*
X123295238Y-143380952D01*
X123342857Y-143476190D01*
X123390476Y-143523809D01*
X123485714Y-143571428D01*
X123676190Y-143571428D01*
X123771428Y-143523809D01*
X123819047Y-143476190D01*
X123866666Y-143380952D01*
G04 #@! TO.C,J8*
X150766666Y-142952380D02*
X150766666Y-143666666D01*
X150719047Y-143809523D01*
X150623809Y-143904761D01*
X150480952Y-143952380D01*
X150385714Y-143952380D01*
X151385714Y-143380952D02*
X151290476Y-143333333D01*
X151242857Y-143285714D01*
X151195238Y-143190476D01*
X151195238Y-143142857D01*
X151242857Y-143047619D01*
X151290476Y-143000000D01*
X151385714Y-142952380D01*
X151576190Y-142952380D01*
X151671428Y-143000000D01*
X151719047Y-143047619D01*
X151766666Y-143142857D01*
X151766666Y-143190476D01*
X151719047Y-143285714D01*
X151671428Y-143333333D01*
X151576190Y-143380952D01*
X151385714Y-143380952D01*
X151290476Y-143428571D01*
X151242857Y-143476190D01*
X151195238Y-143571428D01*
X151195238Y-143761904D01*
X151242857Y-143857142D01*
X151290476Y-143904761D01*
X151385714Y-143952380D01*
X151576190Y-143952380D01*
X151671428Y-143904761D01*
X151719047Y-143857142D01*
X151766666Y-143761904D01*
X151766666Y-143571428D01*
X151719047Y-143476190D01*
X151671428Y-143428571D01*
X151576190Y-143380952D01*
G04 #@! TO.C,J7*
D12*
X92515142Y-81834000D02*
X93158000Y-81834000D01*
X93286571Y-81876857D01*
X93372285Y-81962571D01*
X93415142Y-82091142D01*
X93415142Y-82176857D01*
X92515142Y-81491142D02*
X92515142Y-80891142D01*
X93415142Y-81276857D01*
G04 #@! TO.C,J6*
X76587142Y-96300000D02*
X77230000Y-96300000D01*
X77358571Y-96342857D01*
X77444285Y-96428571D01*
X77487142Y-96557142D01*
X77487142Y-96642857D01*
X76587142Y-95485714D02*
X76587142Y-95657142D01*
X76630000Y-95742857D01*
X76672857Y-95785714D01*
X76801428Y-95871428D01*
X76972857Y-95914285D01*
X77315714Y-95914285D01*
X77401428Y-95871428D01*
X77444285Y-95828571D01*
X77487142Y-95742857D01*
X77487142Y-95571428D01*
X77444285Y-95485714D01*
X77401428Y-95442857D01*
X77315714Y-95400000D01*
X77101428Y-95400000D01*
X77015714Y-95442857D01*
X76972857Y-95485714D01*
X76930000Y-95571428D01*
X76930000Y-95742857D01*
X76972857Y-95828571D01*
X77015714Y-95871428D01*
X77101428Y-95914285D01*
G04 #@! TO.C,J5*
X56950000Y-69057142D02*
X56950000Y-69700000D01*
X56907142Y-69828571D01*
X56821428Y-69914285D01*
X56692857Y-69957142D01*
X56607142Y-69957142D01*
X57807142Y-69057142D02*
X57378571Y-69057142D01*
X57335714Y-69485714D01*
X57378571Y-69442857D01*
X57464285Y-69400000D01*
X57678571Y-69400000D01*
X57764285Y-69442857D01*
X57807142Y-69485714D01*
X57850000Y-69571428D01*
X57850000Y-69785714D01*
X57807142Y-69871428D01*
X57764285Y-69914285D01*
X57678571Y-69957142D01*
X57464285Y-69957142D01*
X57378571Y-69914285D01*
X57335714Y-69871428D01*
G04 #@! TO.C,J4*
X87435142Y-78050000D02*
X88078000Y-78050000D01*
X88206571Y-78092857D01*
X88292285Y-78178571D01*
X88335142Y-78307142D01*
X88335142Y-78392857D01*
X87735142Y-77235714D02*
X88335142Y-77235714D01*
X87392285Y-77450000D02*
X88035142Y-77664285D01*
X88035142Y-77107142D01*
G04 #@! TO.C,J3*
X72400000Y-70007142D02*
X72400000Y-70650000D01*
X72357142Y-70778571D01*
X72271428Y-70864285D01*
X72142857Y-70907142D01*
X72057142Y-70907142D01*
X72742857Y-70007142D02*
X73300000Y-70007142D01*
X73000000Y-70350000D01*
X73128571Y-70350000D01*
X73214285Y-70392857D01*
X73257142Y-70435714D01*
X73300000Y-70521428D01*
X73300000Y-70735714D01*
X73257142Y-70821428D01*
X73214285Y-70864285D01*
X73128571Y-70907142D01*
X72871428Y-70907142D01*
X72785714Y-70864285D01*
X72742857Y-70821428D01*
G04 #@! TO.C,J2*
X103300000Y-69907142D02*
X103300000Y-70550000D01*
X103257142Y-70678571D01*
X103171428Y-70764285D01*
X103042857Y-70807142D01*
X102957142Y-70807142D01*
X103685714Y-69992857D02*
X103728571Y-69950000D01*
X103814285Y-69907142D01*
X104028571Y-69907142D01*
X104114285Y-69950000D01*
X104157142Y-69992857D01*
X104200000Y-70078571D01*
X104200000Y-70164285D01*
X104157142Y-70292857D01*
X103642857Y-70807142D01*
X104200000Y-70807142D01*
G04 #@! TO.C,F5*
X47200000Y-136435714D02*
X46900000Y-136435714D01*
X46900000Y-136907142D02*
X46900000Y-136007142D01*
X47328571Y-136007142D01*
X48100000Y-136007142D02*
X47671428Y-136007142D01*
X47628571Y-136435714D01*
X47671428Y-136392857D01*
X47757142Y-136350000D01*
X47971428Y-136350000D01*
X48057142Y-136392857D01*
X48100000Y-136435714D01*
X48142857Y-136521428D01*
X48142857Y-136735714D01*
X48100000Y-136821428D01*
X48057142Y-136864285D01*
X47971428Y-136907142D01*
X47757142Y-136907142D01*
X47671428Y-136864285D01*
X47628571Y-136821428D01*
G04 #@! TO.C,F4*
X75100000Y-136435714D02*
X74800000Y-136435714D01*
X74800000Y-136907142D02*
X74800000Y-136007142D01*
X75228571Y-136007142D01*
X75957142Y-136307142D02*
X75957142Y-136907142D01*
X75742857Y-135964285D02*
X75528571Y-136607142D01*
X76085714Y-136607142D01*
G04 #@! TO.C,F3*
X103200000Y-136435714D02*
X102900000Y-136435714D01*
X102900000Y-136907142D02*
X102900000Y-136007142D01*
X103328571Y-136007142D01*
X103585714Y-136007142D02*
X104142857Y-136007142D01*
X103842857Y-136350000D01*
X103971428Y-136350000D01*
X104057142Y-136392857D01*
X104100000Y-136435714D01*
X104142857Y-136521428D01*
X104142857Y-136735714D01*
X104100000Y-136821428D01*
X104057142Y-136864285D01*
X103971428Y-136907142D01*
X103714285Y-136907142D01*
X103628571Y-136864285D01*
X103585714Y-136821428D01*
G04 #@! TO.C,F2*
X130950000Y-136435714D02*
X130650000Y-136435714D01*
X130650000Y-136907142D02*
X130650000Y-136007142D01*
X131078571Y-136007142D01*
X131378571Y-136092857D02*
X131421428Y-136050000D01*
X131507142Y-136007142D01*
X131721428Y-136007142D01*
X131807142Y-136050000D01*
X131850000Y-136092857D01*
X131892857Y-136178571D01*
X131892857Y-136264285D01*
X131850000Y-136392857D01*
X131335714Y-136907142D01*
X131892857Y-136907142D01*
G04 #@! TO.C,F1*
X158950000Y-135935714D02*
X158650000Y-135935714D01*
X158650000Y-136407142D02*
X158650000Y-135507142D01*
X159078571Y-135507142D01*
X159892857Y-136407142D02*
X159378571Y-136407142D01*
X159635714Y-136407142D02*
X159635714Y-135507142D01*
X159550000Y-135635714D01*
X159464285Y-135721428D01*
X159378571Y-135764285D01*
G04 #@! TO.C,D6*
X53407142Y-106264285D02*
X52507142Y-106264285D01*
X52507142Y-106050000D01*
X52550000Y-105921428D01*
X52635714Y-105835714D01*
X52721428Y-105792857D01*
X52892857Y-105750000D01*
X53021428Y-105750000D01*
X53192857Y-105792857D01*
X53278571Y-105835714D01*
X53364285Y-105921428D01*
X53407142Y-106050000D01*
X53407142Y-106264285D01*
X52507142Y-104978571D02*
X52507142Y-105150000D01*
X52550000Y-105235714D01*
X52592857Y-105278571D01*
X52721428Y-105364285D01*
X52892857Y-105407142D01*
X53235714Y-105407142D01*
X53321428Y-105364285D01*
X53364285Y-105321428D01*
X53407142Y-105235714D01*
X53407142Y-105064285D01*
X53364285Y-104978571D01*
X53321428Y-104935714D01*
X53235714Y-104892857D01*
X53021428Y-104892857D01*
X52935714Y-104935714D01*
X52892857Y-104978571D01*
X52850000Y-105064285D01*
X52850000Y-105235714D01*
X52892857Y-105321428D01*
X52935714Y-105364285D01*
X53021428Y-105407142D01*
G04 #@! TO.C,D5*
X81307142Y-106264285D02*
X80407142Y-106264285D01*
X80407142Y-106050000D01*
X80450000Y-105921428D01*
X80535714Y-105835714D01*
X80621428Y-105792857D01*
X80792857Y-105750000D01*
X80921428Y-105750000D01*
X81092857Y-105792857D01*
X81178571Y-105835714D01*
X81264285Y-105921428D01*
X81307142Y-106050000D01*
X81307142Y-106264285D01*
X80407142Y-104935714D02*
X80407142Y-105364285D01*
X80835714Y-105407142D01*
X80792857Y-105364285D01*
X80750000Y-105278571D01*
X80750000Y-105064285D01*
X80792857Y-104978571D01*
X80835714Y-104935714D01*
X80921428Y-104892857D01*
X81135714Y-104892857D01*
X81221428Y-104935714D01*
X81264285Y-104978571D01*
X81307142Y-105064285D01*
X81307142Y-105278571D01*
X81264285Y-105364285D01*
X81221428Y-105407142D01*
G04 #@! TO.C,D4*
X109407142Y-106264285D02*
X108507142Y-106264285D01*
X108507142Y-106050000D01*
X108550000Y-105921428D01*
X108635714Y-105835714D01*
X108721428Y-105792857D01*
X108892857Y-105750000D01*
X109021428Y-105750000D01*
X109192857Y-105792857D01*
X109278571Y-105835714D01*
X109364285Y-105921428D01*
X109407142Y-106050000D01*
X109407142Y-106264285D01*
X108807142Y-104978571D02*
X109407142Y-104978571D01*
X108464285Y-105192857D02*
X109107142Y-105407142D01*
X109107142Y-104850000D01*
G04 #@! TO.C,D3*
X137407142Y-106164285D02*
X136507142Y-106164285D01*
X136507142Y-105950000D01*
X136550000Y-105821428D01*
X136635714Y-105735714D01*
X136721428Y-105692857D01*
X136892857Y-105650000D01*
X137021428Y-105650000D01*
X137192857Y-105692857D01*
X137278571Y-105735714D01*
X137364285Y-105821428D01*
X137407142Y-105950000D01*
X137407142Y-106164285D01*
X136507142Y-105350000D02*
X136507142Y-104792857D01*
X136850000Y-105092857D01*
X136850000Y-104964285D01*
X136892857Y-104878571D01*
X136935714Y-104835714D01*
X137021428Y-104792857D01*
X137235714Y-104792857D01*
X137321428Y-104835714D01*
X137364285Y-104878571D01*
X137407142Y-104964285D01*
X137407142Y-105221428D01*
X137364285Y-105307142D01*
X137321428Y-105350000D01*
G04 #@! TO.C,D2*
X95707142Y-84264285D02*
X94807142Y-84264285D01*
X94807142Y-84050000D01*
X94850000Y-83921428D01*
X94935714Y-83835714D01*
X95021428Y-83792857D01*
X95192857Y-83750000D01*
X95321428Y-83750000D01*
X95492857Y-83792857D01*
X95578571Y-83835714D01*
X95664285Y-83921428D01*
X95707142Y-84050000D01*
X95707142Y-84264285D01*
X94892857Y-83407142D02*
X94850000Y-83364285D01*
X94807142Y-83278571D01*
X94807142Y-83064285D01*
X94850000Y-82978571D01*
X94892857Y-82935714D01*
X94978571Y-82892857D01*
X95064285Y-82892857D01*
X95192857Y-82935714D01*
X95707142Y-83450000D01*
X95707142Y-82892857D01*
G04 #@! TO.C,D1*
X104307142Y-85864285D02*
X103407142Y-85864285D01*
X103407142Y-85650000D01*
X103450000Y-85521428D01*
X103535714Y-85435714D01*
X103621428Y-85392857D01*
X103792857Y-85350000D01*
X103921428Y-85350000D01*
X104092857Y-85392857D01*
X104178571Y-85435714D01*
X104264285Y-85521428D01*
X104307142Y-85650000D01*
X104307142Y-85864285D01*
X104307142Y-84492857D02*
X104307142Y-85007142D01*
X104307142Y-84750000D02*
X103407142Y-84750000D01*
X103535714Y-84835714D01*
X103621428Y-84921428D01*
X103664285Y-85007142D01*
G04 #@! TO.C,C16*
X51321428Y-105878571D02*
X51364285Y-105921428D01*
X51407142Y-106050000D01*
X51407142Y-106135714D01*
X51364285Y-106264285D01*
X51278571Y-106350000D01*
X51192857Y-106392857D01*
X51021428Y-106435714D01*
X50892857Y-106435714D01*
X50721428Y-106392857D01*
X50635714Y-106350000D01*
X50550000Y-106264285D01*
X50507142Y-106135714D01*
X50507142Y-106050000D01*
X50550000Y-105921428D01*
X50592857Y-105878571D01*
X51407142Y-105021428D02*
X51407142Y-105535714D01*
X51407142Y-105278571D02*
X50507142Y-105278571D01*
X50635714Y-105364285D01*
X50721428Y-105450000D01*
X50764285Y-105535714D01*
X50507142Y-104250000D02*
X50507142Y-104421428D01*
X50550000Y-104507142D01*
X50592857Y-104550000D01*
X50721428Y-104635714D01*
X50892857Y-104678571D01*
X51235714Y-104678571D01*
X51321428Y-104635714D01*
X51364285Y-104592857D01*
X51407142Y-104507142D01*
X51407142Y-104335714D01*
X51364285Y-104250000D01*
X51321428Y-104207142D01*
X51235714Y-104164285D01*
X51021428Y-104164285D01*
X50935714Y-104207142D01*
X50892857Y-104250000D01*
X50850000Y-104335714D01*
X50850000Y-104507142D01*
X50892857Y-104592857D01*
X50935714Y-104635714D01*
X51021428Y-104678571D01*
G04 #@! TO.C,C15*
X79371428Y-105878571D02*
X79414285Y-105921428D01*
X79457142Y-106050000D01*
X79457142Y-106135714D01*
X79414285Y-106264285D01*
X79328571Y-106350000D01*
X79242857Y-106392857D01*
X79071428Y-106435714D01*
X78942857Y-106435714D01*
X78771428Y-106392857D01*
X78685714Y-106350000D01*
X78600000Y-106264285D01*
X78557142Y-106135714D01*
X78557142Y-106050000D01*
X78600000Y-105921428D01*
X78642857Y-105878571D01*
X79457142Y-105021428D02*
X79457142Y-105535714D01*
X79457142Y-105278571D02*
X78557142Y-105278571D01*
X78685714Y-105364285D01*
X78771428Y-105450000D01*
X78814285Y-105535714D01*
X78557142Y-104207142D02*
X78557142Y-104635714D01*
X78985714Y-104678571D01*
X78942857Y-104635714D01*
X78900000Y-104550000D01*
X78900000Y-104335714D01*
X78942857Y-104250000D01*
X78985714Y-104207142D01*
X79071428Y-104164285D01*
X79285714Y-104164285D01*
X79371428Y-104207142D01*
X79414285Y-104250000D01*
X79457142Y-104335714D01*
X79457142Y-104550000D01*
X79414285Y-104635714D01*
X79371428Y-104678571D01*
G04 #@! TO.C,C14*
X107321428Y-105778571D02*
X107364285Y-105821428D01*
X107407142Y-105950000D01*
X107407142Y-106035714D01*
X107364285Y-106164285D01*
X107278571Y-106250000D01*
X107192857Y-106292857D01*
X107021428Y-106335714D01*
X106892857Y-106335714D01*
X106721428Y-106292857D01*
X106635714Y-106250000D01*
X106550000Y-106164285D01*
X106507142Y-106035714D01*
X106507142Y-105950000D01*
X106550000Y-105821428D01*
X106592857Y-105778571D01*
X107407142Y-104921428D02*
X107407142Y-105435714D01*
X107407142Y-105178571D02*
X106507142Y-105178571D01*
X106635714Y-105264285D01*
X106721428Y-105350000D01*
X106764285Y-105435714D01*
X106807142Y-104150000D02*
X107407142Y-104150000D01*
X106464285Y-104364285D02*
X107107142Y-104578571D01*
X107107142Y-104021428D01*
G04 #@! TO.C,C13*
X135421428Y-105678571D02*
X135464285Y-105721428D01*
X135507142Y-105850000D01*
X135507142Y-105935714D01*
X135464285Y-106064285D01*
X135378571Y-106150000D01*
X135292857Y-106192857D01*
X135121428Y-106235714D01*
X134992857Y-106235714D01*
X134821428Y-106192857D01*
X134735714Y-106150000D01*
X134650000Y-106064285D01*
X134607142Y-105935714D01*
X134607142Y-105850000D01*
X134650000Y-105721428D01*
X134692857Y-105678571D01*
X135507142Y-104821428D02*
X135507142Y-105335714D01*
X135507142Y-105078571D02*
X134607142Y-105078571D01*
X134735714Y-105164285D01*
X134821428Y-105250000D01*
X134864285Y-105335714D01*
X134607142Y-104521428D02*
X134607142Y-103964285D01*
X134950000Y-104264285D01*
X134950000Y-104135714D01*
X134992857Y-104050000D01*
X135035714Y-104007142D01*
X135121428Y-103964285D01*
X135335714Y-103964285D01*
X135421428Y-104007142D01*
X135464285Y-104050000D01*
X135507142Y-104135714D01*
X135507142Y-104392857D01*
X135464285Y-104478571D01*
X135421428Y-104521428D01*
G04 #@! TO.C,C12*
X91671428Y-105251428D02*
X91628571Y-105294285D01*
X91500000Y-105337142D01*
X91414285Y-105337142D01*
X91285714Y-105294285D01*
X91200000Y-105208571D01*
X91157142Y-105122857D01*
X91114285Y-104951428D01*
X91114285Y-104822857D01*
X91157142Y-104651428D01*
X91200000Y-104565714D01*
X91285714Y-104480000D01*
X91414285Y-104437142D01*
X91500000Y-104437142D01*
X91628571Y-104480000D01*
X91671428Y-104522857D01*
X92528571Y-105337142D02*
X92014285Y-105337142D01*
X92271428Y-105337142D02*
X92271428Y-104437142D01*
X92185714Y-104565714D01*
X92100000Y-104651428D01*
X92014285Y-104694285D01*
X92871428Y-104522857D02*
X92914285Y-104480000D01*
X93000000Y-104437142D01*
X93214285Y-104437142D01*
X93300000Y-104480000D01*
X93342857Y-104522857D01*
X93385714Y-104608571D01*
X93385714Y-104694285D01*
X93342857Y-104822857D01*
X92828571Y-105337142D01*
X93385714Y-105337142D01*
G04 #@! TO.C,C11*
X101221428Y-74178571D02*
X101264285Y-74221428D01*
X101307142Y-74350000D01*
X101307142Y-74435714D01*
X101264285Y-74564285D01*
X101178571Y-74650000D01*
X101092857Y-74692857D01*
X100921428Y-74735714D01*
X100792857Y-74735714D01*
X100621428Y-74692857D01*
X100535714Y-74650000D01*
X100450000Y-74564285D01*
X100407142Y-74435714D01*
X100407142Y-74350000D01*
X100450000Y-74221428D01*
X100492857Y-74178571D01*
X101307142Y-73321428D02*
X101307142Y-73835714D01*
X101307142Y-73578571D02*
X100407142Y-73578571D01*
X100535714Y-73664285D01*
X100621428Y-73750000D01*
X100664285Y-73835714D01*
X101307142Y-72464285D02*
X101307142Y-72978571D01*
X101307142Y-72721428D02*
X100407142Y-72721428D01*
X100535714Y-72807142D01*
X100621428Y-72892857D01*
X100664285Y-72978571D01*
G04 #@! TO.C,C10*
X84921428Y-91178571D02*
X84964285Y-91221428D01*
X85007142Y-91350000D01*
X85007142Y-91435714D01*
X84964285Y-91564285D01*
X84878571Y-91650000D01*
X84792857Y-91692857D01*
X84621428Y-91735714D01*
X84492857Y-91735714D01*
X84321428Y-91692857D01*
X84235714Y-91650000D01*
X84150000Y-91564285D01*
X84107142Y-91435714D01*
X84107142Y-91350000D01*
X84150000Y-91221428D01*
X84192857Y-91178571D01*
X85007142Y-90321428D02*
X85007142Y-90835714D01*
X85007142Y-90578571D02*
X84107142Y-90578571D01*
X84235714Y-90664285D01*
X84321428Y-90750000D01*
X84364285Y-90835714D01*
X84107142Y-89764285D02*
X84107142Y-89678571D01*
X84150000Y-89592857D01*
X84192857Y-89550000D01*
X84278571Y-89507142D01*
X84450000Y-89464285D01*
X84664285Y-89464285D01*
X84835714Y-89507142D01*
X84921428Y-89550000D01*
X84964285Y-89592857D01*
X85007142Y-89678571D01*
X85007142Y-89764285D01*
X84964285Y-89850000D01*
X84921428Y-89892857D01*
X84835714Y-89935714D01*
X84664285Y-89978571D01*
X84450000Y-89978571D01*
X84278571Y-89935714D01*
X84192857Y-89892857D01*
X84150000Y-89850000D01*
X84107142Y-89764285D01*
G04 #@! TO.C,C9*
X103121428Y-74150000D02*
X103164285Y-74192857D01*
X103207142Y-74321428D01*
X103207142Y-74407142D01*
X103164285Y-74535714D01*
X103078571Y-74621428D01*
X102992857Y-74664285D01*
X102821428Y-74707142D01*
X102692857Y-74707142D01*
X102521428Y-74664285D01*
X102435714Y-74621428D01*
X102350000Y-74535714D01*
X102307142Y-74407142D01*
X102307142Y-74321428D01*
X102350000Y-74192857D01*
X102392857Y-74150000D01*
X103207142Y-73721428D02*
X103207142Y-73550000D01*
X103164285Y-73464285D01*
X103121428Y-73421428D01*
X102992857Y-73335714D01*
X102821428Y-73292857D01*
X102478571Y-73292857D01*
X102392857Y-73335714D01*
X102350000Y-73378571D01*
X102307142Y-73464285D01*
X102307142Y-73635714D01*
X102350000Y-73721428D01*
X102392857Y-73764285D01*
X102478571Y-73807142D01*
X102692857Y-73807142D01*
X102778571Y-73764285D01*
X102821428Y-73721428D01*
X102864285Y-73635714D01*
X102864285Y-73464285D01*
X102821428Y-73378571D01*
X102778571Y-73335714D01*
X102692857Y-73292857D01*
G04 #@! TO.C,C8*
X109250000Y-81421428D02*
X109207142Y-81464285D01*
X109078571Y-81507142D01*
X108992857Y-81507142D01*
X108864285Y-81464285D01*
X108778571Y-81378571D01*
X108735714Y-81292857D01*
X108692857Y-81121428D01*
X108692857Y-80992857D01*
X108735714Y-80821428D01*
X108778571Y-80735714D01*
X108864285Y-80650000D01*
X108992857Y-80607142D01*
X109078571Y-80607142D01*
X109207142Y-80650000D01*
X109250000Y-80692857D01*
X109764285Y-80992857D02*
X109678571Y-80950000D01*
X109635714Y-80907142D01*
X109592857Y-80821428D01*
X109592857Y-80778571D01*
X109635714Y-80692857D01*
X109678571Y-80650000D01*
X109764285Y-80607142D01*
X109935714Y-80607142D01*
X110021428Y-80650000D01*
X110064285Y-80692857D01*
X110107142Y-80778571D01*
X110107142Y-80821428D01*
X110064285Y-80907142D01*
X110021428Y-80950000D01*
X109935714Y-80992857D01*
X109764285Y-80992857D01*
X109678571Y-81035714D01*
X109635714Y-81078571D01*
X109592857Y-81164285D01*
X109592857Y-81335714D01*
X109635714Y-81421428D01*
X109678571Y-81464285D01*
X109764285Y-81507142D01*
X109935714Y-81507142D01*
X110021428Y-81464285D01*
X110064285Y-81421428D01*
X110107142Y-81335714D01*
X110107142Y-81164285D01*
X110064285Y-81078571D01*
X110021428Y-81035714D01*
X109935714Y-80992857D01*
G04 #@! TO.C,C7*
X109250000Y-83521428D02*
X109207142Y-83564285D01*
X109078571Y-83607142D01*
X108992857Y-83607142D01*
X108864285Y-83564285D01*
X108778571Y-83478571D01*
X108735714Y-83392857D01*
X108692857Y-83221428D01*
X108692857Y-83092857D01*
X108735714Y-82921428D01*
X108778571Y-82835714D01*
X108864285Y-82750000D01*
X108992857Y-82707142D01*
X109078571Y-82707142D01*
X109207142Y-82750000D01*
X109250000Y-82792857D01*
X109550000Y-82707142D02*
X110150000Y-82707142D01*
X109764285Y-83607142D01*
G04 #@! TO.C,C6*
X82650000Y-73321428D02*
X82607142Y-73364285D01*
X82478571Y-73407142D01*
X82392857Y-73407142D01*
X82264285Y-73364285D01*
X82178571Y-73278571D01*
X82135714Y-73192857D01*
X82092857Y-73021428D01*
X82092857Y-72892857D01*
X82135714Y-72721428D01*
X82178571Y-72635714D01*
X82264285Y-72550000D01*
X82392857Y-72507142D01*
X82478571Y-72507142D01*
X82607142Y-72550000D01*
X82650000Y-72592857D01*
X83421428Y-72507142D02*
X83250000Y-72507142D01*
X83164285Y-72550000D01*
X83121428Y-72592857D01*
X83035714Y-72721428D01*
X82992857Y-72892857D01*
X82992857Y-73235714D01*
X83035714Y-73321428D01*
X83078571Y-73364285D01*
X83164285Y-73407142D01*
X83335714Y-73407142D01*
X83421428Y-73364285D01*
X83464285Y-73321428D01*
X83507142Y-73235714D01*
X83507142Y-73021428D01*
X83464285Y-72935714D01*
X83421428Y-72892857D01*
X83335714Y-72850000D01*
X83164285Y-72850000D01*
X83078571Y-72892857D01*
X83035714Y-72935714D01*
X82992857Y-73021428D01*
G04 #@! TO.C,C5*
X99150000Y-73321428D02*
X99107142Y-73364285D01*
X98978571Y-73407142D01*
X98892857Y-73407142D01*
X98764285Y-73364285D01*
X98678571Y-73278571D01*
X98635714Y-73192857D01*
X98592857Y-73021428D01*
X98592857Y-72892857D01*
X98635714Y-72721428D01*
X98678571Y-72635714D01*
X98764285Y-72550000D01*
X98892857Y-72507142D01*
X98978571Y-72507142D01*
X99107142Y-72550000D01*
X99150000Y-72592857D01*
X99964285Y-72507142D02*
X99535714Y-72507142D01*
X99492857Y-72935714D01*
X99535714Y-72892857D01*
X99621428Y-72850000D01*
X99835714Y-72850000D01*
X99921428Y-72892857D01*
X99964285Y-72935714D01*
X100007142Y-73021428D01*
X100007142Y-73235714D01*
X99964285Y-73321428D01*
X99921428Y-73364285D01*
X99835714Y-73407142D01*
X99621428Y-73407142D01*
X99535714Y-73364285D01*
X99492857Y-73321428D01*
G04 #@! TO.C,C4*
X102221428Y-90250000D02*
X102264285Y-90292857D01*
X102307142Y-90421428D01*
X102307142Y-90507142D01*
X102264285Y-90635714D01*
X102178571Y-90721428D01*
X102092857Y-90764285D01*
X101921428Y-90807142D01*
X101792857Y-90807142D01*
X101621428Y-90764285D01*
X101535714Y-90721428D01*
X101450000Y-90635714D01*
X101407142Y-90507142D01*
X101407142Y-90421428D01*
X101450000Y-90292857D01*
X101492857Y-90250000D01*
X101707142Y-89478571D02*
X102307142Y-89478571D01*
X101364285Y-89692857D02*
X102007142Y-89907142D01*
X102007142Y-89350000D01*
G04 #@! TO.C,C3*
X48350000Y-96321428D02*
X48307142Y-96364285D01*
X48178571Y-96407142D01*
X48092857Y-96407142D01*
X47964285Y-96364285D01*
X47878571Y-96278571D01*
X47835714Y-96192857D01*
X47792857Y-96021428D01*
X47792857Y-95892857D01*
X47835714Y-95721428D01*
X47878571Y-95635714D01*
X47964285Y-95550000D01*
X48092857Y-95507142D01*
X48178571Y-95507142D01*
X48307142Y-95550000D01*
X48350000Y-95592857D01*
X48650000Y-95507142D02*
X49207142Y-95507142D01*
X48907142Y-95850000D01*
X49035714Y-95850000D01*
X49121428Y-95892857D01*
X49164285Y-95935714D01*
X49207142Y-96021428D01*
X49207142Y-96235714D01*
X49164285Y-96321428D01*
X49121428Y-96364285D01*
X49035714Y-96407142D01*
X48778571Y-96407142D01*
X48692857Y-96364285D01*
X48650000Y-96321428D01*
G04 #@! TO.C,C2*
X59100000Y-93821428D02*
X59057142Y-93864285D01*
X58928571Y-93907142D01*
X58842857Y-93907142D01*
X58714285Y-93864285D01*
X58628571Y-93778571D01*
X58585714Y-93692857D01*
X58542857Y-93521428D01*
X58542857Y-93392857D01*
X58585714Y-93221428D01*
X58628571Y-93135714D01*
X58714285Y-93050000D01*
X58842857Y-93007142D01*
X58928571Y-93007142D01*
X59057142Y-93050000D01*
X59100000Y-93092857D01*
X59442857Y-93092857D02*
X59485714Y-93050000D01*
X59571428Y-93007142D01*
X59785714Y-93007142D01*
X59871428Y-93050000D01*
X59914285Y-93092857D01*
X59957142Y-93178571D01*
X59957142Y-93264285D01*
X59914285Y-93392857D01*
X59400000Y-93907142D01*
X59957142Y-93907142D01*
G04 #@! TD*
M02*
