M48
; DRILL file {KiCad (5.1.9)-1} date 03/08/21 14:29:59
; FORMAT={-:-/ absolute / inch / decimal}
; #@! TF.CreationDate,2021-03-08T14:29:59+02:00
; #@! TF.GenerationSoftware,Kicad,Pcbnew,(5.1.9)-1
; #@! TF.FileFunction,Plated,1,2,PTH
FMAT,2
INCH
T1C0.0118
T2C0.0157
T3C0.0315
T4C0.0394
T5C0.0433
T6C0.0472
T7C0.0512
T8C0.0591
%
G90
G05
T1
X2.0157Y-3.5236
X2.0157Y-3.5551
X2.0157Y-3.5866
X2.0157Y-3.6181
X2.0374Y-2.9724
X2.0472Y-3.7362
X2.0472Y-3.7638
X2.0472Y-3.7913
X2.063Y-2.9724
X2.1063Y-2.8346
X2.1063Y-3.0118
X2.1752Y-2.7461
X2.1949Y-2.5
X2.1949Y-2.6378
X2.2047Y-3.2874
X2.2933Y-2.7756
X2.3031Y-3.7598
X2.3425Y-2.6378
X2.3524Y-3.1398
X2.3524Y-3.435
X2.3622Y-2.7461
X2.4016Y-2.7756
X2.4902Y-2.4606
X2.5Y-3.2874
X2.5551Y-2.8465
X2.6063Y-2.8465
X2.6102Y-3.0197
X2.6102Y-3.0827
X2.628Y-2.5984
X2.6339Y-2.9921
X2.6339Y-3.0512
X2.687Y-3.4744
X2.7067Y-2.4606
X2.7283Y-2.7402
X2.7559Y-2.5591
X2.815Y-2.7126
X2.8782Y-2.9904
X2.9034Y-3.0213
X2.9035Y-3.061
X2.9429Y-3.0827
X2.9823Y-3.4252
X3.0866Y-3.4449
X3.122Y-3.4764
X3.1594Y-3.4252
X3.1594Y-3.4941
X3.189Y-3.5335
X3.189Y-3.9862
X3.189Y-4.1024
X3.2677Y-2.7559
X3.3268Y-3.3661
X3.4547Y-3.8583
X3.5236Y-3.7894
X3.5335Y-3.9764
X3.563Y-3.7795
X3.5728Y-3.9764
X3.6122Y-3.9764
X3.622Y-3.5728
X3.622Y-3.6102
X3.6417Y-3.7992
X3.6909Y-3.9764
X3.7008Y-3.6024
X3.7441Y-3.5433
X3.8189Y-3.1102
X3.8681Y-3.9862
X3.9213Y-3.0906
X3.9528Y-3.0906
X3.9567Y-2.8051
X3.9764Y-3.9862
X3.9823Y-3.0906
X4.0118Y-3.0906
X4.0413Y-3.0906
X4.0709Y-3.0906
X4.1043Y-3.1594
X4.1043Y-3.189
X4.1043Y-3.2185
X4.1043Y-3.248
X4.2913Y-4.1339
X4.3012Y-3.6713
X4.3012Y-3.7008
X4.3012Y-3.7303
X4.3012Y-3.7598
X4.3012Y-3.7894
X4.3307Y-3.6713
X4.3307Y-3.7008
X4.3307Y-3.7303
X4.3307Y-3.7598
X4.3307Y-3.7894
X4.3307Y-4.0453
T2
X2.0079Y-4.1831
X3.1102Y-4.1732
X3.3661Y-2.874
X3.3661Y-2.9528
X3.5433Y-4.065
X3.7402Y-4.124
X3.7423Y-3.7559
X3.7423Y-3.7896
X4.2126Y-4.1732
X5.315Y-4.1732
T3
X5.1969Y-3.8386
X5.4921Y-3.9252
T4
X2.4429Y-3.7795
X2.5429Y-3.7795
X2.6429Y-3.7795
X2.7429Y-3.7795
X2.8429Y-3.7795
X2.9429Y-3.7795
X3.07Y-3.061
X3.07Y-3.21
X3.17Y-3.061
X3.17Y-3.21
X3.27Y-3.061
X3.27Y-3.21
X3.37Y-3.061
X3.37Y-3.21
X3.47Y-3.21
X3.57Y-3.21
T5
X2.9528Y-2.5591
X3.1528Y-2.5591
X3.3528Y-2.5591
X3.6024Y-2.5591
X3.8024Y-2.5591
X4.0024Y-2.5591
T6
X4.5669Y-2.7362
X4.5669Y-2.8937
X4.5669Y-3.0512
X4.5669Y-3.2087
X4.5669Y-3.3661
X6.1614Y-2.5787
X6.1614Y-3.0512
X6.1614Y-3.5236
T7
X2.0472Y-4.4882
X2.0472Y-4.9685
X2.0803Y-5.4528
X2.2803Y-5.4528
X2.2835Y-4.4094
X2.4803Y-5.4528
X2.5197Y-4.4882
X2.5197Y-4.9685
X3.1496Y-4.4882
X3.1496Y-4.9685
X3.1827Y-5.4528
X3.3827Y-5.4528
X3.3858Y-4.4094
X3.5827Y-5.4528
X3.622Y-4.4882
X3.622Y-4.9685
X4.252Y-4.4882
X4.252Y-4.9685
X4.2882Y-5.4528
X4.4882Y-4.4094
X4.4882Y-5.4528
X4.6882Y-5.4528
X4.7244Y-4.4882
X4.7244Y-4.9685
X5.3543Y-4.4882
X5.3543Y-4.9685
X5.3874Y-5.4528
X5.5874Y-5.4528
X5.5906Y-4.4094
X5.7874Y-5.4528
X5.8268Y-3.937
X5.8268Y-4.137
X5.8268Y-4.4882
X5.8268Y-4.9685
T8
X1.7323Y-4.4252
X1.7323Y-5.315
X2.8346Y-4.4252
X2.8346Y-5.315
X3.937Y-4.4252
X3.937Y-5.315
X5.0394Y-4.4252
X5.0394Y-5.315
X6.1417Y-4.4094
X6.1417Y-5.2992
T0
M30
